<?xml version="1.0" encoding="UTF-8" standalone="no"?>
<!DOCTYPE svg PUBLIC "-//W3C//DTD SVG 1.1//EN"
 "http://www.w3.org/Graphics/SVG/1.1/DTD/svg11.dtd">
<!-- Generated by graphviz version 2.47.3 (20210619.1520)
 -->
<!-- Title: dependencies Pages: 1 -->
<svg width="1221pt" height="247pt"
 viewBox="0.00 0.00 1221.00 246.80" xmlns="http://www.w3.org/2000/svg" xmlns:xlink="http://www.w3.org/1999/xlink">
<g id="graph0" class="graph" transform="scale(1 1) rotate(0) translate(4 242.8)">
<title>dependencies</title>
<polygon fill="white" stroke="transparent" points="-4,4 -4,-242.8 1217,-242.8 1217,4 -4,4"/>
<text text-anchor="middle" x="606.5" y="-8.2" font-family="sans-serif" font-size="14.00">dependencies</text>
<g id="clust1" class="cluster">
<title>cluster_SharedModule</title>
<polygon fill="none" stroke="black" stroke-dasharray="1,5" points="8,-32.8 8,-230.8 1205,-230.8 1205,-32.8 8,-32.8"/>
</g>
<g id="clust12" class="cluster">
<title>cluster_SharedModule_exports</title>
<polygon fill="none" stroke="black" points="16,-170.8 16,-222.8 1197,-222.8 1197,-170.8 16,-170.8"/>
</g>
<g id="clust2" class="cluster">
<title>cluster_SharedModule_declarations</title>
<polygon fill="none" stroke="black" points="32,-40.8 32,-92.8 1186,-92.8 1186,-40.8 32,-40.8"/>
</g>
<!-- FooterComponent -->
<g id="node1" class="node">
<title>FooterComponent</title>
<polygon fill="#ffffb3" stroke="black" points="1177.88,-84.8 1060.12,-84.8 1060.12,-48.8 1177.88,-48.8 1177.88,-84.8"/>
<text text-anchor="middle" x="1119" y="-62.6" font-family="Times,serif" font-size="14.00">FooterComponent</text>
</g>
<!-- SharedModule -->
<g id="node9" class="node">
<title>SharedModule</title>
<polygon fill="#8dd3c7" stroke="black" points="552.42,-149.8 549.42,-153.8 528.42,-153.8 525.42,-149.8 453.58,-149.8 453.58,-113.8 552.42,-113.8 552.42,-149.8"/>
<text text-anchor="middle" x="503" y="-127.6" font-family="Times,serif" font-size="14.00">SharedModule</text>
</g>
<!-- FooterComponent&#45;&gt;SharedModule -->
<g id="edge1" class="edge">
<title>FooterComponent&#45;&gt;SharedModule</title>
<path fill="none" stroke="black" d="M1063.68,-85.02C1063.68,-103.63 1063.68,-129.8 1063.68,-129.8 1063.68,-129.8 562.27,-129.8 562.27,-129.8"/>
<polygon fill="black" stroke="black" points="562.27,-126.3 552.27,-129.8 562.27,-133.3 562.27,-126.3"/>
</g>
<!-- HomenavbarComponent -->
<g id="node2" class="node">
<title>HomenavbarComponent</title>
<polygon fill="#ffffb3" stroke="black" points="1041.63,-84.8 888.37,-84.8 888.37,-48.8 1041.63,-48.8 1041.63,-84.8"/>
<text text-anchor="middle" x="965" y="-62.6" font-family="Times,serif" font-size="14.00">HomenavbarComponent</text>
</g>
<!-- HomenavbarComponent&#45;&gt;SharedModule -->
<g id="edge2" class="edge">
<title>HomenavbarComponent&#45;&gt;SharedModule</title>
<path fill="none" stroke="black" d="M992.02,-84.82C992.02,-102.17 992.02,-125.8 992.02,-125.8 992.02,-125.8 562.58,-125.8 562.58,-125.8"/>
<polygon fill="black" stroke="black" points="562.58,-122.3 552.58,-125.8 562.58,-129.3 562.58,-122.3"/>
</g>
<!-- LoaderComponent -->
<g id="node3" class="node">
<title>LoaderComponent</title>
<polygon fill="#ffffb3" stroke="black" points="870.47,-84.8 749.53,-84.8 749.53,-48.8 870.47,-48.8 870.47,-84.8"/>
<text text-anchor="middle" x="810" y="-62.6" font-family="Times,serif" font-size="14.00">LoaderComponent</text>
</g>
<!-- LoaderComponent&#45;&gt;SharedModule -->
<g id="edge3" class="edge">
<title>LoaderComponent&#45;&gt;SharedModule</title>
<path fill="none" stroke="black" d="M830.25,-84.81C830.25,-100.85 830.25,-121.8 830.25,-121.8 830.25,-121.8 562.35,-121.8 562.35,-121.8"/>
<polygon fill="black" stroke="black" points="562.35,-118.3 552.35,-121.8 562.35,-125.3 562.35,-118.3"/>
</g>
<!-- NoRecordComponent -->
<g id="node4" class="node">
<title>NoRecordComponent</title>
<polygon fill="#ffffb3" stroke="black" points="731.37,-84.8 592.63,-84.8 592.63,-48.8 731.37,-48.8 731.37,-84.8"/>
<text text-anchor="middle" x="662" y="-62.6" font-family="Times,serif" font-size="14.00">NoRecordComponent</text>
</g>
<!-- NoRecordComponent&#45;&gt;SharedModule -->
<g id="edge4" class="edge">
<title>NoRecordComponent&#45;&gt;SharedModule</title>
<path fill="none" stroke="black" d="M638.86,-84.92C638.86,-99.58 638.86,-117.8 638.86,-117.8 638.86,-117.8 562.43,-117.8 562.43,-117.8"/>
<polygon fill="black" stroke="black" points="562.43,-114.3 552.43,-117.8 562.43,-121.3 562.43,-114.3"/>
</g>
<!-- NotificationsComponent -->
<g id="node5" class="node">
<title>NotificationsComponent</title>
<polygon fill="#ffffb3" stroke="black" points="574.43,-84.8 419.57,-84.8 419.57,-48.8 574.43,-48.8 574.43,-84.8"/>
<text text-anchor="middle" x="497" y="-62.6" font-family="Times,serif" font-size="14.00">NotificationsComponent</text>
</g>
<!-- NotificationsComponent&#45;&gt;SharedModule -->
<g id="edge5" class="edge">
<title>NotificationsComponent&#45;&gt;SharedModule</title>
<path fill="none" stroke="black" d="M503,-84.91C503,-84.91 503,-103.79 503,-103.79"/>
<polygon fill="black" stroke="black" points="499.5,-103.79 503,-113.79 506.5,-103.79 499.5,-103.79"/>
</g>
<!-- TableSearchPipe -->
<g id="node6" class="node">
<title>TableSearchPipe</title>
<polygon fill="#ffffb3" stroke="black" points="401.35,-84.8 290.65,-84.8 290.65,-48.8 401.35,-48.8 401.35,-84.8"/>
<text text-anchor="middle" x="346" y="-62.6" font-family="Times,serif" font-size="14.00">TableSearchPipe</text>
</g>
<!-- TableSearchPipe&#45;&gt;SharedModule -->
<g id="edge6" class="edge">
<title>TableSearchPipe&#45;&gt;SharedModule</title>
<path fill="none" stroke="black" d="M360.97,-85.04C360.97,-100.37 360.97,-119.8 360.97,-119.8 360.97,-119.8 443.72,-119.8 443.72,-119.8"/>
<polygon fill="black" stroke="black" points="443.73,-123.3 453.72,-119.8 443.72,-116.3 443.73,-123.3"/>
</g>
<!-- TrustedHtmlPipe -->
<g id="node7" class="node">
<title>TrustedHtmlPipe</title>
<polygon fill="#ffffb3" stroke="black" points="272.43,-84.8 159.57,-84.8 159.57,-48.8 272.43,-48.8 272.43,-84.8"/>
<text text-anchor="middle" x="216" y="-62.6" font-family="Times,serif" font-size="14.00">TrustedHtmlPipe</text>
</g>
<!-- TrustedHtmlPipe&#45;&gt;SharedModule -->
<g id="edge7" class="edge">
<title>TrustedHtmlPipe&#45;&gt;SharedModule</title>
<path fill="none" stroke="black" d="M268.09,-84.83C268.09,-101.86 268.09,-124.8 268.09,-124.8 268.09,-124.8 443.76,-124.8 443.76,-124.8"/>
<polygon fill="black" stroke="black" points="443.76,-128.3 453.76,-124.8 443.76,-121.3 443.76,-128.3"/>
</g>
<!-- TrustedUrlPipe -->
<g id="node8" class="node">
<title>TrustedUrlPipe</title>
<polygon fill="#ffffb3" stroke="black" points="142.31,-84.8 39.69,-84.8 39.69,-48.8 142.31,-48.8 142.31,-84.8"/>
<text text-anchor="middle" x="91" y="-62.6" font-family="Times,serif" font-size="14.00">TrustedUrlPipe</text>
</g>
<!-- TrustedUrlPipe&#45;&gt;SharedModule -->
<g id="edge8" class="edge">
<title>TrustedUrlPipe&#45;&gt;SharedModule</title>
<path fill="none" stroke="black" d="M136.03,-85.02C136.03,-103.63 136.03,-129.8 136.03,-129.8 136.03,-129.8 443.51,-129.8 443.51,-129.8"/>
<polygon fill="black" stroke="black" points="443.51,-133.3 453.51,-129.8 443.51,-126.3 443.51,-133.3"/>
</g>
<!-- FooterComponent  -->
<g id="node10" class="node">
<title>FooterComponent </title>
<polygon fill="#fb8072" stroke="black" points="1188.88,-214.8 1067.12,-214.8 1067.12,-178.8 1188.88,-178.8 1188.88,-214.8"/>
<text text-anchor="middle" x="1128" y="-192.6" font-family="Times,serif" font-size="14.00">FooterComponent </text>
</g>
<!-- SharedModule&#45;&gt;FooterComponent  -->
<g id="edge9" class="edge">
<title>SharedModule&#45;&gt;FooterComponent </title>
<path fill="none" stroke="black" stroke-dasharray="5,2" d="M552.4,-133.8C699.19,-133.8 1122.62,-133.8 1122.62,-133.8 1122.62,-133.8 1122.62,-168.58 1122.62,-168.58"/>
<polygon fill="black" stroke="black" points="1119.13,-168.58 1122.62,-178.58 1126.13,-168.58 1119.13,-168.58"/>
</g>
<!-- HomenavbarComponent  -->
<g id="node11" class="node">
<title>HomenavbarComponent </title>
<polygon fill="#fb8072" stroke="black" points="1049.63,-214.8 892.37,-214.8 892.37,-178.8 1049.63,-178.8 1049.63,-214.8"/>
<text text-anchor="middle" x="971" y="-192.6" font-family="Times,serif" font-size="14.00">HomenavbarComponent </text>
</g>
<!-- SharedModule&#45;&gt;HomenavbarComponent  -->
<g id="edge10" class="edge">
<title>SharedModule&#45;&gt;HomenavbarComponent </title>
<path fill="none" stroke="black" stroke-dasharray="5,2" d="M552.53,-137.8C667.4,-137.8 942.23,-137.8 942.23,-137.8 942.23,-137.8 942.23,-168.78 942.23,-168.78"/>
<polygon fill="black" stroke="black" points="938.73,-168.78 942.23,-178.78 945.73,-168.78 938.73,-168.78"/>
</g>
<!-- LoaderComponent  -->
<g id="node12" class="node">
<title>LoaderComponent </title>
<polygon fill="#fb8072" stroke="black" points="874.48,-214.8 749.52,-214.8 749.52,-178.8 874.48,-178.8 874.48,-214.8"/>
<text text-anchor="middle" x="812" y="-192.6" font-family="Times,serif" font-size="14.00">LoaderComponent </text>
</g>
<!-- SharedModule&#45;&gt;LoaderComponent  -->
<g id="edge11" class="edge">
<title>SharedModule&#45;&gt;LoaderComponent </title>
<path fill="none" stroke="black" stroke-dasharray="5,2" d="M552.34,-141.8C634.4,-141.8 790,-141.8 790,-141.8 790,-141.8 790,-168.79 790,-168.79"/>
<polygon fill="black" stroke="black" points="786.5,-168.79 790,-178.79 793.5,-168.79 786.5,-168.79"/>
</g>
<!-- NoRecordComponent  -->
<g id="node13" class="node">
<title>NoRecordComponent </title>
<polygon fill="#fb8072" stroke="black" points="732.37,-214.8 589.63,-214.8 589.63,-178.8 732.37,-178.8 732.37,-214.8"/>
<text text-anchor="middle" x="661" y="-192.6" font-family="Times,serif" font-size="14.00">NoRecordComponent </text>
</g>
<!-- SharedModule&#45;&gt;NoRecordComponent  -->
<g id="edge12" class="edge">
<title>SharedModule&#45;&gt;NoRecordComponent </title>
<path fill="none" stroke="black" stroke-dasharray="5,2" d="M552.29,-145.8C606.23,-145.8 685.14,-145.8 685.14,-145.8 685.14,-145.8 685.14,-168.68 685.14,-168.68"/>
<polygon fill="black" stroke="black" points="681.64,-168.68 685.14,-178.68 688.64,-168.68 681.64,-168.68"/>
</g>
<!-- NotificationsComponent  -->
<g id="node14" class="node">
<title>NotificationsComponent </title>
<polygon fill="#fb8072" stroke="black" points="571.93,-214.8 414.07,-214.8 414.07,-178.8 571.93,-178.8 571.93,-214.8"/>
<text text-anchor="middle" x="493" y="-192.6" font-family="Times,serif" font-size="14.00">NotificationsComponent </text>
</g>
<!-- SharedModule&#45;&gt;NotificationsComponent  -->
<g id="edge13" class="edge">
<title>SharedModule&#45;&gt;NotificationsComponent </title>
<path fill="none" stroke="black" stroke-dasharray="5,2" d="M503,-149.91C503,-149.91 503,-168.79 503,-168.79"/>
<polygon fill="black" stroke="black" points="499.5,-168.79 503,-178.79 506.5,-168.79 499.5,-168.79"/>
</g>
<!-- TableSearchPipe  -->
<g id="node15" class="node">
<title>TableSearchPipe </title>
<polygon fill="#fb8072" stroke="black" points="396.35,-214.8 281.65,-214.8 281.65,-178.8 396.35,-178.8 396.35,-214.8"/>
<text text-anchor="middle" x="339" y="-192.6" font-family="Times,serif" font-size="14.00">TableSearchPipe </text>
</g>
<!-- SharedModule&#45;&gt;TableSearchPipe  -->
<g id="edge14" class="edge">
<title>SharedModule&#45;&gt;TableSearchPipe </title>
<path fill="none" stroke="black" stroke-dasharray="5,2" d="M453.63,-144.8C401.19,-144.8 325.78,-144.8 325.78,-144.8 325.78,-144.8 325.78,-168.61 325.78,-168.61"/>
<polygon fill="black" stroke="black" points="322.28,-168.61 325.78,-178.61 329.28,-168.61 322.28,-168.61"/>
</g>
<!-- TrustedHtmlPipe  -->
<g id="node16" class="node">
<title>TrustedHtmlPipe </title>
<polygon fill="#fb8072" stroke="black" points="263.93,-214.8 148.07,-214.8 148.07,-178.8 263.93,-178.8 263.93,-214.8"/>
<text text-anchor="middle" x="206" y="-192.6" font-family="Times,serif" font-size="14.00">TrustedHtmlPipe </text>
</g>
<!-- SharedModule&#45;&gt;TrustedHtmlPipe  -->
<g id="edge15" class="edge">
<title>SharedModule&#45;&gt;TrustedHtmlPipe </title>
<path fill="none" stroke="black" stroke-dasharray="5,2" d="M453.61,-139.8C370.56,-139.8 211.88,-139.8 211.88,-139.8 211.88,-139.8 211.88,-168.76 211.88,-168.76"/>
<polygon fill="black" stroke="black" points="208.38,-168.76 211.88,-178.76 215.38,-168.76 208.38,-168.76"/>
</g>
<!-- TrustedUrlPipe  -->
<g id="node17" class="node">
<title>TrustedUrlPipe </title>
<polygon fill="#fb8072" stroke="black" points="129.81,-214.8 24.19,-214.8 24.19,-178.8 129.81,-178.8 129.81,-214.8"/>
<text text-anchor="middle" x="77" y="-192.6" font-family="Times,serif" font-size="14.00">TrustedUrlPipe </text>
</g>
<!-- SharedModule&#45;&gt;TrustedUrlPipe  -->
<g id="edge16" class="edge">
<title>SharedModule&#45;&gt;TrustedUrlPipe </title>
<path fill="none" stroke="black" stroke-dasharray="5,2" d="M453.39,-134.8C342.64,-134.8 84.88,-134.8 84.88,-134.8 84.88,-134.8 84.88,-168.53 84.88,-168.53"/>
<polygon fill="black" stroke="black" points="81.38,-168.53 84.88,-178.53 88.38,-168.53 81.38,-168.53"/>
</g>
</g>
</svg>
