<?xml version="1.0" encoding="UTF-8" standalone="no"?>
<!DOCTYPE svg PUBLIC "-//W3C//DTD SVG 1.1//EN"
 "http://www.w3.org/Graphics/SVG/1.1/DTD/svg11.dtd">
<!-- Generated by graphviz version 2.47.3 (20210619.1520)
 -->
<!-- Title: dependencies Pages: 1 -->
<svg width="338pt" height="174pt"
 viewBox="0.00 0.00 338.00 173.80" xmlns="http://www.w3.org/2000/svg" xmlns:xlink="http://www.w3.org/1999/xlink">
<g id="graph0" class="graph" transform="scale(1 1) rotate(0) translate(4 169.8)">
<title>dependencies</title>
<polygon fill="white" stroke="transparent" points="-4,4 -4,-169.8 334,-169.8 334,4 -4,4"/>
<text text-anchor="middle" x="165" y="-8.2" font-family="sans-serif" font-size="14.00">dependencies</text>
<g id="clust1" class="cluster">
<title>cluster_ParentModule</title>
<polygon fill="none" stroke="black" stroke-dasharray="1,5" points="8,-32.8 8,-157.8 322,-157.8 322,-32.8 8,-32.8"/>
</g>
<g id="clust4" class="cluster">
<title>cluster_ParentModule_imports</title>
<polygon fill="none" stroke="black" points="158,-40.8 158,-92.8 314,-92.8 314,-40.8 158,-40.8"/>
</g>
<g id="clust2" class="cluster">
<title>cluster_ParentModule_declarations</title>
<polygon fill="none" stroke="black" points="16,-40.8 16,-92.8 150,-92.8 150,-40.8 16,-40.8"/>
</g>
<!-- ParentComponent -->
<g id="node1" class="node">
<title>ParentComponent</title>
<polygon fill="#ffffb3" stroke="black" points="141.6,-84.8 24.4,-84.8 24.4,-48.8 141.6,-48.8 141.6,-84.8"/>
<text text-anchor="middle" x="83" y="-62.6" font-family="Times,serif" font-size="14.00">ParentComponent</text>
</g>
<!-- ParentModule -->
<g id="node2" class="node">
<title>ParentModule</title>
<polygon fill="#8dd3c7" stroke="black" points="206.81,-149.8 203.81,-153.8 182.81,-153.8 179.81,-149.8 111.19,-149.8 111.19,-113.8 206.81,-113.8 206.81,-149.8"/>
<text text-anchor="middle" x="159" y="-127.6" font-family="Times,serif" font-size="14.00">ParentModule</text>
</g>
<!-- ParentComponent&#45;&gt;ParentModule -->
<g id="edge1" class="edge">
<title>ParentComponent&#45;&gt;ParentModule</title>
<path fill="none" stroke="black" d="M126.45,-84.91C126.45,-84.91 126.45,-103.79 126.45,-103.79"/>
<polygon fill="black" stroke="black" points="122.95,-103.79 126.45,-113.79 129.95,-103.79 122.95,-103.79"/>
</g>
<!-- ParentRoutingModule -->
<g id="node3" class="node">
<title>ParentRoutingModule</title>
<polygon fill="#8dd3c7" stroke="black" points="306.43,-84.8 303.43,-88.8 282.43,-88.8 279.43,-84.8 165.57,-84.8 165.57,-48.8 306.43,-48.8 306.43,-84.8"/>
<text text-anchor="middle" x="236" y="-62.6" font-family="Times,serif" font-size="14.00">ParentRoutingModule</text>
</g>
<!-- ParentRoutingModule&#45;&gt;ParentModule -->
<g id="edge2" class="edge">
<title>ParentRoutingModule&#45;&gt;ParentModule</title>
<path fill="none" stroke="black" d="M186.22,-84.91C186.22,-84.91 186.22,-103.79 186.22,-103.79"/>
<polygon fill="black" stroke="black" points="182.72,-103.79 186.22,-113.79 189.72,-103.79 182.72,-103.79"/>
</g>
</g>
</svg>
