<?xml version="1.0" encoding="UTF-8" standalone="no"?>
<!DOCTYPE svg PUBLIC "-//W3C//DTD SVG 1.1//EN"
 "http://www.w3.org/Graphics/SVG/1.1/DTD/svg11.dtd">
<!-- Generated by graphviz version 2.47.3 (20210619.1520)
 -->
<!-- Title: dependencies Pages: 1 -->
<svg width="2647pt" height="174pt"
 viewBox="0.00 0.00 2647.00 173.80" xmlns="http://www.w3.org/2000/svg" xmlns:xlink="http://www.w3.org/1999/xlink">
<g id="graph0" class="graph" transform="scale(1 1) rotate(0) translate(4 169.8)">
<title>dependencies</title>
<polygon fill="white" stroke="transparent" points="-4,4 -4,-169.8 2643,-169.8 2643,4 -4,4"/>
<text text-anchor="middle" x="1319.5" y="-8.2" font-family="sans-serif" font-size="14.00">dependencies</text>
<g id="clust1" class="cluster">
<title>cluster_SettingsModule</title>
<polygon fill="none" stroke="black" stroke-dasharray="1,5" points="8,-32.8 8,-157.8 2631,-157.8 2631,-32.8 8,-32.8"/>
</g>
<g id="clust15" class="cluster">
<title>cluster_SettingsModule_imports</title>
<polygon fill="none" stroke="black" points="2341,-40.8 2341,-92.8 2623,-92.8 2623,-40.8 2341,-40.8"/>
</g>
<g id="clust2" class="cluster">
<title>cluster_SettingsModule_declarations</title>
<polygon fill="none" stroke="black" points="16,-40.8 16,-92.8 2333,-92.8 2333,-40.8 16,-40.8"/>
</g>
<!-- AccountSettingsComponent -->
<g id="node1" class="node">
<title>AccountSettingsComponent</title>
<polygon fill="#ffffb3" stroke="black" points="2324.87,-84.8 2151.13,-84.8 2151.13,-48.8 2324.87,-48.8 2324.87,-84.8"/>
<text text-anchor="middle" x="2238" y="-62.6" font-family="Times,serif" font-size="14.00">AccountSettingsComponent</text>
</g>
<!-- SettingsModule -->
<g id="node13" class="node">
<title>SettingsModule</title>
<polygon fill="#8dd3c7" stroke="black" points="1434.16,-149.8 1431.16,-153.8 1410.16,-153.8 1407.16,-149.8 1329.84,-149.8 1329.84,-113.8 1434.16,-113.8 1434.16,-149.8"/>
<text text-anchor="middle" x="1382" y="-127.6" font-family="Times,serif" font-size="14.00">SettingsModule</text>
</g>
<!-- AccountSettingsComponent&#45;&gt;SettingsModule -->
<g id="edge1" class="edge">
<title>AccountSettingsComponent&#45;&gt;SettingsModule</title>
<path fill="none" stroke="black" d="M2238,-85.02C2238,-105.17 2238,-134.8 2238,-134.8 2238,-134.8 1444.26,-134.8 1444.26,-134.8"/>
<polygon fill="black" stroke="black" points="1444.26,-131.3 1434.26,-134.8 1444.26,-138.3 1444.26,-131.3"/>
</g>
<!-- FacilitySettingsComponent -->
<g id="node2" class="node">
<title>FacilitySettingsComponent</title>
<polygon fill="#ffffb3" stroke="black" points="2132.72,-84.8 1963.28,-84.8 1963.28,-48.8 2132.72,-48.8 2132.72,-84.8"/>
<text text-anchor="middle" x="2048" y="-62.6" font-family="Times,serif" font-size="14.00">FacilitySettingsComponent</text>
</g>
<!-- FacilitySettingsComponent&#45;&gt;SettingsModule -->
<g id="edge2" class="edge">
<title>FacilitySettingsComponent&#45;&gt;SettingsModule</title>
<path fill="none" stroke="black" d="M2048,-85.02C2048,-103.63 2048,-129.8 2048,-129.8 2048,-129.8 1444.26,-129.8 1444.26,-129.8"/>
<polygon fill="black" stroke="black" points="1444.26,-126.3 1434.26,-129.8 1444.26,-133.3 1444.26,-126.3"/>
</g>
<!-- FinanceSettingsComponent -->
<g id="node3" class="node">
<title>FinanceSettingsComponent</title>
<polygon fill="#ffffb3" stroke="black" points="1945.26,-84.8 1774.74,-84.8 1774.74,-48.8 1945.26,-48.8 1945.26,-84.8"/>
<text text-anchor="middle" x="1860" y="-62.6" font-family="Times,serif" font-size="14.00">FinanceSettingsComponent</text>
</g>
<!-- FinanceSettingsComponent&#45;&gt;SettingsModule -->
<g id="edge3" class="edge">
<title>FinanceSettingsComponent&#45;&gt;SettingsModule</title>
<path fill="none" stroke="black" d="M1860,-84.83C1860,-101.86 1860,-124.8 1860,-124.8 1860,-124.8 1444.52,-124.8 1444.52,-124.8"/>
<polygon fill="black" stroke="black" points="1444.52,-121.3 1434.52,-124.8 1444.52,-128.3 1444.52,-121.3"/>
</g>
<!-- NewRoleRecordComponent -->
<g id="node4" class="node">
<title>NewRoleRecordComponent</title>
<polygon fill="#ffffb3" stroke="black" points="1756.13,-84.8 1581.87,-84.8 1581.87,-48.8 1756.13,-48.8 1756.13,-84.8"/>
<text text-anchor="middle" x="1669" y="-62.6" font-family="Times,serif" font-size="14.00">NewRoleRecordComponent</text>
</g>
<!-- NewRoleRecordComponent&#45;&gt;SettingsModule -->
<g id="edge4" class="edge">
<title>NewRoleRecordComponent&#45;&gt;SettingsModule</title>
<path fill="none" stroke="black" d="M1669,-85.04C1669,-100.37 1669,-119.8 1669,-119.8 1669,-119.8 1444.31,-119.8 1444.31,-119.8"/>
<polygon fill="black" stroke="black" points="1444.31,-116.3 1434.31,-119.8 1444.31,-123.3 1444.31,-116.3"/>
</g>
<!-- PayrollSetttingsComponent -->
<g id="node5" class="node">
<title>PayrollSetttingsComponent</title>
<polygon fill="#ffffb3" stroke="black" points="1563.28,-84.8 1392.72,-84.8 1392.72,-48.8 1563.28,-48.8 1563.28,-84.8"/>
<text text-anchor="middle" x="1478" y="-62.6" font-family="Times,serif" font-size="14.00">PayrollSetttingsComponent</text>
</g>
<!-- PayrollSetttingsComponent&#45;&gt;SettingsModule -->
<g id="edge5" class="edge">
<title>PayrollSetttingsComponent&#45;&gt;SettingsModule</title>
<path fill="none" stroke="black" d="M1413.47,-84.91C1413.47,-84.91 1413.47,-103.79 1413.47,-103.79"/>
<polygon fill="black" stroke="black" points="1409.97,-103.79 1413.47,-113.79 1416.97,-103.79 1409.97,-103.79"/>
</g>
<!-- PersonalSettingsComponent -->
<g id="node6" class="node">
<title>PersonalSettingsComponent</title>
<polygon fill="#ffffb3" stroke="black" points="1374.15,-84.8 1199.85,-84.8 1199.85,-48.8 1374.15,-48.8 1374.15,-84.8"/>
<text text-anchor="middle" x="1287" y="-62.6" font-family="Times,serif" font-size="14.00">PersonalSettingsComponent</text>
</g>
<!-- PersonalSettingsComponent&#45;&gt;SettingsModule -->
<g id="edge6" class="edge">
<title>PersonalSettingsComponent&#45;&gt;SettingsModule</title>
<path fill="none" stroke="black" d="M1352,-84.91C1352,-84.91 1352,-103.79 1352,-103.79"/>
<polygon fill="black" stroke="black" points="1348.5,-103.79 1352,-113.79 1355.5,-103.79 1348.5,-103.79"/>
</g>
<!-- PromotionSettingsComponent -->
<g id="node7" class="node">
<title>PromotionSettingsComponent</title>
<polygon fill="#ffffb3" stroke="black" points="1181.56,-84.8 996.44,-84.8 996.44,-48.8 1181.56,-48.8 1181.56,-84.8"/>
<text text-anchor="middle" x="1089" y="-62.6" font-family="Times,serif" font-size="14.00">PromotionSettingsComponent</text>
</g>
<!-- PromotionSettingsComponent&#45;&gt;SettingsModule -->
<g id="edge7" class="edge">
<title>PromotionSettingsComponent&#45;&gt;SettingsModule</title>
<path fill="none" stroke="black" d="M1089,-85.04C1089,-100.37 1089,-119.8 1089,-119.8 1089,-119.8 1319.62,-119.8 1319.62,-119.8"/>
<polygon fill="black" stroke="black" points="1319.62,-123.3 1329.62,-119.8 1319.62,-116.3 1319.62,-123.3"/>
</g>
<!-- ResultSettingsComponent -->
<g id="node8" class="node">
<title>ResultSettingsComponent</title>
<polygon fill="#ffffb3" stroke="black" points="978.22,-84.8 815.78,-84.8 815.78,-48.8 978.22,-48.8 978.22,-84.8"/>
<text text-anchor="middle" x="897" y="-62.6" font-family="Times,serif" font-size="14.00">ResultSettingsComponent</text>
</g>
<!-- ResultSettingsComponent&#45;&gt;SettingsModule -->
<g id="edge8" class="edge">
<title>ResultSettingsComponent&#45;&gt;SettingsModule</title>
<path fill="none" stroke="black" d="M897,-84.83C897,-101.86 897,-124.8 897,-124.8 897,-124.8 1319.64,-124.8 1319.64,-124.8"/>
<polygon fill="black" stroke="black" points="1319.64,-128.3 1329.64,-124.8 1319.64,-121.3 1319.64,-128.3"/>
</g>
<!-- SchoolManagerComponent -->
<g id="node9" class="node">
<title>SchoolManagerComponent</title>
<polygon fill="#ffffb3" stroke="black" points="797.97,-84.8 628.03,-84.8 628.03,-48.8 797.97,-48.8 797.97,-84.8"/>
<text text-anchor="middle" x="713" y="-62.6" font-family="Times,serif" font-size="14.00">SchoolManagerComponent</text>
</g>
<!-- SchoolManagerComponent&#45;&gt;SettingsModule -->
<g id="edge9" class="edge">
<title>SchoolManagerComponent&#45;&gt;SettingsModule</title>
<path fill="none" stroke="black" d="M713,-85.02C713,-103.63 713,-129.8 713,-129.8 713,-129.8 1319.78,-129.8 1319.78,-129.8"/>
<polygon fill="black" stroke="black" points="1319.78,-133.3 1329.78,-129.8 1319.78,-126.3 1319.78,-133.3"/>
</g>
<!-- SchoolManagerSettingsComponent -->
<g id="node10" class="node">
<title>SchoolManagerSettingsComponent</title>
<polygon fill="#ffffb3" stroke="black" points="609.58,-84.8 394.42,-84.8 394.42,-48.8 609.58,-48.8 609.58,-84.8"/>
<text text-anchor="middle" x="502" y="-62.6" font-family="Times,serif" font-size="14.00">SchoolManagerSettingsComponent</text>
</g>
<!-- SchoolManagerSettingsComponent&#45;&gt;SettingsModule -->
<g id="edge10" class="edge">
<title>SchoolManagerSettingsComponent&#45;&gt;SettingsModule</title>
<path fill="none" stroke="black" d="M502,-85.02C502,-105.17 502,-134.8 502,-134.8 502,-134.8 1319.59,-134.8 1319.59,-134.8"/>
<polygon fill="black" stroke="black" points="1319.59,-138.3 1329.59,-134.8 1319.59,-131.3 1319.59,-138.3"/>
</g>
<!-- SchoolSettingsComponent -->
<g id="node11" class="node">
<title>SchoolSettingsComponent</title>
<polygon fill="#ffffb3" stroke="black" points="376.83,-84.8 211.17,-84.8 211.17,-48.8 376.83,-48.8 376.83,-84.8"/>
<text text-anchor="middle" x="294" y="-62.6" font-family="Times,serif" font-size="14.00">SchoolSettingsComponent</text>
</g>
<!-- SchoolSettingsComponent&#45;&gt;SettingsModule -->
<g id="edge11" class="edge">
<title>SchoolSettingsComponent&#45;&gt;SettingsModule</title>
<path fill="none" stroke="black" d="M294,-84.84C294,-106.46 294,-139.8 294,-139.8 294,-139.8 1319.52,-139.8 1319.52,-139.8"/>
<polygon fill="black" stroke="black" points="1319.52,-143.3 1329.52,-139.8 1319.52,-136.3 1319.52,-143.3"/>
</g>
<!-- StudentSettingsComponent -->
<g id="node12" class="node">
<title>StudentSettingsComponent</title>
<polygon fill="#ffffb3" stroke="black" points="193.72,-84.8 24.28,-84.8 24.28,-48.8 193.72,-48.8 193.72,-84.8"/>
<text text-anchor="middle" x="109" y="-62.6" font-family="Times,serif" font-size="14.00">StudentSettingsComponent</text>
</g>
<!-- StudentSettingsComponent&#45;&gt;SettingsModule -->
<g id="edge12" class="edge">
<title>StudentSettingsComponent&#45;&gt;SettingsModule</title>
<path fill="none" stroke="black" d="M109,-84.89C109,-107.93 109,-144.8 109,-144.8 109,-144.8 1319.72,-144.8 1319.72,-144.8"/>
<polygon fill="black" stroke="black" points="1319.72,-148.3 1329.72,-144.8 1319.72,-141.3 1319.72,-148.3"/>
</g>
<!-- SettingsRoutingModule -->
<g id="node14" class="node">
<title>SettingsRoutingModule</title>
<polygon fill="#8dd3c7" stroke="black" points="2614.78,-84.8 2611.78,-88.8 2590.78,-88.8 2587.78,-84.8 2465.22,-84.8 2465.22,-48.8 2614.78,-48.8 2614.78,-84.8"/>
<text text-anchor="middle" x="2540" y="-62.6" font-family="Times,serif" font-size="14.00">SettingsRoutingModule</text>
</g>
<!-- SettingsRoutingModule&#45;&gt;SettingsModule -->
<g id="edge13" class="edge">
<title>SettingsRoutingModule&#45;&gt;SettingsModule</title>
<path fill="none" stroke="black" d="M2540,-84.89C2540,-107.93 2540,-144.8 2540,-144.8 2540,-144.8 1444.39,-144.8 1444.39,-144.8"/>
<polygon fill="black" stroke="black" points="1444.39,-141.3 1434.39,-144.8 1444.39,-148.3 1444.39,-141.3"/>
</g>
<!-- SharedModule -->
<g id="node15" class="node">
<title>SharedModule</title>
<polygon fill="#8dd3c7" stroke="black" points="2447.42,-84.8 2444.42,-88.8 2423.42,-88.8 2420.42,-84.8 2348.58,-84.8 2348.58,-48.8 2447.42,-48.8 2447.42,-84.8"/>
<text text-anchor="middle" x="2398" y="-62.6" font-family="Times,serif" font-size="14.00">SharedModule</text>
</g>
<!-- SharedModule&#45;&gt;SettingsModule -->
<g id="edge14" class="edge">
<title>SharedModule&#45;&gt;SettingsModule</title>
<path fill="none" stroke="black" d="M2398,-84.84C2398,-106.46 2398,-139.8 2398,-139.8 2398,-139.8 1444.49,-139.8 1444.49,-139.8"/>
<polygon fill="black" stroke="black" points="1444.49,-136.3 1434.49,-139.8 1444.49,-143.3 1444.49,-136.3"/>
</g>
</g>
</svg>
