<?xml version="1.0" encoding="UTF-8" standalone="no"?>
<!DOCTYPE svg PUBLIC "-//W3C//DTD SVG 1.1//EN"
 "http://www.w3.org/Graphics/SVG/1.1/DTD/svg11.dtd">
<!-- Generated by graphviz version 2.47.3 (20210619.1520)
 -->
<!-- Title: dependencies Pages: 1 -->
<svg width="1051pt" height="174pt"
 viewBox="0.00 0.00 1051.00 173.80" xmlns="http://www.w3.org/2000/svg" xmlns:xlink="http://www.w3.org/1999/xlink">
<g id="graph0" class="graph" transform="scale(1 1) rotate(0) translate(4 169.8)">
<title>dependencies</title>
<polygon fill="white" stroke="transparent" points="-4,4 -4,-169.8 1047,-169.8 1047,4 -4,4"/>
<text text-anchor="middle" x="521.5" y="-8.2" font-family="sans-serif" font-size="14.00">dependencies</text>
<g id="clust1" class="cluster">
<title>cluster_GroupedSchoolsModule</title>
<polygon fill="none" stroke="black" stroke-dasharray="1,5" points="8,-32.8 8,-157.8 1035,-157.8 1035,-32.8 8,-32.8"/>
</g>
<g id="clust7" class="cluster">
<title>cluster_GroupedSchoolsModule_imports</title>
<polygon fill="none" stroke="black" points="813,-40.8 813,-92.8 1027,-92.8 1027,-40.8 813,-40.8"/>
</g>
<g id="clust2" class="cluster">
<title>cluster_GroupedSchoolsModule_declarations</title>
<polygon fill="none" stroke="black" points="16,-40.8 16,-92.8 805,-92.8 805,-40.8 16,-40.8"/>
</g>
<!-- GroupedSchoolsComponent -->
<g id="node1" class="node">
<title>GroupedSchoolsComponent</title>
<polygon fill="#ffffb3" stroke="black" points="797.15,-84.8 622.85,-84.8 622.85,-48.8 797.15,-48.8 797.15,-84.8"/>
<text text-anchor="middle" x="710" y="-62.6" font-family="Times,serif" font-size="14.00">GroupedSchoolsComponent</text>
</g>
<!-- GroupedSchoolsModule -->
<g id="node5" class="node">
<title>GroupedSchoolsModule</title>
<polygon fill="#8dd3c7" stroke="black" points="580.36,-149.8 577.36,-153.8 556.36,-153.8 553.36,-149.8 427.64,-149.8 427.64,-113.8 580.36,-113.8 580.36,-149.8"/>
<text text-anchor="middle" x="504" y="-127.6" font-family="Times,serif" font-size="14.00">GroupedSchoolsModule</text>
</g>
<!-- GroupedSchoolsComponent&#45;&gt;GroupedSchoolsModule -->
<g id="edge1" class="edge">
<title>GroupedSchoolsComponent&#45;&gt;GroupedSchoolsModule</title>
<path fill="none" stroke="black" d="M710,-84.82C710,-102.17 710,-125.8 710,-125.8 710,-125.8 590.41,-125.8 590.41,-125.8"/>
<polygon fill="black" stroke="black" points="590.41,-122.3 580.41,-125.8 590.41,-129.3 590.41,-122.3"/>
</g>
<!-- SchoolContactPersonComponent -->
<g id="node2" class="node">
<title>SchoolContactPersonComponent</title>
<polygon fill="#ffffb3" stroke="black" points="604.87,-84.8 403.13,-84.8 403.13,-48.8 604.87,-48.8 604.87,-84.8"/>
<text text-anchor="middle" x="504" y="-62.6" font-family="Times,serif" font-size="14.00">SchoolContactPersonComponent</text>
</g>
<!-- SchoolContactPersonComponent&#45;&gt;GroupedSchoolsModule -->
<g id="edge2" class="edge">
<title>SchoolContactPersonComponent&#45;&gt;GroupedSchoolsModule</title>
<path fill="none" stroke="black" d="M504,-84.91C504,-84.91 504,-103.79 504,-103.79"/>
<polygon fill="black" stroke="black" points="500.5,-103.79 504,-113.79 507.5,-103.79 500.5,-103.79"/>
</g>
<!-- SchoolInformationComponent -->
<g id="node3" class="node">
<title>SchoolInformationComponent</title>
<polygon fill="#ffffb3" stroke="black" points="385.59,-84.8 198.41,-84.8 198.41,-48.8 385.59,-48.8 385.59,-84.8"/>
<text text-anchor="middle" x="292" y="-62.6" font-family="Times,serif" font-size="14.00">SchoolInformationComponent</text>
</g>
<!-- SchoolInformationComponent&#45;&gt;GroupedSchoolsModule -->
<g id="edge3" class="edge">
<title>SchoolInformationComponent&#45;&gt;GroupedSchoolsModule</title>
<path fill="none" stroke="black" d="M292,-84.82C292,-102.17 292,-125.8 292,-125.8 292,-125.8 417.46,-125.8 417.46,-125.8"/>
<polygon fill="black" stroke="black" points="417.46,-129.3 427.46,-125.8 417.46,-122.3 417.46,-129.3"/>
</g>
<!-- SchoolMediaComponent -->
<g id="node4" class="node">
<title>SchoolMediaComponent</title>
<polygon fill="#ffffb3" stroke="black" points="179.98,-84.8 24.02,-84.8 24.02,-48.8 179.98,-48.8 179.98,-84.8"/>
<text text-anchor="middle" x="102" y="-62.6" font-family="Times,serif" font-size="14.00">SchoolMediaComponent</text>
</g>
<!-- SchoolMediaComponent&#45;&gt;GroupedSchoolsModule -->
<g id="edge4" class="edge">
<title>SchoolMediaComponent&#45;&gt;GroupedSchoolsModule</title>
<path fill="none" stroke="black" d="M102,-85.08C102,-106.12 102,-137.8 102,-137.8 102,-137.8 417.44,-137.8 417.44,-137.8"/>
<polygon fill="black" stroke="black" points="417.44,-141.3 427.44,-137.8 417.44,-134.3 417.44,-141.3"/>
</g>
<!-- GroupedSchoolsRoutingModule -->
<g id="node6" class="node">
<title>GroupedSchoolsRoutingModule</title>
<polygon fill="#8dd3c7" stroke="black" points="1018.98,-84.8 1015.98,-88.8 994.98,-88.8 991.98,-84.8 821.02,-84.8 821.02,-48.8 1018.98,-48.8 1018.98,-84.8"/>
<text text-anchor="middle" x="920" y="-62.6" font-family="Times,serif" font-size="14.00">GroupedSchoolsRoutingModule</text>
</g>
<!-- GroupedSchoolsRoutingModule&#45;&gt;GroupedSchoolsModule -->
<g id="edge5" class="edge">
<title>GroupedSchoolsRoutingModule&#45;&gt;GroupedSchoolsModule</title>
<path fill="none" stroke="black" d="M920,-85.08C920,-106.12 920,-137.8 920,-137.8 920,-137.8 590.79,-137.8 590.79,-137.8"/>
<polygon fill="black" stroke="black" points="590.79,-134.3 580.79,-137.8 590.79,-141.3 590.79,-134.3"/>
</g>
</g>
</svg>
