<?xml version="1.0" encoding="UTF-8" standalone="no"?>
<!DOCTYPE svg PUBLIC "-//W3C//DTD SVG 1.1//EN"
 "http://www.w3.org/Graphics/SVG/1.1/DTD/svg11.dtd">
<!-- Generated by graphviz version 2.47.3 (20210619.1520)
 -->
<!-- Title: dependencies Pages: 1 -->
<svg width="2549pt" height="174pt"
 viewBox="0.00 0.00 2549.00 173.80" xmlns="http://www.w3.org/2000/svg" xmlns:xlink="http://www.w3.org/1999/xlink">
<g id="graph0" class="graph" transform="scale(1 1) rotate(0) translate(4 169.8)">
<title>dependencies</title>
<polygon fill="white" stroke="transparent" points="-4,4 -4,-169.8 2545,-169.8 2545,4 -4,4"/>
<text text-anchor="middle" x="1270.5" y="-8.2" font-family="sans-serif" font-size="14.00">dependencies</text>
<g id="clust1" class="cluster">
<title>cluster_StudentModule</title>
<polygon fill="none" stroke="black" stroke-dasharray="1,5" points="8,-32.8 8,-157.8 2533,-157.8 2533,-32.8 8,-32.8"/>
</g>
<g id="clust16" class="cluster">
<title>cluster_StudentModule_imports</title>
<polygon fill="none" stroke="black" points="2245,-40.8 2245,-92.8 2525,-92.8 2525,-40.8 2245,-40.8"/>
</g>
<g id="clust2" class="cluster">
<title>cluster_StudentModule_declarations</title>
<polygon fill="none" stroke="black" points="16,-40.8 16,-92.8 2237,-92.8 2237,-40.8 16,-40.8"/>
</g>
<!-- AssignmentComponent -->
<g id="node1" class="node">
<title>AssignmentComponent</title>
<polygon fill="#ffffb3" stroke="black" points="2229.21,-84.8 2080.79,-84.8 2080.79,-48.8 2229.21,-48.8 2229.21,-84.8"/>
<text text-anchor="middle" x="2155" y="-62.6" font-family="Times,serif" font-size="14.00">AssignmentComponent</text>
</g>
<!-- StudentModule -->
<g id="node14" class="node">
<title>StudentModule</title>
<polygon fill="#8dd3c7" stroke="black" points="1384.33,-149.8 1381.33,-153.8 1360.33,-153.8 1357.33,-149.8 1281.67,-149.8 1281.67,-113.8 1384.33,-113.8 1384.33,-149.8"/>
<text text-anchor="middle" x="1333" y="-127.6" font-family="Times,serif" font-size="14.00">StudentModule</text>
</g>
<!-- AssignmentComponent&#45;&gt;StudentModule -->
<g id="edge1" class="edge">
<title>AssignmentComponent&#45;&gt;StudentModule</title>
<path fill="none" stroke="black" d="M2155,-84.83C2155,-105.57 2155,-136.8 2155,-136.8 2155,-136.8 1394.42,-136.8 1394.42,-136.8"/>
<polygon fill="black" stroke="black" points="1394.42,-133.3 1384.42,-136.8 1394.42,-140.3 1394.42,-133.3"/>
</g>
<!-- ClassScheduleComponent -->
<g id="node2" class="node">
<title>ClassScheduleComponent</title>
<polygon fill="#ffffb3" stroke="black" points="2062.48,-84.8 1899.52,-84.8 1899.52,-48.8 2062.48,-48.8 2062.48,-84.8"/>
<text text-anchor="middle" x="1981" y="-62.6" font-family="Times,serif" font-size="14.00">ClassScheduleComponent</text>
</g>
<!-- ClassScheduleComponent&#45;&gt;StudentModule -->
<g id="edge2" class="edge">
<title>ClassScheduleComponent&#45;&gt;StudentModule</title>
<path fill="none" stroke="black" d="M1981,-84.91C1981,-104.14 1981,-131.8 1981,-131.8 1981,-131.8 1394.39,-131.8 1394.39,-131.8"/>
<polygon fill="black" stroke="black" points="1394.39,-128.3 1384.39,-131.8 1394.39,-135.3 1394.39,-128.3"/>
</g>
<!-- FileManagerComponent -->
<g id="node3" class="node">
<title>FileManagerComponent</title>
<polygon fill="#ffffb3" stroke="black" points="1881.36,-84.8 1728.64,-84.8 1728.64,-48.8 1881.36,-48.8 1881.36,-84.8"/>
<text text-anchor="middle" x="1805" y="-62.6" font-family="Times,serif" font-size="14.00">FileManagerComponent</text>
</g>
<!-- FileManagerComponent&#45;&gt;StudentModule -->
<g id="edge3" class="edge">
<title>FileManagerComponent&#45;&gt;StudentModule</title>
<path fill="none" stroke="black" d="M1805,-85.1C1805,-103.07 1805,-127.8 1805,-127.8 1805,-127.8 1394.41,-127.8 1394.41,-127.8"/>
<polygon fill="black" stroke="black" points="1394.41,-124.3 1384.41,-127.8 1394.41,-131.3 1394.41,-124.3"/>
</g>
<!-- FileStorageComponent -->
<g id="node4" class="node">
<title>FileStorageComponent</title>
<polygon fill="#ffffb3" stroke="black" points="1710.87,-84.8 1565.13,-84.8 1565.13,-48.8 1710.87,-48.8 1710.87,-84.8"/>
<text text-anchor="middle" x="1638" y="-62.6" font-family="Times,serif" font-size="14.00">FileStorageComponent</text>
</g>
<!-- FileStorageComponent&#45;&gt;StudentModule -->
<g id="edge4" class="edge">
<title>FileStorageComponent&#45;&gt;StudentModule</title>
<path fill="none" stroke="black" d="M1638,-84.83C1638,-101.2 1638,-122.8 1638,-122.8 1638,-122.8 1394.39,-122.8 1394.39,-122.8"/>
<polygon fill="black" stroke="black" points="1394.39,-119.3 1384.39,-122.8 1394.39,-126.3 1394.39,-119.3"/>
</g>
<!-- FilesComponent -->
<g id="node5" class="node">
<title>FilesComponent</title>
<polygon fill="#ffffb3" stroke="black" points="1547.06,-84.8 1438.94,-84.8 1438.94,-48.8 1547.06,-48.8 1547.06,-84.8"/>
<text text-anchor="middle" x="1493" y="-62.6" font-family="Times,serif" font-size="14.00">FilesComponent</text>
</g>
<!-- FilesComponent&#45;&gt;StudentModule -->
<g id="edge5" class="edge">
<title>FilesComponent&#45;&gt;StudentModule</title>
<path fill="none" stroke="black" d="M1493,-84.99C1493,-99.98 1493,-118.8 1493,-118.8 1493,-118.8 1394.51,-118.8 1394.51,-118.8"/>
<polygon fill="black" stroke="black" points="1394.51,-115.3 1384.51,-118.8 1394.51,-122.3 1394.51,-115.3"/>
</g>
<!-- NotificationPageComponent -->
<g id="node6" class="node">
<title>NotificationPageComponent</title>
<polygon fill="#ffffb3" stroke="black" points="1421.19,-84.8 1244.81,-84.8 1244.81,-48.8 1421.19,-48.8 1421.19,-84.8"/>
<text text-anchor="middle" x="1333" y="-62.6" font-family="Times,serif" font-size="14.00">NotificationPageComponent</text>
</g>
<!-- NotificationPageComponent&#45;&gt;StudentModule -->
<g id="edge6" class="edge">
<title>NotificationPageComponent&#45;&gt;StudentModule</title>
<path fill="none" stroke="black" d="M1333,-84.91C1333,-84.91 1333,-103.79 1333,-103.79"/>
<polygon fill="black" stroke="black" points="1329.5,-103.79 1333,-113.79 1336.5,-103.79 1329.5,-103.79"/>
</g>
<!-- SessionComponent -->
<g id="node7" class="node">
<title>SessionComponent</title>
<polygon fill="#ffffb3" stroke="black" points="1227.11,-84.8 1102.89,-84.8 1102.89,-48.8 1227.11,-48.8 1227.11,-84.8"/>
<text text-anchor="middle" x="1165" y="-62.6" font-family="Times,serif" font-size="14.00">SessionComponent</text>
</g>
<!-- SessionComponent&#45;&gt;StudentModule -->
<g id="edge7" class="edge">
<title>SessionComponent&#45;&gt;StudentModule</title>
<path fill="none" stroke="black" d="M1165,-84.99C1165,-99.98 1165,-118.8 1165,-118.8 1165,-118.8 1271.68,-118.8 1271.68,-118.8"/>
<polygon fill="black" stroke="black" points="1271.68,-122.3 1281.68,-118.8 1271.68,-115.3 1271.68,-122.3"/>
</g>
<!-- StudentAttendanceComponent -->
<g id="node8" class="node">
<title>StudentAttendanceComponent</title>
<polygon fill="#ffffb3" stroke="black" points="1084.86,-84.8 897.14,-84.8 897.14,-48.8 1084.86,-48.8 1084.86,-84.8"/>
<text text-anchor="middle" x="991" y="-62.6" font-family="Times,serif" font-size="14.00">StudentAttendanceComponent</text>
</g>
<!-- StudentAttendanceComponent&#45;&gt;StudentModule -->
<g id="edge8" class="edge">
<title>StudentAttendanceComponent&#45;&gt;StudentModule</title>
<path fill="none" stroke="black" d="M991,-84.83C991,-101.2 991,-122.8 991,-122.8 991,-122.8 1271.8,-122.8 1271.8,-122.8"/>
<polygon fill="black" stroke="black" points="1271.8,-126.3 1281.8,-122.8 1271.8,-119.3 1271.8,-126.3"/>
</g>
<!-- StudentComponent -->
<g id="node9" class="node">
<title>StudentComponent</title>
<polygon fill="#ffffb3" stroke="black" points="879.11,-84.8 754.89,-84.8 754.89,-48.8 879.11,-48.8 879.11,-84.8"/>
<text text-anchor="middle" x="817" y="-62.6" font-family="Times,serif" font-size="14.00">StudentComponent</text>
</g>
<!-- StudentComponent&#45;&gt;StudentModule -->
<g id="edge9" class="edge">
<title>StudentComponent&#45;&gt;StudentModule</title>
<path fill="none" stroke="black" d="M817,-85.1C817,-103.07 817,-127.8 817,-127.8 817,-127.8 1271.64,-127.8 1271.64,-127.8"/>
<polygon fill="black" stroke="black" points="1271.64,-131.3 1281.64,-127.8 1271.64,-124.3 1271.64,-131.3"/>
</g>
<!-- StudentProfileComponent -->
<g id="node10" class="node">
<title>StudentProfileComponent</title>
<polygon fill="#ffffb3" stroke="black" points="737.21,-84.8 574.79,-84.8 574.79,-48.8 737.21,-48.8 737.21,-84.8"/>
<text text-anchor="middle" x="656" y="-62.6" font-family="Times,serif" font-size="14.00">StudentProfileComponent</text>
</g>
<!-- StudentProfileComponent&#45;&gt;StudentModule -->
<g id="edge10" class="edge">
<title>StudentProfileComponent&#45;&gt;StudentModule</title>
<path fill="none" stroke="black" d="M656,-84.91C656,-104.14 656,-131.8 656,-131.8 656,-131.8 1271.56,-131.8 1271.56,-131.8"/>
<polygon fill="black" stroke="black" points="1271.56,-135.3 1281.56,-131.8 1271.56,-128.3 1271.56,-135.3"/>
</g>
<!-- StudentReportComponent -->
<g id="node11" class="node">
<title>StudentReportComponent</title>
<polygon fill="#ffffb3" stroke="black" points="557.21,-84.8 394.79,-84.8 394.79,-48.8 557.21,-48.8 557.21,-84.8"/>
<text text-anchor="middle" x="476" y="-62.6" font-family="Times,serif" font-size="14.00">StudentReportComponent</text>
</g>
<!-- StudentReportComponent&#45;&gt;StudentModule -->
<g id="edge11" class="edge">
<title>StudentReportComponent&#45;&gt;StudentModule</title>
<path fill="none" stroke="black" d="M476,-84.83C476,-105.57 476,-136.8 476,-136.8 476,-136.8 1271.64,-136.8 1271.64,-136.8"/>
<polygon fill="black" stroke="black" points="1271.64,-140.3 1281.64,-136.8 1271.64,-133.3 1271.64,-140.3"/>
</g>
<!-- TaskPreviewComponent -->
<g id="node12" class="node">
<title>TaskPreviewComponent</title>
<polygon fill="#ffffb3" stroke="black" points="377.41,-84.8 222.59,-84.8 222.59,-48.8 377.41,-48.8 377.41,-84.8"/>
<text text-anchor="middle" x="300" y="-62.6" font-family="Times,serif" font-size="14.00">TaskPreviewComponent</text>
</g>
<!-- TaskPreviewComponent&#45;&gt;StudentModule -->
<g id="edge12" class="edge">
<title>TaskPreviewComponent&#45;&gt;StudentModule</title>
<path fill="none" stroke="black" d="M300,-85.09C300,-107.01 300,-140.8 300,-140.8 300,-140.8 1271.77,-140.8 1271.77,-140.8"/>
<polygon fill="black" stroke="black" points="1271.77,-144.3 1281.77,-140.8 1271.77,-137.3 1271.77,-144.3"/>
</g>
<!-- VirtualClassroomComponent -->
<g id="node13" class="node">
<title>VirtualClassroomComponent</title>
<polygon fill="#ffffb3" stroke="black" points="204.37,-84.8 23.63,-84.8 23.63,-48.8 204.37,-48.8 204.37,-84.8"/>
<text text-anchor="middle" x="114" y="-62.6" font-family="Times,serif" font-size="14.00">VirtualClassroomComponent</text>
</g>
<!-- VirtualClassroomComponent&#45;&gt;StudentModule -->
<g id="edge13" class="edge">
<title>VirtualClassroomComponent&#45;&gt;StudentModule</title>
<path fill="none" stroke="black" d="M114,-85.12C114,-108.46 114,-145.8 114,-145.8 114,-145.8 1271.79,-145.8 1271.79,-145.8"/>
<polygon fill="black" stroke="black" points="1271.79,-149.3 1281.79,-145.8 1271.79,-142.3 1271.79,-149.3"/>
</g>
<!-- SharedModule -->
<g id="node15" class="node">
<title>SharedModule</title>
<polygon fill="#8dd3c7" stroke="black" points="2517.42,-84.8 2514.42,-88.8 2493.42,-88.8 2490.42,-84.8 2418.58,-84.8 2418.58,-48.8 2517.42,-48.8 2517.42,-84.8"/>
<text text-anchor="middle" x="2468" y="-62.6" font-family="Times,serif" font-size="14.00">SharedModule</text>
</g>
<!-- SharedModule&#45;&gt;StudentModule -->
<g id="edge14" class="edge">
<title>SharedModule&#45;&gt;StudentModule</title>
<path fill="none" stroke="black" d="M2468,-85.12C2468,-108.46 2468,-145.8 2468,-145.8 2468,-145.8 1394.35,-145.8 1394.35,-145.8"/>
<polygon fill="black" stroke="black" points="1394.35,-142.3 1384.35,-145.8 1394.35,-149.3 1394.35,-142.3"/>
</g>
<!-- StudentRoutingModule -->
<g id="node16" class="node">
<title>StudentRoutingModule</title>
<polygon fill="#8dd3c7" stroke="black" points="2400.95,-84.8 2397.95,-88.8 2376.95,-88.8 2373.95,-84.8 2253.05,-84.8 2253.05,-48.8 2400.95,-48.8 2400.95,-84.8"/>
<text text-anchor="middle" x="2327" y="-62.6" font-family="Times,serif" font-size="14.00">StudentRoutingModule</text>
</g>
<!-- StudentRoutingModule&#45;&gt;StudentModule -->
<g id="edge15" class="edge">
<title>StudentRoutingModule&#45;&gt;StudentModule</title>
<path fill="none" stroke="black" d="M2327,-85.09C2327,-107.01 2327,-140.8 2327,-140.8 2327,-140.8 1394.35,-140.8 1394.35,-140.8"/>
<polygon fill="black" stroke="black" points="1394.35,-137.3 1384.35,-140.8 1394.35,-144.3 1394.35,-137.3"/>
</g>
</g>
</svg>
