<?xml version="1.0" encoding="UTF-8" standalone="no"?>
<!DOCTYPE svg PUBLIC "-//W3C//DTD SVG 1.1//EN"
 "http://www.w3.org/Graphics/SVG/1.1/DTD/svg11.dtd">
<!-- Generated by graphviz version 2.47.3 (20210619.1520)
 -->
<!-- Title: dependencies Pages: 1 -->
<svg width="1302pt" height="174pt"
 viewBox="0.00 0.00 1302.00 173.80" xmlns="http://www.w3.org/2000/svg" xmlns:xlink="http://www.w3.org/1999/xlink">
<g id="graph0" class="graph" transform="scale(1 1) rotate(0) translate(4 169.8)">
<title>dependencies</title>
<polygon fill="white" stroke="transparent" points="-4,4 -4,-169.8 1298,-169.8 1298,4 -4,4"/>
<text text-anchor="middle" x="647" y="-8.2" font-family="sans-serif" font-size="14.00">dependencies</text>
<g id="clust1" class="cluster">
<title>cluster_EmployeeModule</title>
<polygon fill="none" stroke="black" stroke-dasharray="1,5" points="8,-32.8 8,-157.8 1286,-157.8 1286,-32.8 8,-32.8"/>
</g>
<g id="clust9" class="cluster">
<title>cluster_EmployeeModule_imports</title>
<polygon fill="none" stroke="black" points="1100,-40.8 1100,-92.8 1278,-92.8 1278,-40.8 1100,-40.8"/>
</g>
<g id="clust2" class="cluster">
<title>cluster_EmployeeModule_declarations</title>
<polygon fill="none" stroke="black" points="16,-40.8 16,-92.8 1092,-92.8 1092,-40.8 16,-40.8"/>
</g>
<!-- EducationComponent -->
<g id="node1" class="node">
<title>EducationComponent</title>
<polygon fill="#ffffb3" stroke="black" points="1084.1,-84.8 945.9,-84.8 945.9,-48.8 1084.1,-48.8 1084.1,-84.8"/>
<text text-anchor="middle" x="1015" y="-62.6" font-family="Times,serif" font-size="14.00">EducationComponent</text>
</g>
<!-- EmployeeModule -->
<g id="node7" class="node">
<title>EmployeeModule</title>
<polygon fill="#8dd3c7" stroke="black" points="741.31,-149.8 738.31,-153.8 717.31,-153.8 714.31,-149.8 624.69,-149.8 624.69,-113.8 741.31,-113.8 741.31,-149.8"/>
<text text-anchor="middle" x="683" y="-127.6" font-family="Times,serif" font-size="14.00">EmployeeModule</text>
</g>
<!-- EducationComponent&#45;&gt;EmployeeModule -->
<g id="edge1" class="edge">
<title>EducationComponent&#45;&gt;EmployeeModule</title>
<path fill="none" stroke="black" d="M1015,-84.91C1015,-104.14 1015,-131.8 1015,-131.8 1015,-131.8 751.21,-131.8 751.21,-131.8"/>
<polygon fill="black" stroke="black" points="751.21,-128.3 741.21,-131.8 751.21,-135.3 751.21,-128.3"/>
</g>
<!-- EmployeeComponent -->
<g id="node2" class="node">
<title>EmployeeComponent</title>
<polygon fill="#ffffb3" stroke="black" points="928.1,-84.8 789.9,-84.8 789.9,-48.8 928.1,-48.8 928.1,-84.8"/>
<text text-anchor="middle" x="859" y="-62.6" font-family="Times,serif" font-size="14.00">EmployeeComponent</text>
</g>
<!-- EmployeeComponent&#45;&gt;EmployeeModule -->
<g id="edge2" class="edge">
<title>EmployeeComponent&#45;&gt;EmployeeModule</title>
<path fill="none" stroke="black" d="M859,-84.83C859,-101.2 859,-122.8 859,-122.8 859,-122.8 751.61,-122.8 751.61,-122.8"/>
<polygon fill="black" stroke="black" points="751.61,-119.3 741.61,-122.8 751.61,-126.3 751.61,-119.3"/>
</g>
<!-- EmployeeDetailsComponent -->
<g id="node3" class="node">
<title>EmployeeDetailsComponent</title>
<polygon fill="#ffffb3" stroke="black" points="771.75,-84.8 594.25,-84.8 594.25,-48.8 771.75,-48.8 771.75,-84.8"/>
<text text-anchor="middle" x="683" y="-62.6" font-family="Times,serif" font-size="14.00">EmployeeDetailsComponent</text>
</g>
<!-- EmployeeDetailsComponent&#45;&gt;EmployeeModule -->
<g id="edge3" class="edge">
<title>EmployeeDetailsComponent&#45;&gt;EmployeeModule</title>
<path fill="none" stroke="black" d="M683,-84.91C683,-84.91 683,-103.79 683,-103.79"/>
<polygon fill="black" stroke="black" points="679.5,-103.79 683,-113.79 686.5,-103.79 679.5,-103.79"/>
</g>
<!-- NextOfKinComponent -->
<g id="node4" class="node">
<title>NextOfKinComponent</title>
<polygon fill="#ffffb3" stroke="black" points="576.31,-84.8 431.69,-84.8 431.69,-48.8 576.31,-48.8 576.31,-84.8"/>
<text text-anchor="middle" x="504" y="-62.6" font-family="Times,serif" font-size="14.00">NextOfKinComponent</text>
</g>
<!-- NextOfKinComponent&#45;&gt;EmployeeModule -->
<g id="edge4" class="edge">
<title>NextOfKinComponent&#45;&gt;EmployeeModule</title>
<path fill="none" stroke="black" d="M504,-84.83C504,-101.2 504,-122.8 504,-122.8 504,-122.8 614.39,-122.8 614.39,-122.8"/>
<polygon fill="black" stroke="black" points="614.39,-126.3 624.39,-122.8 614.39,-119.3 614.39,-126.3"/>
</g>
<!-- PersonalInformationComponent -->
<g id="node5" class="node">
<title>PersonalInformationComponent</title>
<polygon fill="#ffffb3" stroke="black" points="414.41,-84.8 217.59,-84.8 217.59,-48.8 414.41,-48.8 414.41,-84.8"/>
<text text-anchor="middle" x="316" y="-62.6" font-family="Times,serif" font-size="14.00">PersonalInformationComponent</text>
</g>
<!-- PersonalInformationComponent&#45;&gt;EmployeeModule -->
<g id="edge5" class="edge">
<title>PersonalInformationComponent&#45;&gt;EmployeeModule</title>
<path fill="none" stroke="black" d="M316,-84.91C316,-104.14 316,-131.8 316,-131.8 316,-131.8 614.44,-131.8 614.44,-131.8"/>
<polygon fill="black" stroke="black" points="614.44,-135.3 624.44,-131.8 614.44,-128.3 614.44,-135.3"/>
</g>
<!-- WorkExperienceComponent -->
<g id="node6" class="node">
<title>WorkExperienceComponent</title>
<polygon fill="#ffffb3" stroke="black" points="200.17,-84.8 23.83,-84.8 23.83,-48.8 200.17,-48.8 200.17,-84.8"/>
<text text-anchor="middle" x="112" y="-62.6" font-family="Times,serif" font-size="14.00">WorkExperienceComponent</text>
</g>
<!-- WorkExperienceComponent&#45;&gt;EmployeeModule -->
<g id="edge6" class="edge">
<title>WorkExperienceComponent&#45;&gt;EmployeeModule</title>
<path fill="none" stroke="black" d="M112,-85.09C112,-107.01 112,-140.8 112,-140.8 112,-140.8 614.84,-140.8 614.84,-140.8"/>
<polygon fill="black" stroke="black" points="614.84,-144.3 624.84,-140.8 614.84,-137.3 614.84,-144.3"/>
</g>
<!-- EmployeeRoutingModule -->
<g id="node8" class="node">
<title>EmployeeRoutingModule</title>
<polygon fill="#8dd3c7" stroke="black" points="1269.93,-84.8 1266.93,-88.8 1245.93,-88.8 1242.93,-84.8 1108.07,-84.8 1108.07,-48.8 1269.93,-48.8 1269.93,-84.8"/>
<text text-anchor="middle" x="1189" y="-62.6" font-family="Times,serif" font-size="14.00">EmployeeRoutingModule</text>
</g>
<!-- EmployeeRoutingModule&#45;&gt;EmployeeModule -->
<g id="edge7" class="edge">
<title>EmployeeRoutingModule&#45;&gt;EmployeeModule</title>
<path fill="none" stroke="black" d="M1189,-85.09C1189,-107.01 1189,-140.8 1189,-140.8 1189,-140.8 751.54,-140.8 751.54,-140.8"/>
<polygon fill="black" stroke="black" points="751.54,-137.3 741.54,-140.8 751.54,-144.3 751.54,-137.3"/>
</g>
</g>
</svg>
