<?xml version="1.0" encoding="UTF-8" standalone="no"?>
<!DOCTYPE svg PUBLIC "-//W3C//DTD SVG 1.1//EN"
 "http://www.w3.org/Graphics/SVG/1.1/DTD/svg11.dtd">
<!-- Generated by graphviz version 2.47.3 (20210619.1520)
 -->
<!-- Title: dependencies Pages: 1 -->
<svg width="2588pt" height="174pt"
 viewBox="0.00 0.00 2588.00 173.80" xmlns="http://www.w3.org/2000/svg" xmlns:xlink="http://www.w3.org/1999/xlink">
<g id="graph0" class="graph" transform="scale(1 1) rotate(0) translate(4 169.8)">
<title>dependencies</title>
<polygon fill="white" stroke="transparent" points="-4,4 -4,-169.8 2584,-169.8 2584,4 -4,4"/>
<text text-anchor="middle" x="1290" y="-8.2" font-family="sans-serif" font-size="14.00">dependencies</text>
<g id="clust1" class="cluster">
<title>cluster_FinanceSettingModule</title>
<polygon fill="none" stroke="black" stroke-dasharray="1,5" points="8,-32.8 8,-157.8 2572,-157.8 2572,-32.8 8,-32.8"/>
</g>
<g id="clust16" class="cluster">
<title>cluster_FinanceSettingModule_imports</title>
<polygon fill="none" stroke="black" points="2243,-40.8 2243,-92.8 2564,-92.8 2564,-40.8 2243,-40.8"/>
</g>
<g id="clust2" class="cluster">
<title>cluster_FinanceSettingModule_declarations</title>
<polygon fill="none" stroke="black" points="16,-40.8 16,-92.8 2235,-92.8 2235,-40.8 16,-40.8"/>
</g>
<!-- AccountMappingComponent -->
<g id="node1" class="node">
<title>AccountMappingComponent</title>
<polygon fill="#ffffb3" stroke="black" points="2226.81,-84.8 2047.19,-84.8 2047.19,-48.8 2226.81,-48.8 2226.81,-84.8"/>
<text text-anchor="middle" x="2137" y="-62.6" font-family="Times,serif" font-size="14.00">AccountMappingComponent</text>
</g>
<!-- FinanceSettingModule -->
<g id="node14" class="node">
<title>FinanceSettingModule</title>
<polygon fill="#8dd3c7" stroke="black" points="1342.54,-149.8 1339.54,-153.8 1318.54,-153.8 1315.54,-149.8 1199.46,-149.8 1199.46,-113.8 1342.54,-113.8 1342.54,-149.8"/>
<text text-anchor="middle" x="1271" y="-127.6" font-family="Times,serif" font-size="14.00">FinanceSettingModule</text>
</g>
<!-- AccountMappingComponent&#45;&gt;FinanceSettingModule -->
<g id="edge1" class="edge">
<title>AccountMappingComponent&#45;&gt;FinanceSettingModule</title>
<path fill="none" stroke="black" d="M2137,-85.02C2137,-105.17 2137,-134.8 2137,-134.8 2137,-134.8 1352.61,-134.8 1352.61,-134.8"/>
<polygon fill="black" stroke="black" points="1352.61,-131.3 1342.61,-134.8 1352.61,-138.3 1352.61,-131.3"/>
</g>
<!-- AccountPanelComponent -->
<g id="node2" class="node">
<title>AccountPanelComponent</title>
<polygon fill="#ffffb3" stroke="black" points="2028.86,-84.8 1869.14,-84.8 1869.14,-48.8 2028.86,-48.8 2028.86,-84.8"/>
<text text-anchor="middle" x="1949" y="-62.6" font-family="Times,serif" font-size="14.00">AccountPanelComponent</text>
</g>
<!-- AccountPanelComponent&#45;&gt;FinanceSettingModule -->
<g id="edge2" class="edge">
<title>AccountPanelComponent&#45;&gt;FinanceSettingModule</title>
<path fill="none" stroke="black" d="M1949,-85.02C1949,-103.63 1949,-129.8 1949,-129.8 1949,-129.8 1352.6,-129.8 1352.6,-129.8"/>
<polygon fill="black" stroke="black" points="1352.6,-126.3 1342.6,-129.8 1352.6,-133.3 1352.6,-126.3"/>
</g>
<!-- BankAccountsComponent -->
<g id="node3" class="node">
<title>BankAccountsComponent</title>
<polygon fill="#ffffb3" stroke="black" points="1850.75,-84.8 1687.25,-84.8 1687.25,-48.8 1850.75,-48.8 1850.75,-84.8"/>
<text text-anchor="middle" x="1769" y="-62.6" font-family="Times,serif" font-size="14.00">BankAccountsComponent</text>
</g>
<!-- BankAccountsComponent&#45;&gt;FinanceSettingModule -->
<g id="edge3" class="edge">
<title>BankAccountsComponent&#45;&gt;FinanceSettingModule</title>
<path fill="none" stroke="black" d="M1769,-84.83C1769,-101.86 1769,-124.8 1769,-124.8 1769,-124.8 1352.62,-124.8 1352.62,-124.8"/>
<polygon fill="black" stroke="black" points="1352.62,-121.3 1342.62,-124.8 1352.62,-128.3 1352.62,-121.3"/>
</g>
<!-- ChartOfAccountComponent -->
<g id="node4" class="node">
<title>ChartOfAccountComponent</title>
<polygon fill="#ffffb3" stroke="black" points="1669.13,-84.8 1494.87,-84.8 1494.87,-48.8 1669.13,-48.8 1669.13,-84.8"/>
<text text-anchor="middle" x="1582" y="-62.6" font-family="Times,serif" font-size="14.00">ChartOfAccountComponent</text>
</g>
<!-- ChartOfAccountComponent&#45;&gt;FinanceSettingModule -->
<g id="edge4" class="edge">
<title>ChartOfAccountComponent&#45;&gt;FinanceSettingModule</title>
<path fill="none" stroke="black" d="M1582,-85.04C1582,-100.37 1582,-119.8 1582,-119.8 1582,-119.8 1352.74,-119.8 1352.74,-119.8"/>
<polygon fill="black" stroke="black" points="1352.74,-116.3 1342.74,-119.8 1352.74,-123.3 1352.74,-116.3"/>
</g>
<!-- DiscountsComponent -->
<g id="node5" class="node">
<title>DiscountsComponent</title>
<polygon fill="#ffffb3" stroke="black" points="1476.82,-84.8 1339.18,-84.8 1339.18,-48.8 1476.82,-48.8 1476.82,-84.8"/>
<text text-anchor="middle" x="1408" y="-62.6" font-family="Times,serif" font-size="14.00">DiscountsComponent</text>
</g>
<!-- DiscountsComponent&#45;&gt;FinanceSettingModule -->
<g id="edge5" class="edge">
<title>DiscountsComponent&#45;&gt;FinanceSettingModule</title>
<path fill="none" stroke="black" d="M1339.14,-66.8C1333.87,-66.8 1330.56,-66.8 1330.56,-66.8 1330.56,-66.8 1330.56,-103.69 1330.56,-103.69"/>
<polygon fill="black" stroke="black" points="1327.06,-103.69 1330.56,-113.69 1334.06,-103.69 1327.06,-103.69"/>
</g>
<!-- FeeComponent -->
<g id="node6" class="node">
<title>FeeComponent</title>
<polygon fill="#ffffb3" stroke="black" points="1321.55,-84.8 1220.45,-84.8 1220.45,-48.8 1321.55,-48.8 1321.55,-84.8"/>
<text text-anchor="middle" x="1271" y="-62.6" font-family="Times,serif" font-size="14.00">FeeComponent</text>
</g>
<!-- FeeComponent&#45;&gt;FinanceSettingModule -->
<g id="edge6" class="edge">
<title>FeeComponent&#45;&gt;FinanceSettingModule</title>
<path fill="none" stroke="black" d="M1271,-84.91C1271,-84.91 1271,-103.79 1271,-103.79"/>
<polygon fill="black" stroke="black" points="1267.5,-103.79 1271,-113.79 1274.5,-103.79 1267.5,-103.79"/>
</g>
<!-- FeeComponentComponent -->
<g id="node7" class="node">
<title>FeeComponentComponent</title>
<polygon fill="#ffffb3" stroke="black" points="1202.38,-84.8 1035.62,-84.8 1035.62,-48.8 1202.38,-48.8 1202.38,-84.8"/>
<text text-anchor="middle" x="1119" y="-62.6" font-family="Times,serif" font-size="14.00">FeeComponentComponent</text>
</g>
<!-- FeeComponentComponent&#45;&gt;FinanceSettingModule -->
<g id="edge7" class="edge">
<title>FeeComponentComponent&#45;&gt;FinanceSettingModule</title>
<path fill="none" stroke="black" d="M1202.48,-66.8C1207.95,-66.8 1211.33,-66.8 1211.33,-66.8 1211.33,-66.8 1211.33,-103.69 1211.33,-103.69"/>
<polygon fill="black" stroke="black" points="1207.83,-103.69 1211.33,-113.69 1214.83,-103.69 1207.83,-103.69"/>
</g>
<!-- FeeTypeComponent -->
<g id="node8" class="node">
<title>FeeTypeComponent</title>
<polygon fill="#ffffb3" stroke="black" points="1017.31,-84.8 886.69,-84.8 886.69,-48.8 1017.31,-48.8 1017.31,-84.8"/>
<text text-anchor="middle" x="952" y="-62.6" font-family="Times,serif" font-size="14.00">FeeTypeComponent</text>
</g>
<!-- FeeTypeComponent&#45;&gt;FinanceSettingModule -->
<g id="edge8" class="edge">
<title>FeeTypeComponent&#45;&gt;FinanceSettingModule</title>
<path fill="none" stroke="black" d="M952,-85.04C952,-100.37 952,-119.8 952,-119.8 952,-119.8 1189.41,-119.8 1189.41,-119.8"/>
<polygon fill="black" stroke="black" points="1189.41,-123.3 1199.41,-119.8 1189.41,-116.3 1189.41,-123.3"/>
</g>
<!-- NewAccountChartComponent -->
<g id="node9" class="node">
<title>NewAccountChartComponent</title>
<polygon fill="#ffffb3" stroke="black" points="869.29,-84.8 682.71,-84.8 682.71,-48.8 869.29,-48.8 869.29,-84.8"/>
<text text-anchor="middle" x="776" y="-62.6" font-family="Times,serif" font-size="14.00">NewAccountChartComponent</text>
</g>
<!-- NewAccountChartComponent&#45;&gt;FinanceSettingModule -->
<g id="edge9" class="edge">
<title>NewAccountChartComponent&#45;&gt;FinanceSettingModule</title>
<path fill="none" stroke="black" d="M776,-84.83C776,-101.86 776,-124.8 776,-124.8 776,-124.8 1189.29,-124.8 1189.29,-124.8"/>
<polygon fill="black" stroke="black" points="1189.29,-128.3 1199.29,-124.8 1189.29,-121.3 1189.29,-128.3"/>
</g>
<!-- NewFeeComponent -->
<g id="node10" class="node">
<title>NewFeeComponent</title>
<polygon fill="#ffffb3" stroke="black" points="664.97,-84.8 537.03,-84.8 537.03,-48.8 664.97,-48.8 664.97,-84.8"/>
<text text-anchor="middle" x="601" y="-62.6" font-family="Times,serif" font-size="14.00">NewFeeComponent</text>
</g>
<!-- NewFeeComponent&#45;&gt;FinanceSettingModule -->
<g id="edge10" class="edge">
<title>NewFeeComponent&#45;&gt;FinanceSettingModule</title>
<path fill="none" stroke="black" d="M601,-85.02C601,-103.63 601,-129.8 601,-129.8 601,-129.8 1189.3,-129.8 1189.3,-129.8"/>
<polygon fill="black" stroke="black" points="1189.3,-133.3 1199.3,-129.8 1189.3,-126.3 1189.3,-133.3"/>
</g>
<!-- NewVendorsComponent -->
<g id="node11" class="node">
<title>NewVendorsComponent</title>
<polygon fill="#ffffb3" stroke="black" points="518.69,-84.8 363.31,-84.8 363.31,-48.8 518.69,-48.8 518.69,-84.8"/>
<text text-anchor="middle" x="441" y="-62.6" font-family="Times,serif" font-size="14.00">NewVendorsComponent</text>
</g>
<!-- NewVendorsComponent&#45;&gt;FinanceSettingModule -->
<g id="edge11" class="edge">
<title>NewVendorsComponent&#45;&gt;FinanceSettingModule</title>
<path fill="none" stroke="black" d="M441,-85.02C441,-105.17 441,-134.8 441,-134.8 441,-134.8 1189.16,-134.8 1189.16,-134.8"/>
<polygon fill="black" stroke="black" points="1189.16,-138.3 1199.16,-134.8 1189.16,-131.3 1189.16,-138.3"/>
</g>
<!-- PayrollAccountsComponent -->
<g id="node12" class="node">
<title>PayrollAccountsComponent</title>
<polygon fill="#ffffb3" stroke="black" points="345.14,-84.8 170.86,-84.8 170.86,-48.8 345.14,-48.8 345.14,-84.8"/>
<text text-anchor="middle" x="258" y="-62.6" font-family="Times,serif" font-size="14.00">PayrollAccountsComponent</text>
</g>
<!-- PayrollAccountsComponent&#45;&gt;FinanceSettingModule -->
<g id="edge12" class="edge">
<title>PayrollAccountsComponent&#45;&gt;FinanceSettingModule</title>
<path fill="none" stroke="black" d="M258,-84.84C258,-106.46 258,-139.8 258,-139.8 258,-139.8 1189.36,-139.8 1189.36,-139.8"/>
<polygon fill="black" stroke="black" points="1189.36,-143.3 1199.36,-139.8 1189.36,-136.3 1189.36,-143.3"/>
</g>
<!-- VendorsComponent -->
<g id="node13" class="node">
<title>VendorsComponent</title>
<polygon fill="#ffffb3" stroke="black" points="152.26,-84.8 23.74,-84.8 23.74,-48.8 152.26,-48.8 152.26,-84.8"/>
<text text-anchor="middle" x="88" y="-62.6" font-family="Times,serif" font-size="14.00">VendorsComponent</text>
</g>
<!-- VendorsComponent&#45;&gt;FinanceSettingModule -->
<g id="edge13" class="edge">
<title>VendorsComponent&#45;&gt;FinanceSettingModule</title>
<path fill="none" stroke="black" d="M88,-84.89C88,-107.93 88,-144.8 88,-144.8 88,-144.8 1189.22,-144.8 1189.22,-144.8"/>
<polygon fill="black" stroke="black" points="1189.22,-148.3 1199.22,-144.8 1189.22,-141.3 1189.22,-148.3"/>
</g>
<!-- FinanceSettingRoutingModule -->
<g id="node15" class="node">
<title>FinanceSettingRoutingModule</title>
<polygon fill="#8dd3c7" stroke="black" points="2556.15,-84.8 2553.15,-88.8 2532.15,-88.8 2529.15,-84.8 2367.85,-84.8 2367.85,-48.8 2556.15,-48.8 2556.15,-84.8"/>
<text text-anchor="middle" x="2462" y="-62.6" font-family="Times,serif" font-size="14.00">FinanceSettingRoutingModule</text>
</g>
<!-- FinanceSettingRoutingModule&#45;&gt;FinanceSettingModule -->
<g id="edge14" class="edge">
<title>FinanceSettingRoutingModule&#45;&gt;FinanceSettingModule</title>
<path fill="none" stroke="black" d="M2462,-84.89C2462,-107.93 2462,-144.8 2462,-144.8 2462,-144.8 1352.82,-144.8 1352.82,-144.8"/>
<polygon fill="black" stroke="black" points="1352.82,-141.3 1342.82,-144.8 1352.82,-148.3 1352.82,-141.3"/>
</g>
<!-- SharedModule -->
<g id="node16" class="node">
<title>SharedModule</title>
<polygon fill="#8dd3c7" stroke="black" points="2349.42,-84.8 2346.42,-88.8 2325.42,-88.8 2322.42,-84.8 2250.58,-84.8 2250.58,-48.8 2349.42,-48.8 2349.42,-84.8"/>
<text text-anchor="middle" x="2300" y="-62.6" font-family="Times,serif" font-size="14.00">SharedModule</text>
</g>
<!-- SharedModule&#45;&gt;FinanceSettingModule -->
<g id="edge15" class="edge">
<title>SharedModule&#45;&gt;FinanceSettingModule</title>
<path fill="none" stroke="black" d="M2300,-84.84C2300,-106.46 2300,-139.8 2300,-139.8 2300,-139.8 1352.54,-139.8 1352.54,-139.8"/>
<polygon fill="black" stroke="black" points="1352.54,-136.3 1342.54,-139.8 1352.54,-143.3 1352.54,-136.3"/>
</g>
</g>
</svg>
