<?xml version="1.0" encoding="UTF-8" standalone="no"?>
<!DOCTYPE svg PUBLIC "-//W3C//DTD SVG 1.1//EN"
 "http://www.w3.org/Graphics/SVG/1.1/DTD/svg11.dtd">
<!-- Generated by graphviz version 2.47.3 (20210619.1520)
 -->
<!-- Title: dependencies Pages: 1 -->
<svg width="1671pt" height="174pt"
 viewBox="0.00 0.00 1671.00 173.80" xmlns="http://www.w3.org/2000/svg" xmlns:xlink="http://www.w3.org/1999/xlink">
<g id="graph0" class="graph" transform="scale(1 1) rotate(0) translate(4 169.8)">
<title>dependencies</title>
<polygon fill="white" stroke="transparent" points="-4,4 -4,-169.8 1667,-169.8 1667,4 -4,4"/>
<text text-anchor="middle" x="831.5" y="-8.2" font-family="sans-serif" font-size="14.00">dependencies</text>
<g id="clust1" class="cluster">
<title>cluster_AlumniModule</title>
<polygon fill="none" stroke="black" stroke-dasharray="1,5" points="8,-32.8 8,-157.8 1655,-157.8 1655,-32.8 8,-32.8"/>
</g>
<g id="clust2" class="cluster">
<title>cluster_AlumniModule_declarations</title>
<polygon fill="none" stroke="black" points="188,-40.8 188,-92.8 1647,-92.8 1647,-40.8 188,-40.8"/>
</g>
<g id="clust11" class="cluster">
<title>cluster_AlumniModule_imports</title>
<polygon fill="none" stroke="black" points="16,-40.8 16,-92.8 180,-92.8 180,-40.8 16,-40.8"/>
</g>
<!-- AlumniAlumniComponent -->
<g id="node1" class="node">
<title>AlumniAlumniComponent</title>
<polygon fill="#ffffb3" stroke="black" points="1639.39,-84.8 1472.61,-84.8 1472.61,-48.8 1639.39,-48.8 1639.39,-84.8"/>
<text text-anchor="middle" x="1556" y="-62.6" font-family="Times,serif" font-size="14.00">AlumniAlumniComponent</text>
</g>
<!-- AlumniModule -->
<g id="node9" class="node">
<title>AlumniModule</title>
<polygon fill="#8dd3c7" stroke="black" points="894.33,-149.8 891.33,-153.8 870.33,-153.8 867.33,-149.8 791.67,-149.8 791.67,-113.8 894.33,-113.8 894.33,-149.8"/>
<text text-anchor="middle" x="843" y="-127.6" font-family="Times,serif" font-size="14.00">AlumniModule</text>
</g>
<!-- AlumniAlumniComponent&#45;&gt;AlumniModule -->
<g id="edge1" class="edge">
<title>AlumniAlumniComponent&#45;&gt;AlumniModule</title>
<path fill="none" stroke="black" d="M1556,-84.81C1556,-107.29 1556,-142.8 1556,-142.8 1556,-142.8 904.28,-142.8 904.28,-142.8"/>
<polygon fill="black" stroke="black" points="904.28,-139.3 894.28,-142.8 904.28,-146.3 904.28,-139.3"/>
</g>
<!-- AlumniComponent -->
<g id="node2" class="node">
<title>AlumniComponent</title>
<polygon fill="#ffffb3" stroke="black" points="1454.11,-84.8 1329.89,-84.8 1329.89,-48.8 1454.11,-48.8 1454.11,-84.8"/>
<text text-anchor="middle" x="1392" y="-62.6" font-family="Times,serif" font-size="14.00">AlumniComponent</text>
</g>
<!-- AlumniComponent&#45;&gt;AlumniModule -->
<g id="edge2" class="edge">
<title>AlumniComponent&#45;&gt;AlumniModule</title>
<path fill="none" stroke="black" d="M1392,-84.93C1392,-105.37 1392,-135.8 1392,-135.8 1392,-135.8 904.65,-135.8 904.65,-135.8"/>
<polygon fill="black" stroke="black" points="904.65,-132.3 894.65,-135.8 904.65,-139.3 904.65,-132.3"/>
</g>
<!-- AlumniEventDetailComponent -->
<g id="node3" class="node">
<title>AlumniEventDetailComponent</title>
<polygon fill="#ffffb3" stroke="black" points="1311.48,-84.8 1120.52,-84.8 1120.52,-48.8 1311.48,-48.8 1311.48,-84.8"/>
<text text-anchor="middle" x="1216" y="-62.6" font-family="Times,serif" font-size="14.00">AlumniEventDetailComponent</text>
</g>
<!-- AlumniEventDetailComponent&#45;&gt;AlumniModule -->
<g id="edge3" class="edge">
<title>AlumniEventDetailComponent&#45;&gt;AlumniModule</title>
<path fill="none" stroke="black" d="M1216,-85.07C1216,-103.36 1216,-128.8 1216,-128.8 1216,-128.8 904.47,-128.8 904.47,-128.8"/>
<polygon fill="black" stroke="black" points="904.47,-125.3 894.47,-128.8 904.47,-132.3 904.47,-125.3"/>
</g>
<!-- AlumniEventsComponent -->
<g id="node4" class="node">
<title>AlumniEventsComponent</title>
<polygon fill="#ffffb3" stroke="black" points="1102.21,-84.8 939.79,-84.8 939.79,-48.8 1102.21,-48.8 1102.21,-84.8"/>
<text text-anchor="middle" x="1021" y="-62.6" font-family="Times,serif" font-size="14.00">AlumniEventsComponent</text>
</g>
<!-- AlumniEventsComponent&#45;&gt;AlumniModule -->
<g id="edge4" class="edge">
<title>AlumniEventsComponent&#45;&gt;AlumniModule</title>
<path fill="none" stroke="black" d="M1021,-84.81C1021,-100.85 1021,-121.8 1021,-121.8 1021,-121.8 904.48,-121.8 904.48,-121.8"/>
<polygon fill="black" stroke="black" points="904.49,-118.3 894.48,-121.8 904.48,-125.3 904.49,-118.3"/>
</g>
<!-- AlumniHomeComponent -->
<g id="node5" class="node">
<title>AlumniHomeComponent</title>
<polygon fill="#ffffb3" stroke="black" points="922.32,-84.8 763.68,-84.8 763.68,-48.8 922.32,-48.8 922.32,-84.8"/>
<text text-anchor="middle" x="843" y="-62.6" font-family="Times,serif" font-size="14.00">AlumniHomeComponent</text>
</g>
<!-- AlumniHomeComponent&#45;&gt;AlumniModule -->
<g id="edge5" class="edge">
<title>AlumniHomeComponent&#45;&gt;AlumniModule</title>
<path fill="none" stroke="black" d="M843,-84.91C843,-84.91 843,-103.79 843,-103.79"/>
<polygon fill="black" stroke="black" points="839.5,-103.79 843,-113.79 846.5,-103.79 839.5,-103.79"/>
</g>
<!-- AlumniProfileComponent -->
<g id="node6" class="node">
<title>AlumniProfileComponent</title>
<polygon fill="#ffffb3" stroke="black" points="746.21,-84.8 583.79,-84.8 583.79,-48.8 746.21,-48.8 746.21,-84.8"/>
<text text-anchor="middle" x="665" y="-62.6" font-family="Times,serif" font-size="14.00">AlumniProfileComponent</text>
</g>
<!-- AlumniProfileComponent&#45;&gt;AlumniModule -->
<g id="edge6" class="edge">
<title>AlumniProfileComponent&#45;&gt;AlumniModule</title>
<path fill="none" stroke="black" d="M665,-84.81C665,-100.85 665,-121.8 665,-121.8 665,-121.8 781.52,-121.8 781.52,-121.8"/>
<polygon fill="black" stroke="black" points="781.52,-125.3 791.52,-121.8 781.51,-118.3 781.52,-125.3"/>
</g>
<!-- AlumniRecordsComponent -->
<g id="node7" class="node">
<title>AlumniRecordsComponent</title>
<polygon fill="#ffffb3" stroke="black" points="565.98,-84.8 396.02,-84.8 396.02,-48.8 565.98,-48.8 565.98,-84.8"/>
<text text-anchor="middle" x="481" y="-62.6" font-family="Times,serif" font-size="14.00">AlumniRecordsComponent</text>
</g>
<!-- AlumniRecordsComponent&#45;&gt;AlumniModule -->
<g id="edge7" class="edge">
<title>AlumniRecordsComponent&#45;&gt;AlumniModule</title>
<path fill="none" stroke="black" d="M481,-85.07C481,-103.36 481,-128.8 481,-128.8 481,-128.8 781.52,-128.8 781.52,-128.8"/>
<polygon fill="black" stroke="black" points="781.52,-132.3 791.52,-128.8 781.52,-125.3 781.52,-132.3"/>
</g>
<!-- AlumniTranscriptComponent -->
<g id="node8" class="node">
<title>AlumniTranscriptComponent</title>
<polygon fill="#ffffb3" stroke="black" points="377.64,-84.8 196.36,-84.8 196.36,-48.8 377.64,-48.8 377.64,-84.8"/>
<text text-anchor="middle" x="287" y="-62.6" font-family="Times,serif" font-size="14.00">AlumniTranscriptComponent</text>
</g>
<!-- AlumniTranscriptComponent&#45;&gt;AlumniModule -->
<g id="edge8" class="edge">
<title>AlumniTranscriptComponent&#45;&gt;AlumniModule</title>
<path fill="none" stroke="black" d="M287,-84.93C287,-105.37 287,-135.8 287,-135.8 287,-135.8 781.69,-135.8 781.69,-135.8"/>
<polygon fill="black" stroke="black" points="781.69,-139.3 791.69,-135.8 781.69,-132.3 781.69,-139.3"/>
</g>
<!-- AlumniRoutingModule -->
<g id="node10" class="node">
<title>AlumniRoutingModule</title>
<polygon fill="#8dd3c7" stroke="black" points="171.95,-84.8 168.95,-88.8 147.95,-88.8 144.95,-84.8 24.05,-84.8 24.05,-48.8 171.95,-48.8 171.95,-84.8"/>
<text text-anchor="middle" x="98" y="-62.6" font-family="Times,serif" font-size="14.00">AlumniRoutingModule</text>
</g>
<!-- AlumniRoutingModule&#45;&gt;AlumniModule -->
<g id="edge9" class="edge">
<title>AlumniRoutingModule&#45;&gt;AlumniModule</title>
<path fill="none" stroke="black" d="M98,-84.81C98,-107.29 98,-142.8 98,-142.8 98,-142.8 781.79,-142.8 781.79,-142.8"/>
<polygon fill="black" stroke="black" points="781.79,-146.3 791.79,-142.8 781.79,-139.3 781.79,-146.3"/>
</g>
</g>
</svg>
