<?xml version="1.0" encoding="UTF-8" standalone="no"?>
<!DOCTYPE svg PUBLIC "-//W3C//DTD SVG 1.1//EN"
 "http://www.w3.org/Graphics/SVG/1.1/DTD/svg11.dtd">
<!-- Generated by graphviz version 2.47.3 (20210619.1520)
 -->
<!-- Title: dependencies Pages: 1 -->
<svg width="1786pt" height="174pt"
 viewBox="0.00 0.00 1786.00 173.80" xmlns="http://www.w3.org/2000/svg" xmlns:xlink="http://www.w3.org/1999/xlink">
<g id="graph0" class="graph" transform="scale(1 1) rotate(0) translate(4 169.8)">
<title>dependencies</title>
<polygon fill="white" stroke="transparent" points="-4,4 -4,-169.8 1782,-169.8 1782,4 -4,4"/>
<text text-anchor="middle" x="889" y="-8.2" font-family="sans-serif" font-size="14.00">dependencies</text>
<g id="clust1" class="cluster">
<title>cluster_AuthenticationModule</title>
<polygon fill="none" stroke="black" stroke-dasharray="1,5" points="8,-32.8 8,-157.8 1770,-157.8 1770,-32.8 8,-32.8"/>
</g>
<g id="clust11" class="cluster">
<title>cluster_AuthenticationModule_imports</title>
<polygon fill="none" stroke="black" points="1442,-40.8 1442,-92.8 1762,-92.8 1762,-40.8 1442,-40.8"/>
</g>
<g id="clust2" class="cluster">
<title>cluster_AuthenticationModule_declarations</title>
<polygon fill="none" stroke="black" points="16,-40.8 16,-92.8 1434,-92.8 1434,-40.8 16,-40.8"/>
</g>
<!-- AdminLoginComponent -->
<g id="node1" class="node">
<title>AdminLoginComponent</title>
<polygon fill="#ffffb3" stroke="black" points="1425.66,-84.8 1272.34,-84.8 1272.34,-48.8 1425.66,-48.8 1425.66,-84.8"/>
<text text-anchor="middle" x="1349" y="-62.6" font-family="Times,serif" font-size="14.00">AdminLoginComponent</text>
</g>
<!-- AuthenticationModule -->
<g id="node9" class="node">
<title>AuthenticationModule</title>
<polygon fill="#8dd3c7" stroke="black" points="969.25,-149.8 966.25,-153.8 945.25,-153.8 942.25,-149.8 826.75,-149.8 826.75,-113.8 969.25,-113.8 969.25,-149.8"/>
<text text-anchor="middle" x="898" y="-127.6" font-family="Times,serif" font-size="14.00">AuthenticationModule</text>
</g>
<!-- AdminLoginComponent&#45;&gt;AuthenticationModule -->
<g id="edge1" class="edge">
<title>AdminLoginComponent&#45;&gt;AuthenticationModule</title>
<path fill="none" stroke="black" d="M1349,-85.07C1349,-103.36 1349,-128.8 1349,-128.8 1349,-128.8 979.46,-128.8 979.46,-128.8"/>
<polygon fill="black" stroke="black" points="979.46,-125.3 969.46,-128.8 979.46,-132.3 979.46,-125.3"/>
</g>
<!-- EmailVerifiedComponent -->
<g id="node2" class="node">
<title>EmailVerifiedComponent</title>
<polygon fill="#ffffb3" stroke="black" points="1253.91,-84.8 1092.09,-84.8 1092.09,-48.8 1253.91,-48.8 1253.91,-84.8"/>
<text text-anchor="middle" x="1173" y="-62.6" font-family="Times,serif" font-size="14.00">EmailVerifiedComponent</text>
</g>
<!-- EmailVerifiedComponent&#45;&gt;AuthenticationModule -->
<g id="edge2" class="edge">
<title>EmailVerifiedComponent&#45;&gt;AuthenticationModule</title>
<path fill="none" stroke="black" d="M1173,-84.81C1173,-100.85 1173,-121.8 1173,-121.8 1173,-121.8 979.54,-121.8 979.54,-121.8"/>
<polygon fill="black" stroke="black" points="979.54,-118.3 969.54,-121.8 979.54,-125.3 979.54,-118.3"/>
</g>
<!-- ForgotPasswordComponent -->
<g id="node3" class="node">
<title>ForgotPasswordComponent</title>
<polygon fill="#ffffb3" stroke="black" points="1074.32,-84.8 901.68,-84.8 901.68,-48.8 1074.32,-48.8 1074.32,-84.8"/>
<text text-anchor="middle" x="988" y="-62.6" font-family="Times,serif" font-size="14.00">ForgotPasswordComponent</text>
</g>
<!-- ForgotPasswordComponent&#45;&gt;AuthenticationModule -->
<g id="edge3" class="edge">
<title>ForgotPasswordComponent&#45;&gt;AuthenticationModule</title>
<path fill="none" stroke="black" d="M935.61,-84.91C935.61,-84.91 935.61,-103.79 935.61,-103.79"/>
<polygon fill="black" stroke="black" points="932.11,-103.79 935.61,-113.79 939.11,-103.79 932.11,-103.79"/>
</g>
<!-- ParentLoginComponent -->
<g id="node4" class="node">
<title>ParentLoginComponent</title>
<polygon fill="#ffffb3" stroke="black" points="884.04,-84.8 733.96,-84.8 733.96,-48.8 884.04,-48.8 884.04,-84.8"/>
<text text-anchor="middle" x="809" y="-62.6" font-family="Times,serif" font-size="14.00">ParentLoginComponent</text>
</g>
<!-- ParentLoginComponent&#45;&gt;AuthenticationModule -->
<g id="edge4" class="edge">
<title>ParentLoginComponent&#45;&gt;AuthenticationModule</title>
<path fill="none" stroke="black" d="M855.45,-84.91C855.45,-84.91 855.45,-103.79 855.45,-103.79"/>
<polygon fill="black" stroke="black" points="851.95,-103.79 855.45,-113.79 858.95,-103.79 851.95,-103.79"/>
</g>
<!-- ResetPasswordComponent -->
<g id="node5" class="node">
<title>ResetPasswordComponent</title>
<polygon fill="#ffffb3" stroke="black" points="716.09,-84.8 549.91,-84.8 549.91,-48.8 716.09,-48.8 716.09,-84.8"/>
<text text-anchor="middle" x="633" y="-62.6" font-family="Times,serif" font-size="14.00">ResetPasswordComponent</text>
</g>
<!-- ResetPasswordComponent&#45;&gt;AuthenticationModule -->
<g id="edge5" class="edge">
<title>ResetPasswordComponent&#45;&gt;AuthenticationModule</title>
<path fill="none" stroke="black" d="M633,-84.81C633,-100.85 633,-121.8 633,-121.8 633,-121.8 816.64,-121.8 816.64,-121.8"/>
<polygon fill="black" stroke="black" points="816.64,-125.3 826.64,-121.8 816.64,-118.3 816.64,-125.3"/>
</g>
<!-- SchoolLoginComponent -->
<g id="node6" class="node">
<title>SchoolLoginComponent</title>
<polygon fill="#ffffb3" stroke="black" points="531.66,-84.8 378.34,-84.8 378.34,-48.8 531.66,-48.8 531.66,-84.8"/>
<text text-anchor="middle" x="455" y="-62.6" font-family="Times,serif" font-size="14.00">SchoolLoginComponent</text>
</g>
<!-- SchoolLoginComponent&#45;&gt;AuthenticationModule -->
<g id="edge6" class="edge">
<title>SchoolLoginComponent&#45;&gt;AuthenticationModule</title>
<path fill="none" stroke="black" d="M455,-85.07C455,-103.36 455,-128.8 455,-128.8 455,-128.8 816.33,-128.8 816.33,-128.8"/>
<polygon fill="black" stroke="black" points="816.33,-132.3 826.33,-128.8 816.33,-125.3 816.33,-132.3"/>
</g>
<!-- StudentLoginComponent -->
<g id="node7" class="node">
<title>StudentLoginComponent</title>
<polygon fill="#ffffb3" stroke="black" points="359.55,-84.8 202.45,-84.8 202.45,-48.8 359.55,-48.8 359.55,-84.8"/>
<text text-anchor="middle" x="281" y="-62.6" font-family="Times,serif" font-size="14.00">StudentLoginComponent</text>
</g>
<!-- StudentLoginComponent&#45;&gt;AuthenticationModule -->
<g id="edge7" class="edge">
<title>StudentLoginComponent&#45;&gt;AuthenticationModule</title>
<path fill="none" stroke="black" d="M281,-84.93C281,-105.37 281,-135.8 281,-135.8 281,-135.8 816.62,-135.8 816.62,-135.8"/>
<polygon fill="black" stroke="black" points="816.62,-139.3 826.62,-135.8 816.62,-132.3 816.62,-139.3"/>
</g>
<!-- TeacherLoginComponent -->
<g id="node8" class="node">
<title>TeacherLoginComponent</title>
<polygon fill="#ffffb3" stroke="black" points="183.85,-84.8 24.15,-84.8 24.15,-48.8 183.85,-48.8 183.85,-84.8"/>
<text text-anchor="middle" x="104" y="-62.6" font-family="Times,serif" font-size="14.00">TeacherLoginComponent</text>
</g>
<!-- TeacherLoginComponent&#45;&gt;AuthenticationModule -->
<g id="edge8" class="edge">
<title>TeacherLoginComponent&#45;&gt;AuthenticationModule</title>
<path fill="none" stroke="black" d="M104,-84.81C104,-107.29 104,-142.8 104,-142.8 104,-142.8 816.49,-142.8 816.49,-142.8"/>
<polygon fill="black" stroke="black" points="816.49,-146.3 826.49,-142.8 816.49,-139.3 816.49,-146.3"/>
</g>
<!-- AuthenticationRoutingModule -->
<g id="node10" class="node">
<title>AuthenticationRoutingModule</title>
<polygon fill="#8dd3c7" stroke="black" points="1753.87,-84.8 1750.87,-88.8 1729.87,-88.8 1726.87,-84.8 1566.13,-84.8 1566.13,-48.8 1753.87,-48.8 1753.87,-84.8"/>
<text text-anchor="middle" x="1660" y="-62.6" font-family="Times,serif" font-size="14.00">AuthenticationRoutingModule</text>
</g>
<!-- AuthenticationRoutingModule&#45;&gt;AuthenticationModule -->
<g id="edge9" class="edge">
<title>AuthenticationRoutingModule&#45;&gt;AuthenticationModule</title>
<path fill="none" stroke="black" d="M1660,-84.81C1660,-107.29 1660,-142.8 1660,-142.8 1660,-142.8 979.34,-142.8 979.34,-142.8"/>
<polygon fill="black" stroke="black" points="979.34,-139.3 969.34,-142.8 979.34,-146.3 979.34,-139.3"/>
</g>
<!-- SharedModule -->
<g id="node11" class="node">
<title>SharedModule</title>
<polygon fill="#8dd3c7" stroke="black" points="1548.42,-84.8 1545.42,-88.8 1524.42,-88.8 1521.42,-84.8 1449.58,-84.8 1449.58,-48.8 1548.42,-48.8 1548.42,-84.8"/>
<text text-anchor="middle" x="1499" y="-62.6" font-family="Times,serif" font-size="14.00">SharedModule</text>
</g>
<!-- SharedModule&#45;&gt;AuthenticationModule -->
<g id="edge10" class="edge">
<title>SharedModule&#45;&gt;AuthenticationModule</title>
<path fill="none" stroke="black" d="M1499,-84.93C1499,-105.37 1499,-135.8 1499,-135.8 1499,-135.8 979.3,-135.8 979.3,-135.8"/>
<polygon fill="black" stroke="black" points="979.3,-132.3 969.3,-135.8 979.3,-139.3 979.3,-132.3"/>
</g>
</g>
</svg>
