<svg width="100" height="100" viewBox="0 0 100 100" fill="none" xmlns="http://www.w3.org/2000/svg">
<path d="M91.913 19.496H55.8498L48.6658 10.9882C48.4288 10.707 48.0793 10.5453 47.7114 10.5469H18.6371C14.1708 10.5469 10.5501 14.1676 10.5501 18.6339V20.9943H8.08703C3.62479 20.9943 0.0056445 24.6089 0 29.0711V81.411C0 85.8773 3.62069 89.498 8.08703 89.498H81.3629C85.8292 89.498 89.4499 85.8773 89.4499 81.411V79.0506H91.913C96.3793 79.0506 100 75.4299 100 70.9636V27.583C100 23.1167 96.3793 19.496 91.913 19.496ZM86.9458 76.6183V81.4623C86.9402 84.5491 84.4394 87.0499 81.3526 87.0555H8.08703C5.00026 87.0499 2.49949 84.5491 2.49384 81.4623V29.1224C2.49949 26.0356 5.00026 23.5349 8.08703 23.5292H36.6585L43.8424 32.037C44.0794 32.3182 44.4289 32.4799 44.7968 32.4783H81.4347C84.4735 32.5284 86.9184 34.9914 86.9458 38.0305V76.6183ZM97.4959 71.0251C97.4902 74.1119 94.9895 76.6127 91.9027 76.6183H89.4397V38.0305C89.4397 33.5641 85.819 29.9434 81.3526 29.9434H45.2997L38.1158 21.4356C37.8787 21.1544 37.5292 20.9928 37.1613 20.9943H13.0542V18.6339C13.0598 15.5471 15.5606 13.0464 18.6474 13.0407H47.1777L54.3617 21.5485C54.5987 21.8297 54.9482 21.9914 55.3161 21.9898H91.954C95.0408 21.9955 97.5416 24.4962 97.5472 27.583L97.4959 71.0251Z" fill="#04aed4"/>
</svg>
