<svg width="63" height="80" viewBox="0 0 63 80" fill="none" xmlns="http://www.w3.org/2000/svg">
<path d="M43.6271 73.735L8.4995 73.8006C5.81 73.8006 3.57968 71.6031 3.57968 68.9136L3.54688 46.0528C3.54688 43.3633 5.7444 41.133 8.43391 41.133L43.5615 41.0674C46.251 41.0674 48.4813 43.2649 48.4813 45.9544L48.5141 68.8152C48.5141 71.5047 46.3166 73.735 43.6271 73.735Z" fill="#3D85FD"/>
<path d="M8.49775 74.2924C5.51305 74.2924 3.11874 71.8653 3.11874 68.9134L3.08594 46.0526C3.08594 43.0679 5.48025 40.6408 8.46495 40.6408L43.5925 40.5752C46.5772 40.5752 48.9715 43.0023 48.9715 45.9542L49.0043 68.815C49.0043 70.2582 48.4467 71.6029 47.43 72.6197C46.4132 73.6364 45.0685 74.194 43.6253 74.2268L8.49775 74.2924ZM43.5597 41.5592L8.43215 41.6248C6.00504 41.6248 4.0371 43.6255 4.0371 46.0526L4.0699 68.9134C4.0699 71.3405 6.03783 73.3085 8.46495 73.3085L43.5925 73.2429C44.7733 73.2429 45.8556 72.7837 46.7084 71.9309C47.5284 71.0781 47.9876 69.9958 47.9876 68.815L47.9548 45.9542C47.9548 43.5271 45.9868 41.5592 43.5597 41.5592Z" fill="#233863"/>
<path opacity="0.24" d="M43.6271 73.735L8.4995 73.8006C5.81 73.8006 3.57968 71.6031 3.57968 68.9136L3.54688 46.0528C3.54688 43.3633 5.7444 41.133 8.43391 41.133L43.5615 41.0674C46.251 41.0674 48.4813 43.2649 48.4813 45.9544L48.5141 68.8152C48.5141 71.5047 46.3166 73.735 43.6271 73.735Z" fill="#233863"/>
<path d="M41.6587 68.6184L26.1777 53.7933C26.0137 53.6293 26.0137 53.3669 26.1777 53.203L46.2506 32.2773C46.4146 32.1133 46.677 32.1133 46.841 32.2773L62.322 47.1024C62.486 47.2664 62.486 47.5288 62.322 47.6927L42.2491 68.6184C42.0851 68.7824 41.8227 68.7824 41.6587 68.6184Z" fill="white"/>
<path d="M41.919 69.2415C41.6894 69.2415 41.4598 69.1431 41.2958 68.9791L25.8147 54.1541C25.6507 53.9901 25.5523 53.7605 25.5195 53.5309C25.5195 53.3013 25.6179 53.0717 25.7819 52.8749L45.8876 31.9164C46.2484 31.5557 46.806 31.5557 47.1668 31.8836L62.6478 46.7087C63.0086 47.0695 63.0086 47.6271 62.6806 47.9879L42.6077 68.9135C42.4109 69.1431 42.1813 69.2415 41.919 69.2415C41.9518 69.2415 41.9518 69.2415 41.919 69.2415ZM26.5691 53.4981L41.919 68.2248L61.8934 47.3975L46.5436 32.6708L26.5691 53.4981Z" fill="#233863"/>
<path d="M57.7287 47.5619C57.6631 47.5619 57.5647 47.5291 57.4991 47.4635L51.6609 41.8877C51.5297 41.7565 51.5297 41.5597 51.6609 41.4285C51.7921 41.2973 51.9889 41.2973 52.1201 41.4285L57.9583 47.0043C58.0895 47.1355 58.0895 47.3323 57.9583 47.4635C57.8927 47.5291 57.8271 47.5619 57.7287 47.5619Z" fill="#EB6B04"/>
<path d="M54.8095 51.3994C54.7439 51.3994 54.6455 51.3666 54.5799 51.301L42.9363 40.1494C42.8051 40.0182 42.8051 39.8214 42.9363 39.6902C43.0675 39.559 43.2643 39.559 43.3955 39.6902L55.0391 50.8418C55.1703 50.973 55.1703 51.1698 55.0391 51.301C54.9735 51.3666 54.8751 51.3994 54.8095 51.3994Z" fill="#233863"/>
<path d="M51.0048 55.3672C50.9392 55.3672 50.8408 55.3344 50.7752 55.2688L39.1316 44.1172C39.0004 43.986 39.0004 43.7892 39.1316 43.658C39.2628 43.5268 39.4596 43.5268 39.5908 43.658L51.2344 54.8096C51.3656 54.9408 51.3656 55.1376 51.2344 55.2688C51.1688 55.3344 51.1032 55.3672 51.0048 55.3672Z" fill="#233863"/>
<path d="M47.4306 59.0742C47.365 59.0742 47.2666 59.0414 47.201 58.9758L35.5574 47.8242C35.4262 47.693 35.4262 47.4962 35.5574 47.365C35.6886 47.2338 35.8854 47.2338 36.0166 47.365L47.6602 58.5166C47.7913 58.6478 47.7913 58.8446 47.6602 58.9758C47.5946 59.0414 47.529 59.0742 47.4306 59.0742Z" fill="#233863"/>
<path d="M43.6239 63.0429C43.5583 63.0429 43.4599 63.0101 43.3943 62.9445L31.7507 51.7929C31.6195 51.6617 31.6195 51.4649 31.7507 51.3337C31.8819 51.2026 32.0787 51.2026 32.2099 51.3337L43.8535 62.4854C43.9847 62.6166 43.9847 62.8133 43.8535 62.9445C43.8207 63.0101 43.7223 63.0429 43.6239 63.0429Z" fill="#233863"/>
<path d="M32.7355 49.7265L12.8922 57.8278C12.6626 57.9262 12.433 57.8278 12.3346 57.5982L1.37979 30.736C1.28139 30.5064 1.37979 30.2768 1.60938 30.1784L21.4527 22.0771C21.6823 21.9787 21.9119 22.0771 22.0103 22.3066L32.9651 49.1689C33.0635 49.3985 32.9651 49.6281 32.7355 49.7265Z" fill="white"/>
<path d="M12.729 58.3527C12.5978 58.3527 12.4994 58.3199 12.3683 58.2871C12.1387 58.1887 11.9747 58.0248 11.8763 57.7952L0.921454 30.9329C0.823057 30.7033 0.823057 30.4737 0.921454 30.2441C1.01985 30.0145 1.18384 29.8505 1.41344 29.7521L21.2567 21.6508C21.7159 21.454 22.2407 21.6836 22.4375 22.1428L33.3923 49.0051C33.5891 49.4643 33.3595 49.989 32.9003 50.1858L13.0898 58.2871C12.9914 58.3199 12.8602 58.3527 12.729 58.3527ZM1.87262 30.6377L12.7946 57.3688L32.5067 49.3331L21.5847 22.602L1.87262 30.6377Z" fill="#233863"/>
<path d="M18.6328 32.2778C18.5016 32.2778 18.3704 32.2122 18.3376 32.081C18.272 31.917 18.3376 31.7202 18.5016 31.6546L21.9127 30.2771C22.0767 30.2115 22.2735 30.2771 22.3391 30.4411C22.4047 30.6051 22.3391 30.8019 22.1751 30.8675L18.764 32.245C18.7312 32.2778 18.6656 32.2778 18.6328 32.2778Z" fill="#233863"/>
<path d="M9.18752 42.0848C9.05632 42.0848 8.92512 42.0192 8.89232 41.888C8.82673 41.724 8.89232 41.5273 9.05632 41.4617L23.9798 35.3611C24.1438 35.2955 24.3406 35.3611 24.4062 35.5251C24.4718 35.6891 24.4062 35.8859 24.2422 35.9515L9.31871 42.052C9.28591 42.052 9.22032 42.0848 9.18752 42.0848Z" fill="#233863"/>
<path d="M19.584 41.8547C19.4528 41.8547 19.3216 41.7891 19.2888 41.6579C19.2232 41.4939 19.2888 41.2971 19.4528 41.2315L25.3894 38.8044C25.5534 38.7388 25.7502 38.8044 25.8158 38.9684C25.8814 39.1324 25.8158 39.3292 25.6518 39.3948L19.7152 41.8219C19.6824 41.8547 19.6496 41.8547 19.584 41.8547Z" fill="#EB6B04"/>
<path d="M10.5977 45.5286C10.4665 45.5286 10.3353 45.463 10.3025 45.3318C10.2369 45.1678 10.3025 44.971 10.4665 44.9054L14.1071 43.4294C14.2711 43.3638 14.4679 43.4294 14.5335 43.5934C14.5991 43.7574 14.5335 43.9542 14.3695 44.0198L10.7289 45.4958C10.6961 45.5286 10.6305 45.5286 10.5977 45.5286Z" fill="#EB6B04"/>
<path d="M11.7774 49.5628C11.6462 49.5628 11.515 49.4972 11.4822 49.366C11.4166 49.202 11.4822 49.0052 11.6462 48.9396L20.8298 45.1677C20.9938 45.1021 21.1906 45.1677 21.2562 45.3317C21.3218 45.4957 21.2562 45.6925 21.0922 45.7581L11.9085 49.53C11.843 49.53 11.8102 49.5628 11.7774 49.5628Z" fill="#233863"/>
<path d="M16.9591 34.7709L9.02183 38.2147C8.69384 38.3459 8.30025 38.2147 8.16906 37.8868L4.49559 29.3918C4.36439 29.0639 4.49559 28.6703 4.82358 28.5391L12.7609 25.0952C13.0889 24.964 13.4825 25.0952 13.6137 25.4232L17.2871 33.9181C17.4511 34.2461 17.2871 34.6397 16.9591 34.7709Z" fill="#EB6B04"/>
<path d="M8.75939 38.5755C8.62819 38.5755 8.52979 38.5427 8.3986 38.5099C8.169 38.4115 7.97221 38.2147 7.84102 37.9851L4.16755 29.4902C4.06915 29.2606 4.06915 28.9654 4.16755 28.7358C4.26594 28.5062 4.46273 28.3094 4.69233 28.1782L12.6297 24.7344C13.1216 24.5048 13.712 24.7344 13.9416 25.2591L17.6151 33.754C17.7135 33.9836 17.7135 34.2788 17.6151 34.5084C17.5167 34.738 17.3199 34.9348 17.0903 35.066L9.15297 38.5099C9.02178 38.5755 8.89058 38.5755 8.75939 38.5755ZM13.0232 25.3247C12.9904 25.3247 12.9248 25.3247 12.892 25.3575L4.95472 28.8014C4.88912 28.8342 4.82352 28.8998 4.79072 28.9982C4.75792 29.0638 4.75792 29.1622 4.79072 29.2606L8.46419 37.7555C8.49699 37.8211 8.56259 37.8867 8.66099 37.9195C8.72659 37.9523 8.82498 37.9523 8.92338 37.9195L16.8607 34.4756C16.9263 34.4428 16.9919 34.3772 17.0247 34.2788C17.0575 34.2132 17.0575 34.1148 17.0247 34.0164L13.3512 25.5215C13.2528 25.3903 13.1544 25.3247 13.0232 25.3247Z" fill="#233863"/>
<path d="M8.49696 30.2773C8.39857 30.2773 8.30017 30.2445 8.20178 30.2117C8.00498 30.1461 7.87379 29.9821 7.77539 29.7853L7.349 28.8014C7.31621 28.703 7.34901 28.6374 7.4474 28.5718C7.5458 28.539 7.6114 28.5718 7.67699 28.6702L8.10338 29.6542C8.13618 29.7525 8.23458 29.8509 8.36577 29.8837C8.46417 29.9165 8.59536 29.9165 8.69376 29.8837L8.75936 29.8509C8.92335 29.7853 9.02175 29.5558 8.92335 29.3918L7.84099 26.8662C7.77539 26.6695 7.5458 26.6039 7.38181 26.6695L7.25061 26.7351C7.05381 26.8334 6.95542 27.0302 7.05382 27.227L7.08661 27.2926C7.11941 27.391 7.08661 27.4566 6.98822 27.5222C6.88982 27.555 6.82422 27.5222 6.75862 27.4238L6.72583 27.3582C6.56183 26.9974 6.72583 26.5711 7.08661 26.4399L7.21781 26.3743C7.5786 26.2103 7.97218 26.3743 8.10338 26.7351L9.18574 29.2606C9.31694 29.5885 9.18574 30.0149 8.82495 30.1461L8.75936 30.1789C8.72656 30.2445 8.59536 30.2773 8.49696 30.2773Z" fill="#233863"/>
<path d="M13.1554 26.5376C13.4178 26.8 13.4178 27.2592 13.1554 27.5216C12.893 27.784 12.4338 27.784 12.1714 27.5216C11.909 27.2592 11.909 26.8 12.1714 26.5376C12.4338 26.2752 12.893 26.2752 13.1554 26.5376Z" fill="white"/>
<path d="M51.4979 28.1777L31.7858 36.5414C31.589 36.6398 31.3266 36.5414 31.2282 36.3118L19.8798 9.61357C19.7814 9.41678 19.8798 9.15439 20.1094 9.056L39.8215 0.692291C40.0183 0.593894 40.2807 0.69229 40.3791 0.921882L51.7275 27.6201C51.7931 27.8497 51.6947 28.1121 51.4979 28.1777Z" fill="white"/>
<path d="M31.5887 37.0987C31.4575 37.0987 31.3591 37.0659 31.2607 37.0331C31.0312 36.9347 30.8672 36.7707 30.7688 36.5411L19.4204 9.84287C19.2236 9.38368 19.4532 8.85891 19.9123 8.66211L39.6245 0.298407C39.854 0.20001 40.0836 0.20001 40.3132 0.298407C40.5428 0.396803 40.7068 0.560798 40.8052 0.790389L52.1536 27.4886C52.252 27.7182 52.252 27.9478 52.1536 28.1774C52.0552 28.407 51.8912 28.571 51.6616 28.6694L31.9495 37.0331C31.8511 37.0659 31.7199 37.0987 31.5887 37.0987ZM20.3715 9.51488L31.6543 36.0819L51.2352 27.751L39.9524 1.18397L20.3715 9.51488Z" fill="#233863"/>
<path d="M37.1309 10.9577C36.9997 10.9577 36.8685 10.8921 36.8357 10.7609C36.7701 10.5969 36.8357 10.4001 36.9997 10.3345L40.378 8.89135C40.542 8.82575 40.7387 8.89135 40.8043 9.05534C40.8699 9.21934 40.8043 9.41613 40.6404 9.48173L37.2621 10.9249C37.2293 10.9249 37.1965 10.9577 37.1309 10.9577Z" fill="#233863"/>
<path d="M27.8184 20.8637C27.6872 20.8637 27.556 20.7981 27.5232 20.6669C27.4576 20.5029 27.5232 20.3061 27.6872 20.2405L42.5451 13.9431C42.7091 13.8775 42.9058 13.9431 42.9714 14.1071C43.037 14.2711 42.9714 14.4679 42.8074 14.5335L27.9496 20.8309C27.9168 20.8637 27.884 20.8637 27.8184 20.8637Z" fill="#233863"/>
<path d="M38.2461 20.5024C38.1149 20.5024 37.9837 20.4368 37.9509 20.3056C37.8853 20.1416 37.9509 19.9448 38.1149 19.8792L44.0187 17.3865C44.1827 17.3209 44.3795 17.3865 44.4451 17.5505C44.5107 17.7145 44.4451 17.9112 44.2811 17.9768L38.3773 20.4696C38.3117 20.5024 38.2789 20.5024 38.2461 20.5024Z" fill="#EB6B04"/>
<path d="M29.293 24.3071C29.1618 24.3071 29.0306 24.2415 28.9978 24.1103C28.9322 23.9463 28.9978 23.7495 29.1618 23.6839L32.7697 22.1423C32.9337 22.0767 33.1304 22.1423 33.196 22.3063C33.2616 22.4703 33.196 22.6671 33.0321 22.7327L29.4242 24.2742C29.3586 24.2742 29.3258 24.3071 29.293 24.3071Z" fill="#EB6B04"/>
<path d="M30.5059 28.3086C30.3747 28.3086 30.2435 28.243 30.2107 28.1118C30.1451 27.9478 30.2107 27.751 30.3747 27.6854L39.5256 23.8152C39.6896 23.7496 39.8863 23.8152 39.9519 23.9792C40.0175 24.1432 39.9519 24.34 39.7879 24.4056L30.6371 28.2758C30.6043 28.3086 30.5715 28.3086 30.5059 28.3086Z" fill="#233863"/>
<path d="M41.3948 56.6788L20.2068 53.4646C19.9772 53.4318 19.8132 53.2022 19.846 52.9726L24.2082 24.3064C24.241 24.0768 24.4706 23.9128 24.7002 23.9456L45.8883 27.1599C46.1178 27.1927 46.2818 27.4223 46.249 27.6519L41.8868 56.318C41.854 56.5476 41.6244 56.7116 41.3948 56.6788Z" fill="#3AAED5"/>
<path d="M41.4609 57.1713C41.4281 57.1713 41.3625 57.1713 41.3297 57.1713L20.1416 53.957C19.912 53.9242 19.6825 53.793 19.5513 53.5962C19.4201 53.3994 19.3545 53.1698 19.3873 52.9074L23.7495 24.2412C23.7823 24.0117 23.9135 23.7821 24.1103 23.6509C24.3071 23.5197 24.5367 23.4541 24.7991 23.4869L45.9871 26.7012C46.2167 26.734 46.4463 26.8652 46.5775 27.0619C46.7087 27.2587 46.7743 27.4883 46.7415 27.7507L42.3793 56.4169C42.3465 56.6465 42.2153 56.8761 42.0185 57.0073C41.8545 57.1057 41.6577 57.1713 41.4609 57.1713ZM20.3712 52.973L41.3953 56.1545L45.7247 27.6195L24.7007 24.438L20.3712 52.973Z" fill="#233863"/>
<path d="M31.49 29.0629C31.49 29.0629 31.4571 29.0629 31.4243 29.0629L27.3573 28.4398C27.1933 28.407 27.0621 28.243 27.0949 28.079C27.1277 27.915 27.2917 27.7838 27.4557 27.8166L31.5227 28.4398C31.6867 28.4726 31.8179 28.6366 31.7851 28.8005C31.7851 28.9317 31.6539 29.0629 31.49 29.0629Z" fill="white"/>
<path d="M42.051 35.0647C42.051 35.0647 42.0182 35.0647 41.9854 35.0647L37.328 34.3431C37.164 34.3103 37.0328 34.1463 37.0656 33.9823C37.0984 33.8183 37.2624 33.6871 37.4264 33.7199L42.0838 34.4415C42.2478 34.4743 42.379 34.6383 42.3462 34.8023C42.3462 34.9335 42.215 35.0647 42.051 35.0647Z" fill="#233863"/>
<path d="M34.0805 33.8516C34.0805 33.8516 34.0477 33.8516 34.0149 33.8516L26.0448 32.638C25.8808 32.6052 25.7496 32.4412 25.7824 32.2772C25.8152 32.1132 25.9792 31.982 26.1432 32.0148L34.1133 33.2284C34.2773 33.2612 34.4085 33.4252 34.3757 33.5892C34.3757 33.7532 34.2445 33.8516 34.0805 33.8516Z" fill="white"/>
<path d="M34.3773 39.4599C34.3773 39.4599 34.3445 39.4599 34.3117 39.4599L25.2264 38.0823C25.0624 38.0495 24.9312 37.8856 24.964 37.7216C24.9968 37.5576 25.1608 37.4264 25.3248 37.4592L34.4101 38.8039C34.5741 38.8367 34.7053 39.0007 34.6725 39.1647C34.6725 39.3287 34.5413 39.4599 34.3773 39.4599Z" fill="#233863"/>
<path d="M40.4452 45.5934C40.4452 45.5934 40.4124 45.5934 40.3796 45.5934L24.4393 43.1663C24.2753 43.1335 24.1441 42.9695 24.1769 42.8055C24.2097 42.6415 24.3737 42.5103 24.5377 42.5431L40.478 44.9703C40.642 45.0031 40.7731 45.1671 40.7404 45.331C40.7404 45.4622 40.6092 45.5934 40.4452 45.5934Z" fill="white"/>
<path d="M32.6387 49.9554C32.6387 49.9554 32.6059 49.9554 32.5731 49.9554L23.619 48.6107C23.455 48.5779 23.3238 48.4139 23.3566 48.2499C23.3894 48.0859 23.5534 47.9547 23.7174 47.9875L32.6715 49.3322C32.8355 49.365 32.9667 49.529 32.9339 49.693C32.9667 49.857 32.8027 49.9554 32.6387 49.9554Z" fill="white"/>
<path d="M44.9039 77.8024L7.18519 77.868C5.21726 77.868 3.57732 76.2609 3.57732 74.2601L3.51172 48.8082C3.51172 46.8403 5.11886 45.2004 7.11959 45.2004L44.8383 45.1348C46.8062 45.1348 48.4461 46.7419 48.4461 48.7426L48.5117 74.1945C48.5117 76.1953 46.9046 77.8024 44.9039 77.8024Z" fill="white"/>
<path d="M7.18546 78.2291C6.1359 78.2291 5.15193 77.8355 4.43036 77.0811C3.67598 76.3267 3.2824 75.3428 3.2824 74.2932L3.2168 48.8413C3.2168 47.7917 3.61038 46.8078 4.36476 46.0534C5.11913 45.299 6.1031 44.9054 7.15266 44.9054L44.8713 44.8398C47.0361 44.8398 48.8072 46.611 48.8072 48.7757L48.8728 74.2276C48.8728 76.3923 47.1017 78.1635 44.9369 78.1635V77.8355V78.1635L7.18546 78.2291ZM44.8385 45.463L7.11986 45.5286C6.23429 45.5286 5.41432 45.8894 4.82394 46.4798C4.20077 47.103 3.87277 47.9229 3.87277 48.8085L3.93838 74.2604C3.93838 75.146 4.29916 75.966 4.88954 76.5563C5.51272 77.1795 6.33269 77.5075 7.18546 77.5075L44.9041 77.4419C46.7081 77.4419 48.184 75.9659 48.184 74.162L48.1184 48.7101C48.1184 46.939 46.6425 45.463 44.8385 45.463Z" fill="#233863"/>
<path d="M45.2318 39.001L35.7202 39.0338C33.949 39.0338 32.5059 40.4769 32.5059 42.2481V46.8071L8.39874 46.8727C5.70924 46.8727 3.51172 49.103 3.51172 51.7925L3.54451 74.6533C3.54451 77.3428 5.77484 79.5404 8.46434 79.5404L43.5919 79.4748C46.2814 79.4748 48.4789 77.2444 48.4789 74.5549L48.4461 52.1533V51.6941L48.4133 42.2481C48.4461 40.4441 46.9702 39.001 45.2318 39.001Z" fill="#3B82F4"/>
<path d="M8.46454 79.9999C5.47985 79.9999 3.08554 77.5728 3.08554 74.6209L3.05273 51.7601C3.05273 48.7754 5.44705 46.3483 8.43175 46.3483L32.0469 46.2827V42.2156C32.0469 41.2317 32.4405 40.3133 33.1293 39.5917C33.8181 38.9029 34.7692 38.5094 35.7532 38.5094L45.2649 38.4766C47.2984 38.4766 48.9711 40.1165 48.9711 42.1828L49.0367 74.5225C49.0367 77.5072 46.6424 79.9343 43.6577 79.9343L8.46454 79.9999C8.49734 79.9999 8.49734 79.9999 8.46454 79.9999ZM45.2321 39.4933L35.7204 39.5261C34.9988 39.5261 34.31 39.8213 33.8181 40.3133C33.2933 40.8381 33.0309 41.5269 33.0309 42.2484V46.8075C33.0309 46.9387 32.9653 47.0699 32.8997 47.1683C32.8013 47.2667 32.6701 47.2994 32.5389 47.2994L8.43175 47.3651C6.00463 47.3651 4.0367 49.3658 4.0367 51.7929L4.0695 74.6537C4.0695 77.0808 6.03743 79.0487 8.46454 79.0487L43.5921 78.9831C46.0192 78.9831 47.9872 76.9824 47.9872 74.5553L47.9216 42.2156C47.9544 40.7069 46.708 39.4933 45.2321 39.4933Z" fill="#233863"/>
<path opacity="0.12" d="M44.904 42.6744L36.3763 42.7072C34.802 42.7072 33.5228 44.0192 33.5228 45.5935V49.6606L11.974 49.6934C9.54687 49.6934 7.57893 51.6613 7.61173 54.0884L7.64453 74.5549C7.64453 76.982 9.61246 78.95 12.0396 78.9172L43.4609 78.8516C45.888 78.8516 47.8559 76.8836 47.8231 74.4565L47.7903 54.4164V53.99L47.7575 45.5279C47.7575 43.9536 46.4784 42.6416 44.904 42.6744Z" fill="white"/>
<path d="M45.3979 74.7194C45.3979 75.605 44.6763 76.3266 43.7907 76.3266C42.9052 76.3266 42.1836 75.605 42.1836 74.7194C42.1836 73.8339 42.9052 73.1123 43.7907 73.1123C44.6763 73.1123 45.3979 73.8339 45.3979 74.7194Z" fill="white"/>
<path d="M46.5111 47.6601C46.3143 47.6601 46.1831 47.5289 46.1831 47.3321V42.9699C46.1831 42.2483 45.5271 41.6579 44.7399 41.6579H41.5585C41.3617 41.6579 41.2305 41.5267 41.2305 41.3299C41.2305 41.1331 41.3617 41.002 41.5585 41.002H44.7399C45.8879 41.002 46.8391 41.8875 46.8391 42.9699V47.3321C46.8391 47.5289 46.6751 47.6601 46.5111 47.6601Z" fill="white"/>
<path d="M23.061 60.5826C22.8642 60.5826 22.6346 60.517 22.4706 60.353C22.1426 60.025 22.1426 59.5002 22.4706 59.2051L26.3409 55.4004L30.1455 59.2051C30.4735 59.533 30.4735 60.0578 30.1455 60.353C29.8175 60.681 29.2928 60.681 28.9976 60.353L26.3409 57.6963L23.6514 60.353C23.4546 60.517 23.2578 60.5826 23.061 60.5826Z" fill="white"/>
<path d="M26.3063 65.6666C25.8471 65.6666 25.4863 65.3058 25.4863 64.8466V56.5485C25.4863 56.0893 25.8471 55.7285 26.3063 55.7285C26.7655 55.7285 27.1263 56.0893 27.1263 56.5485V64.8466C27.1263 65.3058 26.7327 65.6666 26.3063 65.6666Z" fill="white"/>
<path d="M32.3438 69.602H20.1754C19.1915 69.602 18.4043 68.8148 18.4043 67.8308V63.403C18.4043 62.9438 18.7651 62.583 19.2243 62.583C19.6835 62.583 20.0442 62.9438 20.0442 63.403V67.8308C20.0442 67.8964 20.1098 67.962 20.1754 67.962H32.3438C32.475 67.962 32.5734 67.8636 32.5734 67.7324V63.403C32.5734 62.9438 32.9342 62.583 33.3934 62.583C33.8526 62.583 34.2133 62.9438 34.2133 63.403V67.7324C34.1805 68.782 33.3606 69.602 32.3438 69.602Z" fill="white"/>
</svg>
