<svg width="21" height="23" viewBox="0 0 21 23" fill="none" xmlns="http://www.w3.org/2000/svg">
<path fill-rule="evenodd" clip-rule="evenodd" d="M1.6429 0H14.2381C14.8049 0.00193194 15.3306 0.295842 15.6291 0.777619L20.01 5.15857C20.5069 5.45575 20.8106 5.9925 20.8096 6.57143V21.3571C20.8096 22.2645 20.074 23 19.1667 23H1.6429C0.735575 23 4.3869e-05 22.2645 4.3869e-05 21.3571V1.64286C4.3869e-05 0.735532 0.735575 0 1.6429 0ZM15.881 3.35145V4.9286H17.4581L15.881 3.35145ZM1.64291 21.3572H19.1667V6.6262H19.1339L19.101 6.59335H14.2381V1.73049L14.2053 1.69763V1.66478H1.66481L1.64291 21.3572Z" fill="white"/>
<path fill-rule="evenodd" clip-rule="evenodd" d="M4.92883 12.5952H15.8812C16.3349 12.5952 16.7026 12.963 16.7026 13.4166C16.7026 13.8703 16.3349 14.2381 15.8812 14.2381H4.92883C4.47516 14.2381 4.1074 13.8703 4.1074 13.4166C4.1074 12.963 4.47516 12.5952 4.92883 12.5952Z" fill="white"/>
<path fill-rule="evenodd" clip-rule="evenodd" d="M6.57168 16.4287H15.8812C16.3349 16.4287 16.7026 16.7965 16.7026 17.2501C16.7026 17.7038 16.3349 18.0716 15.8812 18.0716H6.57168C6.11802 18.0716 5.75026 17.7038 5.75026 17.2501C5.75026 16.7965 6.11802 16.4287 6.57168 16.4287Z" fill="white"/>
<path fill-rule="evenodd" clip-rule="evenodd" d="M8.76193 10.4049H5.47621C4.56889 10.4049 3.83336 9.66939 3.83336 8.76207V5.47635C3.83336 4.56903 4.56889 3.8335 5.47621 3.8335H8.76193C9.66925 3.8335 10.4048 4.56903 10.4048 5.47635V8.76207C10.4048 9.66939 9.66925 10.4049 8.76193 10.4049ZM8.76192 5.47638H5.47621V8.76209H8.76192V5.47638Z" fill="white"/>
</svg>
