<svg width="149" height="131" viewBox="0 0 149 131" fill="none" xmlns="http://www.w3.org/2000/svg">
<path d="M45.1028 126.855C17.1402 114.378 7.71342 75.1551 18.9878 46.721C31.4924 15.1906 65.5875 6.70932 71.4481 5.38037C91.8314 0.747485 127.429 1.46272 141.527 25.0101C157.197 51.1831 134.754 86.2527 119.278 102.066C115.219 106.215 79.1472 142.046 45.1028 126.855Z" fill="#ECF3FE"/>
<path d="M118.683 91.6701L56.8516 72.6771L72.4339 16.132L136.491 27.0405L118.683 91.6701ZM57.492 72.3218L118.319 91.0102L135.832 27.4604L72.8117 16.7226L57.492 72.3218Z" fill="#444444"/>
<path d="M26.8762 129.268L26.7518 129.038L5.44238 89.2291L30.341 75.8611L34.5015 83.6272L51.7794 115.9L51.549 116.025L26.8762 129.268ZM6.15193 89.4413L27.0927 128.558L51.0653 115.684L34.0362 83.8717L30.1244 76.5671L27.0144 78.2375L6.15193 89.4413Z" fill="#444444"/>
<path opacity="0.2" d="M130.809 83.0642C140.367 83.0642 148.115 75.3045 148.115 65.7324C148.115 56.1603 140.367 48.4006 130.809 48.4006C121.252 48.4006 113.504 56.1603 113.504 65.7324C113.504 75.3045 121.252 83.0642 130.809 83.0642Z" fill="#3A7EC1"/>
<path d="M129.097 83.0642C138.654 83.0642 146.402 75.3045 146.402 65.7324C146.402 56.1603 138.654 48.4006 129.097 48.4006C119.539 48.4006 111.791 56.1603 111.791 65.7324C111.791 75.3045 119.539 83.0642 129.097 83.0642Z" fill="#EB6B04"/>
<path opacity="0.2" d="M114.513 88.0478C114.513 88.0478 132.901 31.6273 132.38 31.6273C131.86 31.6273 126.234 30.5798 126.234 30.5798L114.513 88.0478Z" fill="#3A7EC1"/>
<path opacity="0.2" d="M80.5889 119.172L102.433 84.3793L80.5889 78.256V119.172Z" fill="#3A7EC1"/>
<path opacity="0.2" d="M96.6176 100.885C95.1432 100.885 93.7702 101.25 92.623 101.868L88.9877 98.9562C89.6097 98.0657 89.9645 97.0367 89.9645 95.9384C89.9645 92.5976 86.6932 89.8889 82.657 89.8889C78.6209 89.8889 75.3496 92.5976 75.3496 95.9384C75.3496 99.2793 78.6209 101.988 82.657 101.988C84.6428 101.988 86.4444 101.333 87.7621 100.267L91.1209 102.957C89.9967 104.023 89.3148 105.412 89.3148 106.939C89.3148 110.28 92.5861 112.989 96.6222 112.989C100.658 112.989 103.93 110.28 103.93 106.939C103.925 103.594 100.654 100.885 96.6176 100.885Z" fill="#3A7EC1"/>
<path d="M45.6229 114.719L21.185 127.838L0 88.26L21.0975 76.9316L24.4333 75.1366L28.4694 82.6719L45.6229 114.719Z" fill="#3B82F4"/>
<path d="M11.6624 100.352C13.0089 100.09 13.8888 98.7852 13.6278 97.4367C13.3668 96.0882 12.0637 95.2069 10.7173 95.4683C9.37081 95.7297 8.49088 97.0348 8.75189 98.3833C9.01289 99.7318 10.316 100.613 11.6624 100.352Z" fill="#B3CEF6"/>
<path d="M28.0353 90.0412L15.8394 96.589C15.3372 96.8613 14.7106 96.6675 14.4388 96.1645C14.1669 95.6615 14.3604 95.034 14.8626 94.7617L27.0585 88.2138C27.5607 87.9416 28.1874 88.1354 28.4592 88.6384C28.731 89.1413 28.5421 89.7689 28.0353 90.0412Z" fill="#B3CEF6"/>
<path d="M14.7993 107.081C16.1707 107.063 17.2679 105.935 17.2499 104.561C17.2319 103.188 16.1056 102.089 14.7341 102.107C13.3627 102.125 12.2656 103.253 12.2836 104.626C12.3016 106 13.4279 107.099 14.7993 107.081Z" fill="#B3CEF6"/>
<path d="M31.6164 96.7229L19.4205 103.271C18.9183 103.543 18.2916 103.349 18.0198 102.846C17.748 102.343 17.9415 101.716 18.4437 101.443L30.6396 94.9002C31.1418 94.628 31.7684 94.8218 32.0403 95.3248C32.3075 95.8277 32.1186 96.4553 31.6164 96.7229Z" fill="#B3CEF6"/>
<path d="M18.3467 113.769C19.7183 113.769 20.8301 112.655 20.8301 111.281C20.8301 109.908 19.7183 108.794 18.3467 108.794C16.9751 108.794 15.8633 109.908 15.8633 111.281C15.8633 112.655 16.9751 113.769 18.3467 113.769Z" fill="#B3CEF6"/>
<path d="M35.1955 103.409L22.9996 109.957C22.4974 110.229 21.8707 110.036 21.5989 109.533C21.3271 109.03 21.5206 108.402 22.0228 108.13L34.2187 101.582C34.7209 101.31 35.3475 101.503 35.6194 102.006C35.8866 102.509 35.6977 103.137 35.1955 103.409Z" fill="#B3CEF6"/>
<path d="M21.9219 120.45C23.2934 120.45 24.4053 119.337 24.4053 117.963C24.4053 116.589 23.2934 115.476 21.9219 115.476C20.5503 115.476 19.4385 116.589 19.4385 117.963C19.4385 119.337 20.5503 120.45 21.9219 120.45Z" fill="#B3CEF6"/>
<path d="M38.7707 110.095L26.5748 116.643C26.0726 116.916 25.4459 116.722 25.1741 116.219C24.9023 115.716 25.0958 115.088 25.598 114.816L37.7939 108.268C38.2961 107.996 38.9227 108.19 39.1945 108.693C39.4618 109.196 39.2729 109.823 38.7707 110.095Z" fill="#B3CEF6"/>
<path d="M5.80873 91.4052L5.5689 88.3109L6.00572 88.0676L8.51006 89.9008L7.9649 90.2044L7.43648 89.7981L6.28676 90.4384L6.35738 91.0996L5.80873 91.4052ZM6.1032 88.7688L6.23299 89.9144L7.02277 89.4746L6.11018 88.7649L6.1032 88.7688ZM9.32523 89.4971C9.1738 89.5815 9.02312 89.6425 8.87319 89.6802C8.72326 89.7179 8.58833 89.7305 8.4684 89.7179L8.40347 89.3054C8.51952 89.311 8.64137 89.2996 8.76903 89.2712C8.89773 89.2392 9.01682 89.1927 9.12632 89.1317C9.22417 89.0773 9.28796 89.0219 9.31768 88.9657C9.34611 88.9071 9.34606 88.8522 9.31751 88.8009C9.2721 88.7194 9.18415 88.7012 9.05365 88.7464L8.64974 88.8844C8.4887 88.9405 8.34768 88.9503 8.22668 88.914C8.10569 88.8776 8.00951 88.7953 7.93815 88.6672C7.87327 88.5507 7.8501 88.4323 7.86862 88.3121C7.88714 88.1919 7.94051 88.0767 8.02872 87.9666C8.11693 87.8564 8.23558 87.7598 8.38468 87.6768C8.50816 87.608 8.63722 87.5575 8.77188 87.5252C8.90523 87.4906 9.03265 87.4838 9.15415 87.5046L9.21014 87.9176C9.1117 87.9052 9.00448 87.91 8.88846 87.9319C8.77478 87.9525 8.676 87.9861 8.59213 88.0328C8.48729 88.0912 8.42131 88.1508 8.39418 88.2117C8.36575 88.2703 8.3658 88.3252 8.39435 88.3765C8.43976 88.458 8.52305 88.4788 8.64423 88.4388L9.04814 88.3008C9.21384 88.2421 9.35771 88.2291 9.47974 88.2619C9.60047 88.2923 9.69716 88.3728 9.76982 88.5032C9.86973 88.6826 9.87768 88.8613 9.79369 89.0394C9.7097 89.2174 9.55354 89.37 9.32523 89.4971ZM11.0452 88.5392C10.8938 88.6236 10.7431 88.6846 10.5932 88.7223C10.4433 88.76 10.3083 88.7726 10.1884 88.76L10.1235 88.3475C10.2395 88.3531 10.3614 88.3417 10.489 88.3133C10.6177 88.2813 10.7368 88.2348 10.8463 88.1738C10.9442 88.1194 11.008 88.064 11.0377 88.0078C11.0661 87.9492 11.0661 87.8943 11.0375 87.843C10.9921 87.7615 10.9041 87.7433 10.7737 87.7885L10.3697 87.9265C10.2087 87.9826 10.0677 87.9924 9.94668 87.9561C9.82569 87.9197 9.72951 87.8374 9.65815 87.7093C9.59327 87.5928 9.5701 87.4744 9.58862 87.3542C9.60715 87.234 9.66051 87.1188 9.74872 87.0087C9.83693 86.8985 9.95558 86.8019 10.1047 86.7189C10.2282 86.6501 10.3572 86.5996 10.4919 86.5673C10.6252 86.5327 10.7527 86.5259 10.8742 86.5467L10.9301 86.9597C10.8317 86.9473 10.7245 86.9521 10.6085 86.974C10.4948 86.9946 10.396 87.0282 10.3121 87.0749C10.2073 87.1333 10.1413 87.1929 10.1142 87.2538C10.0857 87.3124 10.0858 87.3673 10.1143 87.4186C10.1598 87.5001 10.2431 87.5209 10.3642 87.4809L10.7681 87.3429C10.9338 87.2842 11.0777 87.2712 11.1997 87.304C11.3205 87.3344 11.4172 87.4149 11.4898 87.5453C11.5897 87.7247 11.5977 87.9034 11.5137 88.0815C11.4297 88.2595 11.2735 88.4121 11.0452 88.5392ZM10.9254 85.8726L10.651 85.3799L11.2206 85.0626L11.495 85.5554L10.9254 85.8726ZM12.0868 87.9088L11.1312 86.1929L11.6589 85.8991L12.6145 87.6149L12.0868 87.9088ZM14.2184 87.5962C14.053 87.6883 13.8883 87.7571 13.7244 87.8026C13.5628 87.8468 13.4077 87.8615 13.259 87.8466L13.2018 87.4069C13.3274 87.4132 13.4569 87.3991 13.5903 87.3645C13.7273 87.3309 13.8482 87.285 13.953 87.2266C14.2512 87.0605 14.3238 86.84 14.1707 86.5651L14.0617 86.3694C14.0644 86.4839 14.0306 86.5958 13.9602 86.7052C13.8899 86.8146 13.7953 86.9023 13.6765 86.9685C13.5228 87.0541 13.3693 87.0938 13.2163 87.0875C13.0619 87.0788 12.9176 87.028 12.7833 86.9349C12.649 86.8418 12.5339 86.709 12.4379 86.5366C12.3432 86.3665 12.2916 86.1999 12.2831 86.0368C12.2747 85.8736 12.308 85.7253 12.3833 85.5918C12.4572 85.456 12.5711 85.3453 12.7248 85.2597C12.8483 85.1909 12.9739 85.1561 13.1016 85.1551C13.2293 85.1542 13.3411 85.1851 13.437 85.2476L13.2929 84.989L13.8066 84.703L14.6513 86.2196C14.8122 86.5085 14.8548 86.7686 14.7792 87C14.7035 87.2314 14.5166 87.4301 14.2184 87.5962ZM13.6139 86.486C13.7303 86.4212 13.8008 86.3285 13.8253 86.208C13.8521 86.0863 13.8253 85.9532 13.7449 85.8087C13.6644 85.6643 13.566 85.5726 13.4497 85.5336C13.3344 85.491 13.2185 85.5021 13.102 85.567C12.9832 85.6331 12.9115 85.7265 12.8871 85.8469C12.8613 85.9651 12.8886 86.0963 12.9691 86.2408C13.0495 86.3852 13.1474 86.4788 13.2627 86.5214C13.378 86.564 13.495 86.5522 13.6139 86.486ZM15.1719 86.1906L14.2163 84.4748L14.7335 84.1867L14.8737 84.4384C14.88 84.3127 14.9185 84.1982 14.9891 84.0948C15.0597 83.9914 15.1556 83.9059 15.2767 83.8385C15.4794 83.7256 15.6639 83.7007 15.8303 83.7637C15.9953 83.8244 16.146 83.977 16.2822 84.2217L16.8563 85.2526L16.3286 85.5464L15.7681 84.54C15.702 84.4212 15.6325 84.3485 15.5597 84.3219C15.4855 84.2929 15.4054 84.3025 15.3192 84.3505C15.2074 84.4128 15.1371 84.4977 15.1085 84.6052C15.0822 84.7114 15.1015 84.8228 15.1663 84.9392L15.6996 85.8968L15.1719 86.1906ZM17.2572 85.0293L16.3017 83.3134L16.8189 83.0254L16.957 83.2735C16.959 83.1564 16.9906 83.0488 17.0519 82.9506C17.1142 82.8487 17.2048 82.7647 17.3236 82.6985C17.4447 82.631 17.5622 82.6008 17.6759 82.6076C17.7919 82.6132 17.9026 82.6584 18.0078 82.7433C18.0043 82.6109 18.0371 82.4889 18.1061 82.3772C18.1762 82.2618 18.2729 82.1698 18.3964 82.101C18.5921 81.992 18.7708 81.9704 18.9325 82.036C19.0929 82.0993 19.2412 82.2532 19.3774 82.4978L19.9516 83.5288L19.4239 83.8226L18.8595 82.8092C18.7959 82.695 18.7312 82.6227 18.6654 82.5922C18.6006 82.5581 18.5251 82.565 18.4389 82.613C18.3387 82.6688 18.2802 82.7472 18.2632 82.8483C18.2462 82.9493 18.2734 83.0639 18.3447 83.192L18.8683 84.1321L18.3406 84.426L17.7762 83.4125C17.7126 83.2984 17.6479 83.226 17.5821 83.1955C17.515 83.1627 17.4395 83.1697 17.3556 83.2164C17.2554 83.2722 17.1968 83.3506 17.1798 83.4516C17.1628 83.5526 17.19 83.6672 17.2614 83.7954L17.7849 84.7354L17.2572 85.0293ZM21.2683 82.8458C21.0657 82.9587 20.8708 83.0199 20.6838 83.0294C20.4979 83.0353 20.3283 82.9939 20.1751 82.9052C20.023 82.8129 19.8963 82.6759 19.7951 82.4942C19.6965 82.3171 19.6475 82.1414 19.6481 81.9671C19.6497 81.7892 19.695 81.6266 19.784 81.4794C19.8739 81.3285 20.0051 81.2051 20.1775 81.1091C20.4268 80.9703 20.669 80.9392 20.904 81.0159C21.1377 81.0902 21.3291 81.2614 21.4783 81.5293L21.5523 81.6621L20.3606 82.3257C20.4545 82.4505 20.5586 82.5222 20.6728 82.541C20.7881 82.5562 20.9168 82.5242 21.0589 82.4451C21.1521 82.3932 21.2387 82.3266 21.3186 82.2455C21.3986 82.1643 21.4608 82.0732 21.5052 81.9722L21.8416 82.2473C21.7917 82.3605 21.7149 82.472 21.6111 82.5816C21.5084 82.6877 21.3941 82.7757 21.2683 82.8458ZM20.3931 81.4469C20.2813 81.5092 20.2092 81.5935 20.177 81.7C20.147 81.8052 20.1577 81.9229 20.2088 82.0532L20.9636 81.6328C20.8069 81.3843 20.6168 81.3223 20.3931 81.4469ZM22.2737 82.2355L21.3182 80.5196L21.8354 80.2316L21.9755 80.4832C21.9818 80.3576 22.0203 80.2431 22.0909 80.1397C22.1615 80.0362 22.2574 79.9508 22.3785 79.8833C22.5812 79.7704 22.7657 79.7455 22.9321 79.8085C23.0971 79.8692 23.2478 80.0219 23.384 80.2665L23.9581 81.2974L23.4305 81.5913L22.87 80.5849C22.8038 80.466 22.7343 80.3933 22.6615 80.3667C22.5874 80.3378 22.5072 80.3473 22.421 80.3953C22.3092 80.4576 22.239 80.5425 22.2103 80.65C22.184 80.7563 22.2033 80.8676 22.2682 80.9841L22.8014 81.9416L22.2737 82.2355ZM9.34273 95.2105C8.86048 95.4791 8.48895 95.3792 8.22816 94.9109L7.86227 94.254L7.53727 94.435L7.31735 94.0401L7.64235 93.8591L7.3621 93.3558L7.88978 93.062L8.17004 93.5652L8.67675 93.283L8.89668 93.6779L8.38996 93.9601L8.74417 94.5961C8.79866 94.694 8.86167 94.755 8.93318 94.7793C9.00702 94.8023 9.09403 94.7858 9.19421 94.7301C9.22449 94.7132 9.254 94.6922 9.28272 94.667C9.31378 94.6406 9.34586 94.6105 9.37898 94.5768L9.66995 94.9184C9.63529 94.9713 9.58808 95.0235 9.5283 95.0751C9.46982 95.129 9.40796 95.1742 9.34273 95.2105Z" fill="#B3CEF6"/>
<path opacity="0.2" d="M28.4695 82.6719L25.2074 89.2106L23.604 92.4222L19.3375 100.968L18.7754 102.089L18.8583 101.227L19.4619 94.6464L19.6923 92.173L20.3005 85.5698L20.4341 84.1347L20.5999 82.2982L20.6829 81.3937L21.0975 76.9316L24.4333 75.1366L28.4695 82.6719Z" fill="#3A7EC1"/>
<path d="M124.465 74.066C123.843 74.006 123.244 73.706 122.816 73.1846L118.139 67.4858C117.282 66.4429 117.434 64.9017 118.476 64.0434C119.517 63.1852 121.056 63.3374 121.913 64.3803L125.037 68.1918L134.768 60.1858C135.809 59.3275 137.348 59.4798 138.205 60.5226C139.062 61.5655 138.91 63.1067 137.868 63.965L126.253 73.5215C125.732 73.9506 125.087 74.126 124.465 74.066Z" fill="white"/>
<path d="M98.598 109.934C98.234 109.606 98.2064 109.044 98.5381 108.684C99.3859 107.742 97.9622 106.266 97.9484 106.252L77.1688 87.3972C76.8048 87.0696 76.7772 86.5066 77.1089 86.1467C77.4361 85.7822 77.9982 85.7545 78.3575 86.0867L99.174 104.978C100.118 105.938 101.418 108.148 99.8513 109.879C99.5195 110.234 98.962 110.262 98.598 109.934Z" fill="#636466"/>
<path d="M77.9427 91.1902C78.3067 91.5178 78.8642 91.4901 79.1914 91.1302C80.0391 90.1889 81.6517 91.4671 81.6655 91.4809L102.445 110.34C102.809 110.668 103.367 110.64 103.694 110.28C104.021 109.916 103.993 109.357 103.634 109.03L82.8174 90.1381C81.7715 89.2937 79.4494 88.2139 77.8828 89.9443C77.5557 90.2996 77.5833 90.8626 77.9427 91.1902Z" fill="#636466"/>
<path opacity="0.28" d="M87.3164 95.8491C89.893 93.2685 89.8929 89.0847 87.3163 86.5042C84.7397 83.9237 80.5623 83.9237 77.9857 86.5042C75.4091 89.0847 75.4091 93.2685 77.9857 95.8491C80.5623 98.4296 84.7398 98.4296 87.3164 95.8491Z" fill="#F2F2F2"/>
<path opacity="0.28" d="M102.907 109.995C105.484 107.414 105.484 103.23 102.907 100.65C100.331 98.0694 96.1531 98.0694 93.5765 100.65C90.9999 103.23 90.9999 107.414 93.5765 109.995C96.1531 112.575 100.331 112.575 102.907 109.995Z" fill="#F2F2F2"/>
<path d="M103.389 99.63C100.828 97.3044 97.1048 97.0459 94.2897 98.7394C93.6861 96.4922 91.8662 94.8449 89.5763 94.4619C90.9816 91.4902 90.3642 87.8125 87.7978 85.4822C84.6648 82.6397 79.8039 82.8797 76.9658 86.0175C74.1276 89.1553 74.3672 94.0235 77.5002 96.866C78.5415 97.8119 79.7671 98.4164 81.0618 98.6841C81.3843 98.7533 81.7114 98.804 82.0385 98.8271C82.4117 98.8548 82.7849 98.8594 83.1581 98.8317C85.0748 98.7025 86.9455 97.8673 88.3369 96.3307C88.3922 96.2707 88.4521 96.2015 88.5028 96.1369C88.6825 96.1415 88.8575 96.1507 89.0326 96.1646C89.9449 96.2661 90.765 96.6168 91.3962 97.1936C92.0321 97.7704 92.4606 98.5502 92.6495 99.4501C92.6817 99.6254 92.714 99.8008 92.7278 99.9807C92.6679 100.036 92.6126 100.101 92.5573 100.161C91.1705 101.693 90.5254 103.64 90.5853 105.56C90.5945 105.933 90.636 106.307 90.7005 106.676C90.7604 106.999 90.8387 107.327 90.9355 107.641C91.3317 108.9 92.0551 110.068 93.0918 111.009C96.2248 113.852 101.086 113.612 103.924 110.474C106.762 107.345 106.522 102.477 103.389 99.63ZM82.3795 97.0736C81.0618 97.0183 79.7486 96.5153 78.6935 95.5555C76.2792 93.3636 76.095 89.6259 78.2835 87.2126C80.4674 84.7993 84.204 84.6101 86.6137 86.8019C88.793 88.7815 89.1524 92.0393 87.5767 94.4296L87.5721 94.4342C87.4108 94.6787 87.2265 94.9187 87.0238 95.1494C86.904 95.2786 86.7796 95.4078 86.6552 95.5232C85.8443 96.28 84.8721 96.7552 83.84 96.9629C83.3609 97.0552 82.8679 97.0967 82.3795 97.0736ZM94.2805 109.699C93.2208 108.739 92.5942 107.484 92.4053 106.173C92.3362 105.689 92.3269 105.195 92.3776 104.706C92.479 103.658 92.8614 102.639 93.5295 101.757C93.6308 101.619 93.746 101.485 93.8658 101.351C94.0732 101.125 94.2897 100.917 94.5201 100.733C94.5201 100.733 94.5201 100.733 94.5247 100.728C96.7455 98.924 100.017 98.9609 102.201 100.941C104.615 103.132 104.795 106.875 102.611 109.283C100.427 111.706 96.6948 111.891 94.2805 109.699Z" fill="#636466"/>
<path d="M130.81 29.0061L114.675 87.5539C113.914 90.3179 111.058 91.9422 108.298 91.1762C107.432 90.9363 106.676 90.4887 106.072 89.9026C104.755 88.6244 104.16 86.6864 104.681 84.7899L107.602 74.1859L55.7822 59.8627L67.2686 18.1807L130.81 29.0061Z" fill="white"/>
<path opacity="0.2" d="M110.132 40.6205L109.772 41.9309L64.2002 29.3336L65.5041 24.6084C73.2768 27.3678 110.132 40.6205 110.132 40.6205Z" fill="#3A7EC1"/>
<path opacity="0.2" d="M113.14 42.0234C111.555 41.585 109.952 41.7281 108.547 42.3187L101.778 66.8721L109.067 68.8839L104.686 84.7899C104.165 86.6864 104.455 88.5368 105.317 89.6904C106.662 89.132 107.879 87.6462 108.418 85.6989L112.772 69.9037L117.978 51.0077L118.061 50.6985C119.093 46.947 116.891 43.0616 113.14 42.0234Z" fill="#3A7EC1"/>
<path d="M108.303 91.1762L53.4556 76.0178C49.6084 74.9519 47.3462 70.965 48.4105 67.1119L59.5605 26.6481L102.792 38.5948L100.917 45.3965C101.378 43.7214 102.4 42.3602 103.727 41.4511C103.889 41.3404 104.059 41.2343 104.23 41.1374C105.796 40.2468 107.708 39.9561 109.583 40.4729C113.334 41.5111 115.536 45.3965 114.5 49.1526L104.681 84.7898C103.921 87.5538 105.543 90.4148 108.303 91.1762Z" fill="#5B97EF"/>
<path d="M99.834 88.8368L89.7207 86.0405L100.963 45.2397C101.442 43.6385 102.446 42.328 103.732 41.4513C107.234 42.6372 109.261 46.398 108.266 50.0111L98.8527 84.1716C98.3873 85.8559 98.8112 87.5771 99.834 88.8368Z" fill="#3B82F4"/>
<path d="M80.5888 119.172L100.917 45.3965C101.954 41.6403 105.833 39.4346 109.583 40.4683L47.7193 23.3718C43.9965 22.3428 40.1447 24.5347 39.1172 28.2631L18.7754 102.089L80.5888 119.172Z" fill="white"/>
<path d="M48.1475 40.9528C49.4484 39.6499 49.4484 37.5376 48.1475 36.2347C46.8466 34.9318 44.7374 34.9318 43.4365 36.2347C42.1356 37.5376 42.1356 39.6499 43.4365 40.9528C44.7374 42.2557 46.8466 42.2557 48.1475 40.9528Z" fill="#E4ECF9"/>
<path d="M90.9697 52.8121L52.728 42.245C51.8664 42.0051 51.3504 41.1053 51.59 40.2378L51.6084 40.1685C51.848 39.3056 52.7464 38.7888 53.6126 39.0288L91.8544 49.5958C92.7159 49.8358 93.232 50.7356 92.9924 51.6031L92.974 51.6723C92.739 52.5352 91.8359 53.0474 90.9697 52.8121Z" fill="#E4ECF9"/>
<path d="M42.756 52.9504C44.5958 52.9504 46.0872 51.4567 46.0872 49.6142C46.0872 47.7716 44.5958 46.278 42.756 46.278C40.9162 46.278 39.4248 47.7716 39.4248 49.6142C39.4248 51.4567 40.9162 52.9504 42.756 52.9504Z" fill="#E4ECF9"/>
<path d="M87.9326 63.8312L49.6909 53.2642C48.8293 53.0243 48.3133 52.1244 48.5529 51.2569L48.5713 51.1877C48.8109 50.3248 49.7093 49.808 50.5755 50.0479L88.8173 60.615C89.6789 60.8549 90.1949 61.7547 89.9553 62.6223L89.9369 62.6915C89.6973 63.559 88.7988 64.0712 87.9326 63.8312Z" fill="#E4ECF9"/>
<path d="M39.7159 63.9743C41.5557 63.9743 43.0471 62.4807 43.0471 60.6381C43.0471 58.7956 41.5557 57.3019 39.7159 57.3019C37.8762 57.3019 36.3848 58.7956 36.3848 60.6381C36.3848 62.4807 37.8762 63.9743 39.7159 63.9743Z" fill="#E4ECF9"/>
<path d="M84.8966 74.855L46.6548 64.288C45.7932 64.048 45.2771 63.1482 45.5167 62.2807L45.5352 62.2115C45.7747 61.3486 46.6732 60.8318 47.5394 61.0718L85.7812 71.6388C86.6428 71.8787 87.1588 72.7785 86.9192 73.646L86.9008 73.7152C86.6612 74.5781 85.7628 75.0903 84.8966 74.855Z" fill="#E4ECF9"/>
<path d="M39.0332 74.0175C40.3341 72.7146 40.3341 70.6023 39.0332 69.2994C37.7323 67.9965 35.6232 67.9965 34.3223 69.2994C33.0214 70.6023 33.0214 72.7146 34.3223 74.0175C35.6232 75.3204 37.7323 75.3204 39.0332 74.0175Z" fill="#E4ECF9"/>
<path d="M81.8594 85.8743L43.6177 75.3073C42.7561 75.0673 42.24 74.1675 42.4796 73.3L42.4981 73.2308C42.7376 72.3679 43.6361 71.8511 44.5023 72.091L82.744 82.6581C83.6056 82.898 84.1216 83.7978 83.8821 84.6653L83.8636 84.7346C83.624 85.6021 82.7256 86.1143 81.8594 85.8743Z" fill="#E4ECF9"/>
<path d="M35.9991 85.0402C37.3 83.7373 37.3 81.625 35.9991 80.3221C34.6982 79.0192 32.589 79.0192 31.2881 80.3221C29.9872 81.625 29.9872 83.7373 31.2881 85.0402C32.589 86.3431 34.6982 86.3431 35.9991 85.0402Z" fill="#E4ECF9"/>
<path d="M78.8243 96.8935L40.5825 86.3265C39.7209 86.0865 39.2049 85.1867 39.4445 84.3192L39.4629 84.25C39.7025 83.3871 40.6009 82.8703 41.4671 83.1102L79.7089 93.6772C80.5705 93.9172 81.0865 94.817 80.847 95.6845L80.8285 95.7537C80.5889 96.6212 79.6859 97.1334 78.8243 96.8935Z" fill="#E4ECF9"/>
<path d="M32.961 96.0596C34.2619 94.7567 34.2619 92.6444 32.961 91.3415C31.6601 90.0386 29.5509 90.0387 28.25 91.3415C26.9491 92.6444 26.9491 94.7567 28.25 96.0596C29.5509 97.3625 31.6601 97.3625 32.961 96.0596Z" fill="#E4ECF9"/>
<path d="M75.7872 107.917L37.5454 97.3504C36.6838 97.1104 36.1678 96.2106 36.4074 95.3431L36.4258 95.2739C36.6654 94.411 37.5638 93.8942 38.43 94.1341L76.6718 104.701C77.5334 104.941 78.0494 105.841 77.8098 106.708L77.7914 106.778C77.5518 107.645 76.6487 108.157 75.7872 107.917Z" fill="#E4ECF9"/>
<path d="M41.176 51.6077C40.9549 51.5477 40.7614 51.4 40.637 51.1877L39.31 48.8436C39.0658 48.4145 39.2179 47.8699 39.6463 47.6254C40.0748 47.3808 40.6185 47.5331 40.8627 47.9622L41.752 49.5312L45.7558 47.2562C46.1843 47.0117 46.728 47.1639 46.9722 47.5931C47.2164 48.0222 47.0643 48.5667 46.6359 48.8113L41.8579 51.5246C41.6414 51.6492 41.3972 51.6723 41.176 51.6077Z" fill="#EB6B04"/>
<path d="M35.2825 73.0001C35.0613 72.9401 34.8678 72.7925 34.7434 72.5802L33.4164 70.2361C33.1723 69.8069 33.3243 69.2624 33.7528 69.0178C34.1813 68.7733 34.725 68.9256 34.9692 69.3547L35.8584 70.9236L39.8623 68.6487C40.2908 68.4041 40.8344 68.5564 41.0786 68.9855C41.3228 69.4147 41.1708 69.9592 40.7423 70.2038L35.9644 72.917C35.7432 73.037 35.5036 73.0647 35.2825 73.0001Z" fill="#EB6B04"/>
<path d="M32.1545 84.3469C31.9334 84.2869 31.7399 84.1393 31.6155 83.927L30.2885 81.5829C30.0443 81.1537 30.1964 80.6092 30.6249 80.3646C31.0534 80.1201 31.597 80.2724 31.8412 80.7015L32.7305 82.2704L36.7343 79.9955C37.1628 79.7509 37.7065 79.9032 37.9507 80.3323C38.1949 80.7615 38.0428 81.306 37.6143 81.5506L32.8364 84.2639C32.6199 84.3838 32.3757 84.4069 32.1545 84.3469Z" fill="#EB6B04"/>
<path d="M29.2102 95.0433C28.989 94.9833 28.7955 94.8356 28.6711 94.6234L27.3442 92.2792C27.1 91.8501 27.252 91.3056 27.6805 91.061C28.109 90.8165 28.6527 90.9688 28.8969 91.3979L29.7861 92.9668L33.79 90.6919C34.2185 90.4473 34.7622 90.5996 35.0064 91.0287C35.2506 91.4579 35.0985 92.0024 34.67 92.2469L29.8921 94.9602C29.6709 95.0802 29.4267 95.1032 29.2102 95.0433Z" fill="#EB6B04"/>
<path d="M81.4556 8.00141C83.6618 8.00141 85.4503 6.21023 85.4503 4.0007C85.4503 1.79118 83.6618 0 81.4556 0C79.2494 0 77.4609 1.79118 77.4609 4.0007C77.4609 6.21023 79.2494 8.00141 81.4556 8.00141Z" fill="#4786D1"/>
<path d="M7.91038 58.001C8.29538 56.2306 7.17441 54.4827 5.40662 54.0971C3.63883 53.7115 1.89364 54.8342 1.50863 56.6047C1.12363 58.3752 2.24461 60.123 4.0124 60.5086C5.78019 60.8942 7.52538 59.7715 7.91038 58.001Z" fill="#4786D1"/>
<path d="M123.452 115.231C125.658 115.231 127.446 113.44 127.446 111.231C127.446 109.021 125.658 107.23 123.452 107.23C121.245 107.23 119.457 109.021 119.457 111.231C119.457 113.44 121.245 115.231 123.452 115.231Z" fill="#4786D1"/>
</svg>
