<svg width="297" height="192" viewBox="0 0 297 192" fill="none" xmlns="http://www.w3.org/2000/svg">
<mask id="mask0" mask-type="alpha" maskUnits="userSpaceOnUse" x="21" y="22" width="236" height="122">
<rect x="21.25" y="22.25" width="235.5" height="121.5" rx="7.75" fill="white" stroke="#BED0E4" stroke-width="0.5"/>
</mask>
<g mask="url(#mask0)">
<g opacity="0.25">
<path d="M164.603 172.614C146.173 172.614 131.598 164.231 117.5 156.126C103.512 148.081 89.0402 139.756 70.8669 139.756C52.6875 139.756 38.2222 148.075 24.2343 156.12C16.7385 160.431 8.98582 164.89 0.731334 168.036L0.388672 167.217C8.56973 164.094 16.2919 159.659 23.757 155.36C37.8551 147.255 52.4305 138.872 70.8608 138.872C89.2911 138.872 103.866 147.255 117.965 155.36C131.953 163.405 146.424 171.73 164.597 171.73C182.771 171.73 197.242 163.411 211.23 155.36C225.328 147.255 239.903 138.872 258.334 138.872V139.762C240.154 139.762 225.689 148.081 211.701 156.132C197.609 164.231 183.028 172.614 164.603 172.614Z" fill="#94B3D1" fill-opacity="0.4"/>
<path d="M164.603 166.641C146.173 166.641 131.598 158.257 117.5 150.153C103.512 142.108 89.0402 133.789 70.8669 133.789C52.6875 133.789 38.2222 142.108 24.2343 150.153C16.7385 154.463 8.98582 158.922 0.731334 162.069L0.388672 161.238C8.56973 158.115 16.2919 153.68 23.757 149.381C37.8551 141.276 52.4305 132.893 70.8608 132.893C89.2911 132.893 103.866 141.276 117.965 149.381C131.953 157.426 146.424 165.745 164.597 165.745C182.771 165.745 197.242 157.426 211.23 149.381C225.328 141.27 239.903 132.893 258.334 132.893V133.783C240.154 133.783 225.689 142.102 211.701 150.147C197.609 158.257 183.028 166.641 164.603 166.641Z" fill="#94B3D1" fill-opacity="0.4"/>
<path d="M164.603 160.668C146.173 160.668 131.598 152.284 117.5 144.18C103.512 136.134 89.0402 127.81 70.8669 127.81C52.6875 127.81 38.2222 136.128 24.2343 144.174C16.7263 148.49 8.97358 152.949 0.725215 156.096L0.388672 155.265C8.56973 152.142 16.2919 147.707 23.757 143.408C37.8551 135.303 52.4305 126.919 70.8608 126.919C89.2911 126.919 103.866 135.303 117.965 143.408C131.953 151.453 146.424 159.777 164.597 159.777C182.771 159.777 197.242 151.459 211.23 143.408C225.328 135.303 239.903 126.919 258.334 126.919V127.81C240.154 127.81 225.689 136.128 211.701 144.18C197.609 152.284 183.028 160.668 164.603 160.668Z" fill="#94B3D1" fill-opacity="0.4"/>
<path d="M164.603 154.695C146.173 154.695 131.598 146.311 117.5 138.207C103.512 130.161 89.0402 121.843 70.8669 121.843C52.6875 121.843 38.2222 130.161 24.2343 138.207C16.7385 142.517 8.98582 146.976 0.731334 150.123L0.388672 149.292C8.56973 146.169 16.2919 141.733 23.757 137.435C37.8551 129.33 52.4305 120.946 70.8608 120.946C89.2911 120.946 103.866 129.33 117.965 137.435C131.953 145.48 146.424 153.798 164.597 153.798C182.771 153.798 197.242 145.48 211.23 137.435C225.328 129.324 239.903 120.946 258.334 120.946V121.837C240.154 121.837 225.689 130.155 211.701 138.201C197.609 146.311 183.028 154.695 164.603 154.695Z" fill="#94B3D1" fill-opacity="0.4"/>
<path d="M164.603 148.722C146.173 148.722 131.598 140.338 117.5 132.233C103.512 124.188 89.0402 115.864 70.8669 115.864C52.6875 115.864 38.2222 124.182 24.2343 132.227C16.7385 136.538 8.98582 140.997 0.731334 144.144L0.388672 143.319C8.56973 140.196 16.2919 135.76 23.757 131.461C37.8551 123.357 52.4305 114.973 70.8608 114.973C89.2911 114.973 103.866 123.357 117.965 131.461C131.953 139.507 146.424 147.831 164.597 147.831C182.771 147.831 197.242 139.513 211.23 131.461C225.328 123.357 239.903 114.973 258.334 114.973V115.864C240.154 115.864 225.689 124.182 211.701 132.233C197.609 140.338 183.028 148.722 164.603 148.722Z" fill="#94B3D1" fill-opacity="0.4"/>
<path d="M164.603 142.749C146.173 142.749 131.598 134.365 117.5 126.26C103.512 118.215 89.0402 109.891 70.8669 109.891C52.6875 109.891 38.2222 118.209 24.2343 126.254C16.7385 130.565 8.98582 135.024 0.731334 138.171L0.388672 137.345C8.56973 134.222 16.2919 129.787 23.757 125.488C37.8551 117.384 52.4305 109 70.8608 109C89.2911 109 103.866 117.384 117.965 125.488C131.953 133.534 146.424 141.858 164.597 141.858C182.771 141.858 197.242 133.54 211.23 125.488C225.328 117.384 239.903 109 258.334 109V109.891C240.154 109.891 225.689 118.209 211.701 126.26C197.609 134.365 183.028 142.749 164.603 142.749Z" fill="#94B3D1" fill-opacity="0.4"/>
<path d="M164.603 136.769C146.173 136.769 131.598 128.386 117.5 120.281C103.512 112.236 89.0402 103.917 70.8669 103.917C52.6875 103.917 38.2222 112.236 24.2343 120.281C16.7385 124.592 8.98582 129.051 0.731334 132.198L0.388672 131.372C8.56973 128.249 16.2919 123.808 23.757 119.515C37.8551 111.411 52.4305 103.027 70.8608 103.027C89.2911 103.027 103.866 111.411 117.965 119.515C131.953 127.56 146.424 135.879 164.597 135.879C182.771 135.879 197.242 127.56 211.23 119.515C225.328 111.405 239.903 103.027 258.334 103.027V103.917C240.154 103.917 225.689 112.236 211.701 120.281C197.609 128.386 183.028 136.769 164.603 136.769Z" fill="#94B3D1" fill-opacity="0.4"/>
<path d="M164.603 130.796C146.173 130.796 131.598 122.413 117.5 114.308C103.512 106.263 89.0402 97.9385 70.8669 97.9385C52.6875 97.9385 38.2222 106.257 24.2343 114.302C16.7385 118.613 8.98582 123.072 0.731334 126.219L0.388672 125.393C8.56973 122.27 16.2919 117.829 23.757 113.536C37.8551 105.432 52.4305 97.0479 70.8608 97.0479C89.2911 97.0479 103.866 105.432 117.965 113.536C131.953 121.581 146.424 129.906 164.597 129.906C182.771 129.906 197.242 121.587 211.23 113.536C225.328 105.432 239.903 97.0479 258.334 97.0479V97.9385C240.154 97.9385 225.689 106.257 211.701 114.308C197.609 122.413 183.028 130.796 164.603 130.796Z" fill="#94B3D1" fill-opacity="0.4"/>
<path d="M164.603 124.823C146.173 124.823 131.598 116.44 117.5 108.335C103.512 100.29 89.0402 91.9713 70.8669 91.9713C52.6875 91.9713 38.2222 100.29 24.2343 108.335C16.7385 112.646 8.98582 117.105 0.731334 120.251L0.388672 119.42C8.56973 116.297 16.2919 111.862 23.757 107.563C37.8551 99.4584 52.4305 91.0747 70.8608 91.0747C89.2911 91.0747 103.866 99.4584 117.965 107.563C131.953 115.608 146.424 123.927 164.597 123.927C182.771 123.927 197.242 115.608 211.23 107.563C225.328 99.4584 239.903 91.0747 258.334 91.0747V91.9653C240.154 91.9653 225.689 100.284 211.701 108.329C197.609 116.44 183.028 124.823 164.603 124.823Z" fill="#94B3D1" fill-opacity="0.4"/>
<path d="M164.603 118.85C146.173 118.85 131.598 110.466 117.5 102.362C103.512 94.3165 89.0402 85.9922 70.8669 85.9922C52.6875 85.9922 38.2222 94.3106 24.2343 102.356C16.7385 106.666 8.98582 111.125 0.731334 114.272L0.388672 113.447C8.56973 110.324 16.2919 105.883 23.757 101.59C37.8551 93.4853 52.4305 85.1016 70.8608 85.1016C89.2911 85.1016 103.866 93.4853 117.965 101.59C131.953 109.635 146.424 117.96 164.597 117.96C182.771 117.96 197.242 109.641 211.23 101.59C225.328 93.4793 239.903 85.1016 258.334 85.1016V85.9922C240.154 85.9922 225.689 94.3106 211.701 102.362C197.609 110.466 183.028 118.85 164.603 118.85Z" fill="#94B3D1" fill-opacity="0.4"/>
<path d="M164.603 112.877C146.173 112.877 131.598 104.494 117.5 96.3891C103.512 88.3439 89.0402 80.0195 70.8669 80.0195C52.6875 80.0195 38.2222 88.3379 24.2343 96.3891C16.7263 100.694 8.97358 105.153 0.725215 108.3L0.388672 107.474C8.56973 104.351 16.2919 99.916 23.757 95.6173C37.8551 87.5126 52.4305 79.1289 70.8608 79.1289C89.2911 79.1289 103.866 87.5126 117.965 95.6173C131.953 103.663 146.424 111.981 164.597 111.981C182.771 111.981 197.242 103.663 211.23 95.6173C225.328 87.5067 239.903 79.1289 258.334 79.1289V80.0195C240.154 80.0195 225.689 88.3379 211.701 96.3891C197.609 104.494 183.028 112.877 164.603 112.877Z" fill="#94B3D1" fill-opacity="0.4"/>
<path d="M164.603 106.898C146.173 106.898 131.598 98.5142 117.5 90.4096C103.512 82.3643 89.0402 74.0459 70.8669 74.0459C52.6875 74.0459 38.2222 82.3643 24.2343 90.4096C16.7385 94.7202 8.98582 99.1792 0.731334 102.326L0.388672 101.501C8.56973 98.3776 16.2919 93.9423 23.757 89.6436C37.8551 81.533 52.4305 73.1553 70.8608 73.1553C89.2911 73.1553 103.866 81.539 117.965 89.6436C131.953 97.6889 146.424 106.013 164.597 106.013C182.771 106.013 197.242 97.6948 211.23 89.6436C225.328 81.533 239.903 73.1553 258.334 73.1553V74.0459C240.154 74.0459 225.689 82.3643 211.701 90.4096C197.609 98.5201 183.028 106.898 164.603 106.898Z" fill="#94B3D1" fill-opacity="0.4"/>
<path d="M164.603 100.925C146.173 100.925 131.598 92.5416 117.5 84.437C103.512 76.3917 89.0402 68.0733 70.8669 68.0733C52.6875 68.0733 38.2222 76.3917 24.2343 84.437C16.7385 88.7476 8.98582 93.2066 0.731334 96.3535L0.388672 95.5222C8.56973 92.3991 16.2919 87.9638 23.757 83.6651C37.8551 75.5605 52.4305 67.1768 70.8608 67.1768C89.2911 67.1768 103.866 75.5605 117.965 83.6651C131.953 91.7104 146.424 100.029 164.597 100.029C182.771 100.029 197.242 91.7104 211.23 83.6651C225.328 75.5605 239.903 67.1768 258.334 67.1768V68.0674C240.154 68.0674 225.689 76.3858 211.701 84.431C197.609 92.5416 183.028 100.925 164.603 100.925Z" fill="#94B3D1" fill-opacity="0.4"/>
<path d="M164.603 94.9522C146.173 94.9522 131.598 86.5685 117.5 78.4638C103.512 70.4186 89.0402 62.1002 70.8669 62.1002C52.6875 62.1002 38.2222 70.4186 24.2343 78.4638C16.7385 82.7744 8.98582 87.2335 0.731334 90.3803L0.388672 89.5491C8.56973 86.426 16.2919 81.9848 23.757 77.692C37.8551 69.5873 52.4305 61.2036 70.8608 61.2036C89.2911 61.2036 103.866 69.5873 117.965 77.692C131.953 85.7372 146.424 94.0556 164.597 94.0556C182.771 94.0556 197.242 85.7372 211.23 77.692C225.328 69.5814 239.903 61.2036 258.334 61.2036V62.0942C240.154 62.0942 225.689 70.4126 211.701 78.4579C197.609 86.5685 183.028 94.9522 164.603 94.9522Z" fill="#94B3D1" fill-opacity="0.4"/>
<path d="M164.603 88.979C146.173 88.979 131.598 80.5953 117.5 72.4907C103.512 64.4454 89.0402 56.127 70.8669 56.127C52.6875 56.127 38.2222 64.4454 24.2343 72.4907C16.7385 76.8013 8.98582 81.2603 0.731334 84.4072L0.388672 83.5759C8.56973 80.4528 16.2919 76.0175 23.757 71.7188C37.8551 63.6142 52.4305 55.2305 70.8608 55.2305C89.2911 55.2305 103.866 63.6142 117.965 71.7188C131.953 79.7641 146.424 88.0825 164.597 88.0825C182.771 88.0825 197.242 79.7641 211.23 71.7188C225.328 63.6082 239.903 55.2305 258.334 55.2305V56.1211C240.154 56.1211 225.689 64.4395 211.701 72.4848C197.609 80.5953 183.028 88.979 164.603 88.979Z" fill="#94B3D1" fill-opacity="0.4"/>
<path d="M164.603 83.0059C146.173 83.0059 131.598 74.6222 117.5 66.5175C103.512 58.4723 89.0402 50.1539 70.8669 50.1539C52.6875 50.1539 38.2222 58.4723 24.2343 66.5175C16.7385 70.8281 8.98582 75.2872 0.731334 78.4341L0.388672 77.6028C8.56973 74.4797 16.2919 70.0444 23.757 65.7457C37.8551 57.641 52.4305 49.2573 70.8608 49.2573C89.2911 49.2573 103.866 57.641 117.965 65.7457C131.953 73.7909 146.424 82.1153 164.597 82.1153C182.771 82.1153 197.242 73.7969 211.23 65.7457C225.328 57.6351 239.903 49.2573 258.334 49.2573V50.1479C240.154 50.1479 225.689 58.4663 211.701 66.5116C197.609 74.6222 183.028 83.0059 164.603 83.0059Z" fill="#94B3D1" fill-opacity="0.4"/>
<path d="M164.603 77.0328C146.173 77.0328 131.598 68.649 117.5 60.5444C103.512 52.4991 89.0402 44.1807 70.8669 44.1807C52.6936 44.1807 38.2222 52.4991 24.2343 60.5444C16.7385 64.855 8.98582 69.314 0.731334 72.4609L0.388672 71.6297C8.56973 68.5065 16.2919 64.0713 23.757 59.7725C37.8551 51.6679 52.4305 43.2842 70.8608 43.2842C89.2911 43.2842 103.866 51.6679 117.965 59.7725C131.953 67.8178 146.424 76.1421 164.597 76.1421C182.771 76.1421 197.242 67.8237 211.23 59.7725C225.328 51.6679 239.903 43.2842 258.334 43.2842V44.1748C240.154 44.1748 225.689 52.4932 211.701 60.5385C197.609 68.649 183.028 77.0328 164.603 77.0328Z" fill="#94B3D1" fill-opacity="0.4"/>
<path d="M164.603 71.0537C146.173 71.0537 131.598 62.67 117.5 54.5653C103.512 46.5201 89.0402 38.2017 70.8669 38.2017C52.6875 38.2017 38.2222 46.5201 24.2343 54.5653C16.7385 58.8759 8.98582 63.335 0.731334 66.4818L0.388672 65.6565C8.56973 62.5334 16.2919 58.0981 23.757 53.7994C37.8551 45.6947 52.4305 37.311 70.8608 37.311C89.2911 37.311 103.866 45.6947 117.965 53.7994C131.953 61.8447 146.424 70.169 164.597 70.169C182.771 70.169 197.242 61.8506 211.23 53.7994C225.328 45.6947 239.903 37.311 258.334 37.311V38.2017C240.154 38.2017 225.689 46.5201 211.701 54.5653C197.609 62.67 183.028 71.0537 164.603 71.0537Z" fill="#94B3D1" fill-opacity="0.4"/>
<path d="M164.603 65.0806C146.173 65.0806 131.598 56.6969 117.5 48.5923C103.512 40.547 89.0402 32.2286 70.8669 32.2286C52.6875 32.2286 38.2222 40.547 24.2343 48.5923C16.7263 52.9029 8.97358 57.3619 0.725215 60.5088L0.388672 59.6775C8.56973 56.5544 16.2919 52.1191 23.757 47.8204C37.8551 39.7157 52.4305 31.332 70.8608 31.332C89.2911 31.332 103.866 39.7157 117.965 47.8204C131.953 55.8657 146.424 64.184 164.597 64.184C182.771 64.184 197.242 55.8657 211.23 47.8204C225.328 39.7098 239.903 31.332 258.334 31.332V32.2227C240.154 32.2227 225.689 40.541 211.701 48.5863C197.609 56.6969 183.028 65.0806 164.603 65.0806Z" fill="#94B3D1" fill-opacity="0.4"/>
<path d="M164.603 59.1075C146.173 59.1075 131.598 50.7238 117.5 42.6191C103.512 34.5738 89.0402 26.2554 70.8669 26.2554C52.6875 26.2554 38.2222 34.5738 24.2343 42.6191C16.7263 46.9297 8.97358 51.3888 0.725215 54.5356L0.388672 53.7044C8.56973 50.5813 16.2919 46.14 23.757 41.8472C37.8551 33.7426 52.4305 25.3589 70.8608 25.3589C89.2911 25.3589 103.866 33.7426 117.965 41.8472C131.953 49.8925 146.424 58.2109 164.597 58.2109C182.771 58.2109 197.242 49.8925 211.23 41.8472C225.328 33.7426 239.903 25.3589 258.334 25.3589V26.2495C240.154 26.2495 225.689 34.5679 211.701 42.6132C197.609 50.7238 183.028 59.1075 164.603 59.1075Z" fill="#94B3D1" fill-opacity="0.4"/>
<path d="M164.603 53.1348C146.173 53.1348 131.598 44.7511 117.5 36.6465C103.512 28.6012 89.0402 20.2828 70.8669 20.2828C52.6875 20.2828 38.2222 28.6012 24.2343 36.6465C16.7263 40.9571 8.97358 45.4161 0.725215 48.563L0.388672 47.7317C8.56973 44.6086 16.2919 40.1733 23.757 35.8746C37.8551 27.7699 52.4305 19.3862 70.8608 19.3862C89.2911 19.3862 103.866 27.7699 117.965 35.8746C131.953 43.9199 146.424 52.2382 164.597 52.2382C182.771 52.2382 197.242 43.9199 211.23 35.8746C225.328 27.764 239.903 19.3862 258.334 19.3862V20.2769C240.154 20.2769 225.689 28.5952 211.701 36.6405C197.609 44.7511 183.028 53.1348 164.603 53.1348Z" fill="#94B3D1" fill-opacity="0.4"/>
<path d="M164.603 47.1612C146.173 47.1612 131.598 38.7775 117.5 30.6728C103.512 22.6275 89.0402 14.3032 70.8669 14.3032C52.6875 14.3032 38.2222 22.6216 24.2343 30.6669C16.7263 34.9775 8.97358 39.4365 0.725215 42.5834L0.388672 41.7581C8.56973 38.635 16.2919 34.1997 23.757 29.9009C37.8551 21.7963 52.4305 13.4126 70.8608 13.4126C89.2911 13.4126 103.866 21.7963 117.965 29.9009C131.953 37.9462 146.424 46.2646 164.597 46.2646C182.771 46.2646 197.242 37.9462 211.23 29.9009C225.328 21.7963 239.903 13.4126 258.334 13.4126V14.3032C240.154 14.3032 225.689 22.6216 211.701 30.6728C197.609 38.7775 183.028 47.1612 164.603 47.1612Z" fill="#94B3D1" fill-opacity="0.4"/>
<path d="M164.603 41.1885C146.173 41.1885 131.598 32.8048 117.5 24.7002C103.512 16.6549 89.0402 8.33056 70.8669 8.33056C52.6875 8.33056 38.2222 16.649 24.2343 24.6942C16.7263 29.0048 8.97358 33.4639 0.725215 36.6107L0.388672 35.7854C8.56973 32.6623 16.2919 28.227 23.757 23.9283C37.8551 15.8236 52.4305 7.43994 70.8608 7.43994C89.2911 7.43994 103.866 15.8236 117.965 23.9283C131.953 31.9736 146.424 40.2979 164.597 40.2979C182.771 40.2979 197.242 31.9795 211.23 23.9283C225.328 15.8236 239.903 7.43994 258.334 7.43994V8.33056C240.154 8.33056 225.689 16.649 211.701 24.7002C197.609 32.8048 183.028 41.1885 164.603 41.1885Z" fill="#94B3D1" fill-opacity="0.4"/>
<path d="M164.603 35.209C146.173 35.209 131.598 26.8253 117.5 18.7207C103.512 10.6754 89.0402 2.35701 70.8669 2.35701C52.6875 2.35701 38.2222 10.6754 24.2343 18.7207C16.7263 23.0313 8.97358 27.4903 0.725215 30.6372L0.388672 29.8119C8.56973 26.6888 16.2919 22.2475 23.757 17.9547C37.8551 9.84415 52.4305 1.46045 70.8608 1.46045C89.2911 1.46045 103.866 9.84416 117.965 17.9488C131.953 25.9941 146.424 34.3125 164.597 34.3125C182.771 34.3125 197.242 25.9941 211.23 17.9488C225.328 9.83822 239.903 1.46045 258.334 1.46045V2.35107C240.154 2.35107 225.689 10.6695 211.701 18.7147C197.609 26.8253 183.028 35.209 164.603 35.209Z" fill="#94B3D1" fill-opacity="0.4"/>
<path d="M164.603 29.2361C146.173 29.2361 131.597 20.8524 117.499 12.7418C109.979 8.42527 102.208 3.95435 93.9658 0.831246L94.3024 0C102.618 3.1528 110.42 7.64152 117.964 11.9818C131.958 20.0271 146.424 28.3514 164.603 28.3514C182.783 28.3514 197.248 20.033 211.236 11.9878C218.78 7.64152 226.588 3.1528 234.904 0L235.24 0.831246C226.998 3.95435 219.227 8.42527 211.707 12.7477C197.609 20.8524 183.027 29.2361 164.603 29.2361Z" fill="#94B3D1" fill-opacity="0.4"/>
<path d="M0.725215 24.6642L0.388672 23.833C8.56973 20.7099 16.2919 16.2746 23.757 11.9759C31.3078 7.64152 39.1095 3.1528 47.4251 0L47.7617 0.831246C39.5133 3.95435 31.7422 8.42527 24.2282 12.7477C16.7263 17.0583 8.97358 21.5174 0.725215 24.6642Z" fill="#94B3D1" fill-opacity="0.4"/>
<path d="M164.604 23.2633C146.173 23.2633 131.598 14.8796 117.5 6.76897C114.03 4.77398 110.439 2.70774 106.847 0.801812L107.287 0.0180664C110.891 1.92993 114.489 3.99617 117.965 5.9971C131.953 14.0424 146.424 22.3667 164.604 22.3667C182.783 22.3667 197.248 14.0483 211.242 5.9971C214.724 3.99617 218.316 1.92993 221.92 0.0180664L222.36 0.801812C218.775 2.70774 215.183 4.77398 211.707 6.76897C197.609 14.8796 183.028 23.2633 164.604 23.2633Z" fill="#94B3D1" fill-opacity="0.4"/>
</g>
</g>
</svg>
