<svg width="6" height="12" viewBox="0 0 6 12" fill="none" xmlns="http://www.w3.org/2000/svg">
<path d="M5.18182 2.72727L5.18182 9C5.18182 10.2055 4.20545 11.1818 3 11.1818C1.79455 11.1818 0.818182 10.2055 0.818182 9L0.818181 2.18182C0.818181 1.42909 1.42909 0.818181 2.18182 0.818181C2.93455 0.818181 3.54545 1.42909 3.54545 2.18182L3.54545 7.90909C3.54545 8.20909 3.3 8.45455 3 8.45455C2.7 8.45455 2.45455 8.20909 2.45455 7.90909L2.45455 2.72727L1.63636 2.72727L1.63636 7.90909C1.63636 8.66182 2.24727 9.27273 3 9.27273C3.75273 9.27273 4.36364 8.66182 4.36364 7.90909L4.36364 2.18182C4.36364 0.976363 3.38727 -1.48062e-07 2.18182 -9.53703e-08C0.976363 -4.26782e-08 -4.81858e-07 0.976363 -4.29166e-07 2.18182L-1.31134e-07 9C-5.86527e-08 10.6582 1.34182 12 3 12C4.65818 12 6 10.6582 6 9L6 2.72727L5.18182 2.72727Z" fill="black" fill-opacity="0.54"/>
</svg>
