<svg width="74" height="74" viewBox="0 0 74 74" fill="none" xmlns="http://www.w3.org/2000/svg">
<path d="M68.0156 14.427H41.3288L36.0127 8.13126C35.8373 7.92317 35.5787 7.80356 35.3064 7.8047H13.7915C10.4864 7.8047 7.80706 10.484 7.80706 13.7891V15.5358H5.9844C2.68235 15.5358 0.00417693 18.2106 0 21.5126V60.2441C0 63.5492 2.67931 66.2285 5.9844 66.2285H60.2085C63.5136 66.2285 66.1929 63.5492 66.1929 60.2441V58.4974H68.0156C71.3207 58.4974 74 55.8181 74 52.513V20.4114C74 17.1063 71.3207 14.427 68.0156 14.427ZM64.3399 56.6976V60.2821C64.3357 62.5663 62.4851 64.4169 60.2009 64.4211H5.9844C3.70019 64.4169 1.84962 62.5663 1.84544 60.2821V21.5506C1.84962 19.2664 3.70019 17.4158 5.9844 17.4116H27.1273L32.4433 23.7074C32.6188 23.9155 32.8774 24.0351 33.1496 24.034H60.2617C62.5104 24.071 64.3196 25.8936 64.3399 28.1425V56.6976ZM72.147 52.5586C72.1428 54.8428 70.2922 56.6934 68.008 56.6976H66.1853V28.1425C66.1853 24.8375 63.506 22.1581 60.2009 22.1581H33.5218L28.2057 15.8624C28.0302 15.6543 27.7716 15.5347 27.4994 15.5358H9.6601V13.7891C9.66428 11.5049 11.5148 9.65432 13.7991 9.65014H34.9115L40.2276 15.9459C40.4031 16.154 40.6616 16.2736 40.9339 16.2725H68.046C70.3302 16.2766 72.1808 18.1272 72.1849 20.4114L72.147 52.5586Z" fill="#04aed4"/>
</svg>
