<svg width="20" height="25" viewBox="0 0 20 25" fill="none" xmlns="http://www.w3.org/2000/svg">
<path fill-rule="evenodd" clip-rule="evenodd" d="M17.5 16.875V10.625C17.5 6.7875 15.4625 3.575 11.875 2.725V1.875C11.875 0.8375 11.0375 0 10 0C8.9625 0 8.125 0.8375 8.125 1.875V2.725C4.55 3.575 2.5 6.775 2.5 10.625V16.875L0 19.375V20.625H20V19.375L17.5 16.875ZM9.99977 24.375C11.3748 24.375 12.4998 23.25 12.4998 21.875H7.49977C7.49977 23.25 8.62477 24.375 9.99977 24.375ZM5.00023 18.1249H15.0002V10.6249C15.0002 7.52494 13.1127 4.99994 10.0002 4.99994C6.88773 4.99994 5.00023 7.52494 5.00023 10.6249V18.1249Z" fill="#155b75"/>
</svg>
