<svg width="23" height="22" viewBox="0 0 23 22" fill="none" xmlns="http://www.w3.org/2000/svg">
<path d="M19.6322 1.69312H18.6163V0H16.9232V1.69312H5.74866V0H4.05554V1.69312H3.03967C1.6393 1.69312 0.5 2.83241 0.5 4.23279V19.1322C0.5 20.5326 1.6393 21.6719 3.03967 21.6719H19.6322C21.0326 21.6719 22.1719 20.5326 22.1719 19.1322V4.23279C22.1719 2.83241 21.0326 1.69312 19.6322 1.69312ZM20.4788 19.1322C20.4788 19.599 20.099 19.9788 19.6322 19.9788H3.03967C2.57288 19.9788 2.19312 19.599 2.19312 19.1322V7.95764H20.4788V19.1322ZM20.4788 6.26453H2.19312V4.23279C2.19312 3.766 2.57288 3.38623 3.03967 3.38623H4.05554V5.07935H5.74866V3.38623H16.9232V5.07935H18.6163V3.38623H19.6322C20.099 3.38623 20.4788 3.766 20.4788 4.23279V6.26453Z" fill="#EAF0FF"/>
<path d="M5.41003 9.73541H3.71692V11.4285H5.41003V9.73541Z" fill="#EAF0FF"/>
<path d="M8.79626 9.73541H7.10315V11.4285H8.79626V9.73541Z" fill="#EAF0FF"/>
<path d="M12.1825 9.73541H10.4894V11.4285H12.1825V9.73541Z" fill="#EAF0FF"/>
<path d="M15.5687 9.73541H13.8756V11.4285H15.5687V9.73541Z" fill="#EAF0FF"/>
<path d="M18.955 9.73541H17.2618V11.4285H18.955V9.73541Z" fill="#EAF0FF"/>
<path d="M5.41003 13.1216H3.71692V14.8148H5.41003V13.1216Z" fill="#EAF0FF"/>
<path d="M8.79626 13.1216H7.10315V14.8148H8.79626V13.1216Z" fill="#EAF0FF"/>
<path d="M12.1825 13.1216H10.4894V14.8148H12.1825V13.1216Z" fill="#EAF0FF"/>
<path d="M15.5687 13.1216H13.8756V14.8148H15.5687V13.1216Z" fill="#EAF0FF"/>
<path d="M5.41003 16.5079H3.71692V18.201H5.41003V16.5079Z" fill="#EAF0FF"/>
<path d="M8.79626 16.5079H7.10315V18.201H8.79626V16.5079Z" fill="#EAF0FF"/>
<path d="M12.1825 16.5079H10.4894V18.201H12.1825V16.5079Z" fill="#EAF0FF"/>
<path d="M15.5687 16.5079H13.8756V18.201H15.5687V16.5079Z" fill="#EAF0FF"/>
<path d="M18.955 13.1216H17.2618V14.8148H18.955V13.1216Z" fill="#EAF0FF"/>
</svg>
