<svg width="19" height="14" viewBox="0 0 19 14" fill="none" xmlns="http://www.w3.org/2000/svg">
<path d="M2.20508 4.41174H3.30797V6.64759H2.20508V4.41174Z" fill="#0052B4"/>
<path d="M4.41211 4.41174H5.515V6.64759H4.41211V4.41174Z" fill="#0052B4"/>
<path d="M2.20508 7.75024H3.30797V9.98609H2.20508V7.75024Z" fill="#0052B4"/>
<path d="M4.41211 7.75024H5.515V9.98609H4.41211V7.75024Z" fill="#0052B4"/>
<path d="M8.86035 7.16876H9.96324V9.40461H8.86035V7.16876Z" fill="#0052B4"/>
<path d="M8.86035 3.82983H9.96324V6.06568H8.86035V3.82983Z" fill="#0052B4"/>
<path d="M12.2053 2.20578V1.10289H12.7935V0H6.02913V1.10289H6.61733V2.20578H0V14H18.8226V2.20578H12.2053ZM5.51445 12.8971V11.089H4.41156V12.8971H3.30867V11.089H2.20578V12.8971H1.10289V3.30867H6.61733V12.8971H5.51445ZM9.96276 12.8971V10.5075H8.85988V12.8971H7.72022V1.10289H11.1024V12.8971H9.96276ZM17.7198 12.8971H16.6169V11.089H15.514V12.8971H14.4111V11.089H13.3082V12.8971H12.2053V3.30867H17.7198V12.8971Z" fill="#0052B4"/>
<path d="M15.5137 4.41174H16.6166V6.64759H15.5137V4.41174Z" fill="#0052B4"/>
<path d="M13.3076 4.41174H14.4105V6.64759H13.3076V4.41174Z" fill="#0052B4"/>
<path d="M15.5137 7.75024H16.6166V9.98609H15.5137V7.75024Z" fill="#0052B4"/>
<path d="M13.3076 7.75024H14.4105V9.98609H13.3076V7.75024Z" fill="#0052B4"/>
</svg>
