<svg width="25" height="22" viewBox="0 0 25 22" fill="none" xmlns="http://www.w3.org/2000/svg">
<path d="M3.3845 2.64342H4.72836V1.59911C4.72836 1.21437 5.04273 0.9 5.42747 0.9C5.81222 0.9 6.12659 1.21437 6.12659 1.59911V2.64342H11.7979V1.59911C11.7979 1.21437 12.1123 0.9 12.497 0.9C12.8818 0.9 13.1961 1.21437 13.1961 1.59911V2.64342H18.9274V1.59911C18.9274 1.21437 19.2417 0.9 19.6265 0.9C20.0112 0.9 20.3256 1.21437 20.3256 1.59911V2.64342H21.6095C22.9847 2.64342 24.1 3.7985 24.1 5.16982V19.0992C24.1 20.4781 22.9891 21.5956 21.6095 21.5956H3.39049C2.01106 21.5956 0.900024 20.4783 0.900024 19.1052L0.900026 5.17028L1.00002 5.16982H0.900024V5.16985C0.894024 3.79827 2.00952 2.64342 3.3845 2.64342ZM2.29226 19.0992C2.29226 19.7033 2.77517 20.1917 3.379 20.1974H3.3845H21.6095C22.2133 20.1974 22.7018 19.709 22.7018 19.1052V19.0992V5.16982C22.7018 4.55647 22.2098 4.04164 21.6095 4.04164H20.3256V4.81036C20.3256 5.1951 20.0112 5.50947 19.6265 5.50947C19.2417 5.50947 18.9274 5.1951 18.9274 4.81036V4.04164H13.1961V4.81036C13.1961 5.1951 12.8818 5.50947 12.497 5.50947C12.1123 5.50947 11.7979 5.1951 11.7979 4.81036V4.04164H6.12659V4.81036C6.12659 5.1951 5.81222 5.50947 5.42747 5.50947C5.04273 5.50947 4.72836 5.1951 4.72836 4.81036V4.04164H3.3845C2.77884 4.04164 2.29226 4.56181 2.29226 5.16982V19.0992Z" fill="white" stroke="white" stroke-width="0.2"/>
<path d="M14.0727 8.58579H15.1211C15.5058 8.58579 15.8202 8.90016 15.8202 9.2849C15.8202 9.66964 15.5058 9.98402 15.1211 9.98402H14.0727C13.6879 9.98402 13.3735 9.66964 13.3735 9.2849C13.3735 8.90016 13.6879 8.58579 14.0727 8.58579Z" fill="#FFFCFC" stroke="#FFFCFC" stroke-width="0.2"/>
<path d="M9.90273 8.58579H10.9512C11.3359 8.58579 11.6503 8.90016 11.6503 9.2849C11.6503 9.66964 11.3359 9.98402 10.9512 9.98402H9.90273C9.51799 9.98402 9.20362 9.66964 9.20362 9.2849C9.20362 8.90082 9.51135 8.58579 9.90273 8.58579Z" fill="#FFFCFC" stroke="#FFFCFC" stroke-width="0.2"/>
<path d="M5.69717 8.58579H6.74561C7.13035 8.58579 7.44473 8.90016 7.44473 9.2849C7.44473 9.66964 7.13035 9.98402 6.74561 9.98402H5.69717C5.31243 9.98402 4.99805 9.66964 4.99805 9.2849C4.99805 8.90016 5.31243 8.58579 5.69717 8.58579Z" fill="#FFFCFC" stroke="#FFFCFC" stroke-width="0.2"/>
<path d="M14.0727 12.7198H15.1211C15.5058 12.7198 15.8202 13.0342 15.8202 13.4189C15.8202 13.8037 15.5058 14.118 15.1211 14.118H14.0727C13.6879 14.118 13.3735 13.8037 13.3735 13.4189C13.3735 13.0342 13.6879 12.7198 14.0727 12.7198Z" fill="#FFFCFC" stroke="#FFFCFC" stroke-width="0.2"/>
<path d="M18.2722 12.7198H19.3267C19.7114 12.7198 20.0258 13.0342 20.0258 13.4189C20.0258 13.8037 19.7114 14.118 19.3267 14.118H18.2782C17.8935 14.118 17.5791 13.8037 17.5791 13.4189C17.5791 13.0355 17.8862 12.7198 18.2722 12.7198Z" fill="#FFFCFC" stroke="#FFFCFC" stroke-width="0.2"/>
<path d="M5.69717 12.7198H6.74561C7.13035 12.7198 7.44473 13.0342 7.44473 13.4189C7.44473 13.8037 7.13035 14.118 6.74561 14.118H5.69717C5.31243 14.118 4.99805 13.8037 4.99805 13.4189C4.99805 13.0342 5.31243 12.7198 5.69717 12.7198Z" fill="#FFFCFC" stroke="#FFFCFC" stroke-width="0.2"/>
<path d="M9.90273 12.8517H10.9512C11.3359 12.8517 11.6503 13.166 11.6503 13.5508C11.6503 13.9355 11.3359 14.2499 10.9512 14.2499H9.90273C9.51799 14.2499 9.20362 13.9355 9.20362 13.5508C9.20362 13.1667 9.51135 12.8517 9.90273 12.8517Z" fill="#FFFCFC" stroke="#FFFCFC" stroke-width="0.2"/>
</svg>
