<svg width="56" height="56" viewBox="0 0 56 56" fill="none" xmlns="http://www.w3.org/2000/svg">
<g filter="url(#filter0_b)">
<rect x="0.187012" width="55.04" height="55.04" rx="8" fill="white" fill-opacity="0.6"/>
</g>
<path fill-rule="evenodd" clip-rule="evenodd" d="M36.7005 26.9086C36.7005 27.321 36.6641 27.7093 36.6156 28.0975L39.1753 30.0992C39.4058 30.2812 39.4665 30.6087 39.3209 30.8756L36.8946 35.0732C36.7854 35.2673 36.5792 35.3765 36.3729 35.3765C36.3001 35.3765 36.2273 35.3644 36.1545 35.3401L33.1337 34.1269C32.5029 34.6001 31.8235 35.0126 31.0835 35.3158L30.6225 38.5307C30.5861 38.8219 30.3313 39.0403 30.028 39.0403H25.1753C24.8721 39.0403 24.6173 38.8219 24.5809 38.5307L24.1199 35.3158C23.3798 35.0126 22.7005 34.6122 22.0696 34.1269L19.0488 35.3401C18.9882 35.3644 18.9154 35.3765 18.8426 35.3765C18.6242 35.3765 18.418 35.2673 18.3088 35.0732L15.8825 30.8756C15.7369 30.6087 15.7975 30.2812 16.028 30.0992L18.5878 28.0975C18.5393 27.7093 18.5029 27.3089 18.5029 26.9086C18.5029 26.5082 18.5393 26.1079 18.5878 25.7197L16.028 23.7179C15.7975 23.536 15.7247 23.2084 15.8825 22.9415L18.3088 18.7439C18.418 18.5498 18.6242 18.4406 18.8305 18.4406C18.9032 18.4406 18.976 18.4528 19.0488 18.477L22.0696 19.6902C22.7005 19.2171 23.3798 18.8046 24.1199 18.5013L24.5809 15.2864C24.6173 14.9952 24.8721 14.7769 25.1753 14.7769H30.028C30.3313 14.7769 30.5861 14.9952 30.6225 15.2864L31.0835 18.5013C31.8235 18.8046 32.5029 19.2049 33.1337 19.6902L36.1545 18.477C36.2152 18.4528 36.288 18.4406 36.3608 18.4406C36.5792 18.4406 36.7854 18.5498 36.8946 18.7439L39.3209 22.9415C39.4665 23.2084 39.4058 23.536 39.1753 23.7179L36.6156 25.7197C36.6641 26.1079 36.7005 26.4961 36.7005 26.9086ZM34.274 26.9085C34.274 26.6538 34.2619 26.399 34.2134 26.0229L34.0435 24.652L35.1232 23.8028L36.4213 22.7716L35.5721 21.3037L34.0314 21.9224L32.7454 22.4441L31.6414 21.5948C31.1562 21.2309 30.6709 20.9519 30.1492 20.7335L28.8633 20.2118L28.6692 18.8409L28.4387 17.2032H26.7524L26.5097 18.8409L26.3156 20.2118L25.0297 20.7335C24.5323 20.9397 24.0349 21.2309 23.5132 21.6191L22.4213 22.4441L21.1596 21.9345L19.6189 21.3158L18.7697 22.7838L20.0799 23.8028L21.1596 24.652L20.9898 26.0229C20.9534 26.3869 20.9291 26.6659 20.9291 26.9085C20.9291 27.1512 20.9534 27.4302 20.9898 27.8063L21.1596 29.1772L20.0799 30.0264L18.7697 31.0455L19.6189 32.5134L21.1596 31.8947L22.4456 31.373L23.5496 32.2222C24.0349 32.5862 24.5201 32.8652 25.0418 33.0836L26.3278 33.6052L26.5219 34.9761L26.7524 36.6139H28.4508L28.6934 34.9761L28.8875 33.6052L30.1735 33.0836C30.6709 32.8773 31.1683 32.5862 31.69 32.198L32.7818 31.373L34.0435 31.8825L35.5843 32.5013L36.4335 31.0333L35.1232 30.0143L34.0435 29.165L34.2134 27.7942C34.2498 27.4302 34.274 27.1633 34.274 26.9085ZM27.6022 22.0558C24.9211 22.0558 22.7495 24.2274 22.7495 26.9085C22.7495 29.5896 24.9211 31.7612 27.6022 31.7612C30.2833 31.7612 32.4549 29.5896 32.4549 26.9085C32.4549 24.2274 30.2833 22.0558 27.6022 22.0558ZM25.1758 26.9084C25.1758 28.2429 26.2677 29.3348 27.6022 29.3348C28.9367 29.3348 30.0285 28.2429 30.0285 26.9084C30.0285 25.574 28.9367 24.4821 27.6022 24.4821C26.2677 24.4821 25.1758 25.574 25.1758 26.9084Z" fill="white"/>
<defs>
<filter id="filter0_b" x="-39.813" y="-40" width="135.04" height="135.04" filterUnits="userSpaceOnUse" color-interpolation-filters="sRGB">
<feFlood flood-opacity="0" result="BackgroundImageFix"/>
<feGaussianBlur in="BackgroundImage" stdDeviation="20"/>
<feComposite in2="SourceAlpha" operator="in" result="effect1_backgroundBlur"/>
<feBlend mode="normal" in="SourceGraphic" in2="effect1_backgroundBlur" result="shape"/>
</filter>
</defs>
</svg>
