<svg width="17" height="17" viewBox="0 0 17 17" fill="none" xmlns="http://www.w3.org/2000/svg">
<path d="M16.15 0H3.4C2.94913 0 2.51673 0.179107 2.19792 0.497918C1.87911 0.81673 1.7 1.24913 1.7 1.7V4.25H0V5.95H1.7V7.65H0V9.35H1.7V11.05H0V12.75H1.7V15.3C1.7 15.7509 1.87911 16.1833 2.19792 16.5021C2.51673 16.8209 2.94913 17 3.4 17H16.15C16.3754 17 16.5916 16.9104 16.751 16.751C16.9104 16.5916 17 16.3754 17 16.15V0.85C17 0.624566 16.9104 0.408365 16.751 0.248959C16.5916 0.0895533 16.3754 0 16.15 0ZM9.35 2.54915C10.7508 2.54915 11.9 3.6975 11.9 5.09915C11.8975 5.77477 11.6281 6.42203 11.1505 6.89985C10.6728 7.37767 10.0256 7.64731 9.35 7.65C7.95005 7.65 6.8 6.49995 6.8 5.09915C6.8 3.6975 7.95005 2.54915 9.35 2.54915ZM14.45 13.6H4.25V12.9625C4.25 11.0764 6.54925 9.1375 9.35 9.1375C12.1508 9.1375 14.45 11.0764 14.45 12.9625V13.6Z" fill="#0A1128"/>
</svg>
