<svg width="24" height="24" viewBox="0 0 24 24" fill="none" xmlns="http://www.w3.org/2000/svg">
<path d="M16.7346 9.07867C16.8394 8.98096 16.9239 8.86358 16.9834 8.73321C17.0428 8.60284 17.076 8.46204 17.081 8.31885C17.086 8.17566 17.0628 8.03289 17.0126 7.89868C16.9624 7.76447 16.8863 7.64146 16.7886 7.53667C16.6909 7.43187 16.5735 7.34735 16.4432 7.28792C16.3128 7.22849 16.172 7.19532 16.0288 7.19031C15.8856 7.18529 15.7428 7.20853 15.6086 7.25869C15.4744 7.30886 15.3514 7.38496 15.2466 7.48267L12.0546 10.4587L9.07862 7.26557C8.87949 7.06162 8.60845 6.94371 8.32349 6.93706C8.03853 6.93042 7.76228 7.03557 7.55386 7.23002C7.34545 7.42446 7.22141 7.69276 7.2083 7.9775C7.19519 8.26224 7.29405 8.5408 7.48371 8.75358L10.4597 11.9456L7.26662 14.9216C7.15813 15.0183 7.07005 15.1357 7.00757 15.2669C6.94508 15.3982 6.90945 15.5406 6.90277 15.6857C6.89608 15.8309 6.91848 15.976 6.96864 16.1124C7.0188 16.2488 7.09571 16.3738 7.19486 16.4801C7.29401 16.5864 7.4134 16.6718 7.54601 16.7313C7.67862 16.7908 7.82178 16.8231 7.96709 16.8265C8.11239 16.8299 8.25691 16.8042 8.39215 16.751C8.52739 16.6978 8.65063 16.618 8.75462 16.5165L11.9466 13.5416L14.9226 16.7336C15.0187 16.8441 15.1361 16.9341 15.2677 16.9983C15.3993 17.0625 15.5425 17.0995 15.6887 17.1071C15.835 17.1148 15.9813 17.0929 16.1189 17.0429C16.2565 16.9928 16.3826 16.9155 16.4897 16.8157C16.5968 16.7158 16.6827 16.5954 16.7423 16.4616C16.8019 16.3279 16.834 16.1835 16.8365 16.0371C16.8391 15.8907 16.8122 15.7452 16.7574 15.6094C16.7026 15.4736 16.621 15.3503 16.5175 15.2467L13.5426 12.0547L16.7346 9.07867Z" fill="#CE4346"/>
<path fill-rule="evenodd" clip-rule="evenodd" d="M0 12C0 5.37273 5.37273 0 12 0C18.6273 0 24 5.37273 24 12C24 18.6273 18.6273 24 12 24C5.37273 24 0 18.6273 0 12ZM12 21.8182C10.7107 21.8182 9.43394 21.5642 8.24274 21.0708C7.05155 20.5774 5.9692 19.8542 5.0575 18.9425C4.14579 18.0308 3.42259 16.9485 2.92918 15.7573C2.43577 14.5661 2.18182 13.2893 2.18182 12C2.18182 10.7107 2.43577 9.43394 2.92918 8.24274C3.42259 7.05155 4.14579 5.9692 5.0575 5.0575C5.9692 4.14579 7.05155 3.42259 8.24274 2.92918C9.43394 2.43577 10.7107 2.18182 12 2.18182C14.6039 2.18182 17.1012 3.21623 18.9425 5.0575C20.7838 6.89876 21.8182 9.39606 21.8182 12C21.8182 14.6039 20.7838 17.1012 18.9425 18.9425C17.1012 20.7838 14.6039 21.8182 12 21.8182Z" fill="#CE4346"/>
</svg>
