<svg width="13" height="14" viewBox="0 0 13 14" fill="none" xmlns="http://www.w3.org/2000/svg">
<g clip-path="url(#clip0)">
<path opacity="0.4" d="M0.875 12.6875C0.875 13.0356 1.01328 13.3694 1.25942 13.6156C1.50556 13.8617 1.8394 14 2.1875 14H10.0625C10.4106 14 10.7444 13.8617 10.9906 13.6156C11.2367 13.3694 11.375 13.0356 11.375 12.6875V2.625H0.875V12.6875ZM8.3125 4.8125C8.3125 4.69647 8.35859 4.58519 8.44064 4.50314C8.52269 4.42109 8.63397 4.375 8.75 4.375C8.86603 4.375 8.97731 4.42109 9.05936 4.50314C9.14141 4.58519 9.1875 4.69647 9.1875 4.8125V10.9375C9.1875 11.0535 9.14141 11.1648 9.05936 11.2469C8.97731 11.3289 8.86603 11.375 8.75 11.375C8.63397 11.375 8.52269 11.3289 8.44064 11.2469C8.35859 11.1648 8.3125 11.0535 8.3125 10.9375V4.8125ZM5.6875 4.8125C5.6875 4.69647 5.73359 4.58519 5.81564 4.50314C5.89769 4.42109 6.00897 4.375 6.125 4.375C6.24103 4.375 6.35231 4.42109 6.43436 4.50314C6.51641 4.58519 6.5625 4.69647 6.5625 4.8125V10.9375C6.5625 11.0535 6.51641 11.1648 6.43436 11.2469C6.35231 11.3289 6.24103 11.375 6.125 11.375C6.00897 11.375 5.89769 11.3289 5.81564 11.2469C5.73359 11.1648 5.6875 11.0535 5.6875 10.9375V4.8125ZM3.0625 4.8125C3.0625 4.69647 3.10859 4.58519 3.19064 4.50314C3.27269 4.42109 3.38397 4.375 3.5 4.375C3.61603 4.375 3.72731 4.42109 3.80936 4.50314C3.89141 4.58519 3.9375 4.69647 3.9375 4.8125V10.9375C3.9375 11.0535 3.89141 11.1648 3.80936 11.2469C3.72731 11.3289 3.61603 11.375 3.5 11.375C3.38397 11.375 3.27269 11.3289 3.19064 11.2469C3.10859 11.1648 3.0625 11.0535 3.0625 10.9375V4.8125Z" fill="#D72638"/>
<path d="M11.8125 0.875005H8.53125L8.27422 0.363677C8.21977 0.25436 8.1359 0.162406 8.03204 0.0981575C7.92818 0.0339095 7.80845 -8.27959e-05 7.68633 4.7941e-06H4.56094C4.43909 -0.000463619 4.31957 0.0334019 4.21608 0.0977214C4.11259 0.162041 4.02931 0.254213 3.97578 0.363677L3.71875 0.875005H0.4375C0.321468 0.875005 0.210188 0.921098 0.128141 1.00315C0.0460936 1.08519 0 1.19647 0 1.3125L0 2.1875C0 2.30354 0.0460936 2.41482 0.128141 2.49686C0.210188 2.57891 0.321468 2.625 0.4375 2.625H11.8125C11.9285 2.625 12.0398 2.57891 12.1219 2.49686C12.2039 2.41482 12.25 2.30354 12.25 2.1875V1.3125C12.25 1.19647 12.2039 1.08519 12.1219 1.00315C12.0398 0.921098 11.9285 0.875005 11.8125 0.875005ZM3.5 4.375C3.38397 4.375 3.27269 4.4211 3.19064 4.50315C3.10859 4.58519 3.0625 4.69647 3.0625 4.8125V10.9375C3.0625 11.0535 3.10859 11.1648 3.19064 11.2469C3.27269 11.3289 3.38397 11.375 3.5 11.375C3.61603 11.375 3.72731 11.3289 3.80936 11.2469C3.89141 11.1648 3.9375 11.0535 3.9375 10.9375V4.8125C3.9375 4.69647 3.89141 4.58519 3.80936 4.50315C3.72731 4.4211 3.61603 4.375 3.5 4.375ZM6.125 4.375C6.00897 4.375 5.89769 4.4211 5.81564 4.50315C5.73359 4.58519 5.6875 4.69647 5.6875 4.8125V10.9375C5.6875 11.0535 5.73359 11.1648 5.81564 11.2469C5.89769 11.3289 6.00897 11.375 6.125 11.375C6.24103 11.375 6.35231 11.3289 6.43436 11.2469C6.51641 11.1648 6.5625 11.0535 6.5625 10.9375V4.8125C6.5625 4.69647 6.51641 4.58519 6.43436 4.50315C6.35231 4.4211 6.24103 4.375 6.125 4.375ZM8.75 4.375C8.63397 4.375 8.52269 4.4211 8.44064 4.50315C8.35859 4.58519 8.3125 4.69647 8.3125 4.8125V10.9375C8.3125 11.0535 8.35859 11.1648 8.44064 11.2469C8.52269 11.3289 8.63397 11.375 8.75 11.375C8.86603 11.375 8.97731 11.3289 9.05936 11.2469C9.14141 11.1648 9.1875 11.0535 9.1875 10.9375V4.8125C9.1875 4.69647 9.14141 4.58519 9.05936 4.50315C8.97731 4.4211 8.86603 4.375 8.75 4.375Z" fill="#D72638"/>
</g>
<defs>
<clipPath id="clip0">
<rect width="12.25" height="14" fill="white"/>
</clipPath>
</defs>
</svg>
