<svg width="139" height="17" viewBox="0 0 139 17" fill="none" xmlns="http://www.w3.org/2000/svg">
<g opacity="0.5">
<path d="M1 6.625C1 6.625 8.96875 1 18.1094 1C27.25 1 26.5895 6.625 39.1072 6.625C51.625 6.625 51.0923 1 59.3274 1C67.5625 1 67.4773 6.625 78.7699 6.625C90.0625 6.625 89.5085 1 95.8793 1C102.25 1 104.679 6.625 111.433 6.625C118.188 6.625 117.996 1 124.654 1C131.312 1 137.875 6.625 137.875 6.625" stroke="#FB882C"/>
<path d="M1 16C1 16 8.96875 10.375 18.1094 10.375C27.25 10.375 26.5895 16 39.1072 16C51.625 16 51.0923 10.375 59.3274 10.375C67.5625 10.375 67.4773 16 78.7699 16C90.0625 16 89.5085 10.375 95.8793 10.375C102.25 10.375 104.679 16 111.433 16C118.188 16 117.996 10.375 124.654 10.375C131.312 10.375 137.875 16 137.875 16" stroke="#FB882C"/>
</g>
</svg>
