<svg width="75" height="10" viewBox="0 0 75 10" fill="none" xmlns="http://www.w3.org/2000/svg">
<g opacity="0.5">
<path d="M1 4C1 4 5.25 1 10.125 1C15 1 14.6477 4 21.3239 4C28 4 27.7159 1 32.108 1C36.5 1 36.4545 4 42.4773 4C48.5 4 48.2045 1 51.6023 1C55 1 56.2955 4 59.8977 4C63.5 4 63.3977 1 66.9489 1C70.5 1 74 4 74 4" stroke="#FB882C"/>
<path d="M1 9C1 9 5.25 6 10.125 6C15 6 14.6477 9 21.3239 9C28 9 27.7159 6 32.108 6C36.5 6 36.4545 9 42.4773 9C48.5 9 48.2045 6 51.6023 6C55 6 56.2955 9 59.8977 9C63.5 9 63.3977 6 66.9489 6C70.5 6 74 9 74 9" stroke="#FB882C"/>
</g>
</svg>
