<svg width="23" height="22" viewBox="0 0 23 22" fill="none" xmlns="http://www.w3.org/2000/svg">
<path d="M18.9981 3.17374C16.9515 1.12715 14.2303 0 11.3359 0C8.44156 0 5.72042 1.12715 3.67374 3.17374C1.62715 5.22042 0.5 7.94156 0.5 10.8359C0.5 13.7303 1.62715 16.4515 3.67374 18.4981C5.72042 20.5447 8.44156 21.6719 11.3359 21.6719C14.2303 21.6719 16.9515 20.5447 18.9981 18.4981C21.0447 16.4515 22.1719 13.7303 22.1719 10.8359C22.1719 7.94156 21.0447 5.22042 18.9981 3.17374ZM11.3359 19.9788C6.29456 19.9788 2.19312 15.8773 2.19312 10.8359C2.19312 5.79456 6.29456 1.69312 11.3359 1.69312C16.3773 1.69312 20.4788 5.79456 20.4788 10.8359C20.4788 15.8773 16.3773 19.9788 11.3359 19.9788Z" fill="#EAF0FF"/>
<path d="M11.2344 15.749C10.823 15.749 10.4893 16.0825 10.4893 16.4941V17.2558C10.4893 17.6673 10.8229 18.0008 11.2344 18.0008C11.6457 18.0008 11.9795 17.6673 11.9795 17.2558V16.4941C11.9795 16.0825 11.6457 15.749 11.2344 15.749Z" fill="#EAF0FF"/>
<path d="M5.77032 10.2848H5.00878C4.59733 10.2848 4.26373 10.6186 4.26373 11.0302C4.26373 11.4417 4.59728 11.7752 5.00878 11.7752H5.77032C6.18203 11.7752 6.5155 11.4417 6.5155 11.0302C6.51545 10.6186 6.18203 10.2848 5.77032 10.2848Z" fill="#EAF0FF"/>
<path d="M11.2345 4.05969C11.212 4.05969 11.1902 4.06126 11.168 4.06139V10.9635H18.2031C18.1671 7.15063 15.0555 4.05969 11.2345 4.05969Z" fill="#EAF0FF"/>
</svg>
