<svg width="15" height="14" viewBox="0 0 15 14" fill="none" xmlns="http://www.w3.org/2000/svg">
<g clip-path="url(#clip0)">
<path opacity="0.4" d="M14.7031 1.56771L13.4323 0.296881C13.2414 0.106751 12.983 0 12.7135 0C12.4441 0 12.1857 0.106751 11.9948 0.296881L11.0729 1.21876C11.0254 1.26649 10.9987 1.33109 10.9987 1.39844C10.9987 1.46579 11.0254 1.5304 11.0729 1.57813L13.4219 3.92709C13.4696 3.97461 13.5342 4.00128 13.6016 4.00128C13.6689 4.00128 13.7335 3.97461 13.7813 3.92709L14.7031 3.00521C14.8933 2.81433 15 2.55588 15 2.28646C15 2.01704 14.8933 1.7586 14.7031 1.56771ZM11.1328 7.75001L10.0911 8.79167C10.0333 8.8509 10.0006 8.93023 10 9.01303V11.6641H1.66667V3.33073H7.65104C7.73383 3.3301 7.81316 3.29744 7.8724 3.23959L8.91406 2.19792C8.95792 2.15422 8.98781 2.09846 8.99993 2.03774C9.01205 1.97702 9.00586 1.91407 8.98215 1.85687C8.95843 1.79968 8.91826 1.75082 8.86673 1.71649C8.8152 1.68216 8.75463 1.66392 8.69271 1.66407H1.25C0.91848 1.66407 0.600537 1.79576 0.366117 2.03018C0.131696 2.26461 0 2.58255 0 2.91407L0 12.0807C0 12.4123 0.131696 12.7302 0.366117 12.9646C0.600537 13.199 0.91848 13.3307 1.25 13.3307H10.4167C10.7482 13.3307 11.0661 13.199 11.3006 12.9646C11.535 12.7302 11.6667 12.4123 11.6667 12.0807V7.97136C11.6668 7.90944 11.6486 7.84887 11.6142 7.79734C11.5799 7.74581 11.5311 7.70564 11.4739 7.68192C11.4167 7.65821 11.3537 7.65202 11.293 7.66414C11.2323 7.67626 11.1765 7.70615 11.1328 7.75001Z" fill="#09B78A"/>
<path d="M12.8332 4.513C12.8808 4.56073 12.9074 4.62533 12.9074 4.69268C12.9074 4.76003 12.8808 4.82464 12.8332 4.87237L7.14575 10.5599L4.72908 10.8281C4.65349 10.8366 4.57695 10.828 4.50516 10.8028C4.43337 10.7777 4.36816 10.7367 4.31437 10.6829C4.26058 10.6291 4.2196 10.5639 4.19447 10.4921C4.16933 10.4203 4.16069 10.3438 4.16918 10.2682L4.43741 7.85154L10.1249 2.16404C10.1726 2.11652 10.2372 2.08984 10.3046 2.08984C10.3719 2.08984 10.4366 2.11652 10.4843 2.16404L12.8332 4.513Z" fill="#09B78A"/>
</g>
<defs>
<clipPath id="clip0">
<rect width="15" height="13.3333" fill="white"/>
</clipPath>
</defs>
</svg>
