<svg width="14" height="18" viewBox="0 0 14 18" fill="none" xmlns="http://www.w3.org/2000/svg">
<path fill-rule="evenodd" clip-rule="evenodd" d="M1.16683 15.667H12.8335C13.0545 15.667 13.2665 15.7548 13.4228 15.9111C13.579 16.0674 13.6668 16.2793 13.6668 16.5003C13.6668 16.7213 13.579 16.9333 13.4228 17.0896C13.2665 17.2459 13.0545 17.3337 12.8335 17.3337H1.16683C0.945816 17.3337 0.733854 17.2459 0.577574 17.0896C0.421294 16.9333 0.333496 16.7213 0.333496 16.5003C0.333496 16.2793 0.421294 16.0674 0.577574 15.9111C0.733854 15.7548 0.945816 15.667 1.16683 15.667ZM0.333496 11.5003L8.66683 3.16699L11.1668 5.66699L2.8335 14.0003H0.333496V11.5003ZM9.50016 2.33366L11.1668 0.666992L13.6668 3.16699L11.9993 4.83449L9.50016 2.33366Z" fill="#0A1128"/>
</svg>
