<svg width="106" height="106" viewBox="0 0 106 106" fill="none" xmlns="http://www.w3.org/2000/svg">
<circle cx="53" cy="53" r="53" fill="#E5EBF5"/>
<path d="M51.2005 81.2536C51.0307 80.4172 50.6727 79.6305 50.1537 78.9531C49.6346 78.2757 48.9681 77.7254 48.2047 77.3439L41.6343 74.5389V74.3673C40.0829 75.0926 38.3912 75.4686 36.6785 75.4686C34.9659 75.4686 33.2742 75.0926 31.7227 74.3673V74.5389L25.1524 77.3439C24.2889 77.7753 23.5511 78.4217 23.01 79.221C22.4688 80.0202 22.1425 80.9453 22.0625 81.9072V89.0512H51.2946V81.9072C51.2771 81.6875 51.2456 81.4693 51.2005 81.2536Z" fill="#50A6EA"/>
<path d="M29.0196 77.3439L34.0916 75.1783C33.2752 74.9936 32.481 74.7216 31.7227 74.3672V74.5388L25.1524 77.3438C24.2889 77.7752 23.5511 78.4216 23.0099 79.2209C22.4687 80.0201 22.1425 80.9453 22.0625 81.9072V89.0512H25.9297V81.9072C26.0097 80.9453 26.336 80.0202 26.8771 79.221C27.4183 78.4217 28.1561 77.7753 29.0196 77.3439Z" fill="#72BCEF"/>
<path d="M81.3594 33.3225H46.5599C45.8761 33.3225 45.2204 33.5941 44.7369 34.0776C44.2534 34.5611 43.9818 35.2169 43.9818 35.9006V43.2006C45.8683 45.1834 46.9189 47.8165 46.9157 50.5534V54.6333H47.1683C47.5935 54.6662 47.9973 54.8328 48.3219 55.1093C48.6466 55.3858 48.8754 55.7579 48.9756 56.1724C49.0632 56.5294 49.0765 56.9005 49.0149 57.2628C48.9532 57.6252 48.8178 57.971 48.6171 58.2789C48.4164 58.5868 48.1546 58.8502 47.848 59.0528C47.5414 59.2555 47.1964 59.393 46.8345 59.457V60.7821C46.8381 63.4531 45.8165 66.0236 43.9805 67.9635L43.9818 67.9648V75.5419L48.2047 77.344C48.9681 77.7255 49.6347 78.2758 50.1537 78.9532C50.6728 79.6306 51.0308 80.4174 51.2005 81.2537H81.3594C81.698 81.2538 82.0333 81.1872 82.3461 81.0577C82.659 80.9281 82.9432 80.7383 83.1827 80.4988C83.4221 80.2594 83.612 79.9752 83.7415 79.6623C83.871 79.3495 83.9376 79.0142 83.9375 78.6756V35.9006C83.9375 35.2169 83.6659 34.5611 83.1824 34.0776C82.6989 33.5941 82.0432 33.3225 81.3594 33.3225Z" fill="white"/>
<path d="M57.1082 56.8955C61.3797 56.8955 64.8425 53.4327 64.8425 49.1611C64.8425 44.8896 61.3797 41.4268 57.1082 41.4268C52.8366 41.4268 49.3738 44.8896 49.3738 49.1611C49.3738 53.4327 52.8366 56.8955 57.1082 56.8955Z" fill="#49C160"/>
<path d="M51.9521 49.1611C51.9527 47.3335 52.6003 45.5653 53.78 44.1695C54.9597 42.7738 56.5955 41.8408 58.3974 41.5357C57.288 41.3475 56.151 41.4036 55.0656 41.7001C53.9801 41.9966 52.9725 42.5263 52.1129 43.2523C51.2532 43.9784 50.5624 44.8832 50.0885 45.9038C49.6146 46.9243 49.3691 48.0359 49.3691 49.1611C49.3691 50.2863 49.6146 51.398 50.0885 52.4185C50.5624 53.439 51.2532 54.3439 52.1129 55.0699C52.9725 55.796 53.9801 56.3257 55.0656 56.6222C56.151 56.9187 57.288 56.9747 58.3974 56.7865C56.5954 56.4817 54.9595 55.5487 53.7797 54.1529C52.5999 52.7571 51.9524 50.9887 51.9521 49.1611Z" fill="#5AE070"/>
<path d="M46.9156 54.6332V54.7518C46.9156 54.7518 37.7877 56.3606 31.6672 50.9066C30.4104 51.0123 29.1483 51.0442 27.8877 51.002L27.6028 55.6774C27.6001 55.7129 27.5885 55.7472 27.5693 55.7772C27.5501 55.8072 27.5237 55.832 27.4926 55.8494C27.4614 55.8667 27.4265 55.8761 27.3909 55.8767C27.3552 55.8773 27.32 55.869 27.2883 55.8527L26.025 55.2043C25.8916 55.1355 25.7782 55.0336 25.6955 54.9083C25.6129 54.783 25.5639 54.6386 25.5532 54.4889V50.5534C25.5532 47.7205 26.6786 45.0037 28.6817 43.0006C30.6848 40.9975 33.4016 39.8722 36.2344 39.8722C39.0672 39.8722 41.784 40.9975 43.7871 43.0006C45.7902 45.0037 46.9156 47.7205 46.9156 50.5534V54.6332Z" fill="#4A5160"/>
<path d="M31.2599 43.0007C32.9491 41.3088 35.1585 40.2346 37.5325 39.9511C37.1018 39.8987 36.6683 39.8724 36.2344 39.8722C33.4016 39.8723 30.6849 40.9977 28.6818 43.0007C26.6787 45.0038 25.5533 47.7206 25.5532 50.5534V54.4889C25.5639 54.6386 25.6129 54.783 25.6955 54.9083C25.7782 55.0336 25.8916 55.1355 26.025 55.2043L27.2883 55.8527C27.32 55.869 27.3552 55.8772 27.3908 55.8766C27.4265 55.876 27.4614 55.8666 27.4925 55.8493C27.5236 55.8319 27.55 55.8072 27.5692 55.7772C27.5885 55.7472 27.6 55.7129 27.6028 55.6774C27.6028 55.6774 27.0476 47.2125 31.2599 43.0007Z" fill="#58606D"/>
<path d="M41.6345 69.8287V74.3675C40.083 75.0928 38.3913 75.4687 36.6787 75.4687C34.9661 75.4687 33.2744 75.0928 31.7229 74.3675V70.1665C33.2744 70.9331 34.9916 71.3034 36.7212 71.2445C38.4507 71.1856 40.1388 70.6992 41.6345 69.8287Z" fill="#956D4B"/>
<path d="M34.301 74.3674V71.0459C33.4068 70.867 32.54 70.5714 31.7229 70.1665V74.3674C33.6704 75.2779 35.8311 75.6342 37.9678 75.3973C36.6974 75.2567 35.4588 74.9088 34.301 74.3674Z" fill="#815836"/>
<path d="M41.6343 69.8286C40.0435 70.7556 38.2364 71.2465 36.3952 71.2519C34.5541 71.2573 32.7441 70.7769 31.1479 69.8593C29.5517 68.9417 28.2258 67.6193 27.304 66.0256C26.3821 64.4318 25.897 62.6231 25.8974 60.782V59.4568C25.5358 59.3923 25.1911 59.2544 24.8847 59.0517C24.5784 58.8489 24.3168 58.5855 24.1161 58.2778C23.9153 57.9701 23.7798 57.6245 23.7177 57.2624C23.6556 56.9003 23.6683 56.5293 23.755 56.1723C23.8555 55.7577 24.0846 55.3856 24.4094 55.1091C24.7343 54.8327 25.1383 54.6661 25.5636 54.6332L25.5752 54.6306C25.6044 54.753 25.6597 54.8676 25.7374 54.9666C25.815 55.0656 25.9132 55.1467 26.0251 55.2042L27.2883 55.8526C27.32 55.869 27.3553 55.8772 27.3909 55.8766C27.4265 55.876 27.4615 55.8666 27.4926 55.8493C27.5237 55.8319 27.5501 55.8072 27.5693 55.7771C27.5886 55.7471 27.6001 55.7128 27.6029 55.6773L27.8878 51.0019C29.1484 51.0441 30.4104 51.0123 31.6673 50.9065C37.7878 56.3605 46.9156 54.7518 46.9156 54.7518V54.6332H47.1683C47.5934 54.6661 47.9972 54.8327 48.3219 55.1092C48.6465 55.3857 48.8753 55.7578 48.9755 56.1723C49.0631 56.5293 49.0765 56.9004 49.0148 57.2627C48.9531 57.6251 48.8178 57.9709 48.617 58.2788C48.4163 58.5867 48.1546 58.8501 47.8479 59.0527C47.5413 59.2554 47.1963 59.3929 46.8344 59.4568V60.782C46.838 63.453 45.8164 66.0235 43.9804 67.9634C43.9121 68.0381 43.8399 68.1116 43.7677 68.1838C43.1303 68.8216 42.4133 69.3745 41.6343 69.8286Z" fill="#956D4B"/>
<path d="M34.301 70.1665C32.5517 69.3009 31.0792 67.9634 30.0499 66.3052C29.0205 64.6469 28.4753 62.7339 28.4757 60.7821V59.457C28.114 59.3925 27.7694 59.2546 27.463 59.0518C27.1566 58.849 26.895 58.5856 26.6943 58.2779C26.4936 57.9702 26.358 57.6247 26.2959 57.2625C26.2338 56.9004 26.2465 56.5294 26.3333 56.1724C26.3905 55.9368 26.4895 55.7132 26.6255 55.5124L26.0252 55.2047C25.9133 55.1472 25.8151 55.0661 25.7375 54.9671C25.6598 54.8681 25.6045 54.7535 25.5753 54.6311L25.5637 54.6337C25.1384 54.6666 24.7344 54.8332 24.4095 55.1096C24.0847 55.3861 23.8556 55.7582 23.7551 56.1728C23.6677 56.5299 23.6544 56.9011 23.7162 57.2634C23.778 57.6258 23.9135 57.9717 24.1143 58.2796C24.3151 58.5874 24.577 58.8508 24.8837 59.0534C25.1905 59.256 25.5355 59.3935 25.8976 59.4574V60.7825C25.8969 62.1574 26.1672 63.519 26.693 64.7894C27.2189 66.0598 27.99 67.2141 28.9622 68.1864C29.9344 69.1586 31.0887 69.9297 32.3591 70.4555C33.6295 70.9814 34.9911 71.2517 36.366 71.251C36.7963 71.2506 37.2261 71.224 37.653 71.1713C36.487 71.028 35.3536 70.6883 34.301 70.1665Z" fill="#815836"/>
<path d="M77.5674 57.1237H71.9128C71.7077 57.1237 71.511 57.0422 71.3659 56.8971C71.2209 56.7521 71.1394 56.5553 71.1394 56.3502C71.1394 56.1451 71.2209 55.9484 71.3659 55.8033C71.511 55.6583 71.7077 55.5768 71.9128 55.5768H77.5674C77.7726 55.5768 77.9693 55.6583 78.1143 55.8033C78.2594 55.9484 78.3409 56.1451 78.3409 56.3502C78.3409 56.5553 78.2594 56.7521 78.1143 56.8971C77.9693 57.0422 77.7726 57.1237 77.5674 57.1237Z" fill="#B9C8DB"/>
<path d="M68.5812 57.1237H66.6843C66.4792 57.1237 66.2825 57.0422 66.1374 56.8971C65.9924 56.7521 65.9109 56.5553 65.9109 56.3502C65.9109 56.1451 65.9924 55.9484 66.1374 55.8033C66.2825 55.6583 66.4792 55.5768 66.6843 55.5768H68.5812C68.7863 55.5768 68.983 55.6583 69.1281 55.8033C69.2731 55.9484 69.3546 56.1451 69.3546 56.3502C69.3546 56.5553 69.2731 56.7521 69.1281 56.8971C68.983 57.0422 68.7863 57.1237 68.5812 57.1237Z" fill="#B9C8DB"/>
<path d="M77.5675 65.4891H75.6475C75.4423 65.4891 75.2456 65.4076 75.1006 65.2626C74.9555 65.1176 74.874 64.9208 74.874 64.7157C74.874 64.5106 74.9555 64.3138 75.1006 64.1688C75.2456 64.0237 75.4423 63.9423 75.6475 63.9423H77.5675C77.7726 63.9423 77.9694 64.0237 78.1144 64.1688C78.2595 64.3138 78.341 64.5106 78.341 64.7157C78.341 64.9208 78.2595 65.1176 78.1144 65.2626C77.9694 65.4076 77.7726 65.4891 77.5675 65.4891Z" fill="#B9C8DB"/>
<path d="M72.9723 65.4891H62.7295C62.5244 65.4891 62.3276 65.4076 62.1826 65.2626C62.0375 65.1176 61.9561 64.9208 61.9561 64.7157C61.9561 64.5106 62.0375 64.3138 62.1826 64.1688C62.3276 64.0237 62.5244 63.9423 62.7295 63.9423H72.9723C73.1774 63.9423 73.3741 64.0237 73.5192 64.1688C73.6642 64.3138 73.7457 64.5106 73.7457 64.7157C73.7457 64.9208 73.6642 65.1176 73.5192 65.2626C73.3741 65.4076 73.1774 65.4891 72.9723 65.4891Z" fill="#B9C8DB"/>
<path d="M60.0172 65.4891H59.3262C59.121 65.4891 58.9243 65.4076 58.7793 65.2626C58.6342 65.1176 58.5527 64.9208 58.5527 64.7157C58.5527 64.5106 58.6342 64.3138 58.7793 64.1688C58.9243 64.0237 59.121 63.9423 59.3262 63.9423H60.0172C60.2224 63.9423 60.4191 64.0237 60.5641 64.1688C60.7092 64.3138 60.7907 64.5106 60.7907 64.7157C60.7907 64.9208 60.7092 65.1176 60.5641 65.2626C60.4191 65.4076 60.2224 65.4891 60.0172 65.4891Z" fill="#B9C8DB"/>
<path d="M55.9945 65.4891H51.6094C51.4042 65.4891 51.2075 65.4076 51.0625 65.2626C50.9174 65.1176 50.8359 64.9208 50.8359 64.7157C50.8359 64.5106 50.9174 64.3138 51.0625 64.1688C51.2075 64.0237 51.4042 63.9423 51.6094 63.9423H55.9945C56.1996 63.9423 56.3964 64.0237 56.5414 64.1688C56.6865 64.3138 56.7679 64.5106 56.7679 64.7157C56.7679 64.9208 56.6865 65.1176 56.5414 65.2626C56.3964 65.4076 56.1996 65.4891 55.9945 65.4891Z" fill="#B9C8DB"/>
<path d="M77.5676 73.2211H73.1416C72.9365 73.2211 72.7397 73.1396 72.5947 72.9945C72.4497 72.8495 72.3682 72.6528 72.3682 72.4476C72.3682 72.2425 72.4497 72.0458 72.5947 71.9007C72.7397 71.7557 72.9365 71.6742 73.1416 71.6742H77.5676C77.7727 71.6742 77.9694 71.7557 78.1145 71.9007C78.2595 72.0458 78.341 72.2425 78.341 72.4476C78.341 72.6528 78.2595 72.8495 78.1145 72.9945C77.9694 73.1396 77.7727 73.2211 77.5676 73.2211Z" fill="#B9C8DB"/>
<path d="M70.3654 73.2211H69.8093C69.6042 73.2211 69.4075 73.1396 69.2624 72.9945C69.1174 72.8495 69.0359 72.6528 69.0359 72.4476C69.0359 72.2425 69.1174 72.0458 69.2624 71.9007C69.4075 71.7557 69.6042 71.6742 69.8093 71.6742H70.365C70.5702 71.6742 70.7669 71.7557 70.9119 71.9007C71.057 72.0458 71.1385 72.2425 71.1385 72.4476C71.1385 72.6528 71.057 72.8495 70.9119 72.9945C70.7669 73.1396 70.5702 73.2211 70.365 73.2211H70.3654Z" fill="#B9C8DB"/>
<path d="M67.6326 73.2211H63.4285C63.2233 73.2211 63.0266 73.1396 62.8816 72.9945C62.7365 72.8495 62.655 72.6528 62.655 72.4476C62.655 72.2425 62.7365 72.0458 62.8816 71.9007C63.0266 71.7557 63.2233 71.6742 63.4285 71.6742H67.6328C67.8379 71.6742 68.0346 71.7557 68.1797 71.9007C68.3247 72.0458 68.4062 72.2425 68.4062 72.4476C68.4062 72.6528 68.3247 72.8495 68.1797 72.9945C68.0346 73.1396 67.8379 73.2211 67.6328 73.2211H67.6326Z" fill="#B9C8DB"/>
<path d="M60.0173 73.2211H51.6094C51.4042 73.2211 51.2075 73.1396 51.0625 72.9945C50.9174 72.8495 50.8359 72.6528 50.8359 72.4476C50.8359 72.2425 50.9174 72.0458 51.0625 71.9007C51.2075 71.7557 51.4042 71.6742 51.6094 71.6742H60.0173C60.2224 71.6742 60.4191 71.7557 60.5642 71.9007C60.7092 72.0458 60.7907 72.2425 60.7907 72.4476C60.7907 72.6528 60.7092 72.8495 60.5642 72.9945C60.4191 73.1396 60.2224 73.2211 60.0173 73.2211Z" fill="#B9C8DB"/>
<path d="M77.5675 50.5383H77.0684C76.8632 50.5383 76.6665 50.4568 76.5215 50.3118C76.3764 50.1667 76.2949 49.97 76.2949 49.7649C76.2949 49.5598 76.3764 49.363 76.5215 49.218C76.6665 49.0729 76.8632 48.9915 77.0684 48.9915H77.5675C77.7726 48.9915 77.9693 49.0729 78.1144 49.218C78.2594 49.363 78.3409 49.5598 78.3409 49.7649C78.3409 49.97 78.2594 50.1667 78.1144 50.3118C77.9693 50.4568 77.7726 50.5383 77.5675 50.5383Z" fill="#B9C8DB"/>
<path d="M73.7368 50.5383H68.2546C68.0495 50.5383 67.8528 50.4568 67.7077 50.3118C67.5627 50.1667 67.4812 49.97 67.4812 49.7649C67.4812 49.5598 67.5627 49.363 67.7077 49.218C67.8528 49.0729 68.0495 48.9915 68.2546 48.9915H73.7368C73.9419 48.9915 74.1386 49.0729 74.2837 49.218C74.4287 49.363 74.5102 49.5598 74.5102 49.7649C74.5102 49.97 74.4287 50.1667 74.2837 50.3118C74.1386 50.4568 73.9419 50.5383 73.7368 50.5383Z" fill="#B9C8DB"/>
<path d="M77.5676 44.093H72.0417C71.8366 44.093 71.6399 44.0115 71.4948 43.8665C71.3498 43.7214 71.2683 43.5247 71.2683 43.3196C71.2683 43.1145 71.3498 42.9177 71.4948 42.7727C71.6399 42.6276 71.8366 42.5461 72.0417 42.5461H77.5676C77.7727 42.5461 77.9694 42.6276 78.1145 42.7727C78.2595 42.9177 78.341 43.1145 78.341 43.3196C78.341 43.5247 78.2595 43.7214 78.1145 43.8665C77.9694 44.0115 77.7727 44.093 77.5676 44.093Z" fill="#B9C8DB"/>
<path d="M68.7101 44.093H68.2546C68.0495 44.093 67.8528 44.0115 67.7077 43.8665C67.5627 43.7214 67.4812 43.5247 67.4812 43.3196C67.4812 43.1145 67.5627 42.9177 67.7077 42.7727C67.8528 42.6276 68.0495 42.5461 68.2546 42.5461H68.7101C68.9152 42.5461 69.1119 42.6276 69.257 42.7727C69.402 42.9177 69.4835 43.1145 69.4835 43.3196C69.4835 43.5247 69.402 43.7214 69.257 43.8665C69.1119 44.0115 68.9152 44.093 68.7101 44.093Z" fill="#B9C8DB"/>
<path d="M55.3861 52.7601C55.2845 52.7601 55.1839 52.7401 55.0901 52.7012C54.9963 52.6624 54.911 52.6054 54.8392 52.5336L52.6349 50.3287C52.5614 50.2572 52.5029 50.1719 52.4628 50.0776C52.4226 49.9834 52.4016 49.8821 52.4009 49.7796C52.4002 49.6772 52.4199 49.5756 52.4588 49.4808C52.4977 49.386 52.555 49.2999 52.6274 49.2275C52.6999 49.155 52.786 49.0977 52.8808 49.0588C52.9756 49.02 53.0772 49.0003 53.1796 49.001C53.2821 49.0017 53.3834 49.0227 53.4776 49.0629C53.5718 49.1031 53.6572 49.1616 53.7286 49.235L55.3866 50.8929L60.4894 45.7896C60.6348 45.6465 60.8309 45.5667 61.035 45.5675C61.239 45.5683 61.4344 45.6498 61.5787 45.794C61.723 45.9383 61.8044 46.1338 61.8052 46.3378C61.8061 46.5418 61.7262 46.7379 61.5831 46.8834L55.9329 52.5336C55.7879 52.6786 55.5912 52.7601 55.3861 52.7601Z" fill="#F4F8FC"/>
<path d="M52.9292 30.9493H76.2793V35.3811H52.9292V30.9493Z" fill="#EB6B04"/>
</svg>
