<svg width="44" height="44" viewBox="0 0 44 44" fill="none" xmlns="http://www.w3.org/2000/svg">
<rect width="44" height="44" rx="10" fill="#FF6663"/>
<path d="M14.4844 27.4062H15.3281V28.25H14.4844V27.4062Z" fill="white"/>
<path d="M13.2188 24.0312H16.5938V26.5625H13.2188V24.0312Z" fill="white"/>
<path d="M29.6719 18.9688H30.5156V19.8125H29.6719V18.9688Z" fill="white"/>
<path d="M14.0625 10.9531C14.0625 10.8412 14.1069 10.7339 14.1861 10.6548C14.2652 10.5757 14.3725 10.5312 14.4844 10.5312H30.5156C30.6275 10.5312 30.7348 10.5757 30.8139 10.6548C30.8931 10.7339 30.9375 10.8412 30.9375 10.9531V14.75H31.7812V9.6875H13.2188V14.75H14.0625V10.9531Z" fill="white"/>
<path d="M30.0938 11.375V14.75H27.9844C27.8725 14.75 27.7652 14.7944 27.6861 14.8736C27.6069 14.9527 27.5625 15.06 27.5625 15.1719V18.125H17.4375V15.1719C17.4375 15.06 17.3931 14.9527 17.3139 14.8736C17.2348 14.7944 17.1275 14.75 17.0156 14.75H14.9062V11.375H30.0938Z" fill="white"/>
<path d="M28.4062 15.5938H31.7812V18.125H28.4062V15.5938Z" fill="white"/>
<path d="M14.4844 18.9688H15.3281V19.8125H14.4844V18.9688Z" fill="white"/>
<path d="M13.2188 15.5938H16.5938V18.125H13.2188V15.5938Z" fill="white"/>
<path d="M29.6719 27.4062H30.5156V28.25H29.6719V27.4062Z" fill="white"/>
<path d="M28.4062 24.0312H31.7812V26.5625H28.4062V24.0312Z" fill="white"/>
<path d="M10.6875 21.9219H11.5312V24.875H12.375V21.9219H17.4375V24.875H18.2812V21.9219H19.125V20.6562H10.6875V21.9219Z" fill="white"/>
<path d="M25.875 20.6562V21.9219H26.7188V24.875H27.5625V21.9219H32.625V24.875H33.4688V21.9219H34.3125V20.6562H25.875Z" fill="white"/>
<path d="M16.1719 18.9688H28.8281V19.8125H16.1719V18.9688Z" fill="white"/>
<path d="M10.6875 30.3594H11.5312V33.3125H12.375V30.3594H17.4375V33.3125H18.2812V30.3594H19.125V29.0938H10.6875V30.3594Z" fill="white"/>
<path d="M25.875 30.3594H26.7188V33.3125H27.5625V30.3594H32.625V33.3125H33.4688V30.3594H34.3125V29.0938H25.875V30.3594Z" fill="white"/>
</svg>
