<svg width="44" height="44" viewBox="0 0 44 44" fill="none" xmlns="http://www.w3.org/2000/svg">
<rect width="44" height="44" rx="10" fill="#0089B4"/>
<path fill-rule="evenodd" clip-rule="evenodd" d="M14.5982 12.4221H25.3765C25.8615 12.4238 26.3114 12.6753 26.5668 13.0876L30.3158 16.8366C30.741 17.0909 31.0009 17.5502 31 18.0456V30.6984C31 31.4749 30.3706 32.1043 29.5941 32.1043H14.5982C13.8217 32.1043 13.1923 31.4749 13.1923 30.6984V13.828C13.1923 13.0515 13.8217 12.4221 14.5982 12.4221ZM26.7837 15.2902V16.6398H28.1333L26.7837 15.2902ZM14.5981 30.6985H29.5941V18.0925H29.566L29.5378 18.0644H25.3765V13.903L25.3483 13.8749V13.8468H14.6169L14.5981 30.6985Z" fill="white"/>
<path fill-rule="evenodd" clip-rule="evenodd" d="M17.409 23.2004H26.7814C27.1697 23.2004 27.4844 23.5152 27.4844 23.9034C27.4844 24.2916 27.1697 24.6063 26.7814 24.6063H17.409C17.0207 24.6063 16.706 24.2916 16.706 23.9034C16.706 23.5152 17.0207 23.2004 17.409 23.2004Z" fill="white"/>
<path fill-rule="evenodd" clip-rule="evenodd" d="M18.8148 26.4807H26.7814C27.1697 26.4807 27.4844 26.7954 27.4844 27.1836C27.4844 27.5719 27.1697 27.8866 26.7814 27.8866H18.8148C18.4266 27.8866 18.1119 27.5719 18.1119 27.1836C18.1119 26.7954 18.4266 26.4807 18.8148 26.4807Z" fill="white"/>
<path fill-rule="evenodd" clip-rule="evenodd" d="M20.6898 21.3261H17.8781C17.1017 21.3261 16.4722 20.6967 16.4722 19.9202V17.1085C16.4722 16.3321 17.1017 15.7026 17.8781 15.7026H20.6898C21.4663 15.7026 22.0957 16.3321 22.0957 17.1085V19.9202C22.0957 20.6967 21.4663 21.3261 20.6898 21.3261ZM20.6899 17.1086H17.8781V19.9204H20.6899V17.1086Z" fill="white"/>
</svg>
