<svg width="42" height="42" viewBox="0 0 42 42" fill="none" xmlns="http://www.w3.org/2000/svg">
<path d="M0.5 3C0.5 1.61929 1.61929 0.5 3 0.5H39C40.3807 0.5 41.5 1.61929 41.5 3V38.8203C41.5 40.201 40.3807 41.3203 39 41.3203H3C1.61929 41.3203 0.5 40.201 0.5 38.8203V3Z" fill="#EAF0FF" stroke="#155b75"/>
<path fill-rule="evenodd" clip-rule="evenodd" d="M24.666 18.9187H22.9993V13.9401H24.666V15.5996H27.9992V17.2592H24.666V18.9187ZM13 17.2592V15.5997H21.3331V17.2592H13ZM13 27.2163V25.5567H17.9999V27.2163H13ZM21.3335 28.8759V27.2163H28V25.5568H21.3335V23.8973H19.6669V28.8759H21.3335ZM16.3333 20.5783V18.9188H17.9999V23.8974H16.3333V22.2378H13V20.5783H16.3333ZM28 22.2379V20.5783H19.6669V22.2379H28Z" fill="#155b75"/>
</svg>
