<svg width="44" height="44" viewBox="0 0 44 44" fill="none" xmlns="http://www.w3.org/2000/svg">
<rect width="44" height="44" rx="10" fill="#1B998B"/>
<g clip-path="url(#clip0)">
<path d="M33.5154 14.4926C33.5138 14.4926 33.5121 14.4926 33.5106 14.4926H31.8678V13.9305C31.8766 13.708 31.7327 13.508 31.5189 13.4459C30.3784 13.147 29.204 12.9971 28.025 13C26.0866 13 23.4456 13.4362 21.4927 15.423C19.5544 13.4168 16.894 13 14.9605 13C13.7814 12.9971 12.607 13.147 11.4666 13.4459C11.2527 13.508 11.1088 13.708 11.1177 13.9305V14.4877H9.48459C9.21698 14.4877 9 14.7047 9 14.9723V30.4501C9 30.7177 9.21698 30.9347 9.48459 30.9347C9.56782 30.9345 9.64959 30.9128 9.72204 30.8717C9.7705 30.8475 14.6164 28.1968 21.3813 29.9025H21.454H21.4976C21.5362 29.9072 21.5752 29.9072 21.6139 29.9025C28.3981 28.1822 33.244 30.8281 33.2731 30.8717C33.423 30.9583 33.6078 30.9583 33.7577 30.8717C33.9067 30.7857 33.999 30.6271 34 30.455V14.9772C34 14.7096 33.7831 14.4926 33.5154 14.4926ZM9.96918 29.6796V15.4618H11.1274V27.6153C11.1243 27.8829 11.3388 28.1023 11.6064 28.1053C11.6326 28.1056 11.6588 28.1038 11.6846 28.0999C12.6871 27.9468 13.6993 27.8658 14.7133 27.8576C16.118 27.8332 17.5169 28.0445 18.8517 28.4827C15.8373 28.1182 12.7796 28.5302 9.96918 29.6796ZM14.7133 26.8932C13.8319 26.8952 12.9515 26.9519 12.0771 27.0628V14.3133C13.0206 14.1031 13.9841 13.9958 14.9508 13.9935C16.7631 13.9935 19.2636 14.4102 20.9984 16.3679L21.013 28.4391C20.005 27.78 18.0376 26.8932 14.7133 26.8932ZM21.9822 16.3679C23.717 14.4296 26.2175 13.9935 28.0299 13.9935C28.9964 13.9963 29.9599 14.1035 30.9035 14.3133V27.0628C30.034 26.9508 29.1585 26.8926 28.2818 26.8884C24.9769 26.8884 23.0047 27.7752 21.9822 28.4342V16.3679ZM33.026 29.6796C30.2095 28.527 27.1449 28.115 24.1241 28.4827C25.4652 28.0429 26.8707 27.8316 28.2818 27.8576C29.3023 27.8633 30.3209 27.9426 31.3299 28.095C31.5945 28.1352 31.8416 27.9532 31.8817 27.6886C31.8857 27.6628 31.8875 27.6366 31.8872 27.6104V15.4618H33.0454L33.026 29.6796Z" fill="white" stroke="white" stroke-width="0.5"/>
</g>
<defs>
<clipPath id="clip0">
<rect width="25" height="25" fill="white" transform="translate(9 9)"/>
</clipPath>
</defs>
</svg>
