<svg width="38" height="23" viewBox="0 0 38 23" fill="none" xmlns="http://www.w3.org/2000/svg">
<path fill-rule="evenodd" clip-rule="evenodd" d="M30.3423 8.58659C29.309 3.682 24.7045 0 19.173 0C14.7813 0 10.9671 2.33146 9.06752 5.74335C4.49343 6.19826 0.9375 9.82339 0.9375 14.2162C0.9375 18.9218 5.0253 22.7459 10.0553 22.7459H29.8105C34.0046 22.7459 37.4086 19.5615 37.4086 15.6378C37.4086 11.8847 34.2934 8.84248 30.3423 8.58659ZM29.8126 19.9035H10.0574C6.69907 19.9035 3.97893 17.3588 3.97893 14.217C3.97893 11.3027 6.30396 8.8717 9.38881 8.57316L11.0148 8.41678L11.7746 7.06624C13.2183 4.46468 16.0448 2.84403 19.1752 2.84403C23.1567 2.84403 26.591 5.48825 27.366 9.14181L27.8219 11.2742L30.1469 11.4306C32.5176 11.5728 34.3715 13.4351 34.3715 15.6386C34.3715 17.9843 32.32 19.9035 29.8126 19.9035ZM16.968 18.4815H21.3749V14.2166H25.25L19.1715 8.53012L13.093 14.2166H16.968V18.4815Z" fill="#0052B4"/>
</svg>
