<svg width="44" height="44" viewBox="0 0 44 44" fill="none" xmlns="http://www.w3.org/2000/svg">
<rect width="44" height="44" rx="10" fill="#F68762"/>
<path fill-rule="evenodd" clip-rule="evenodd" d="M31.1667 14.8333H23.8333L22 13H16.5C15.4917 13 14.6758 13.825 14.6758 14.8333L14.6667 25.8333C14.6667 26.8417 15.4917 27.6667 16.5 27.6667H31.1667C32.175 27.6667 33 26.8417 33 25.8333V16.6667C33 15.6583 32.175 14.8333 31.1667 14.8333ZM11 16.6667H12.8333V29.5H29.3333V31.3333H12.8333C11.825 31.3333 11 30.5083 11 29.5L11.0092 21.25H11V16.6667ZM30.25 24.9167H17.4167L21.5417 19.4167L24.75 23.5508L27.0417 20.7917L30.25 24.9167ZM16.5 25.8333H31.1667V16.6667H23.0725L22.5317 16.1258L21.2392 14.8333H16.5V25.8333Z" fill="white"/>
</svg>
