<svg width="24" height="24" viewBox="0 0 24 24" fill="none" xmlns="http://www.w3.org/2000/svg">
<path fill-rule="evenodd" clip-rule="evenodd" d="M1.42188 6.02632C1.42188 5.4595 1.87938 5 2.45385 5H20.9162C21.4862 5 21.9482 5.45555 21.9482 6.02632C21.9482 6.59313 21.4907 7.05263 20.9162 7.05263H2.45385C1.8839 7.05263 1.42188 6.59709 1.42188 6.02632ZM17.8429 11.5C17.8429 12.0668 17.3866 12.5263 16.8157 12.5263H2.44909C1.88177 12.5263 1.42188 12.0708 1.42188 11.5C1.42188 10.9332 1.87821 10.4737 2.44909 10.4737H16.8157C17.383 10.4737 17.8429 10.9292 17.8429 11.5ZM13.7377 16.9737C13.7377 17.5405 13.2847 18 12.7088 18H2.45073C1.88251 18 1.42188 17.5445 1.42188 16.9737C1.42188 16.4069 1.87481 15.9474 2.45073 15.9474H12.7088C13.277 15.9474 13.7377 16.4029 13.7377 16.9737Z" fill="#0052B4"/>
</svg>
