<svg width="39" height="38" viewBox="0 0 39 38" fill="none" xmlns="http://www.w3.org/2000/svg">
<g clip-path="url(#clip0)">
<path d="M34.1929 13.5315L29.1627 10.1221L25.1753 15.9021C24.358 15.4111 23.4749 15.0173 22.5419 14.7368V4.35132H15.7955V14.7368C14.8625 15.0173 13.9794 15.4111 13.1622 15.9021L9.17472 10.1221L4.14453 13.5315L8.88764 20.4068C8.04287 22.0021 7.56493 23.8181 7.56493 25.7448C7.56493 32.0969 12.7601 37.2464 19.1687 37.2464C25.5772 37.2464 30.7724 32.0969 30.7724 25.7448C30.7724 23.8181 30.2945 22.0021 29.4497 20.4068L34.1929 13.5315Z" fill="#B4F5FF"/>
<path d="M2.60452 14.5764L10.7158 9.07849L8.86016 6.38873L0.748859 11.8867L2.60452 14.5764Z" fill="#8ABCFF"/>
<path d="M24.6077 0.753418H13.7295V4.36051H24.6077V0.753418Z" fill="#8ABCFF"/>
<path d="M25.5466 21.576C26.4318 22.8669 26.9497 24.4245 26.9497 26.0997C26.9497 30.5477 23.2988 34.1665 18.8113 34.1665C14.3237 34.1665 10.6729 30.5477 10.6729 26.0997C10.6729 24.4245 11.1907 22.8669 12.076 21.576H25.5466Z" fill="#FFA25D"/>
<path d="M18.811 34.9085C13.9106 34.9085 9.92383 30.9568 9.92383 26.0995C9.92383 24.3293 10.4538 22.6208 11.4565 21.1587C11.5958 20.9555 11.8277 20.8337 12.0757 20.8337H25.5462C25.7942 20.8337 26.026 20.9555 26.1655 21.1587C27.1682 22.6206 27.6982 24.3292 27.6982 26.0995C27.6982 30.9568 23.7114 34.9085 18.811 34.9085ZM12.4845 22.318C11.7878 23.458 11.4214 24.7574 11.4214 26.0995C11.4214 30.1383 14.7363 33.4241 18.811 33.4241C22.8857 33.4241 26.2007 30.1383 26.2007 26.0995C26.2007 24.7572 25.8342 23.4579 25.1376 22.318H12.4845Z" fill="black"/>
<path d="M14.5928 26.161C15.3096 26.161 15.8906 25.585 15.8906 24.8746C15.8906 24.1641 15.3096 23.5881 14.5928 23.5881C13.876 23.5881 13.2949 24.1641 13.2949 24.8746C13.2949 25.585 13.876 26.161 14.5928 26.161Z" fill="#F8E188"/>
<path d="M14.5925 26.903C13.464 26.903 12.5459 25.9929 12.5459 24.8743C12.5459 23.7558 13.464 22.8457 14.5925 22.8457C15.721 22.8457 16.6391 23.7558 16.6391 24.8743C16.6391 25.993 15.721 26.903 14.5925 26.903ZM14.5925 24.3301C14.2898 24.3301 14.0434 24.5742 14.0434 24.8743C14.0434 25.1745 14.2898 25.4186 14.5925 25.4186C14.8953 25.4186 15.1416 25.1745 15.1416 24.8743C15.1416 24.5743 14.8953 24.3301 14.5925 24.3301Z" fill="black"/>
<path d="M16.9645 31.0379C17.8467 31.0379 18.5619 30.3291 18.5619 29.4546C18.5619 28.5802 17.8467 27.8713 16.9645 27.8713C16.0823 27.8713 15.3672 28.5802 15.3672 29.4546C15.3672 30.3291 16.0823 31.0379 16.9645 31.0379Z" fill="#F8E188"/>
<path d="M16.9643 31.7801C15.6706 31.7801 14.6182 30.7369 14.6182 29.4546C14.6182 28.1724 15.6706 27.1292 16.9643 27.1292C18.2579 27.1292 19.3105 28.1724 19.3105 29.4546C19.3105 30.737 18.2579 31.7801 16.9643 31.7801ZM16.9643 28.6135C16.4964 28.6135 16.1157 28.9908 16.1157 29.4546C16.1157 29.9184 16.4964 30.2958 16.9643 30.2958C17.4323 30.2958 17.8129 29.9184 17.8129 29.4546C17.8129 28.9908 17.4322 28.6135 16.9643 28.6135Z" fill="black"/>
<path d="M26.949 19.7531C26.9003 19.7531 26.8508 19.748 26.803 19.7383C26.755 19.7286 26.7079 19.7146 26.6629 19.696C26.6173 19.6775 26.5738 19.6544 26.5334 19.6277C26.4922 19.601 26.454 19.5699 26.4196 19.5357C26.2803 19.3977 26.2002 19.2063 26.2002 19.011C26.2002 18.9628 26.2054 18.9138 26.2151 18.8655C26.2249 18.8188 26.2391 18.772 26.2578 18.7267C26.2765 18.6822 26.2998 18.6392 26.3267 18.5991C26.3536 18.5583 26.3851 18.5204 26.4195 18.4863C26.454 18.4521 26.4921 18.421 26.5333 18.3935C26.5738 18.3668 26.6172 18.3438 26.6629 18.3252C26.7078 18.3067 26.7549 18.2925 26.8029 18.2829C26.8995 18.2636 26.9991 18.2636 27.0956 18.2829C27.1428 18.2926 27.19 18.3067 27.2357 18.3252C27.2806 18.3438 27.324 18.3667 27.3645 18.3935C27.4056 18.421 27.4438 18.4521 27.4783 18.4863C27.5127 18.5204 27.5442 18.5583 27.5719 18.5991C27.5988 18.6392 27.622 18.6822 27.6408 18.7267C27.6595 18.772 27.6737 18.8188 27.6834 18.8655C27.6932 18.9138 27.6977 18.9628 27.6977 19.011C27.6977 19.2063 27.6182 19.3977 27.4782 19.5357C27.4438 19.5699 27.4056 19.601 27.3644 19.6277C27.324 19.6544 27.2805 19.6775 27.2356 19.696C27.1899 19.7146 27.1427 19.7286 27.0956 19.7383C27.0471 19.748 26.9976 19.7531 26.949 19.7531Z" fill="black"/>
<path d="M24.0083 19.753H11.3562C10.9426 19.753 10.6074 19.4208 10.6074 19.0109C10.6074 18.601 10.9426 18.2687 11.3562 18.2687H24.0083C24.4218 18.2687 24.7571 18.601 24.7571 19.0109C24.7571 19.4208 24.4218 19.753 24.0083 19.753Z" fill="black"/>
<path d="M37.5898 11.8857L29.4785 6.38782L27.6229 9.07758L35.7342 14.5755L37.5898 11.8857Z" fill="#8ABCFF"/>
<path d="M38.0112 11.2736L29.9004 5.77632C29.5591 5.54499 29.0933 5.63167 28.8597 5.97003L27.0043 8.65949C26.8922 8.82203 26.8498 9.02197 26.8865 9.21538C26.9231 9.4088 27.0358 9.57995 27.1998 9.69105L28.122 10.3161L24.9457 14.9203C24.4123 14.6401 23.8588 14.3992 23.2906 14.1997V5.10264H24.6076C25.0211 5.10264 25.3564 4.77029 25.3564 4.36046V0.753293C25.3564 0.343459 25.0211 0.0111084 24.6076 0.0111084H13.7297C13.3162 0.0111084 12.9809 0.343459 12.9809 0.753293V4.36046C12.9809 4.77029 13.3162 5.10264 13.7297 5.10264H15.0466V14.1998C14.4785 14.3992 13.925 14.6402 13.3916 14.9203L10.2153 10.3161L11.1375 9.69112C11.3014 9.58002 11.4141 9.40887 11.4508 9.21546C11.4875 9.02205 11.445 8.82203 11.333 8.65956L9.47764 5.97011C9.24425 5.63175 8.77829 5.54513 8.43693 5.7764L0.326213 11.2736C-0.0151527 11.505 -0.102684 11.9669 0.130783 12.3052L1.98617 14.9947C2.09826 15.1572 2.27093 15.2689 2.46606 15.3052C2.51196 15.3138 2.55816 15.318 2.60428 15.318C2.75404 15.318 2.90154 15.2734 3.02696 15.1885L3.94915 14.5634L8.02083 20.4656C7.23163 22.1031 6.81621 23.9187 6.81621 25.7452C6.81621 32.4965 12.3575 37.989 19.1687 37.989C25.9799 37.989 31.5212 32.4965 31.5212 25.7452C31.5212 23.9187 31.1058 22.1031 30.3166 20.4656L34.3884 14.5634L35.3106 15.1885C35.436 15.2735 35.5835 15.318 35.7332 15.318C35.7793 15.318 35.8255 15.3138 35.8715 15.3052C36.0667 15.2689 36.2393 15.1572 36.3513 14.9947L38.2067 12.3052C38.44 11.9668 38.3524 11.505 38.0112 11.2736ZM14.4785 1.49548H23.8587V3.61827H14.4785V1.49548ZM2.79971 13.5442L1.78954 12.08L8.6641 7.42063L9.6742 8.88482L2.79971 13.5442ZM28.8316 19.9883C28.6751 20.2151 28.6579 20.5089 28.7866 20.7521C29.5959 22.2801 30.0236 24.0068 30.0236 25.7451C30.0236 31.6779 25.1541 36.5045 19.1686 36.5045C13.1832 36.5045 8.31368 31.6779 8.31368 25.7451C8.31368 24.0067 8.74138 22.2801 9.55065 20.7521C9.67944 20.5089 9.66214 20.2151 9.50572 19.9883L5.18523 13.7256L8.97919 11.1541L12.5439 16.3214C12.7684 16.6467 13.2101 16.7413 13.5502 16.5372C14.3226 16.073 15.1511 15.7064 16.0128 15.4474C16.3284 15.3525 16.5442 15.064 16.5442 14.7372V5.10264H21.7929V14.737C21.7929 15.0639 22.0087 15.3524 22.3244 15.4472C23.1862 15.7063 24.0146 16.073 24.7869 16.537C25.1272 16.7416 25.5688 16.6467 25.7932 16.3214L29.358 11.154L33.152 13.7256L28.8316 19.9883ZM35.5377 13.5442L28.6631 8.88474L29.6733 7.42056L36.5477 12.0799L35.5377 13.5442Z" fill="black"/>
</g>
<defs>
<clipPath id="clip0">
<rect width="38.3373" height="38" fill="white"/>
</clipPath>
</defs>
</svg>
