<svg width="30" height="30" viewBox="0 0 30 30" fill="none" xmlns="http://www.w3.org/2000/svg">
<g clip-path="url(#clip0)">
<path d="M15 30C23.2843 30 30 23.2843 30 15C30 6.71573 23.2843 0 15 0C6.71573 0 0 6.71573 0 15C0 23.2843 6.71573 30 15 30Z" fill="#F0F0F0"/>
<path d="M29.9999 15.0006C29.9999 8.55113 25.9293 3.05299 20.2173 0.933594V29.0677C25.9293 26.9482 29.9999 21.4501 29.9999 15.0006Z" fill="#D80027"/>
<path d="M0 15.0006C0 21.4501 4.07068 26.9482 9.78264 29.0676V0.933594C4.07068 3.05299 0 8.55113 0 15.0006Z" fill="#0052B4"/>
</g>
<defs>
<clipPath id="clip0">
<rect width="30" height="30" fill="white"/>
</clipPath>
</defs>
</svg>
