<svg width="27" height="27" viewBox="0 0 27 27" fill="none" xmlns="http://www.w3.org/2000/svg">
<rect width="27" height="27" rx="6" fill="#E5EBF5"/>
<path d="M20.8906 5.40625H20.0469V4H18.6406V5.40625H9.35938V4H7.95312V5.40625H7.10938C5.94627 5.40625 5 6.35252 5 7.51562V19.8906C5 21.0537 5.94627 22 7.10938 22H20.8906C22.0537 22 23 21.0537 23 19.8906V7.51562C23 6.35252 22.0537 5.40625 20.8906 5.40625ZM21.5938 19.8906C21.5938 20.2783 21.2783 20.5938 20.8906 20.5938H7.10938C6.72167 20.5938 6.40625 20.2783 6.40625 19.8906V10.6094H21.5938V19.8906ZM21.5938 9.20312H6.40625V7.51562C6.40625 7.12792 6.72167 6.8125 7.10938 6.8125H7.95312V8.21875H9.35938V6.8125H18.6406V8.21875H20.0469V6.8125H20.8906C21.2783 6.8125 21.5938 7.12792 21.5938 7.51562V9.20312Z" fill="#014D94"/>
<path d="M9.07812 12.0859H7.67188V13.4922H9.07812V12.0859Z" fill="#014D94"/>
<path d="M11.8906 12.0859H10.4844V13.4922H11.8906V12.0859Z" fill="#014D94"/>
<path d="M14.7031 12.0859H13.2969V13.4922H14.7031V12.0859Z" fill="#014D94"/>
<path d="M17.5156 12.0859H16.1094V13.4922H17.5156V12.0859Z" fill="#014D94"/>
<path d="M20.3281 12.0859H18.9219V13.4922H20.3281V12.0859Z" fill="#014D94"/>
<path d="M9.07812 14.8984H7.67188V16.3047H9.07812V14.8984Z" fill="#014D94"/>
<path d="M11.8906 14.8984H10.4844V16.3047H11.8906V14.8984Z" fill="#014D94"/>
<path d="M14.7031 14.8984H13.2969V16.3047H14.7031V14.8984Z" fill="#014D94"/>
<path d="M17.5156 14.8984H16.1094V16.3047H17.5156V14.8984Z" fill="#014D94"/>
<path d="M9.07812 17.7109H7.67188V19.1172H9.07812V17.7109Z" fill="#014D94"/>
<path d="M11.8906 17.7109H10.4844V19.1172H11.8906V17.7109Z" fill="#014D94"/>
<path d="M14.7031 17.7109H13.2969V19.1172H14.7031V17.7109Z" fill="#014D94"/>
<path d="M17.5156 17.7109H16.1094V19.1172H17.5156V17.7109Z" fill="#014D94"/>
<path d="M20.3281 14.8984H18.9219V16.3047H20.3281V14.8984Z" fill="#014D94"/>
</svg>
