<svg width="27" height="27" viewBox="0 0 27 27" fill="none" xmlns="http://www.w3.org/2000/svg">
<rect width="27" height="27" rx="6" fill="#E5EBF5"/>
<path d="M20.364 7.63602C18.6641 5.93618 16.404 5 14 5C11.596 5 9.33593 5.93618 7.63602 7.63602C5.93618 9.33593 5 11.596 5 14C5 16.404 5.93618 18.6641 7.63602 20.364C9.33593 22.0638 11.596 23 14 23C16.404 23 18.6641 22.0638 20.364 20.364C22.0638 18.6641 23 16.404 23 14C23 11.596 22.0638 9.33593 20.364 7.63602ZM14 21.5938C9.81279 21.5938 6.40625 18.1872 6.40625 14C6.40625 9.81279 9.81279 6.40625 14 6.40625C18.1872 6.40625 21.5938 9.81279 21.5938 14C21.5938 18.1872 18.1872 21.5938 14 21.5938Z" fill="#014D94"/>
<path d="M14.7031 13.2969V7.67188H13.2969V14.7031H18.6406V13.2969H14.7031Z" fill="#014D94"/>
</svg>
