<svg width="27" height="27" viewBox="0 0 27 27" fill="none" xmlns="http://www.w3.org/2000/svg">
<rect width="27" height="27" rx="6" fill="#E5EBF5"/>
<path d="M20.364 7.63602C18.6641 5.93618 16.404 5 14 5C11.596 5 9.33593 5.93618 7.63602 7.63602C5.93618 9.33593 5 11.596 5 14C5 16.404 5.93618 18.6641 7.63602 20.364C9.33593 22.0638 11.596 23 14 23C16.404 23 18.6641 22.0638 20.364 20.364C22.0638 18.6641 23 16.404 23 14C23 11.596 22.0638 9.33593 20.364 7.63602ZM14 21.5938C9.81279 21.5938 6.40625 18.1872 6.40625 14C6.40625 9.81279 9.81279 6.40625 14 6.40625C18.1872 6.40625 21.5938 9.81279 21.5938 14C21.5938 18.1872 18.1872 21.5938 14 21.5938Z" fill="#014D94"/>
<path d="M13.9156 18.0806C13.5738 18.0806 13.2966 18.3576 13.2966 18.6995V19.3322C13.2966 19.6739 13.5738 19.9509 13.9156 19.9509C14.2572 19.9509 14.5344 19.6739 14.5344 19.3322V18.6995C14.5344 18.3576 14.2571 18.0806 13.9156 18.0806Z" fill="#014D94"/>
<path d="M9.3773 13.5423H8.74479C8.40305 13.5423 8.12598 13.8195 8.12598 14.1614C8.12598 14.5031 8.40301 14.7801 8.74479 14.7801H9.3773C9.71926 14.7801 9.99622 14.5031 9.99622 14.1613C9.99619 13.8195 9.71926 13.5423 9.3773 13.5423Z" fill="#014D94"/>
<path d="M13.9156 8.37186C13.8969 8.37186 13.8788 8.37316 13.8604 8.37327V14.106H19.7035C19.6736 10.9391 17.0892 8.37186 13.9156 8.37186Z" fill="#014D94"/>
</svg>
