<svg width="23" height="26" viewBox="0 0 23 26" fill="none" xmlns="http://www.w3.org/2000/svg">
<path d="M20.3518 0.9H2.50176C1.58613 0.9 0.826758 1.5864 0.826758 2.44761V24.2583C0.826758 25.1195 1.58618 25.8059 2.50176 25.8059H20.3518C21.2673 25.8059 22.0268 25.1195 22.0268 24.2583V2.44761C22.0268 1.5864 21.2673 0.9 20.3518 0.9ZM20.7768 24.2583C20.7768 24.4613 20.5941 24.6408 20.3518 24.6408H2.50176C2.25939 24.6408 2.07676 24.4613 2.07676 24.2583V2.44761C2.07676 2.24454 2.25939 2.06507 2.50176 2.06507H20.3518C20.5941 2.06507 20.7768 2.24454 20.7768 2.44761V24.2583Z" fill="white" stroke="white" stroke-width="0.2"/>
<path d="M13.7191 10.6561C14.0296 10.6561 14.2814 10.4043 14.2814 10.0938V9.2692H15.0059V10.0938C15.0059 10.4043 15.2576 10.6561 15.5682 10.6561C15.8787 10.6561 16.1305 10.4043 16.1305 10.0938V7.32016C16.1305 6.50024 15.4636 5.83335 14.6436 5.83335C13.8237 5.83335 13.1568 6.50024 13.1568 7.32016V10.0938C13.1568 10.4043 13.4086 10.6561 13.7191 10.6561ZM14.2814 7.32016C14.2814 7.12049 14.444 6.95789 14.6436 6.95789C14.8433 6.95789 15.0059 7.12049 15.0059 7.32016V8.14465H14.2814V7.32016Z" fill="white" stroke="white" stroke-width="0.2"/>
<path d="M14.6438 12.5053C16.9931 12.5053 18.9043 10.5942 18.9043 8.2449C18.9043 5.89561 16.9931 3.98447 14.6438 3.98447C12.2945 3.98447 10.3834 5.89561 10.3834 8.2449C10.3834 10.5942 12.2945 12.5053 14.6438 12.5053ZM14.6438 5.10901C16.3729 5.10901 17.7797 6.51586 17.7797 8.2449C17.7797 9.97395 16.3729 11.3808 14.6438 11.3808C12.9148 11.3808 11.5079 9.97395 11.5079 8.2449C11.5079 6.51586 12.9148 5.10901 14.6438 5.10901Z" fill="white" stroke="white" stroke-width="0.2"/>
<path d="M18.3411 22.1052H4.47301C4.16247 22.1052 3.91074 22.3569 3.91074 22.6675C3.91074 22.978 4.16247 23.2297 4.47301 23.2297H18.3411C18.6516 23.2297 18.9033 22.978 18.9033 22.6675C18.9033 22.3569 18.6516 22.1052 18.3411 22.1052Z" fill="white" stroke="white" stroke-width="0.2"/>
<path d="M18.3411 18.4074H4.47301C4.16247 18.4074 3.91074 18.6592 3.91074 18.9697C3.91074 19.2803 4.16247 19.532 4.47301 19.532H18.3411C18.6516 19.532 18.9033 19.2803 18.9033 18.9697C18.9033 18.6592 18.6516 18.4074 18.3411 18.4074Z" fill="white" stroke="white" stroke-width="0.2"/>
<path d="M4.47301 15.8336H9.32666C9.63721 15.8336 9.88894 15.5819 9.88894 15.2714C9.88894 14.9608 9.63721 14.7091 9.32666 14.7091H4.47301C4.16247 14.7091 3.91074 14.9608 3.91074 15.2714C3.91074 15.5819 4.16247 15.8336 4.47301 15.8336Z" fill="white" stroke="white" stroke-width="0.2"/>
<path d="M18.3416 14.7091H13.4877C13.1771 14.7091 12.9254 14.9608 12.9254 15.2714C12.9254 15.5819 13.1771 15.8336 13.4877 15.8336H18.3416C18.6522 15.8336 18.9039 15.5819 18.9039 15.2714C18.9039 14.9608 18.6522 14.7091 18.3416 14.7091Z" fill="white" stroke="white" stroke-width="0.2"/>
<path d="M11.4074 14.7091C11.0968 14.7091 10.8453 14.9609 10.8453 15.2714C10.8453 15.5819 11.0972 15.8336 11.4077 15.8336C11.7183 15.8336 11.97 15.5819 11.97 15.2714C11.97 14.9608 11.7183 14.7091 11.4077 14.7091H11.4074Z" fill="white" stroke="white" stroke-width="0.2"/>
</svg>
