<svg width="56" height="56" viewBox="0 0 56 56" fill="none" xmlns="http://www.w3.org/2000/svg">
<g filter="url(#filter0_b)">
<rect x="0.119629" width="55.04" height="55.04" rx="8" fill="white" fill-opacity="0.6"/>
</g>
<path d="M31.4348 27.6789C31.4334 27.3377 31.434 23.9809 31.4347 19.9454L31.4348 19.1977C31.435 18.4254 31.4352 17.6372 31.4355 16.8501C31.4359 15.6812 31.4363 14.5147 31.4363 13.4066C31.4703 12.7097 32.0256 12.1967 32.6488 12.1967C33.2895 12.1967 33.8617 12.7431 33.8624 13.4737C33.8624 13.4738 33.8624 13.4738 33.8624 13.4739L33.8758 31.8906L33.8759 31.8913C33.8769 32.6166 34.3577 33.2132 34.9997 33.4296C35.6342 33.6436 36.3592 33.4681 36.8142 32.9468L36.8144 32.9466L39.1496 30.2696L39.1497 30.2697L39.1588 30.2589C39.593 29.7468 40.2467 29.4135 40.9714 29.3604C41.6112 29.3213 42.2324 29.5124 42.7138 29.8781L35.0294 43.7756L35.0293 43.7757L30.4348 27.683M31.4348 27.6789L30.4348 27.683M31.4348 27.6789C31.4348 27.6788 31.4348 27.6786 31.4348 27.6785L30.4348 27.683M31.4348 27.6789C31.4367 28.133 31.2448 28.5547 30.926 28.8549L30.9239 28.857C30.6077 29.153 30.1915 29.3099 29.7687 29.3092M30.4348 27.683C30.4355 27.8495 30.3654 28.0093 30.2405 28.1269C30.1152 28.2442 29.9455 28.3099 29.7687 28.3092M29.7687 29.3092C29.7706 29.3092 29.7725 29.3092 29.7744 29.3092L29.7687 28.59V28.3092M29.7687 29.3092C29.7681 29.3092 29.7676 29.3092 29.767 29.3092L28.0981 19.1995L29.0981 19.1996H28.0981L28.0979 19.9708C28.0972 23.9937 28.0966 27.3435 28.0981 27.6916L28.0981 27.6921C28.1001 28.1433 28.2932 28.5629 28.6138 28.8611L28.6149 28.8621C28.9309 29.1553 29.3458 29.3112 29.7687 29.3092ZM29.7687 28.3092L29.7679 28.4965M29.7687 28.3092H29.7664M29.7679 28.4965L29.0981 27.6876C29.0988 27.8533 29.1697 28.0124 29.295 28.129C29.4207 28.2456 29.59 28.3106 29.7664 28.3092M29.7679 28.4965L29.7664 28.3092M29.7679 28.4965L29.7664 28.8713M29.7664 28.3092V28.8713M29.7664 28.8713L29.7647 29.3092C29.7653 29.3092 29.7658 29.3092 29.7664 29.3092V28.8713ZM28.0992 13.5501C28.1 13.5675 28.1011 13.5828 28.102 13.5954L29.0992 13.5197L28.0992 13.5195C28.0992 13.5297 28.0992 13.5399 28.0992 13.5501ZM28.0992 13.3555V13.3615V13.3704H29.0992L28.0997 13.3392C28.0995 13.3446 28.0993 13.35 28.0992 13.3555Z" stroke="white" stroke-width="2"/>
<defs>
<filter id="filter0_b" x="-39.8804" y="-40" width="135.04" height="135.04" filterUnits="userSpaceOnUse" color-interpolation-filters="sRGB">
<feFlood flood-opacity="0" result="BackgroundImageFix"/>
<feGaussianBlur in="BackgroundImage" stdDeviation="20"/>
<feComposite in2="SourceAlpha" operator="in" result="effect1_backgroundBlur"/>
<feBlend mode="normal" in="SourceGraphic" in2="effect1_backgroundBlur" result="shape"/>
</filter>
</defs>
</svg>
