<svg width="113" height="132" viewBox="0 0 113 132" fill="none" xmlns="http://www.w3.org/2000/svg">
<path d="M95.4845 120.426L19.742 129.726C18.3801 129.893 17.0075 129.513 15.9262 128.668C14.845 127.823 14.1436 126.583 13.9764 125.221L2.31525 30.2493C2.23164 29.5684 2.42197 28.8821 2.84435 28.3414C3.26674 27.8008 3.88659 27.4501 4.56754 27.3665L4.5945 27.3632L10.8776 26.6582L15.9587 26.0864L19.6069 25.6789L86.8778 18.1084L98.9083 105.858L99.9891 114.66C100.156 116.022 99.7757 117.395 98.9309 118.476C98.0862 119.557 96.8464 120.259 95.4845 120.426Z" fill="white" stroke="#155b75" stroke-width="2.5" stroke-miterlimit="10" stroke-linecap="round"/>
<path d="M83.6012 23.6302L94.4913 103.153L95.4709 111.132C95.5498 111.739 95.5081 112.356 95.3483 112.947C95.1885 113.538 94.9137 114.092 94.5397 114.576C94.1656 115.061 93.6996 115.467 93.1684 115.772C92.6372 116.076 92.0512 116.273 91.4438 116.35L23.6145 124.679C23.0064 124.75 22.3902 124.701 21.8011 124.534C21.2121 124.368 20.6617 124.086 20.1815 123.706C19.7013 123.327 19.3007 122.856 19.0026 122.321C18.7046 121.786 18.515 121.198 18.4446 120.59L7.90326 34.7374C7.81965 34.0564 8.00997 33.3702 8.43235 32.8295C8.85474 32.2889 9.47459 31.9382 10.1555 31.8546L18.5463 30.8243" fill="#D2E0EC"/>
<path d="M107.572 107.03H31.261C29.2997 107.03 27.7041 105.434 27.7041 103.473V5.17365C27.7041 3.21238 29.2997 1.61676 31.261 1.61676H90.1847C91.1344 1.61676 92.0273 1.98646 92.699 2.65778L110.087 20.0347C110.759 20.7066 111.129 21.6001 111.129 22.5506V103.473C111.129 105.434 109.534 107.03 107.572 107.03Z" fill="white"/>
<path d="M31.2606 3.23353C30.1908 3.23353 29.3204 4.10387 29.3204 5.17365V103.473C29.3204 104.543 30.1908 105.413 31.2606 105.413H107.572C108.642 105.413 109.512 104.543 109.512 103.473V22.5505C109.512 22.0321 109.31 21.5447 108.943 21.1783L91.5557 3.80136C91.1893 3.43519 90.7023 3.23353 90.1843 3.23353H31.2606ZM31.2606 0H90.1843C91.5559 0 92.8713 0.544632 93.8415 1.5142L111.229 18.8911C112.2 19.8614 112.746 21.1779 112.746 22.5505V103.473C112.746 106.33 110.429 108.647 107.572 108.647H31.2606C28.4032 108.647 26.0869 106.33 26.0869 103.473V5.17365C26.0869 2.31633 28.4032 0 31.2606 0Z" fill="#155b75"/>
<g opacity="0.5">
<rect x="39.2598" y="34.2911" width="34.3862" height="2.83019" transform="rotate(1.31758 39.2598 34.2911)" fill="#BED0E4"/>
<rect x="39.0518" y="43.3453" width="29.1762" height="2.83019" transform="rotate(1.31758 39.0518 43.3453)" fill="#BED0E4"/>
<rect x="71.8662" y="44.1001" width="29.1762" height="2.83019" transform="rotate(1.31758 71.8662 44.1001)" fill="#BED0E4"/>
<rect x="38.8438" y="52.3995" width="29.1762" height="2.83019" transform="rotate(1.31758 38.8438 52.3995)" fill="#BED0E4"/>
<rect x="38.6348" y="61.4537" width="29.1762" height="2.83019" transform="rotate(1.31758 38.6348 61.4537)" fill="#BED0E4"/>
<rect x="71.4492" y="62.2084" width="29.1762" height="2.83019" transform="rotate(1.31758 71.4492 62.2084)" fill="#BED0E4"/>
<rect x="71.6582" y="53.1544" width="29.1762" height="2.83019" transform="rotate(1.31758 71.6582 53.1544)" fill="#BED0E4"/>
</g>
<path d="M90.7578 3.10815V18.1117C90.7578 19.1409 91.1666 20.1278 91.8943 20.8555C92.622 21.5832 93.6089 21.992 94.6381 21.992H104.9" stroke="#BED0E4" stroke-width="2.5" stroke-miterlimit="10" stroke-linecap="round" stroke-linejoin="round"/>
</svg>
