<svg width="211" height="213" viewBox="0 0 211 213" fill="none" xmlns="http://www.w3.org/2000/svg">
<path fill-rule="evenodd" clip-rule="evenodd" d="M124.267 0.00534604C146.17 0.431826 159.098 24.418 173.857 40.5844C185.618 53.4664 195.826 67.2023 200.856 83.8952C205.795 100.284 206.496 117.454 202.001 133.97C197.325 151.147 188.321 166.674 175.082 178.592C160.665 191.571 143.175 199.569 124.267 203.949C100.476 209.461 73.7397 219.549 52.8509 206.91C31.8004 194.174 26.1796 166.176 21.8486 141.98C17.9725 120.325 19.9943 97.7934 29.7929 78.0917C38.7214 60.1397 57.7897 51.4057 73.2522 38.6254C90.1033 24.6974 102.397 -0.420501 124.267 0.00534604Z" fill="#FBEDDF"/>
<path d="M175.064 136.032V139.903C175.064 140.968 174.193 141.839 173.129 141.839H171.193H163.451H155.709H147.968H140.226V134.097H167.322H173.129C174.193 134.097 175.064 134.968 175.064 136.032Z" fill="#CCD1D9"/>
<path d="M93.7743 134.097V141.839H86.0323H78.2904H70.5485H62.8065H60.871C59.8065 141.839 58.9355 140.968 58.9355 139.903V136.032C58.9355 134.968 59.8065 134.097 60.871 134.097H66.6775H93.7743Z" fill="#CCD1D9"/>
<path d="M62.8066 141.839H93.7744V165.065H62.8066V141.839Z" fill="#E6E9ED"/>
<path d="M66.6777 107H93.7745V134.097H66.6777V107Z" fill="#E6E9ED"/>
<path d="M140.226 107H167.322V134.097H140.226V107Z" fill="#E6E9ED"/>
<path d="M140.226 141.839H171.193V165.065H140.226V141.839Z" fill="#E6E9ED"/>
<path d="M167.323 114.742V126.355H161.517C160.452 126.355 159.581 125.484 159.581 124.42V116.678C159.581 115.613 160.452 114.742 161.517 114.742H167.323Z" fill="#69D6F4"/>
<path d="M151.838 116.678V124.42C151.838 125.484 150.968 126.355 149.903 126.355H140.226V114.742H149.903C150.968 114.742 151.838 115.613 151.838 116.678Z" fill="#69D6F4"/>
<path d="M74.4197 116.678V124.42C74.4197 125.484 73.5487 126.355 72.4842 126.355H66.6777V114.742H72.4842C73.5487 114.742 74.4197 115.613 74.4197 116.678Z" fill="#69D6F4"/>
<path d="M93.774 114.742V126.355H84.0966C83.0321 126.355 82.1611 125.484 82.1611 124.42V116.678C82.1611 115.613 83.0321 114.742 84.0966 114.742H93.774Z" fill="#69D6F4"/>
<path d="M175.064 100.051V105.064C175.064 106.129 174.193 107 173.129 107H167.322H140.226V99.2578H151.838H163.451H174.871H174.89C175.006 99.5094 175.064 99.7804 175.064 100.051Z" fill="#FFC729"/>
<path d="M93.7743 99.2578V107H66.6775H60.871C59.8065 107 58.9355 106.129 58.9355 105.064V100.051C58.9355 99.7804 58.9936 99.5094 59.1097 99.2578H59.1291H70.5485H82.1614H93.7743Z" fill="#FFC729"/>
<path d="M174.503 98.6971L164.013 88.2068C163.664 87.8584 163.161 87.6455 162.658 87.6455H140.226V99.2584H174.871C174.793 99.0455 174.658 98.852 174.503 98.6971Z" fill="#FCD770"/>
<path d="M71.3418 87.6455C70.8386 87.6455 70.3354 87.8584 69.987 88.2068L59.4966 98.6971C59.3418 98.852 59.2063 99.0455 59.1289 99.2584H93.7741V87.6455H71.3418Z" fill="#FCD770"/>
<path d="M140.091 76.0322H93.9099C93.8131 76.2451 93.7744 76.4774 93.7744 76.7096V165.064H140.226V76.7096C140.226 76.4774 140.187 76.2451 140.091 76.0322Z" fill="#ECC19C"/>
<path d="M130.549 122.484H103.452C102.384 122.484 101.517 121.617 101.517 120.548V108.935C101.517 107.867 102.384 107 103.452 107H130.549C131.617 107 132.484 107.867 132.484 108.935V120.548C132.484 121.617 131.617 122.484 130.549 122.484Z" fill="#69D6F4"/>
<path d="M140.09 76.0323H130.413C127.742 71.4065 122.729 68.2904 117 68.2904C111.271 68.2904 106.258 71.4065 103.587 76.0323H93.9099C93.9679 75.8388 94.0647 75.6646 94.1808 75.5097L113.865 50.4646C114.62 49.4968 115.781 48.9355 117 48.9355C118.22 48.9355 119.381 49.4968 120.136 50.4646L139.82 75.5097C139.936 75.6646 140.032 75.8388 140.09 76.0323Z" fill="#D3A06C"/>
<path d="M132.484 136.032V139.903C132.484 140.968 131.613 141.839 130.549 141.839H128.613H117H105.388H103.452C102.388 141.839 101.517 140.968 101.517 139.903V136.032C101.517 134.968 102.388 134.097 103.452 134.097H130.549C131.613 134.097 132.484 134.968 132.484 136.032Z" fill="#AAB2BD"/>
<path d="M132.484 83.7739C132.484 92.3287 125.555 99.2578 117 99.2578C108.446 99.2578 101.517 92.3287 101.517 83.7739C101.517 80.9481 102.271 78.2965 103.588 76.032C106.259 71.4062 111.271 68.29 117 68.29C122.73 68.29 127.742 71.4062 130.413 76.032C131.73 78.2965 132.484 80.9481 132.484 83.7739Z" fill="#69D6F4"/>
<path d="M105.387 141.839H128.613V165.065H105.387V141.839Z" fill="#E6E9ED"/>
<path d="M119.729 81.0453C120.445 81.742 120.871 82.7098 120.871 83.7743C120.871 85.9033 119.129 87.6453 117 87.6453C114.871 87.6453 113.129 85.9033 113.129 83.7743C113.129 82.7098 113.555 81.742 114.271 81.0453C114.968 80.3291 115.935 79.9033 117 79.9033C118.064 79.9033 119.032 80.3291 119.729 81.0453Z" fill="#FF826E"/>
<path d="M110.626 74.6641L107.89 77.4008L111.776 81.2873C111.412 82.0441 111.194 82.8802 111.194 83.7744C111.194 86.9757 113.799 89.5808 117 89.5808C120.201 89.5808 122.806 86.9757 122.806 83.7744C122.806 82.8802 122.588 82.0441 122.224 81.2873L124.175 79.3363L121.438 76.5995L119.487 78.5505C118.73 78.1866 117.894 77.9679 117 77.9679C116.106 77.9679 115.27 78.1866 114.513 78.5505L110.626 74.6641ZM117 81.8389C118.066 81.8389 118.935 82.706 118.935 83.7744C118.935 84.8428 118.066 85.7099 117 85.7099C115.934 85.7099 115.064 84.8428 115.064 83.7744C115.064 82.706 115.934 81.8389 117 81.8389Z" fill="black"/>
<path d="M130.549 105.064H103.452C101.317 105.064 99.5811 106.801 99.5811 108.935V120.548C99.5811 122.683 101.317 124.419 103.452 124.419H130.549C132.684 124.419 134.42 122.683 134.42 120.548V108.935C134.42 106.801 132.684 105.064 130.549 105.064ZM130.549 112.806H126.678V108.935H130.549V112.806ZM115.065 116.677V120.548H111.194V116.677H115.065ZM111.194 112.806V108.935H115.065V112.806H111.194ZM118.936 116.677H122.807V120.548H118.936V116.677ZM118.936 112.806V108.935H122.807V112.806H118.936ZM107.323 108.935V112.806H103.452V108.935H107.323ZM103.452 116.677H107.323V120.548H103.452V116.677ZM126.678 120.548V116.677H130.551V120.548H126.678Z" fill="black"/>
<path d="M173.129 108.935C175.264 108.935 177 107.199 177 105.065V100.059C177 99.0413 176.588 98.0426 175.866 97.3226L165.387 86.8439C164.655 86.1123 163.684 85.7097 162.65 85.7097H142.161V76.7019C142.161 75.8368 141.867 74.9871 141.333 74.3116L121.653 49.2606C120.523 47.8245 118.827 47 117 47C115.173 47 113.477 47.8245 112.347 49.2606L92.669 74.3077C92.1329 74.9871 91.8387 75.8348 91.8387 76.7019V85.7097H71.3497C70.3161 85.7097 69.3445 86.1123 68.6129 86.8439L58.1342 97.3226C57.4123 98.0426 57 99.0413 57 100.059V105.065C57 107.199 58.7361 108.935 60.871 108.935H64.7419V132.161H60.871C58.7361 132.161 57 133.897 57 136.032V139.903C57 142.038 58.7361 143.774 60.871 143.774V167H173.129V143.774C175.264 143.774 177 142.038 177 139.903V136.032C177 133.897 175.264 132.161 173.129 132.161H169.258V108.935H173.129ZM142.161 105.065V101.194H173.129V105.065H142.161ZM152.874 97.3226L147.712 89.5806H152.866L159.317 97.3226H152.874ZM170.392 97.3226H164.359L157.908 89.5806H162.652L170.392 97.3226ZM143.061 89.5806L148.223 97.3226H142.161V89.5806H143.061ZM142.161 116.677H149.903V124.419H142.161V116.677ZM161.516 143.774V163.129H157.645V143.774H161.516ZM153.774 163.129H149.903V143.774H153.774V163.129ZM146.032 163.129H142.161V143.774H146.032V163.129ZM103.452 139.903V136.032H130.548L130.55 139.903H103.452ZM115.065 143.774V163.129H107.323V143.774H115.065ZM118.935 143.774H126.677V163.129H118.935V143.774ZM130.548 143.774C132.683 143.774 134.419 142.038 134.419 139.903V136.032C134.419 133.897 132.683 132.161 130.548 132.161H103.452C101.317 132.161 99.5806 133.897 99.5806 136.032V139.903C99.5806 142.038 101.317 143.774 103.452 143.774V163.129H95.7097V77.9677H100.597C99.9503 79.7871 99.5806 81.7361 99.5806 83.7742C99.5806 93.38 107.396 101.194 117 101.194C126.604 101.194 134.419 93.38 134.419 83.7742C134.419 81.7361 134.05 79.7871 133.403 77.9677H138.29V163.129H130.548V143.774ZM76.3548 143.774V163.129H72.4839V143.774H76.3548ZM80.2258 143.774H84.0968V163.129H80.2258V143.774ZM87.9677 143.774H91.8387V163.129H87.9677V143.774ZM91.8387 124.419H84.0968V116.677H91.8387V124.419ZM118.935 74.0968V70.3806C124.856 71.2342 129.54 75.9181 130.394 81.8387H126.677V85.7097H130.394C129.54 91.6303 124.856 96.3142 118.935 97.1677V93.4516H115.065V97.1677C109.144 96.3142 104.46 91.6303 103.606 85.7097H107.323V81.8387H103.606C104.46 75.9181 109.144 71.2342 115.065 70.3806V74.0968H118.935ZM115.39 51.6529C116.172 50.6581 117.826 50.6581 118.608 51.6529L136.245 74.0968H131.475C128.346 69.4323 123.027 66.3548 117.002 66.3548C110.977 66.3548 105.656 69.4323 102.528 74.0968H97.7594L115.39 51.6529ZM91.8387 97.3226H85.7768L90.9387 89.5806H91.8387V97.3226ZM74.6806 97.3226L81.1316 89.5806H86.2858L81.1239 97.3226H74.6806ZM71.3497 89.5806H76.0935L69.6426 97.3226H63.6077L71.3497 89.5806ZM60.871 101.194H91.8387V105.065H60.871V101.194ZM68.6129 116.677H72.4839V124.419H68.6129V116.677ZM68.6129 128.29H72.4839C74.6187 128.29 76.3548 126.554 76.3548 124.419V116.677C76.3548 114.543 74.6187 112.806 72.4839 112.806H68.6129V108.935H91.8387V112.806H84.0968C81.9619 112.806 80.2258 114.543 80.2258 116.677V124.419C80.2258 126.554 81.9619 128.29 84.0968 128.29H91.8387V132.161H68.6129V128.29ZM60.871 136.032H91.8387V139.903H60.871V136.032ZM64.7419 143.774H68.6129V163.129H64.7419V143.774ZM169.258 163.129H165.387V143.774H169.258V163.129ZM173.129 139.903H142.161V136.032H173.129V139.903ZM165.387 124.419H161.516V116.677H165.387V124.419ZM165.387 112.806H161.516C159.381 112.806 157.645 114.543 157.645 116.677V124.419C157.645 126.554 159.381 128.29 161.516 128.29H165.387V132.161H142.161V128.29H149.903C152.038 128.29 153.774 126.554 153.774 124.419V116.677C153.774 114.543 152.038 112.806 149.903 112.806H142.161V108.935H165.387V112.806Z" fill="black"/>
<circle cx="203" cy="17" r="6" fill="#FCCA1A"/>
<circle cx="49" cy="37" r="6" fill="#AAB2BD"/>
<circle cx="204.5" cy="45.5" r="2.5" fill="#FF826E"/>
<circle cx="6" cy="172" r="6" fill="#FCCA1A"/>
<circle cx="205" cy="188" r="6" fill="#FCD770"/>
<circle cx="22" cy="198" r="3" fill="#69D6F4"/>
<circle cx="78.5" cy="29.5" r="1.5" fill="#69D6F4"/>
</svg>
