<svg width="1056" height="418" viewBox="0 0 1056 418" fill="none" xmlns="http://www.w3.org/2000/svg">
<path d="M367.928 93.4435L385.757 103.855C390.078 100.216 395.378 97.907 401.003 97.2105L527.018 81.8412C530.234 81.4489 533.16 83.7176 533.555 86.9103C533.951 90.1058 531.666 93.0114 528.447 93.4037L402.434 108.776C400.539 109.02 398.694 109.572 396.979 110.41L527.679 186.89L687.434 93.4435L527.679 0L367.928 93.4435Z" fill="#04aed4"/>
<path d="M524.709 198.663L410.394 131.805V192.42C410.394 208.449 424.352 224.032 448.686 235.17C473.628 245.789 500.549 251.063 527.687 250.645C554.823 251.066 581.744 245.792 606.685 235.17C631.023 224.032 644.98 208.449 644.98 192.42V131.805L530.668 198.663C528.83 199.738 526.548 199.738 524.709 198.663Z" fill="#04aed4"/>
<path d="M392.754 277.933L381.025 213.887L357.566 289.578L392.754 277.933Z" fill="#04aed4"/>
<path d="M398.598 239.008C398.587 231.628 393.885 225.058 386.869 222.613V126.113C386.886 123.663 387.424 121.243 388.452 119.014C390.142 115.259 393.111 112.217 396.84 110.42L385.66 103.864C382.622 106.423 380.137 109.57 378.361 113.11C376.274 117.132 375.171 121.587 375.14 126.113V222.613C366.726 225.59 361.901 234.357 363.926 242.994C365.953 251.631 374.183 257.383 383.055 256.362C391.926 255.344 398.615 247.876 398.598 239.008Z" fill="#04aed4"/>
<path d="M44.2461 418C36.7446 418 28.671 416.972 20.0252 414.915C11.5065 412.858 4.83147 410.609 0 408.167L2.86074 381.944C19.6437 390.171 34.3924 394.284 47.1068 394.284C53.8455 394.284 59.122 392.999 62.9363 390.428C66.7506 387.729 68.6577 383.808 68.6577 378.667C68.6577 374.81 67.577 371.661 65.4156 369.219C63.3813 366.648 60.3934 364.527 56.4519 362.856C52.5105 361.057 46.2168 358.614 37.571 355.529C29.4338 352.701 22.6952 349.745 17.3552 346.66C12.0151 343.447 7.75578 339.398 4.57718 334.513C1.52573 329.5 0 323.394 0 316.196C0 304.627 4.19575 295.308 12.5873 288.239C20.9788 281.169 32.9939 277.634 48.6326 277.634C56.0069 277.634 63.3177 278.469 70.5649 280.14C77.9393 281.811 84.6779 283.868 90.7808 286.31L88.3015 311.569C80.4186 308.098 73.1714 305.527 66.5599 303.856C60.0755 302.057 53.5912 301.157 47.1068 301.157C39.8596 301.157 34.3289 302.378 30.5146 304.82C26.7002 307.262 24.7931 310.797 24.7931 315.425C24.7931 319.024 25.8102 321.98 27.8445 324.294C29.8788 326.608 32.6124 328.536 36.0453 330.078C39.6054 331.621 44.8182 333.485 51.684 335.67C67.0684 340.554 78.2571 346.21 85.25 352.637C92.3701 358.936 95.9301 367.612 95.9301 378.667C95.9301 389.207 92.3065 398.398 85.0593 406.239C77.8121 414.079 64.2077 418 44.2461 418Z" fill="#666666"/>
<path d="M156.783 417.229C146.23 417.229 137.14 415.044 129.511 410.673C122.01 406.174 116.352 400.133 112.537 392.549C108.723 384.965 106.816 376.546 106.816 367.291C106.816 357.907 108.723 349.424 112.537 341.84C116.352 334.127 122.073 328.086 129.702 323.716C137.33 319.217 146.612 316.967 157.546 316.967C167.336 316.967 175.855 319.024 183.102 323.137L181.195 342.418C174.329 338.819 167.209 337.02 159.835 337.02C150.808 337.02 143.751 339.783 138.665 345.31C133.58 350.838 131.037 358.164 131.037 367.291C131.037 376.032 133.643 383.294 138.856 389.078C144.069 394.734 150.998 397.562 159.644 397.562C166.891 397.562 174.139 395.441 181.386 391.199L183.484 411.444C180.051 413.244 175.982 414.658 171.278 415.686C166.701 416.715 161.869 417.229 156.783 417.229Z" fill="#666666"/>
<path d="M247.388 317.353C259.467 317.353 268.431 321.338 274.279 329.307C280.255 337.148 283.243 347.945 283.243 361.699V415.301H259.594V363.435C259.594 354.308 258.132 347.624 255.208 343.382C252.283 339.14 247.643 337.02 241.285 337.02C233.784 337.02 227.618 339.783 222.786 345.31V415.301H199.137V270.693H222.786V325.065C226.6 322.623 230.478 320.759 234.42 319.474C238.361 318.06 242.684 317.353 247.388 317.353Z" fill="#666666"/>
<path d="M347.663 417.229C337.619 417.229 328.91 414.979 321.535 410.48C314.161 405.981 308.503 399.94 304.561 392.356C300.62 384.772 298.649 376.417 298.649 367.291C298.649 358.164 300.62 349.745 304.561 342.033C308.503 334.32 314.161 328.215 321.535 323.716C328.91 319.217 337.619 316.967 347.663 316.967C357.708 316.967 366.417 319.217 373.791 323.716C381.166 328.215 386.824 334.32 390.765 342.033C394.707 349.745 396.677 358.164 396.677 367.291C396.677 376.417 394.707 384.772 390.765 392.356C386.824 399.94 381.166 405.981 373.791 410.48C366.417 414.979 357.708 417.229 347.663 417.229ZM347.663 397.562C355.419 397.562 361.458 394.798 365.781 389.271C370.231 383.744 372.456 376.417 372.456 367.291C372.456 358.036 370.231 350.645 365.781 345.118C361.458 339.462 355.419 336.634 347.663 336.634C339.908 336.634 333.805 339.462 329.355 345.118C325.032 350.645 322.87 358.036 322.87 367.291C322.87 376.417 325.032 383.744 329.355 389.271C333.805 394.798 339.908 397.562 347.663 397.562Z" fill="#666666"/>
<path d="M456.431 417.229C446.387 417.229 437.677 414.979 430.303 410.48C422.928 405.981 417.271 399.94 413.329 392.356C409.388 384.772 407.417 376.417 407.417 367.291C407.417 358.164 409.388 349.745 413.329 342.033C417.271 334.32 422.928 328.215 430.303 323.716C437.677 319.217 446.387 316.967 456.431 316.967C466.475 316.967 475.185 319.217 482.559 323.716C489.933 328.215 495.591 334.32 499.533 342.033C503.474 349.745 505.445 358.164 505.445 367.291C505.445 376.417 503.474 384.772 499.533 392.356C495.591 399.94 489.933 405.981 482.559 410.48C475.185 414.979 466.475 417.229 456.431 417.229ZM456.431 397.562C464.187 397.562 470.226 394.798 474.549 389.271C478.999 383.744 481.224 376.417 481.224 367.291C481.224 358.036 478.999 350.645 474.549 345.118C470.226 339.462 464.187 336.634 456.431 336.634C448.675 336.634 442.572 339.462 438.122 345.118C433.799 350.645 431.638 358.036 431.638 367.291C431.638 376.417 433.799 383.744 438.122 389.271C442.572 394.798 448.675 397.562 456.431 397.562Z" fill="#666666"/>
<path d="M546.318 417.229C538.181 417.229 532.078 414.915 528.009 410.288C523.94 405.532 521.906 399.426 521.906 391.971V270.693H545.555V382.137C545.555 387.279 545.809 390.942 546.318 393.127C546.953 395.184 547.971 396.469 549.369 396.984C550.895 397.369 553.438 397.562 556.998 397.562L554.9 417.229H546.318Z" fill="#666666"/>
<path d="M597.842 304.242H560.081V280.333H660.016V304.242H622.254V415.301H597.842V304.242Z" fill="#666666"/>
<path d="M658.052 318.895H680.175L680.747 329.114C683.544 325.901 687.104 323.073 691.427 320.631C695.877 318.188 700.518 316.967 705.35 316.967C706.875 316.967 708.274 317.096 709.545 317.353L707.829 340.876C705.413 340.233 702.679 339.912 699.628 339.912C695.687 339.912 692.063 340.876 688.757 342.804C685.452 344.603 683.099 346.853 681.701 349.552V415.301H658.052V318.895Z" fill="#666666"/>
<path d="M740.483 417.229C732.6 417.229 725.989 414.658 720.649 409.516C715.436 404.246 712.829 397.176 712.829 388.307C712.829 379.952 715.817 373.268 721.793 368.255C727.769 363.113 734.825 359.514 742.962 357.457C751.1 355.272 758.919 354.051 766.42 353.794C766.166 348.138 764.704 344.089 762.034 341.647C759.491 339.205 755.232 337.984 749.256 337.984C745.06 337.984 740.928 338.562 736.859 339.719C732.918 340.876 728.341 342.74 723.128 345.31L721.03 325.837C732.6 320.181 744.17 317.353 755.74 317.353C766.929 317.353 775.448 320.438 781.296 326.608C787.272 332.778 790.26 342.611 790.26 356.108V382.137C790.26 387.022 790.451 390.557 790.832 392.742C791.341 394.798 792.103 396.148 793.121 396.791C794.265 397.305 796.108 397.562 798.651 397.562H801.703L799.605 417.229H791.023C785.81 417.229 781.423 416.265 777.863 414.337C774.303 412.28 771.57 409.516 769.663 406.046C766.611 409.516 762.415 412.28 757.075 414.337C751.862 416.265 746.332 417.229 740.483 417.229ZM750.4 398.912C752.816 398.912 755.549 398.333 758.601 397.176C761.652 395.891 764.323 394.156 766.611 391.971V369.99C758.982 370.376 752.244 372.047 746.395 375.003C740.547 377.96 737.622 382.073 737.622 387.343C737.622 391.328 738.639 394.284 740.674 396.212C742.708 398.012 745.95 398.912 750.4 398.912Z" fill="#666666"/>
<path d="M859.117 417.229C848.564 417.229 839.474 415.044 831.845 410.673C824.343 406.174 818.686 400.133 814.871 392.549C811.057 384.965 809.15 376.546 809.15 367.291C809.15 357.907 811.057 349.424 814.871 341.84C818.686 334.127 824.407 328.086 832.036 323.716C839.664 319.217 848.946 316.967 859.88 316.967C869.67 316.967 878.189 319.024 885.436 323.137L883.529 342.418C876.663 338.819 869.543 337.02 862.169 337.02C853.141 337.02 846.085 339.783 840.999 345.31C835.914 350.838 833.371 358.164 833.371 367.291C833.371 376.032 835.977 383.294 841.19 389.078C846.403 394.734 853.332 397.562 861.978 397.562C869.225 397.562 876.472 395.441 883.72 391.199L885.818 411.444C882.385 413.244 878.316 414.658 873.612 415.686C869.034 416.715 864.203 417.229 859.117 417.229Z" fill="#666666"/>
<path d="M901.471 270.693H925.12V358.422L954.681 318.895H981.381L946.671 365.17L982.144 415.301H955.444L925.12 372.497V415.301H901.471V270.693Z" fill="#666666"/>
<path d="M1005.65 313.111H1012.7V287.66H1021.24V281.683H997.111V287.66H1005.65V313.111Z" fill="#666666"/>
<path d="M1026.08 313.111H1032.38V301.591C1032.38 298.506 1031.8 293.926 1031.47 290.89H1031.66L1034.14 298.361L1038.58 310.363H1042.44L1046.87 298.361L1049.4 290.89H1049.59C1049.26 293.926 1048.68 298.506 1048.68 301.591V313.111H1055.07V281.683H1047.44L1042.53 295.662C1041.91 297.493 1041.39 299.518 1040.77 301.446H1040.58C1039.96 299.518 1039.39 297.493 1038.77 295.662L1033.76 281.683H1026.08V313.111Z" fill="#666666"/>
</svg>
