<svg width="112" height="47" viewBox="0 0 112 47" fill="none" xmlns="http://www.w3.org/2000/svg">
<path d="M4.57109 44C3.7961 44 2.96201 43.8953 2.06881 43.6859C1.18874 43.4764 0.499142 43.2474 0 42.9987L0.295544 40.3285C2.0294 41.1662 3.5531 41.5851 4.86663 41.5851C5.5628 41.5851 6.10792 41.4542 6.50198 41.1924C6.89603 40.9175 7.09306 40.5183 7.09306 39.9948C7.09306 39.6021 6.98141 39.2814 6.75811 39.0327C6.54795 38.7709 6.23927 38.555 5.83207 38.3848C5.42488 38.2016 4.77468 37.9529 3.88148 37.6387C3.04082 37.3508 2.34465 37.0497 1.79297 36.7356C1.24129 36.4084 0.801253 35.9961 0.472871 35.4987C0.157624 34.9882 0 34.3665 0 33.6335C0 32.4555 0.433465 31.5065 1.3004 30.7866C2.16733 30.0668 3.40861 29.7068 5.02425 29.7068C5.7861 29.7068 6.54138 29.7919 7.29009 29.962C8.05194 30.1322 8.74811 30.3416 9.37861 30.5903L9.12247 33.1623C8.30808 32.8089 7.55937 32.5471 6.87633 32.377C6.20643 32.1937 5.53653 32.1021 4.86663 32.1021C4.11792 32.1021 3.54653 32.2264 3.15247 32.4751C2.75841 32.7238 2.56138 33.0838 2.56138 33.555C2.56138 33.9215 2.66647 34.2225 2.87663 34.4581C3.0868 34.6937 3.36921 34.8901 3.72386 35.0471C4.09165 35.2042 4.63019 35.394 5.3395 35.6165C6.92887 36.1139 8.08478 36.6898 8.80722 37.3442C9.5428 37.9856 9.91059 38.8691 9.91059 39.9948C9.91059 41.0681 9.53623 42.0039 8.78752 42.8024C8.03881 43.6008 6.63333 44 4.57109 44Z" fill="#EFF1F3"/>
<path d="M16.1974 43.9215C15.1071 43.9215 14.168 43.699 13.3798 43.2539C12.6049 42.7958 12.0203 42.1806 11.6263 41.4084C11.2322 40.6361 11.0352 39.7788 11.0352 38.8364C11.0352 37.8809 11.2322 37.017 11.6263 36.2448C12.0203 35.4594 12.6114 34.8442 13.3995 34.3992C14.1877 33.9411 15.1465 33.712 16.2762 33.712C17.2876 33.712 18.1677 33.9215 18.9164 34.3403L18.7193 36.3037C18.01 35.9372 17.2745 35.7539 16.5126 35.7539C15.58 35.7539 14.851 36.0353 14.3256 36.5982C13.8002 37.161 13.5375 37.9071 13.5375 38.8364C13.5375 39.7264 13.8067 40.466 14.3453 41.055C14.8838 41.6309 15.5997 41.9188 16.4929 41.9188C17.2416 41.9188 17.9903 41.7029 18.739 41.2709L18.9558 43.3325C18.6011 43.5157 18.1808 43.6597 17.6948 43.7644C17.2219 43.8691 16.7228 43.9215 16.1974 43.9215Z" fill="#EFF1F3"/>
<path d="M25.5578 33.7513C26.8057 33.7513 27.7317 34.1571 28.3359 34.9686C28.9533 35.767 29.262 36.8665 29.262 38.267V43.7251H26.8188V38.4437C26.8188 37.5144 26.6677 36.8338 26.3656 36.4018C26.0635 35.9699 25.5841 35.7539 24.9273 35.7539C24.1523 35.7539 23.5153 36.0353 23.0161 36.5982V43.7251H20.573V29H23.0161V34.5366C23.4102 34.288 23.8108 34.0982 24.218 33.9673C24.6252 33.8233 25.0718 33.7513 25.5578 33.7513Z" fill="#EFF1F3"/>
<path d="M35.9173 43.9215C34.8796 43.9215 33.9798 43.6924 33.2179 43.2343C32.4561 42.7762 31.8716 42.161 31.4644 41.3887C31.0572 40.6165 30.8536 39.7657 30.8536 38.8364C30.8536 37.9071 31.0572 37.0497 31.4644 36.2644C31.8716 35.4791 32.4561 34.8573 33.2179 34.3992C33.9798 33.9411 34.8796 33.712 35.9173 33.712C36.9549 33.712 37.8547 33.9411 38.6166 34.3992C39.3784 34.8573 39.9629 35.4791 40.3701 36.2644C40.7773 37.0497 40.9809 37.9071 40.9809 38.8364C40.9809 39.7657 40.7773 40.6165 40.3701 41.3887C39.9629 42.161 39.3784 42.7762 38.6166 43.2343C37.8547 43.6924 36.9549 43.9215 35.9173 43.9215ZM35.9173 41.9188C36.7185 41.9188 37.3424 41.6374 37.789 41.0746C38.2488 40.5118 38.4786 39.7657 38.4786 38.8364C38.4786 37.894 38.2488 37.1414 37.789 36.5785C37.3424 36.0026 36.7185 35.7147 35.9173 35.7147C35.116 35.7147 34.4855 36.0026 34.0258 36.5785C33.5792 37.1414 33.3559 37.894 33.3559 38.8364C33.3559 39.7657 33.5792 40.5118 34.0258 41.0746C34.4855 41.6374 35.116 41.9188 35.9173 41.9188Z" fill="#EFF1F3"/>
<path d="M47.1541 43.9215C46.1164 43.9215 45.2166 43.6924 44.4548 43.2343C43.6929 42.7762 43.1084 42.161 42.7012 41.3887C42.294 40.6165 42.0904 39.7657 42.0904 38.8364C42.0904 37.9071 42.294 37.0497 42.7012 36.2644C43.1084 35.4791 43.6929 34.8573 44.4548 34.3992C45.2166 33.9411 46.1164 33.712 47.1541 33.712C48.1918 33.712 49.0916 33.9411 49.8534 34.3992C50.6152 34.8573 51.1998 35.4791 51.607 36.2644C52.0142 37.0497 52.2178 37.9071 52.2178 38.8364C52.2178 39.7657 52.0142 40.6165 51.607 41.3887C51.1998 42.161 50.6152 42.7762 49.8534 43.2343C49.0916 43.6924 48.1918 43.9215 47.1541 43.9215ZM47.1541 41.9188C47.9553 41.9188 48.5793 41.6374 49.0259 41.0746C49.4856 40.5118 49.7155 39.7657 49.7155 38.8364C49.7155 37.894 49.4856 37.1414 49.0259 36.5785C48.5793 36.0026 47.9553 35.7147 47.1541 35.7147C46.3528 35.7147 45.7223 36.0026 45.2626 36.5785C44.816 37.1414 44.5927 37.894 44.5927 38.8364C44.5927 39.7657 44.816 40.5118 45.2626 41.0746C45.7223 41.6374 46.3528 41.9188 47.1541 41.9188Z" fill="#EFF1F3"/>
<path d="M56.4403 43.9215C55.5997 43.9215 54.9692 43.6859 54.5489 43.2147C54.1285 42.7304 53.9184 42.1086 53.9184 41.3495V29H56.3615V40.3482C56.3615 40.8717 56.3878 41.2448 56.4403 41.4673C56.506 41.6767 56.6111 41.8076 56.7556 41.8599C56.9132 41.8992 57.1759 41.9188 57.5437 41.9188L57.327 43.9215H56.4403Z" fill="#EFF1F3"/>
<path d="M61.7634 32.4162H57.8622V29.9817H68.1865V32.4162H64.2853V43.7251H61.7634V32.4162Z" fill="#EFF1F3"/>
<path d="M67.9837 33.9084H70.2692L70.3283 34.949C70.6173 34.6217 70.9851 34.3338 71.4317 34.0851C71.8914 33.8364 72.3708 33.712 72.87 33.712C73.0276 33.712 73.1721 33.7251 73.3035 33.7513L73.1261 36.1466C72.8766 36.0812 72.5941 36.0484 72.2789 36.0484C71.8717 36.0484 71.4974 36.1466 71.1558 36.3429C70.8143 36.5262 70.5713 36.7552 70.4268 37.0301V43.7251H67.9837V33.9084Z" fill="#EFF1F3"/>
<path d="M76.4996 43.9215C75.6853 43.9215 75.0022 43.6597 74.4505 43.1361C73.912 42.5995 73.6427 41.8796 73.6427 40.9764C73.6427 40.1257 73.9514 39.445 74.5687 38.9346C75.1861 38.411 75.9151 38.0445 76.7558 37.8351C77.5964 37.6126 78.4043 37.4882 79.1792 37.462C79.153 36.8861 79.0019 36.4738 78.7261 36.2251C78.4634 35.9764 78.0233 35.8521 77.406 35.8521C76.9725 35.8521 76.5456 35.911 76.1253 36.0288C75.7181 36.1466 75.2452 36.3364 74.7067 36.5982L74.4899 34.6152C75.6853 34.0393 76.8806 33.7513 78.0759 33.7513C79.2318 33.7513 80.1118 34.0654 80.7161 34.6937C81.3334 35.322 81.6421 36.3233 81.6421 37.6976V40.3482C81.6421 40.8455 81.6618 41.2055 81.7012 41.428C81.7538 41.6374 81.8326 41.7749 81.9377 41.8403C82.0559 41.8927 82.2463 41.9188 82.509 41.9188H82.8243L82.6076 43.9215H81.7209C81.1824 43.9215 80.7292 43.8233 80.3614 43.627C79.9936 43.4175 79.7112 43.1361 79.5142 42.7827C79.1989 43.1361 78.7655 43.4175 78.2138 43.627C77.6752 43.8233 77.1039 43.9215 76.4996 43.9215ZM77.5242 42.0563C77.7738 42.0563 78.0562 41.9974 78.3714 41.8796C78.6867 41.7487 78.9625 41.572 79.199 41.3495V39.1113C78.4108 39.1505 77.7147 39.3207 77.1104 39.6217C76.5062 39.9228 76.2041 40.3416 76.2041 40.8783C76.2041 41.284 76.3092 41.5851 76.5193 41.7814C76.7295 41.9647 77.0645 42.0563 77.5242 42.0563Z" fill="#EFF1F3"/>
<path d="M88.7558 43.9215C87.6656 43.9215 86.7264 43.699 85.9383 43.2539C85.1633 42.7958 84.5788 42.1806 84.1847 41.4084C83.7907 40.6361 83.5936 39.7788 83.5936 38.8364C83.5936 37.8809 83.7907 37.017 84.1847 36.2448C84.5788 35.4594 85.1699 34.8442 85.958 34.3992C86.7461 33.9411 87.705 33.712 88.8346 33.712C89.846 33.712 90.7261 33.9215 91.4748 34.3403L91.2778 36.3037C90.5685 35.9372 89.8329 35.7539 89.071 35.7539C88.1384 35.7539 87.4094 36.0353 86.884 36.5982C86.3586 37.161 86.0959 37.9071 86.0959 38.8364C86.0959 39.7264 86.3652 40.466 86.9037 41.055C87.4423 41.6309 88.1581 41.9188 89.0513 41.9188C89.8001 41.9188 90.5488 41.7029 91.2975 41.2709L91.5142 43.3325C91.1596 43.5157 90.7392 43.6597 90.2532 43.7644C89.7804 43.8691 89.2812 43.9215 88.7558 43.9215Z" fill="#EFF1F3"/>
<path d="M93.1314 29H95.5746V37.9332L98.6285 33.9084H101.387L97.801 38.6204L101.466 43.7251H98.7073L95.5746 39.3665V43.7251H93.1314V29Z" fill="#EFF1F3"/>
<path d="M103.894 33.3194H104.623V30.7277H105.504V30.1191H103.012V30.7277H103.894V33.3194Z" fill="#EFF1F3"/>
<path d="M106.005 33.3194H106.655V32.1463C106.655 31.8321 106.596 31.3658 106.562 31.0566H106.581L106.838 31.8174L107.296 33.0396H107.695L108.153 31.8174L108.414 31.0566H108.434C108.399 31.3658 108.34 31.8321 108.34 32.1463V33.3194H109V30.1191H108.212L107.705 31.5425C107.64 31.729 107.586 31.9352 107.522 32.1315H107.503C107.439 31.9352 107.379 31.729 107.315 31.5425L106.798 30.1191H106.005V33.3194Z" fill="#EFF1F3"/>
<path d="M36.0658 9.68065L37.8995 10.7592C38.3439 10.3822 38.8891 10.1431 39.4676 10.0709L52.4287 8.47867C52.7594 8.43802 53.0604 8.67306 53.1011 9.00381C53.1417 9.33487 52.9067 9.63588 52.5756 9.67652L39.6148 11.2691C39.4199 11.2944 39.2302 11.3515 39.0538 11.4384L52.4967 19.3616L68.928 9.68065L52.4967 0L36.0658 9.68065Z" fill="#FB882C"/>
<path d="M52.1912 20.5813L40.4336 13.6548V19.9345C40.4336 21.5951 41.8691 23.2094 44.372 24.3634C46.9374 25.4635 49.7063 26.0098 52.4975 25.9665C55.2885 26.0101 58.0574 25.4638 60.6227 24.3634C63.126 23.2094 64.5615 21.5951 64.5615 19.9345V13.6548L52.8041 20.5813C52.615 20.6927 52.3803 20.6927 52.1912 20.5813Z" fill="#FB882C"/>
<path d="M38.6192 28.7936L37.4128 22.1584L35 30L38.6192 28.7936Z" fill="#FB882C"/>
<path d="M39.2203 24.761C39.2191 23.9964 38.7355 23.3158 38.0139 23.0625V13.0652C38.0156 12.8113 38.071 12.5607 38.1768 12.3298C38.3505 11.9407 38.656 11.6255 39.0394 11.4394L37.8896 10.7602C37.5771 11.0253 37.3214 11.3513 37.1388 11.718C36.9241 12.1348 36.8107 12.5963 36.8075 13.0652V23.0625C35.9422 23.3708 35.4459 24.2792 35.6541 25.174C35.8626 26.0687 36.7091 26.6646 37.6216 26.5588C38.534 26.4534 39.222 25.6797 39.2203 24.761Z" fill="#FB882C"/>
</svg>
