<svg width="22" height="22" viewBox="0 0 22 22" fill="none" xmlns="http://www.w3.org/2000/svg">
<g opacity="0.5">
<path d="M19.7968 3.66895H13.1976V21.9999H21.2633V5.13543C21.2633 4.74649 21.1088 4.37349 20.8338 4.09847C20.5587 3.82345 20.1857 3.66895 19.7968 3.66895ZM16.1306 16.134H14.6641V14.6675H16.1306V16.134ZM16.1306 12.4678H14.6641V11.0013H16.1306V12.4678ZM16.1306 8.80163H14.6641V7.33515H16.1306V8.80163ZM19.0636 16.134H17.5971V14.6675H19.0636V16.134ZM19.0636 12.4678H17.5971V11.0013H19.0636V12.4678ZM19.0636 8.80163H17.5971V7.33515H19.0636V8.80163Z" fill="#355691"/>
<path d="M10.1774 0H1.55447C1.1422 0 0.746813 0.163774 0.455293 0.455293C0.163774 0.746813 0 1.1422 0 1.55447V21.9972H3.6662V19.7975H8.06564V21.9972H11.7318V1.55447C11.7318 1.1422 11.5681 0.746813 11.2765 0.455293C10.985 0.163774 10.5896 0 10.1774 0ZM3.6662 16.1313H2.19972V14.6648H3.6662V16.1313ZM3.6662 12.4651H2.19972V10.9986H3.6662V12.4651ZM3.6662 8.79888H2.19972V7.3324H3.6662V8.79888ZM3.6662 5.13268H2.19972V3.6662H3.6662V5.13268ZM6.59916 16.1313H5.13268V14.6648H6.59916V16.1313ZM6.59916 12.4651H5.13268V10.9986H6.59916V12.4651ZM6.59916 8.79888H5.13268V7.3324H6.59916V8.79888ZM6.59916 5.13268H5.13268V3.6662H6.59916V5.13268ZM9.53212 16.1313H8.06564V14.6648H9.53212V16.1313ZM9.53212 12.4651H8.06564V10.9986H9.53212V12.4651ZM9.53212 8.79888H8.06564V7.3324H9.53212V8.79888ZM9.53212 5.13268H8.06564V3.6662H9.53212V5.13268Z" fill="#355691"/>
</g>
</svg>
