<svg width="20" height="21" viewBox="0 0 20 21" fill="none" xmlns="http://www.w3.org/2000/svg">
<path d="M8.43948 3.1378C8.43948 2.42368 9.02376 1.8394 9.73788 1.8394C10.452 1.8394 11.0363 2.42368 11.0363 3.1378L11.0255 7.36842L12.9839 9.3052V3.246C12.9839 1.44988 11.534 0 9.73788 0C8.0716 0 6.7191 1.25512 6.53516 2.8673L8.43948 4.77162V3.1378Z" fill="#FF3C3C"/>
<path d="M17.3117 9.73801H15.4723C15.4723 10.3656 15.3641 10.9607 15.1802 11.5125L16.5543 12.8866C17.0304 11.9345 17.3117 10.8633 17.3117 9.73801Z" fill="#FF3C3C"/>
<path d="M1.52562 0.930481L0 2.4561L6.492 8.9481V9.73796C6.492 11.5341 7.94188 12.984 9.738 12.984C9.98686 12.984 10.2141 12.9515 10.4413 12.8974L12.2374 14.6935C11.4692 15.0506 10.6144 15.2562 9.738 15.2562C6.75168 15.2562 4.0034 12.984 4.0034 9.73796H2.164C2.164 13.4276 5.10704 16.4788 8.656 17.009V20.558H10.82V17.009C11.8046 16.8683 12.7351 16.5221 13.5791 16.0352L18.1235 20.5796L19.6491 19.054L1.52562 0.930481Z" fill="#FF3C3C"/>
</svg>
