<svg width="8" height="10" viewBox="0 0 8 10" fill="none" xmlns="http://www.w3.org/2000/svg">
<path d="M0 0V10H3.33333V8.05556H4.44445V10H7.77778V0H0ZM1.11111 1.11111H2.22222V2.22222H1.11111V1.11111ZM3.33333 1.11111H4.44445V2.22222H3.33333V1.11111ZM5.55556 1.11111H6.66667V2.22222H5.55556V1.11111ZM1.11111 3.33333H2.22222V4.44444H1.11111V3.33333ZM3.33333 3.33333H4.44445V4.44444H3.33333V3.33333ZM5.55556 3.33333H6.66667V4.44444H5.55556V3.33333ZM1.11111 5.55556H2.22222V6.66667H1.11111V5.55556ZM3.33333 5.55556H4.44445V6.66667H3.33333V5.55556ZM5.55556 5.55556H6.66667V6.66667H5.55556V5.55556ZM1.11111 7.77778H2.22222V8.88889H1.11111V7.77778ZM5.55556 7.77778H6.66667V8.88889H5.55556V7.77778Z" fill="#0A1128"/>
</svg>
