<svg width="13" height="9" viewBox="0 0 13 9" fill="none" xmlns="http://www.w3.org/2000/svg">
<g opacity="0.3">
<path d="M9.32143 4.5C10.2086 4.5 10.9222 3.78 10.9222 2.89286C10.9222 2.00571 10.2086 1.28571 9.32143 1.28571C8.89519 1.28571 8.48641 1.45504 8.18501 1.75644C7.88362 2.05783 7.71429 2.46662 7.71429 2.89286C7.71429 3.3191 7.88362 3.72788 8.18501 4.02928C8.48641 4.33068 8.89519 4.5 9.32143 4.5ZM4.5 3.85714C5.56715 3.85714 6.42215 2.99571 6.42215 1.92857C6.42215 0.861429 5.56715 0 4.5 0C3.43286 0 2.57143 0.861429 2.57143 1.92857C2.57143 2.99571 3.43286 3.85714 4.5 3.85714ZM9.32143 5.78571C8.14501 5.78571 5.78572 6.37714 5.78572 7.55357V9H12.8572V7.55357C12.8572 6.37714 10.4979 5.78571 9.32143 5.78571ZM4.5 5.14286C3.00215 5.14286 0 5.895 0 7.39286V9H4.5V7.55357C4.5 7.00714 4.71215 6.04929 6.02358 5.32286C5.46429 5.20714 4.92429 5.14286 4.5 5.14286Z" fill="#0A1128"/>
</g>
</svg>
