<svg width="68" height="68" viewBox="0 0 68 68" fill="none" xmlns="http://www.w3.org/2000/svg">
<circle cx="34" cy="34" r="34" fill="#E0EDFF"/>
<g clip-path="url(#clip0)">
<path d="M53.3064 25.9263L49.3864 45.5197C49.1385 46.7668 48.0446 47.6653 46.7731 47.6663H21.2264C19.9549 47.6653 18.861 46.7668 18.6131 45.5197L14.6931 25.9263C14.6153 25.535 14.7168 25.1294 14.9698 24.8208C15.2229 24.5123 15.6008 24.3333 15.9998 24.333H51.9998C52.3988 24.3333 52.7766 24.5123 53.0297 24.8208C53.2827 25.1294 53.3842 25.535 53.3064 25.9263Z" fill="#EAECF4"/>
<path d="M52.0001 24.333H50.0001C50.3991 24.3333 50.777 24.5123 51.03 24.8208C51.283 25.1294 51.3846 25.535 51.3068 25.9263L47.3868 45.5197C47.1388 46.7668 46.0449 47.6653 44.7734 47.6663H46.7734C48.0449 47.6653 49.1388 46.7668 49.3868 45.5197L53.3068 25.9263C53.3846 25.535 53.283 25.1294 53.03 24.8208C52.777 24.5123 52.3991 24.3333 52.0001 24.333Z" fill="#DEE3F1"/>
<path d="M50.6668 23.0003V24.3337H17.3335V19.667C17.3335 18.5624 18.2289 17.667 19.3335 17.667H28.6668C29.7714 17.667 30.6668 18.5624 30.6668 19.667V20.3337C30.6668 20.7018 30.9653 21.0003 31.3335 21.0003H48.6668C49.7714 21.0003 50.6668 21.8958 50.6668 23.0003Z" fill="#D1D5E1"/>
<path d="M28.667 19.667V20.3337C28.667 20.7018 28.9655 21.0003 29.3337 21.0003H31.3337C30.9655 21.0003 30.667 20.7018 30.667 20.3337V19.667C30.667 18.5624 29.7716 17.667 28.667 17.667H26.667C27.7716 17.667 28.667 18.5624 28.667 19.667Z" fill="#BBC1D3"/>
<path d="M48.667 21H46.667C47.7716 21 48.667 21.8954 48.667 23V24.3333H50.667V23C50.667 21.8954 49.7716 21 48.667 21Z" fill="#BBC1D3"/>
<path d="M41.0757 46.7381C38.2146 49.5994 33.9117 50.4554 30.1733 48.907C26.435 47.3586 23.9976 43.7108 23.9976 39.6645C23.9976 35.6182 26.435 31.9703 30.1733 30.4219C33.9117 28.8735 38.2146 29.7295 41.0757 32.5908C44.9737 36.501 44.9737 42.8279 41.0757 46.7381Z" fill="#E8EDFC"/>
<path d="M41.0753 32.5917C38.9517 30.4696 35.9867 29.4146 33 29.7183C38.1071 30.2264 41.9995 34.5198 42.0059 39.6522C42.0123 44.7845 38.1305 49.0876 33.0247 49.6083C37.229 50.0279 41.2428 47.7578 43.0497 43.9385C44.8567 40.1192 44.0662 35.5761 41.0753 32.5917Z" fill="#DEE3F1"/>
<path d="M34 46.9955C30.5013 46.9925 27.492 44.5182 26.8126 41.0861C26.1333 37.654 27.9732 34.2199 31.2069 32.8843C34.4406 31.5486 38.1676 32.6834 40.1082 35.5946C42.0489 38.5057 41.6628 42.3824 39.186 44.8535C37.8107 46.2284 35.9446 46.9992 34 46.9955Z" fill="#B8BED1"/>
<path d="M39.1912 34.4784C37.8161 33.0995 35.9472 32.3271 33.9998 32.333C33.6652 32.3356 33.3311 32.3608 32.9998 32.4084C36.6364 32.8991 39.3481 36.0059 39.3428 39.6754C39.3374 43.3449 36.6165 46.4437 32.9785 46.9237C33.3169 46.9711 33.6582 46.9952 33.9998 46.9957C36.966 46.9967 39.6406 45.2108 40.7765 42.4708C41.9125 39.7308 41.286 36.5763 39.1892 34.4784H39.1912Z" fill="#ABB3C9"/>
<path d="M28.4885 48.0111L25.9885 50.5044L23.1611 47.6777L25.6551 45.1777C26.3978 46.3044 27.3618 47.2684 28.4885 48.0111Z" fill="#B8BED1"/>
<path d="M26.9279 46.7384C26.4522 46.2624 26.0258 45.7395 25.6552 45.1777L24.5332 46.3017C24.6665 46.4477 24.7872 46.5977 24.9272 46.7384C25.4031 47.2143 25.926 47.6407 26.4879 48.0111L24.9892 49.5057L25.9892 50.5057L28.4892 48.0124C27.927 47.6416 27.4039 47.2148 26.9279 46.7384Z" fill="#ABB2C9"/>
<path d="M25.989 51.4524L21.7483 55.6924C20.9646 56.4716 19.6987 56.4716 18.915 55.6924L17.975 54.7517C17.1958 53.968 17.1958 52.7021 17.975 51.9184L22.215 47.6784C22.477 47.4184 22.8997 47.4184 23.1617 47.6784L25.989 50.5051C26.2483 50.7676 26.2483 51.1899 25.989 51.4524Z" fill="#B8BED1"/>
<path d="M25.9883 50.5051L23.161 47.6784C22.899 47.4184 22.4763 47.4184 22.2143 47.6784L21.6883 48.2051L23.9883 50.5051C24.2477 50.7676 24.2477 51.1899 23.9883 51.4524L19.7477 55.6924C19.6234 55.8126 19.484 55.9162 19.333 56.0004C20.1162 56.4549 21.1068 56.3281 21.7503 55.6911L25.991 51.4511C26.2487 51.188 26.2475 50.7667 25.9883 50.5051Z" fill="#ABB2C9"/>
<path d="M25.1729 47.667H25.1436C25.1489 47.6717 25.1562 47.6737 25.1609 47.6783L25.1729 47.667Z" fill="white"/>
<path d="M14.6931 25.927L18.6131 45.5203C18.861 46.7674 19.9549 47.666 21.2264 47.667H22.2324C22.0878 47.8003 22.0044 47.889 17.9751 51.9183C17.1952 52.7018 17.1952 53.9682 17.9751 54.7517C18.9878 55.765 18.9998 55.8097 19.3331 56.0003C19.6838 56.2074 20.091 56.2982 20.4964 56.2597C20.7192 56.2426 20.9375 56.1886 21.1424 56.0997C21.2109 56.0714 21.2777 56.0391 21.3424 56.003L21.3331 56.0003C20.9998 55.8083 20.9904 55.7637 19.9778 54.7503C19.1978 53.9669 19.1978 52.7004 19.9778 51.917C24.0044 47.889 24.0878 47.8003 24.2324 47.667H23.2264C21.9549 47.666 20.861 46.7674 20.6131 45.5203L16.6931 25.927C16.6153 25.5356 16.7168 25.13 16.9698 24.8215C17.2229 24.513 17.6008 24.334 17.9998 24.3337H19.3331V19.667C19.3331 18.5624 20.2285 17.667 21.3331 17.667H19.3331C18.2285 17.667 17.3331 18.5624 17.3331 19.667V24.3337H15.9998C15.6008 24.334 15.2229 24.513 14.9698 24.8215C14.7168 25.13 14.6153 25.5356 14.6931 25.927ZM23.1731 47.667L23.1611 47.6783C23.1564 47.6737 23.1491 47.6717 23.1438 47.667H23.1731Z" fill="white"/>
<path d="M16.9097 40.4316L18.2177 40.1703L19.263 45.4023L17.955 45.6636L16.9097 40.4316Z" fill="white"/>
<path d="M17.437 43.036C17.4899 43.3004 17.697 43.5068 17.9615 43.559C18.226 43.6112 18.496 43.499 18.6455 43.2746C18.795 43.0501 18.7945 42.7578 18.6444 42.5338C18.4943 42.3098 18.224 42.1983 17.9596 42.2513C17.5986 42.3237 17.3646 42.675 17.437 43.036Z" fill="#393F50"/>
<path d="M16.6667 23.6667H16C15.4014 23.6671 14.8344 23.9357 14.4548 24.3986C14.0753 24.8616 13.9231 25.4702 14.04 26.0573L16.9133 40.4213C16.9596 40.6554 17.1274 40.8469 17.3534 40.9235C17.5794 41.0001 17.8291 40.9501 18.0081 40.7923C18.1871 40.6346 18.2682 40.3932 18.2207 40.1593L15.3473 25.796C15.3053 25.6019 15.3544 25.3993 15.4807 25.246C15.6077 25.0898 15.7986 24.9994 16 25H52C52.2002 24.9998 52.3899 25.0897 52.5167 25.2447C52.6431 25.3981 52.6922 25.601 52.65 25.7953L48.7333 45.3907C48.5471 46.3257 47.7267 46.9993 46.7733 47H41.7793C45.5373 42.9896 45.6303 36.7795 41.9941 32.6583C38.3579 28.5372 32.1846 27.856 27.7373 31.0852C23.2901 34.3144 22.0269 40.3954 24.82 45.1287L23.026 46.922C22.7265 46.8428 22.4087 46.8704 22.1273 47H21.2267C20.2733 46.9993 19.4529 46.3257 19.2667 45.3907C19.1951 45.0293 18.8441 44.7944 18.4827 44.866C18.1213 44.9376 17.8864 45.2886 17.958 45.65C18.2342 47.0204 19.3353 48.0734 20.7167 48.288L17.5007 51.5053C16.4597 52.5467 16.4597 54.2347 17.5007 55.276L18.444 56.2187C19.4853 57.2597 21.1733 57.2597 22.2147 56.2187L26.458 51.9767C26.7916 51.6396 26.9211 51.1507 26.798 50.6927L28.5913 48.8993C32.2471 51.0644 36.8414 50.8417 40.2707 48.3333H46.7733C48.3616 48.3304 49.7279 47.2087 50.04 45.6513L53.9593 26.058C54.0765 25.4709 53.9245 24.8622 53.545 24.3991C53.1656 23.936 52.5987 23.6673 52 23.6667H51.3333V23C51.3333 21.5272 50.1394 20.3333 48.6667 20.3333H31.3333V19.6667C31.3333 18.1939 30.1394 17 28.6667 17H19.3333C17.8606 17 16.6667 18.1939 16.6667 19.6667V23.6667ZM21.272 55.276C20.7446 55.7799 19.9141 55.7799 19.3867 55.276L18.4433 54.3333C17.9228 53.8127 17.9228 52.9687 18.4433 52.448L22.686 48.2053L25.5147 51.034L21.272 55.276ZM25.986 49.6193L25.0433 48.6767L24.1 47.7333L25.58 46.2533C26.1185 46.9664 26.7534 47.6011 27.4667 48.1393L25.986 49.6193ZM27.4007 46.3193C23.7561 42.6743 23.7563 36.765 27.4011 33.1202C31.046 29.4755 36.9554 29.4755 40.6002 33.1202C44.2451 36.765 44.2453 42.6743 40.6007 46.3193C36.9533 49.9596 31.0473 49.9596 27.4 46.3193H27.4007ZM18 19.6667C18 18.9303 18.597 18.3333 19.3333 18.3333H28.6667C29.4031 18.3333 30 18.9303 30 19.6667V20.3333C30 21.0697 30.597 21.6667 31.3333 21.6667H48.6667C49.4031 21.6667 50 22.2636 50 23V23.6667H18V19.6667Z" fill="#252934"/>
<path d="M20.0002 26.9997C20.0002 26.6315 19.7017 26.333 19.3335 26.333H18.0002C17.632 26.333 17.3335 26.6315 17.3335 26.9997C17.3335 27.3679 17.632 27.6663 18.0002 27.6663H19.3335C19.7017 27.6663 20.0002 27.3679 20.0002 26.9997Z" fill="#393F50"/>
<path d="M32.6668 27.6663C33.035 27.6663 33.3335 27.3679 33.3335 26.9997C33.3335 26.6315 33.035 26.333 32.6668 26.333H22.0002C21.632 26.333 21.3335 26.6315 21.3335 26.9997C21.3335 27.3679 21.632 27.6663 22.0002 27.6663H32.6668Z" fill="#393F50"/>
<path d="M39.6564 34.0664C38.9537 33.3611 38.1246 32.7943 37.2124 32.3957C36.878 32.2618 36.4977 32.4177 36.3535 32.7478C36.2094 33.0779 36.3535 33.4628 36.679 33.6171C39.7135 34.9436 41.3174 38.2937 40.4479 41.4893C39.5784 44.6849 36.4981 46.7605 33.2099 46.3666C29.9216 45.9726 27.4188 43.2282 27.3287 39.9177C27.2386 36.6071 29.5884 33.7306 32.8504 33.1584C33.0902 33.1234 33.2922 32.961 33.3778 32.7342C33.4634 32.5075 33.4192 32.2521 33.2624 32.0673C33.1055 31.8825 32.8607 31.7974 32.623 31.8451C28.9958 32.4816 26.2731 35.5143 26.0298 39.1889C25.7866 42.8635 28.0857 46.2286 31.5974 47.3377C35.1091 48.4468 38.9241 47.0127 40.8355 43.865C42.747 40.7172 42.26 36.6708 39.6564 34.0664Z" fill="#393F50"/>
</g>
<defs>
<clipPath id="clip0">
<rect width="40" height="40" fill="white" transform="translate(14 17)"/>
</clipPath>
</defs>
</svg>
