<svg width="25" height="20" viewBox="0 0 25 20" fill="none" xmlns="http://www.w3.org/2000/svg">
<path d="M12.5855 6.7174C12.3539 6.40853 11.9678 6.25415 11.5046 6.25415H7.1035C6.25419 6.25415 5.55932 6.8719 5.40488 7.64396L5.32769 8.26171C5.2505 8.64778 5.40494 9.11103 5.6365 9.4199C5.86813 9.72871 6.25425 9.88315 6.71744 9.88315H11.1185C11.8906 9.88315 12.5855 9.26553 12.8171 8.49334L12.8943 7.87559C12.9715 7.48953 12.8171 7.02628 12.5855 6.7174ZM11.1957 8.18446C11.1957 8.26165 11.1184 8.33884 11.0413 8.33884H6.79469L6.87188 7.87559C6.87188 7.7984 6.94913 7.72121 7.02632 7.72121H11.2729L11.1957 8.18446Z" fill="white"/>
<path d="M23.5493 5.17319C23.1609 4.71993 22.609 4.43048 21.9403 4.34855C21.9381 4.31426 21.9345 4.28023 21.9279 4.24675C21.6191 3.08856 20.3837 2.23931 18.9939 2.23931H13.2861L11.3501 0.231688C11.1957 0.0771876 11.0413 2.7058e-09 10.8097 2.7058e-09H3.93801C2.16213 -6.24468e-05 0.926758 1.08088 0.926758 2.54794V16.2914C0.926758 17.1138 1.29908 18.0018 1.90366 18.6524C1.91284 18.6632 1.9212 18.6742 1.93051 18.6849C2.39376 19.3026 3.0887 19.6115 3.86076 19.6115H3.93795H18.994C20.6154 19.6115 22.0052 18.0673 22.314 16.6001L24.0898 7.25769C24.167 6.48563 24.0126 5.71357 23.5493 5.17319ZM2.47107 2.54813C2.47101 1.776 3.39751 1.54431 3.93801 1.54431H10.5009L12.354 3.47456C12.4914 3.61202 12.6594 3.68789 12.8308 3.70301C12.9382 3.75496 13.0635 3.7835 13.2032 3.7835H18.994C19.526 3.7835 20.0125 4.00988 20.2808 4.32388H6.40876C4.78732 4.32388 3.39751 5.40482 3.16595 6.87182L2.47101 10.6184V2.54813H2.47107ZM22.5456 7.02638L20.7698 16.3688C20.6153 17.2181 19.8433 18.0674 19.0711 18.0674H18.994H3.93801C3.639 18.0674 3.32575 17.8813 3.06584 17.6079C2.91371 17.3475 2.86962 17.0783 2.93426 16.7548L4.71007 7.18069C4.78732 6.40857 5.55939 5.86813 6.4087 5.86813L21.1558 5.94538H21.5419C21.928 5.94538 22.2368 6.02257 22.3912 6.25419C22.5456 6.40863 22.6228 6.71757 22.5456 7.02638Z" fill="white"/>
</svg>
