<svg width="16" height="16" viewBox="0 0 16 16" fill="none" xmlns="http://www.w3.org/2000/svg">
<path d="M11.1559 6.05196C11.2258 5.98682 11.2821 5.90856 11.3218 5.82165C11.3614 5.73474 11.3835 5.64087 11.3868 5.54541C11.3902 5.44995 11.3747 5.35477 11.3412 5.2653C11.3078 5.17583 11.2571 5.09382 11.1919 5.02396C11.1268 4.95409 11.0485 4.89774 10.9616 4.85812C10.8747 4.81851 10.7808 4.79639 10.6854 4.79305C10.5899 4.78971 10.4947 4.8052 10.4053 4.83864C10.3158 4.87208 10.2338 4.92282 10.1639 4.98796L8.03593 6.97196L6.05193 4.84323C5.91918 4.70726 5.73848 4.62865 5.5485 4.62422C5.35853 4.61979 5.17437 4.68989 5.03542 4.81952C4.89648 4.94915 4.81379 5.12802 4.80505 5.31784C4.79631 5.50767 4.86221 5.69338 4.98865 5.83523L6.97265 7.96323L4.84393 9.94723C4.7716 10.0117 4.71288 10.09 4.67122 10.1775C4.62957 10.265 4.60581 10.3599 4.60136 10.4567C4.5969 10.5535 4.61183 10.6502 4.64527 10.7411C4.67871 10.8321 4.72999 10.9154 4.79609 10.9863C4.86219 11.0571 4.94178 11.114 5.03018 11.1537C5.11859 11.1933 5.21403 11.2149 5.3109 11.2172C5.40777 11.2195 5.50412 11.2023 5.59428 11.1668C5.68444 11.1313 5.7666 11.0782 5.83593 11.0105L7.96393 9.02723L9.94793 11.1552C10.012 11.2289 10.0902 11.2889 10.178 11.3317C10.2657 11.3745 10.3612 11.3992 10.4587 11.4043C10.5562 11.4094 10.6537 11.3948 10.7454 11.3614C10.8372 11.328 10.9212 11.2765 10.9927 11.2099C11.0641 11.1434 11.1213 11.0631 11.1611 10.9739C11.2008 10.8848 11.2221 10.7885 11.2239 10.6909C11.2256 10.5933 11.2077 10.4963 11.1711 10.4058C11.1346 10.3153 11.0802 10.233 11.0112 10.164L9.02793 8.03596L11.1559 6.05196Z" fill="#08AA80"/>
<path fill-rule="evenodd" clip-rule="evenodd" d="M0 8C0 3.58182 3.58182 0 8 0C12.4182 0 16 3.58182 16 8C16 12.4182 12.4182 16 8 16C3.58182 16 0 12.4182 0 8ZM8 14.5455C7.14044 14.5455 6.28929 14.3762 5.49516 14.0472C4.70103 13.7183 3.97947 13.2361 3.37166 12.6283C2.76386 12.0205 2.28173 11.299 1.95279 10.5048C1.62385 9.71071 1.45455 8.85956 1.45455 8C1.45455 7.14044 1.62385 6.28929 1.95279 5.49516C2.28173 4.70103 2.76386 3.97947 3.37166 3.37166C3.97947 2.76386 4.70103 2.28173 5.49516 1.95279C6.28929 1.62385 7.14044 1.45455 8 1.45455C9.73596 1.45455 11.4008 2.14415 12.6283 3.37166C13.8558 4.59918 14.5455 6.26404 14.5455 8C14.5455 9.73596 13.8558 11.4008 12.6283 12.6283C11.4008 13.8558 9.73596 14.5455 8 14.5455Z" fill="#08AA80"/>
</svg>
