<svg width="17" height="21" viewBox="0 0 17 21" fill="none" xmlns="http://www.w3.org/2000/svg">
<path fill-rule="evenodd" clip-rule="evenodd" d="M14.7 14.175V8.925C14.7 5.7015 12.9885 3.003 9.975 2.289V1.575C9.975 0.7035 9.2715 0 8.4 0C7.5285 0 6.825 0.7035 6.825 1.575V2.289C3.822 3.003 2.1 5.691 2.1 8.925V14.175L0 16.275V17.325H16.8V16.275L14.7 14.175ZM8.40003 20.4749C9.55503 20.4749 10.5 19.5299 10.5 18.3749H6.30003C6.30003 19.5299 7.24503 20.4749 8.40003 20.4749ZM4.19997 15.225H12.6V8.92497C12.6 6.32097 11.0145 4.19997 8.39997 4.19997C5.78547 4.19997 4.19997 6.32097 4.19997 8.92497V15.225Z" fill="#155b75"/>
</svg>
