<svg width="44" height="44" viewBox="0 0 44 44" fill="none" xmlns="http://www.w3.org/2000/svg">
<path d="M38.5 5.5H5.49998C3.48331 5.5 1.83331 7.15 1.83331 9.16667V31.1667C1.83331 33.1833 3.48331 34.8333 5.49998 34.8333H14.6666V38.5H29.3333V34.8333H38.5C40.5166 34.8333 42.1483 33.1833 42.1483 31.1667L42.1666 9.16667C42.1666 7.15 40.5166 5.5 38.5 5.5ZM38.5 31.1667H5.49998V9.16667H38.5V31.1667ZM34.8333 14.6667H14.6666V18.3333H34.8333V14.6667ZM34.8333 22H14.6666V25.6667H34.8333V22ZM12.8333 14.6667H9.16665V18.3333H12.8333V14.6667ZM12.8333 22H9.16665V25.6667H12.8333V22Z" fill="#FB882C"/>
</svg>
