<svg width="56" height="56" viewBox="0 0 56 56" fill="none" xmlns="http://www.w3.org/2000/svg">
<g filter="url(#filter0_b)">
<rect width="55.04" height="55.04" rx="8" fill="white" fill-opacity="0.6"/>
</g>
<path d="M31.3152 27.6789C31.3138 27.3377 31.3144 23.9809 31.315 19.9454L31.3152 19.1977C31.3153 18.4254 31.3156 17.6372 31.3159 16.8501C31.3163 15.6812 31.3167 14.5147 31.3167 13.4066C31.3507 12.7097 31.906 12.1967 32.5292 12.1967C33.1699 12.1967 33.7421 12.7431 33.7428 13.4737C33.7428 13.4738 33.7428 13.4738 33.7428 13.4739L33.7562 31.8906L33.7562 31.8913C33.7572 32.6166 34.238 33.2132 34.8801 33.4296C35.5145 33.6436 36.2395 33.4681 36.6946 32.9468L36.6947 32.9466L39.03 30.2696L39.03 30.2697L39.0391 30.2589C39.4733 29.7468 40.1271 29.4135 40.8518 29.3604C41.4916 29.3213 42.1128 29.5124 42.5941 29.8781L34.9098 43.7756L34.9097 43.7757L30.3152 27.683M31.3152 27.6789L30.3152 27.683M31.3152 27.6789C31.3152 27.6788 31.3152 27.6786 31.3152 27.6785L30.3152 27.683M31.3152 27.6789C31.3171 28.133 31.1252 28.5547 30.8064 28.8549L30.8042 28.857C30.488 29.153 30.0719 29.3099 29.649 29.3092M30.3152 27.683C30.3159 27.8495 30.2458 28.0093 30.1209 28.1269C29.9955 28.2442 29.8258 28.3099 29.649 28.3092M29.649 29.3092C29.6509 29.3092 29.6529 29.3092 29.6548 29.3092L29.649 28.59V28.3092M29.649 29.3092C29.6485 29.3092 29.6479 29.3092 29.6474 29.3092L27.9784 19.1995L28.9784 19.1996H27.9784L27.9783 19.9708C27.9776 23.9937 27.977 27.3435 27.9784 27.6916L27.9784 27.6921C27.9805 28.1433 28.1736 28.5629 28.4942 28.8611L28.4952 28.8621C28.8112 29.1553 29.2262 29.3112 29.649 29.3092ZM29.649 28.3092L29.6483 28.4965M29.649 28.3092H29.6468M29.6483 28.4965L28.9784 27.6876C28.9792 27.8533 29.05 28.0124 29.1754 28.129C29.301 28.2456 29.4704 28.3106 29.6468 28.3092M29.6483 28.4965L29.6468 28.3092M29.6483 28.4965L29.6468 28.8713M29.6468 28.3092V28.8713M29.6468 28.8713L29.6451 29.3092C29.6456 29.3092 29.6462 29.3092 29.6468 29.3092V28.8713ZM27.9795 13.5501C27.9804 13.5675 27.9815 13.5828 27.9824 13.5954L28.9795 13.5197L27.9795 13.5195C27.9795 13.5297 27.9795 13.5399 27.9795 13.5501ZM27.9795 13.3555V13.3615V13.3704H28.9795L27.98 13.3392C27.9799 13.3446 27.9797 13.35 27.9795 13.3555Z" stroke="white" stroke-width="2"/>
<defs>
<filter id="filter0_b" x="-40" y="-40" width="135.04" height="135.04" filterUnits="userSpaceOnUse" color-interpolation-filters="sRGB">
<feFlood flood-opacity="0" result="BackgroundImageFix"/>
<feGaussianBlur in="BackgroundImage" stdDeviation="20"/>
<feComposite in2="SourceAlpha" operator="in" result="effect1_backgroundBlur"/>
<feBlend mode="normal" in="SourceGraphic" in2="effect1_backgroundBlur" result="shape"/>
</filter>
</defs>
</svg>
