<svg width="10" height="10" viewBox="0 0 10 10" fill="none" xmlns="http://www.w3.org/2000/svg">
<path d="M8.125 10H1.875C0.839375 10 0 9.16062 0 8.125V1.875C0 0.839375 0.839375 0 1.875 0H8.125C9.16062 0 10 0.839375 10 1.875V8.125C10 9.16062 9.16062 10 8.125 10Z" fill="#FFE6E2"/>
<path d="M3.95831 5.729H3.85425V5.93744H3.95831C4.01581 5.93744 4.06237 5.89088 4.06237 5.83338C4.06237 5.77588 4.01581 5.729 3.95831 5.729Z" fill="#FD907E"/>
<path d="M5.05225 5.729H4.896V6.354H5.05225C5.081 6.354 5.10443 6.33057 5.10443 6.30182V5.78119C5.10412 5.75244 5.08068 5.729 5.05225 5.729Z" fill="#FD907E"/>
<path d="M6.51025 2.5H3.48932C3.17338 2.5 2.9165 2.75688 2.9165 3.07281V6.92688C2.9165 7.24281 3.17338 7.49969 3.48932 7.49969H6.51025C6.82619 7.49969 7.08307 7.24281 7.08307 6.92688V3.07281C7.08338 2.75688 6.82619 2.5 6.51025 2.5ZM3.95838 6.25H3.85432V6.51031C3.85432 6.59656 3.78432 6.66656 3.69807 6.66656C3.61182 6.66656 3.54182 6.59656 3.54182 6.51031V5.57281C3.54182 5.48656 3.61182 5.41656 3.69807 5.41656H3.95838C4.18807 5.41656 4.37494 5.60344 4.37494 5.83313C4.37494 6.06281 4.18807 6.25 3.95838 6.25ZM5.4165 6.30219C5.4165 6.50312 5.25307 6.66687 5.05182 6.66687H4.73932C4.65307 6.66687 4.58307 6.59687 4.58307 6.51062V5.57312C4.58307 5.48687 4.65307 5.41687 4.73932 5.41687H5.05182C5.25275 5.41687 5.4165 5.58031 5.4165 5.78156V6.30219ZM6.30213 5.9375C6.38838 5.9375 6.45838 6.0075 6.45838 6.09375C6.45838 6.18 6.38838 6.25 6.30213 6.25H5.93744V6.51031C5.93744 6.59656 5.86744 6.66656 5.78119 6.66656C5.69494 6.66656 5.62494 6.59656 5.62494 6.51031V5.78125C5.62494 5.58031 5.78838 5.41656 5.98963 5.41656H6.30213C6.38838 5.41656 6.45838 5.48656 6.45838 5.57281C6.45838 5.65906 6.38838 5.72906 6.30213 5.72906H5.98963C5.96088 5.72906 5.93744 5.7525 5.93744 5.78125V5.9375H6.30213Z" fill="#FC573B"/>
</svg>
