<svg width="33" height="33" viewBox="0 0 33 33" fill="none" xmlns="http://www.w3.org/2000/svg">
<path d="M26.8125 33H6.1875C2.76994 33 0 30.2301 0 26.8125V6.1875C0 2.76994 2.76994 0 6.1875 0H26.8125C30.2301 0 33 2.76994 33 6.1875V26.8125C33 30.2301 30.2301 33 26.8125 33Z" fill="#FFE6E2"/>
<path d="M13.0641 18.906H12.7207V19.5939H13.0641C13.2539 19.5939 13.4075 19.4402 13.4075 19.2504C13.4075 19.0607 13.2539 18.906 13.0641 18.906V18.906Z" fill="#FD907E"/>
<path d="M16.6719 18.906H16.1562V20.9685H16.6719C16.7668 20.9685 16.8441 20.8912 16.8441 20.7963V19.0782C16.8431 18.9833 16.7657 18.906 16.6719 18.906V18.906Z" fill="#FD907E"/>
<path d="M21.4844 8.25H11.5153C10.4727 8.25 9.625 9.09769 9.625 10.1403V22.8587C9.625 23.9013 10.4727 24.749 11.5153 24.749H21.4844C22.527 24.749 23.3747 23.9013 23.3747 22.8587V10.1403C23.3757 9.09769 22.527 8.25 21.4844 8.25ZM13.0632 20.625H12.7198V21.484C12.7198 21.7687 12.4888 21.9997 12.2042 21.9997C11.9195 21.9997 11.6885 21.7687 11.6885 21.484V18.3903C11.6885 18.1057 11.9195 17.8747 12.2042 17.8747H13.0632C13.8212 17.8747 14.4378 18.4913 14.4378 19.2493C14.4378 20.0073 13.8212 20.625 13.0632 20.625V20.625ZM17.875 20.7972C17.875 21.4603 17.3357 22.0007 16.6715 22.0007H15.6403C15.3557 22.0007 15.1247 21.7697 15.1247 21.4851V18.3913C15.1247 18.1067 15.3557 17.8757 15.6403 17.8757H16.6715C17.3346 17.8757 17.875 18.415 17.875 19.0792V20.7972ZM20.7976 19.5938C21.0822 19.5938 21.3132 19.8248 21.3132 20.1094C21.3132 20.394 21.0822 20.625 20.7976 20.625H19.5941V21.484C19.5941 21.7687 19.3631 21.9997 19.0785 21.9997C18.7938 21.9997 18.5628 21.7687 18.5628 21.484V19.0781C18.5628 18.415 19.1022 17.8747 19.7663 17.8747H20.7976C21.0822 17.8747 21.3132 18.1057 21.3132 18.3903C21.3132 18.6749 21.0822 18.9059 20.7976 18.9059H19.7663C19.6714 18.9059 19.5941 18.9832 19.5941 19.0781V19.5938H20.7976Z" fill="#FC573B"/>
</svg>
