<svg width="24" height="17" viewBox="0 0 24 17" fill="none" xmlns="http://www.w3.org/2000/svg">
<path d="M3.57227 5.60156H4.86308V8.21839H3.57227V5.60156Z" fill="white"/>
<path d="M6.15625 5.60156H7.44707V8.21839H6.15625V5.60156Z" fill="white"/>
<path d="M3.57227 9.50977H4.86308V12.1266H3.57227V9.50977Z" fill="white"/>
<path d="M6.15625 9.50977H7.44707V12.1266H6.15625V9.50977Z" fill="white"/>
<path d="M11.3633 8.8291H12.6541V11.4459H11.3633V8.8291Z" fill="white"/>
<path d="M11.3633 4.9209H12.6541V7.53773H11.3633V4.9209Z" fill="white"/>
<path d="M15.2772 3.02011V1.72929H15.9657V0.438477H8.04865V1.72929H8.73709V3.02011H0.992188V16.824H23.0221V3.02011H15.2772ZM7.44627 15.5332V13.417H6.15545V15.5332H4.86464V13.417H3.57382V15.5332H2.283V4.31093H8.73709V15.5332H7.44627ZM12.6526 15.5332V12.7364H11.3617V15.5332H10.0279V1.72929H13.9864V15.5332H12.6526ZM21.7313 15.5332H20.4405V13.417H19.1497V15.5332H17.8589V13.417H16.568V15.5332H15.2772V4.31093H21.7313V15.5332Z" fill="white"/>
<path d="M19.1504 5.60156H20.4412V8.21839H19.1504V5.60156Z" fill="white"/>
<path d="M16.5684 5.60156H17.8592V8.21839H16.5684V5.60156Z" fill="white"/>
<path d="M19.1504 9.50977H20.4412V12.1266H19.1504V9.50977Z" fill="white"/>
<path d="M16.5684 9.50977H17.8592V12.1266H16.5684V9.50977Z" fill="white"/>
</svg>
