<svg width="190" height="191" viewBox="0 0 190 191" fill="none" xmlns="http://www.w3.org/2000/svg">
<path d="M119.777 186.624C100.592 191.895 80.2319 190.975 61.5993 183.997C42.9666 177.019 27.0119 164.338 16.0087 147.76L27.0315 140.444C36.4942 154.7 50.2153 165.606 66.2394 171.608C82.2635 177.609 99.7729 178.399 116.273 173.866L119.777 186.624Z" fill="#01A0E3"/>
<path d="M188.616 84.6293C187.059 71.19 182.636 58.2414 175.643 46.6593C168.651 35.0772 159.253 25.1314 148.085 17.4946C136.918 9.85782 124.24 4.70797 110.911 2.3933C97.5811 0.0786338 83.9098 0.653109 70.8213 4.07789L74.1703 16.877C85.4265 13.9317 97.1838 13.4376 108.647 15.4282C120.111 17.4189 131.013 21.8477 140.618 28.4154C150.222 34.983 158.304 43.5364 164.317 53.497C170.331 63.4576 174.135 74.5934 175.474 86.1512L188.616 84.6293Z" fill="#00A69F"/>
<path d="M188.637 84.8127C190.397 100.277 188.31 115.937 182.562 130.4C176.814 144.864 167.582 157.684 155.688 167.722L147.155 157.611C157.385 148.979 165.324 137.953 170.268 125.514C175.211 113.075 177.005 99.6082 175.492 86.3089L188.637 84.8127Z" fill="#E5C61B"/>
<path d="M119.247 186.768C132.619 183.178 145.038 176.693 155.626 167.774L147.103 157.655C137.996 165.326 127.316 170.903 115.817 173.99L119.247 186.768Z" fill="#01A0E3"/>
<path d="M16.0714 147.855C7.3377 134.731 2.02591 119.631 0.619744 103.929C-0.786424 88.228 1.75771 72.4242 8.02046 57.9574L20.1616 63.2134C14.7757 75.6548 12.5877 89.2461 13.797 102.749C15.0063 116.252 19.5744 129.239 27.0854 140.525L16.0714 147.855Z" fill="#01A0E3"/>
<path d="M7.97621 58.0598C13.6716 44.8608 22.3032 33.1352 33.214 23.7753C44.1247 14.4155 57.0271 7.66829 70.9389 4.0472L74.2715 16.8506C62.3073 19.9647 51.2113 25.7674 41.828 33.8168C32.4448 41.8662 25.0216 51.9503 20.1236 63.3014L7.97621 58.0598Z" fill="#01A0E3"/>
<path d="M81.792 116.128C80.32 116.128 79.2053 115.744 78.448 114.976C77.6907 114.208 77.312 113.077 77.312 111.584V104.72H78.608V111.696C78.608 112.795 78.8747 113.621 79.408 114.176C79.952 114.731 80.7467 115.008 81.792 115.008C82.8373 115.008 83.6267 114.731 84.16 114.176C84.6933 113.621 84.96 112.795 84.96 111.696V104.72H86.272V111.584C86.272 113.067 85.888 114.197 85.12 114.976C84.3627 115.744 83.2533 116.128 81.792 116.128ZM91.4181 116.112C90.1061 116.112 89.0661 115.776 88.2981 115.104L88.7301 114.144C89.1461 114.475 89.5675 114.715 89.9941 114.864C90.4315 115.003 90.9221 115.072 91.4661 115.072C92.0421 115.072 92.4795 114.976 92.7781 114.784C93.0875 114.581 93.2421 114.293 93.2421 113.92C93.2421 113.611 93.1408 113.365 92.9381 113.184C92.7355 113.003 92.3995 112.859 91.9301 112.752L90.6181 112.448C89.9568 112.299 89.4501 112.043 89.0981 111.68C88.7461 111.317 88.5701 110.869 88.5701 110.336C88.5701 109.643 88.8421 109.083 89.3861 108.656C89.9301 108.229 90.6555 108.016 91.5621 108.016C92.1061 108.016 92.6235 108.107 93.1141 108.288C93.6048 108.459 94.0155 108.709 94.3461 109.04L93.9141 109.984C93.1995 109.376 92.4155 109.072 91.5621 109.072C91.0181 109.072 90.5915 109.179 90.2821 109.392C89.9835 109.595 89.8341 109.883 89.8341 110.256C89.8341 110.565 89.9248 110.816 90.1061 111.008C90.2981 111.189 90.6021 111.328 91.0181 111.424L92.3461 111.744C93.0715 111.915 93.6101 112.176 93.9621 112.528C94.3141 112.869 94.4901 113.317 94.4901 113.872C94.4901 114.555 94.2128 115.099 93.6581 115.504C93.1141 115.909 92.3675 116.112 91.4181 116.112ZM102.994 112.304H97.2976C97.3403 113.211 97.5856 113.899 98.0336 114.368C98.4816 114.827 99.1163 115.056 99.9376 115.056C100.844 115.056 101.676 114.747 102.434 114.128L102.866 115.072C102.524 115.392 102.087 115.648 101.554 115.84C101.02 116.021 100.476 116.112 99.9216 116.112C98.7056 116.112 97.7456 115.755 97.0416 115.04C96.3483 114.325 96.0016 113.339 96.0016 112.08C96.0016 111.28 96.1563 110.576 96.4656 109.968C96.775 109.349 97.207 108.869 97.7616 108.528C98.327 108.187 98.967 108.016 99.6816 108.016C100.716 108.016 101.527 108.357 102.114 109.04C102.7 109.712 102.994 110.64 102.994 111.824V112.304ZM99.6976 109.024C99.015 109.024 98.4656 109.237 98.0496 109.664C97.6443 110.091 97.4043 110.693 97.3296 111.472H101.858C101.836 110.683 101.639 110.08 101.266 109.664C100.892 109.237 100.37 109.024 99.6976 109.024ZM109.319 109.136L108.471 109.216C107.671 109.291 107.09 109.541 106.727 109.968C106.375 110.395 106.199 110.923 106.199 111.552V116H104.903V108.208H106.167V109.568C106.604 108.661 107.463 108.155 108.743 108.048L109.207 108.016L109.319 109.136ZM113.106 116.112C111.794 116.112 110.754 115.776 109.986 115.104L110.418 114.144C110.834 114.475 111.255 114.715 111.682 114.864C112.119 115.003 112.61 115.072 113.154 115.072C113.73 115.072 114.167 114.976 114.466 114.784C114.775 114.581 114.93 114.293 114.93 113.92C114.93 113.611 114.828 113.365 114.626 113.184C114.423 113.003 114.087 112.859 113.618 112.752L112.306 112.448C111.644 112.299 111.138 112.043 110.786 111.68C110.434 111.317 110.258 110.869 110.258 110.336C110.258 109.643 110.53 109.083 111.074 108.656C111.618 108.229 112.343 108.016 113.25 108.016C113.794 108.016 114.311 108.107 114.802 108.288C115.292 108.459 115.703 108.709 116.034 109.04L115.602 109.984C114.887 109.376 114.103 109.072 113.25 109.072C112.706 109.072 112.279 109.179 111.97 109.392C111.671 109.595 111.522 109.883 111.522 110.256C111.522 110.565 111.612 110.816 111.794 111.008C111.986 111.189 112.29 111.328 112.706 111.424L114.034 111.744C114.759 111.915 115.298 112.176 115.65 112.528C116.002 112.869 116.178 113.317 116.178 113.872C116.178 114.555 115.9 115.099 115.346 115.504C114.802 115.909 114.055 116.112 113.106 116.112Z" fill="#0A1128"/>
<path d="M81.6742 94.024V96H73.4092V94.024H76.3162V85.398L74.0172 86.785L73.0482 84.999L77.0192 82.605H78.7672V94.024H81.6742ZM86.3217 93.378V95.107C86.3217 95.7657 86.2077 96.361 85.9797 96.893C85.7517 97.4377 85.3654 97.9823 84.8207 98.527L83.8517 97.767C84.4471 97.1337 84.7891 96.5447 84.8777 96H83.6617V93.378H86.3217ZM92.6116 82.434C94.309 82.434 95.6136 83.0103 96.5256 84.163C97.4503 85.303 97.9126 86.937 97.9126 89.065C97.9126 90.5343 97.691 91.8073 97.2476 92.884C96.817 93.948 96.19 94.765 95.3666 95.335C94.5433 95.8923 93.568 96.171 92.4406 96.171C91.6426 96.171 90.8636 96.038 90.1036 95.772C89.3436 95.4933 88.685 95.107 88.1276 94.613L88.9446 92.827C90.1226 93.7517 91.2563 94.214 92.3456 94.214C93.3463 94.214 94.1126 93.796 94.6446 92.96C95.1893 92.124 95.4743 90.9143 95.4996 89.331C95.2083 89.901 94.7713 90.357 94.1886 90.699C93.606 91.0283 92.9536 91.193 92.2316 91.193C91.4336 91.193 90.7243 91.0157 90.1036 90.661C89.483 90.2937 88.9953 89.787 88.6406 89.141C88.2986 88.4823 88.1276 87.735 88.1276 86.899C88.1276 86.0377 88.3176 85.2713 88.6976 84.6C89.0903 83.916 89.6223 83.384 90.2936 83.004C90.9776 82.624 91.7503 82.434 92.6116 82.434ZM92.7446 89.255C93.454 89.255 94.024 89.0333 94.4546 88.59C94.898 88.134 95.1196 87.545 95.1196 86.823C95.1196 86.0883 94.898 85.4993 94.4546 85.056C94.024 84.6 93.454 84.372 92.7446 84.372C92.048 84.372 91.4906 84.6 91.0726 85.056C90.6546 85.4993 90.4456 86.0883 90.4456 86.823C90.4456 87.5577 90.6546 88.1467 91.0726 88.59C91.4906 89.0333 92.048 89.255 92.7446 89.255ZM105.163 87.431C105.999 87.431 106.734 87.6147 107.367 87.982C108.013 88.3367 108.507 88.837 108.849 89.483C109.204 90.129 109.381 90.87 109.381 91.706C109.381 92.5927 109.179 93.3717 108.773 94.043C108.368 94.7143 107.792 95.2337 107.044 95.601C106.31 95.9683 105.442 96.152 104.441 96.152C103.605 96.152 102.776 96.0127 101.952 95.734C101.142 95.4427 100.47 95.0627 99.9382 94.594L100.755 92.808C101.971 93.7327 103.213 94.195 104.479 94.195C105.315 94.195 105.955 93.986 106.398 93.568C106.842 93.15 107.063 92.5547 107.063 91.782C107.063 91.0347 106.835 90.4457 106.379 90.015C105.936 89.5717 105.328 89.35 104.555 89.35C104.036 89.35 103.542 89.4513 103.073 89.654C102.617 89.844 102.206 90.1227 101.838 90.49H100.375V82.605H108.773V84.505H102.769V88.115C103.415 87.659 104.213 87.431 105.163 87.431ZM115.834 96.171C114.25 96.171 113.041 95.5883 112.205 94.423C111.369 93.245 110.951 91.535 110.951 89.293C110.951 87.0763 111.369 85.3853 112.205 84.22C113.041 83.0547 114.25 82.472 115.834 82.472C117.417 82.472 118.627 83.0547 119.463 84.22C120.299 85.3853 120.717 87.0763 120.717 89.293C120.717 91.5223 120.299 93.226 119.463 94.404C118.627 95.582 117.417 96.171 115.834 96.171ZM115.834 94.252C116.695 94.252 117.322 93.8593 117.715 93.074C118.107 92.276 118.304 91.0157 118.304 89.293C118.304 87.583 118.107 86.3417 117.715 85.569C117.322 84.7837 116.695 84.391 115.834 84.391C114.972 84.391 114.345 84.7837 113.953 85.569C113.56 86.3417 113.364 87.583 113.364 89.293C113.364 91.0157 113.56 92.276 113.953 93.074C114.345 93.8593 114.972 94.252 115.834 94.252Z" fill="#0A1128"/>
</svg>
