<svg width="30" height="22" viewBox="0 0 30 22" fill="none" xmlns="http://www.w3.org/2000/svg">
<path d="M3.46597 6.93246H5.19908V10.4459H3.46597V6.93246Z" fill="white"/>
<path d="M6.93246 6.93246H8.66558V10.4459H6.93246V6.93246Z" fill="white"/>
<path d="M3.46597 12.179H5.19908V15.6924H3.46597V12.179Z" fill="white"/>
<path d="M6.93246 12.179H8.66558V15.6924H6.93246V12.179Z" fill="white"/>
<path d="M13.9235 11.2651H15.6566V14.7785H13.9235V11.2651Z" fill="white"/>
<path d="M13.9235 6.01831H15.6566V9.53179H13.9235V6.01831Z" fill="white"/>
<path d="M19.1798 3.46622V1.73311H20.1041V0H9.47434V1.73311H10.3987V3.46622H0V22H29.5784V3.46622H19.1798ZM8.66556 20.2669V17.4256H6.93245V20.2669H5.19933V17.4256H3.46622V20.2669H1.73311V5.19933H10.3987V20.2669H8.66556ZM15.6558 20.2669V16.5118H13.9227V20.2669H12.1318V1.73311H17.4467V20.2669H15.6558ZM27.8453 20.2669H26.1122V17.4256H24.3791V20.2669H22.646V17.4256H20.9129V20.2669H19.1798V5.19933H27.8453V20.2669Z" fill="white"/>
<path d="M24.3794 6.93246H26.1125V10.4459H24.3794V6.93246Z" fill="white"/>
<path d="M20.9118 6.93246H22.6449V10.4459H20.9118V6.93246Z" fill="white"/>
<path d="M24.3794 12.179H26.1125V15.6924H24.3794V12.179Z" fill="white"/>
<path d="M20.9118 12.179H22.6449V15.6924H20.9118V12.179Z" fill="white"/>
</svg>
