<svg width="319" height="204" viewBox="0 0 319 204" fill="none" xmlns="http://www.w3.org/2000/svg">
<path fill-rule="evenodd" clip-rule="evenodd" d="M216.794 59.537C222.256 67.2668 226.913 75.6142 234.484 81.8412C247.415 92.4793 267.072 95.2058 277.893 108.067C289.501 121.863 284.391 141.409 271.955 152.972C263.681 160.662 252.549 165.585 240.983 168.536C215.93 174.927 48.8043 167.833 40.5113 164.17C29.4021 159.267 24.4215 149.882 25.2246 139.266C26.5405 121.892 41.3409 107.732 57.6063 98.1166C73.8716 88.5014 92.3734 81.8488 107.549 70.9366C116.225 64.6969 123.624 57.197 131.904 50.5519C138.805 45.0156 146.496 40.102 155.265 37.133C177.886 29.4739 204.703 42.4243 216.794 59.537Z" fill="#CBE7E4"/>
<path fill-rule="evenodd" clip-rule="evenodd" d="M213.606 183.158L212.094 187.426L208.906 185.137V138.359H213.606V183.158Z" fill="#F4C843"/>
<path fill-rule="evenodd" clip-rule="evenodd" d="M213.606 183.158L212.094 187.426L208.906 185.137V138.359H213.606V183.158Z" stroke="#121311" stroke-width="0.75" stroke-linecap="round" stroke-linejoin="round"/>
<path fill-rule="evenodd" clip-rule="evenodd" d="M90.6436 180.528H95.3451V136.992H90.6436V180.528Z" fill="#FFFFFE"/>
<path fill-rule="evenodd" clip-rule="evenodd" d="M90.6436 180.528H95.3451V136.992H90.6436V180.528Z" stroke="#121311" stroke-width="0.75" stroke-linecap="round" stroke-linejoin="round"/>
<path fill-rule="evenodd" clip-rule="evenodd" d="M137.067 136.739H49.026C48.3277 136.739 47.7632 136.173 47.7632 135.476V108.528C47.7632 107.83 48.3277 107.266 49.026 107.266H137.067C137.765 107.266 138.33 107.83 138.33 108.528V135.476C138.33 136.173 137.765 136.739 137.067 136.739Z" fill="#FFFFFE"/>
<path fill-rule="evenodd" clip-rule="evenodd" d="M137.067 136.739H49.026C48.3277 136.739 47.7632 136.173 47.7632 135.476V108.528C47.7632 107.83 48.3277 107.266 49.026 107.266H137.067C137.765 107.266 138.33 107.83 138.33 108.528V135.476C138.33 136.173 137.765 136.739 137.067 136.739ZM112.51 118.899C116.686 118.621 120.466 121.166 123.873 123.597L112.51 118.899ZM107.345 120.438C107.707 120.269 108.072 120.106 108.44 119.953L107.345 120.438ZM78.2821 121.297C81.0692 119.681 83.7502 117.752 86.8353 118.204C90.447 118.733 92.8742 122.393 96.4013 123.333C99.1404 124.063 102.023 123.022 104.576 121.789L78.2821 121.297ZM61.7125 118.236C64.5488 122.599 70.5776 124.565 75.4408 122.711L61.7125 118.236Z" stroke="#121311" stroke-width="0.75" stroke-linecap="round" stroke-linejoin="round"/>
<path fill-rule="evenodd" clip-rule="evenodd" d="M53.9207 160.756H64.065V107.688H53.9207V160.756Z" fill="#F4C843"/>
<path fill-rule="evenodd" clip-rule="evenodd" d="M53.9207 160.756H64.065V107.688H53.9207V160.756Z" stroke="#121311" stroke-width="0.75" stroke-linecap="round" stroke-linejoin="round"/>
<path fill-rule="evenodd" clip-rule="evenodd" d="M54.3808 114.368L64.1021 107.688V114.739L54.1699 121.512L54.3808 114.368Z" fill="#121311"/>
<path fill-rule="evenodd" clip-rule="evenodd" d="M54.3808 127.356L64.1021 120.676V127.727L54.1699 134.5L54.3808 127.356Z" fill="#121311"/>
<path fill-rule="evenodd" clip-rule="evenodd" d="M54.3808 141.218L64.1021 134.539V141.589L54.1699 148.362L54.3808 141.218Z" fill="#121311"/>
<path fill-rule="evenodd" clip-rule="evenodd" d="M54.3808 153.958L64.1021 147.277V154.329L54.1699 161.102L54.3808 153.958Z" fill="#121311"/>
<path fill-rule="evenodd" clip-rule="evenodd" d="M59.6775 202.386C56.5634 199.657 56.3954 194.67 59.3202 191.777C62.2449 188.883 67.7761 188.564 71.0873 191.097C70.2209 188.363 70.9547 185.095 73.4437 183.346C75.934 181.597 80.1708 182.034 81.6496 184.546C81.7847 180.688 82.872 176.749 85.5025 173.702C88.133 170.656 92.4885 168.662 96.7241 169.258C100.845 169.839 104.267 172.799 105.715 176.319C107.165 179.842 106.833 183.811 105.479 187.363C108.009 185.87 111.535 186.171 114.02 187.723C116.506 189.274 118.009 191.884 118.527 194.566C119.045 197.248 118.666 200.012 117.988 202.665" fill="#23C3B4"/>
<path d="M59.6775 202.386C56.5634 199.657 56.3954 194.67 59.3202 191.777C62.2449 188.883 67.7761 188.564 71.0873 191.097C70.2209 188.363 70.9547 185.095 73.4437 183.346C75.934 181.597 80.1708 182.034 81.6496 184.546C81.7847 180.688 82.872 176.749 85.5025 173.702C88.133 170.656 92.4885 168.662 96.7241 169.258C100.845 169.839 104.267 172.799 105.715 176.319C107.165 179.842 106.833 183.811 105.479 187.363C108.009 185.87 111.535 186.171 114.02 187.723C116.506 189.274 118.009 191.884 118.527 194.566C119.045 197.248 118.666 200.012 117.988 202.665" stroke="#1EA896" stroke-width="0.75" stroke-linecap="round" stroke-linejoin="round"/>
<path fill-rule="evenodd" clip-rule="evenodd" d="M117.956 202.668L112.82 202.638C112.79 201.866 112.731 201.095 112.583 200.322C112.047 197.65 110.535 195.038 108.07 193.465C105.575 191.92 102.043 191.625 99.5189 193.107C100.885 189.576 101.211 185.597 99.7563 182.064C98.3028 178.561 94.8881 175.592 90.7611 175.027C88.3264 174.673 85.8639 175.176 83.7246 176.245C84.2297 175.354 84.7942 174.493 85.4774 173.691C88.1193 170.664 92.4533 168.675 96.699 169.269C100.826 169.833 104.241 172.801 105.695 176.334C107.149 179.838 106.823 183.815 105.457 187.378C107.981 185.864 111.513 186.161 114.007 187.735C116.471 189.278 117.987 191.891 118.519 194.563C119.025 197.265 118.639 200.025 117.956 202.668Z" fill="#21BAAC"/>
<path d="M3.42603 202.799H38.0959M59.6285 202.386C56.5144 199.657 56.3464 194.67 59.2711 191.777C62.1959 188.883 67.7271 188.564 71.0382 191.097C70.1719 188.363 70.9056 185.095 73.3947 183.346C75.885 181.597 80.1218 182.034 81.6006 184.546C81.7357 180.688 82.823 176.749 85.4535 173.702C88.084 170.656 92.4395 168.662 96.675 169.258C100.796 169.839 104.218 172.799 105.666 176.319C107.116 179.842 106.784 183.811 105.43 187.363C107.96 185.87 111.486 186.171 113.971 187.723C116.457 189.274 117.96 191.884 118.478 194.566C118.996 197.248 118.617 200.012 117.939 202.665L59.6285 202.386ZM230.514 202.799H318.122H230.514ZM223.896 202.799H226.308H223.896ZM45.5176 202.799H219.752H45.5176Z" stroke="#121311" stroke-width="0.75" stroke-linecap="round" stroke-linejoin="round"/>
<path fill-rule="evenodd" clip-rule="evenodd" d="M194.859 202.821L197.329 191.449L194.859 202.821Z" fill="#FFFFFE"/>
<path d="M194.859 202.821L197.329 191.449" stroke="#121311" stroke-width="0.75" stroke-linecap="round" stroke-linejoin="round"/>
<path fill-rule="evenodd" clip-rule="evenodd" d="M197.309 191.447C197.881 188.117 200.707 185.297 204.039 184.734C207.37 184.17 210.967 185.904 212.602 188.861C212.663 183.799 215.096 178.705 219.305 175.893C223.514 173.079 229.455 172.867 233.592 175.784C237.731 178.699 239.489 184.742 237.152 189.234C240.729 187.966 245.001 188.972 247.637 191.699C250.274 194.426 251.134 198.732 249.746 202.262" fill="#FFFFFE"/>
<path d="M197.309 191.447C197.881 188.117 200.707 185.297 204.039 184.734C207.37 184.17 210.967 185.904 212.602 188.861C212.663 183.799 215.096 178.705 219.305 175.893C223.514 173.079 229.455 172.867 233.592 175.784C237.731 178.699 239.489 184.742 237.152 189.234C240.729 187.966 245.001 188.972 247.637 191.699C250.274 194.426 251.134 198.732 249.746 202.262" stroke="#121311" stroke-width="0.75" stroke-linecap="round" stroke-linejoin="round"/>
<path fill-rule="evenodd" clip-rule="evenodd" d="M276.007 55.0255C276.007 56.9096 274.48 58.4364 272.596 58.4364C270.713 58.4364 269.185 56.9096 269.185 55.0255C269.185 53.1413 270.713 51.6133 272.596 51.6133C274.48 51.6133 276.007 53.1413 276.007 55.0255ZM289.169 168.563C289.169 170.447 287.641 171.975 285.757 171.975C283.874 171.975 282.346 170.447 282.346 168.563C282.346 166.68 283.874 165.152 285.757 165.152C287.641 165.152 289.169 166.68 289.169 168.563Z" stroke="#04aed4"/>
<path fill-rule="evenodd" clip-rule="evenodd" d="M263.131 136.889C263.131 139.159 261.291 140.997 259.023 140.997C256.755 140.997 254.915 139.159 254.915 136.889C254.915 134.621 256.755 132.781 259.023 132.781C261.291 132.781 263.131 134.621 263.131 136.889Z" stroke="#FFFFFE"/>
<path fill-rule="evenodd" clip-rule="evenodd" d="M7.82311 156.669C7.82311 158.554 6.29634 160.08 4.41219 160.08C2.52804 160.08 1 158.554 1 156.669C1 154.785 2.52804 153.259 4.41219 153.259C6.29634 153.259 7.82311 154.785 7.82311 156.669ZM23.4621 49.9864C23.4621 51.8693 21.9353 53.3973 20.0511 53.3973C18.167 53.3973 16.639 51.8693 16.639 49.9864C16.639 48.1022 18.167 46.5742 20.0511 46.5742C21.9353 46.5742 23.4621 48.1022 23.4621 49.9864Z" stroke="#04aed4"/>
<path fill-rule="evenodd" clip-rule="evenodd" d="M247.594 58.0383C246.256 58.0383 245.069 58.5725 244.149 59.4628C243.616 56.2868 241.032 53.9114 237.915 53.9114C234.797 53.9114 232.184 56.3461 231.71 59.5524C230.672 58.8402 229.424 58.4247 228.088 58.4247C224.946 58.4247 222.308 60.7559 221.601 63.8928C221.537 64.1757 221.772 64.451 222.062 64.451H252.699C252.709 64.4422 252.716 64.4371 252.724 64.4295C253.226 61.0237 250.713 58.0383 247.594 58.0383ZM82.08 21.6699C80.7439 21.6699 79.5569 22.2041 78.6363 23.0944C78.1021 19.9184 75.5183 17.543 72.4016 17.543C69.285 17.543 66.6722 19.9777 66.1961 23.184C65.158 22.4705 63.9103 22.0551 62.5743 22.0551C59.4336 22.0551 56.7955 24.3875 56.0883 27.5244C56.0239 27.8073 56.2588 28.0826 56.548 28.0826H87.1869C87.1958 28.0737 87.2021 28.0687 87.2122 28.0611C87.7123 24.6553 85.1992 21.6699 82.08 21.6699ZM31.362 90.9428C30.0259 90.9428 28.8389 91.4769 27.9183 92.3685C27.3841 89.1912 24.8016 86.8171 21.6836 86.8171C18.567 86.8171 15.9542 89.2506 15.4781 92.4569C14.44 91.7447 13.1936 91.3292 11.8575 91.3292C8.71559 91.3292 6.07753 93.6604 5.37034 96.7973C5.30593 97.0801 5.54082 97.3554 5.83127 97.3554H36.4677C36.4778 97.3479 36.4841 97.3416 36.4929 97.334C36.9955 93.9281 34.4812 90.9428 31.362 90.9428ZM262.913 83.7206H281.468H262.913ZM290.621 91.1436H313.383H290.621ZM279.21 91.1436H284.808H279.21ZM38.055 66.1331H56.6111H38.055ZM65.7642 73.556H88.5255H65.7642ZM54.3532 73.556H59.9514H54.3532Z" stroke="#121311" stroke-width="0.75" stroke-linecap="round" stroke-linejoin="round"/>
<path fill-rule="evenodd" clip-rule="evenodd" d="M146.169 168.417H150.869V94.9336H146.169V168.417Z" fill="#FFFFFE"/>
<path fill-rule="evenodd" clip-rule="evenodd" d="M146.169 168.417H150.869V94.9336H146.169V168.417Z" stroke="#121311" stroke-width="0.75" stroke-linecap="round" stroke-linejoin="round"/>
<path fill-rule="evenodd" clip-rule="evenodd" d="M113.417 202.786C111.546 199.231 111.36 193.851 112.084 190.101C112.809 186.347 114.912 182.698 118.387 180.528C121.865 178.359 126.795 177.939 130.334 180.026C128.441 175.058 127.976 169.505 130.003 164.581C132.031 159.656 136.816 155.514 142.581 154.702C148.505 153.869 154.594 156.657 158.274 160.919C161.953 165.18 163.473 170.691 163.662 176.086C165.731 172.572 171.659 171.96 175.139 174.407C178.622 176.853 179.649 181.424 178.438 185.247C183.068 181.704 190.805 182.151 194.895 186.198C198.984 190.246 199.255 198.982 194.901 202.798L113.417 202.786Z" fill="#23C3B4"/>
<path fill-rule="evenodd" clip-rule="evenodd" d="M113.417 202.786C111.546 199.231 111.36 193.851 112.084 190.101C112.809 186.347 114.912 182.698 118.387 180.528C121.865 178.359 126.795 177.939 130.334 180.026C128.441 175.058 127.976 169.505 130.003 164.581C132.031 159.656 136.816 155.514 142.581 154.702C148.505 153.869 154.594 156.657 158.274 160.919C161.953 165.18 163.473 170.691 163.662 176.086C165.731 172.572 171.659 171.96 175.139 174.407C178.622 176.853 179.649 181.424 178.438 185.247C183.068 181.704 190.805 182.151 194.895 186.198C198.984 190.246 199.255 198.982 194.901 202.798L113.417 202.786Z" stroke="#121311" stroke-width="0.75" stroke-linecap="round" stroke-linejoin="round"/>
<path fill-rule="evenodd" clip-rule="evenodd" d="M194.945 202.755C195.42 199.044 194.351 194.946 191.887 192.513C187.82 188.474 180.071 188.03 175.439 191.562C176.656 187.733 175.618 183.16 172.144 180.727C168.67 178.262 162.734 178.886 160.655 182.389C160.477 177.014 158.963 171.493 155.28 167.217C151.599 162.973 145.514 160.182 139.576 161.013C135.36 161.606 131.649 163.982 129.155 167.188C129.363 166.298 129.631 165.436 129.987 164.577C132.005 159.646 136.785 155.521 142.545 154.69C148.482 153.858 154.568 156.648 158.249 160.923C161.932 165.169 163.445 170.691 163.624 176.095C165.701 172.561 171.639 171.968 175.112 174.403C178.586 176.866 179.625 181.438 178.409 185.239C183.04 181.706 190.787 182.151 194.855 186.189C198.923 190.226 199.219 198.895 194.945 202.755Z" fill="#20B6A8"/>
<path fill-rule="evenodd" clip-rule="evenodd" d="M195.737 51.968L151.238 96.4678C149.758 97.9478 147.359 97.9478 145.879 96.4678L101.38 51.968C99.8995 50.488 99.8995 48.0899 101.38 46.6098L145.879 2.11003C147.359 0.629989 149.758 0.629989 151.238 2.11003L195.737 46.6098C197.217 48.0899 197.217 50.488 195.737 51.968Z" fill="#F0E356"/>
<path fill-rule="evenodd" clip-rule="evenodd" d="M195.737 51.968L151.238 96.4678C149.758 97.9478 147.359 97.9478 145.879 96.4678L101.38 51.968C99.8995 50.488 99.8995 48.0899 101.38 46.6098L145.879 2.11003C147.359 0.629989 149.758 0.629989 151.238 2.11003L195.737 46.6098C197.217 48.0899 197.217 50.488 195.737 51.968Z" stroke="#121311" stroke-width="0.75" stroke-linecap="round" stroke-linejoin="round"/>
<path fill-rule="evenodd" clip-rule="evenodd" d="M195.737 51.968L151.238 96.4678C149.758 97.9478 147.359 97.9478 145.879 96.4678L101.38 51.968C99.8995 50.488 99.8995 48.0899 101.38 46.6098L145.879 2.11003C147.359 0.629989 149.758 0.629989 151.238 2.11003L195.737 46.6098C197.217 48.0899 197.217 50.488 195.737 51.968Z" fill="#F4C843"/>
<path fill-rule="evenodd" clip-rule="evenodd" d="M195.737 51.968L151.238 96.4678C149.758 97.9478 147.359 97.9478 145.879 96.4678L101.38 51.968C99.8995 50.488 99.8995 48.0899 101.38 46.6098L145.879 2.11003C147.359 0.629989 149.758 0.629989 151.238 2.11003L195.737 46.6098C197.217 48.0899 197.217 50.488 195.737 51.968Z" stroke="#121311" stroke-width="0.75" stroke-linecap="round" stroke-linejoin="round"/>
<path fill-rule="evenodd" clip-rule="evenodd" d="M192.085 55.5913L154.827 92.8513C151.59 96.0866 148.447 100.682 142.981 93.4738C143.248 93.2958 143.456 93.0887 143.693 92.8513L180.952 55.5913C184.425 52.1185 184.425 46.4774 180.952 43.0034L143.693 5.71564C143.456 5.47697 143.248 5.26986 142.981 5.06149C148.184 -2.23896 151.59 2.479 154.827 5.71564L192.085 43.0034C195.559 46.4774 199.802 48.8528 192.085 55.5913Z" fill="#EEAD44"/>
<path fill-rule="evenodd" clip-rule="evenodd" d="M182.838 130.209L206.336 90.6365C208.33 87.2774 213.191 87.2774 215.187 90.6365L238.683 130.209C240.721 133.64 238.249 137.984 234.258 137.984H187.264C183.272 137.984 180.801 133.64 182.838 130.209Z" fill="#FFFFFE"/>
<path fill-rule="evenodd" clip-rule="evenodd" d="M182.838 130.209L206.336 90.6365C208.33 87.2774 213.191 87.2774 215.187 90.6365L238.683 130.209C240.721 133.64 238.249 137.984 234.258 137.984H187.264C183.272 137.984 180.801 133.64 182.838 130.209Z" stroke="#121311" stroke-width="0.75" stroke-linecap="round" stroke-linejoin="round"/>
<path fill-rule="evenodd" clip-rule="evenodd" d="M147.778 52.9642C146.785 52.9642 145.955 52.2027 145.869 51.2126L144.437 34.6644C144.34 33.5456 145.224 32.582 146.346 32.582H149.211C150.334 32.582 151.218 33.5456 151.12 34.6644L149.689 51.2126C149.602 52.2027 148.774 52.9642 147.778 52.9642Z" fill="black"/>
<path fill-rule="evenodd" clip-rule="evenodd" d="M147.778 52.9642C146.785 52.9642 145.955 52.2027 145.869 51.2126L144.437 34.6644C144.34 33.5456 145.224 32.582 146.346 32.582H149.211C150.334 32.582 151.218 33.5456 151.12 34.6644L149.689 51.2126C149.602 52.2027 148.774 52.9642 147.778 52.9642Z" stroke="#121311" stroke-width="0.75" stroke-linecap="round" stroke-linejoin="round"/>
<path fill-rule="evenodd" clip-rule="evenodd" d="M147.769 61.9099C146.381 61.9099 145.252 60.781 145.252 59.3931C145.252 58.004 146.381 56.875 147.769 56.875C149.158 56.875 150.287 58.004 150.287 59.3931C150.287 60.781 149.158 61.9099 147.769 61.9099Z" fill="black"/>
<path fill-rule="evenodd" clip-rule="evenodd" d="M147.785 56.3945C146.136 56.3945 144.795 57.7357 144.795 59.3862C144.795 61.0355 146.136 62.3766 147.785 62.3766C149.436 62.3766 150.777 61.0355 150.777 59.3862C150.777 57.7357 149.436 56.3945 147.785 56.3945ZM147.785 57.3417C148.916 57.3417 149.83 58.2572 149.83 59.3862C149.83 60.5152 148.916 61.4295 147.785 61.4295C146.656 61.4295 145.742 60.5152 145.742 59.3862C145.742 58.2572 146.656 57.3417 147.785 57.3417Z" fill="#121311"/>
<path fill-rule="evenodd" clip-rule="evenodd" d="M189.389 128.162L193.239 121.391L189.389 128.162Z" fill="#F0E356"/>
<path d="M189.389 128.162L193.239 121.391" stroke="#121311" stroke-width="0.75" stroke-linecap="round" stroke-linejoin="round"/>
<path fill-rule="evenodd" clip-rule="evenodd" d="M194.534 119.052L195.23 117.707L194.534 119.052Z" fill="#F0E356"/>
<path fill-rule="evenodd" clip-rule="evenodd" d="M194.55 119.052L195.246 117.707L194.55 119.052ZM113.417 202.782C111.546 199.227 111.36 193.847 112.084 190.097C112.809 186.343 114.912 182.694 118.387 180.524C121.865 178.355 126.795 177.935 130.334 180.022C128.441 175.054 127.976 169.501 130.003 164.577C132.031 159.652 136.816 155.51 142.581 154.698C148.505 153.865 154.594 156.653 158.274 160.915C161.953 165.176 163.473 170.687 163.662 176.082C165.731 172.568 171.659 171.956 175.139 174.403C178.622 176.849 179.649 181.42 178.438 185.243C183.068 181.7 190.805 182.147 194.895 186.194C198.984 190.242 199.255 198.978 194.901 202.794L113.417 202.782Z" stroke="#121311" stroke-width="0.75" stroke-linecap="round" stroke-linejoin="round"/>
<path fill-rule="evenodd" clip-rule="evenodd" d="M124.792 186.346C125.005 185.747 125.106 184.914 124.345 184.323C123.894 183.974 123.297 183.869 122.865 183.961C122.433 184.052 122.132 184.306 121.854 184.561C119.706 186.536 118.229 189.051 117.533 191.921C117.376 192.564 117.265 193.262 117.597 194.022C117.98 194.895 119.11 195.857 119.896 195.441C120.808 194.956 121.305 193.452 121.799 192.636C123 190.658 124.001 188.556 124.792 186.346Z" fill="#34DBCB"/>
<path fill-rule="evenodd" clip-rule="evenodd" d="M120.258 39.7349C120.567 39.1805 120.802 38.3748 120.148 37.6676C119.762 37.2484 119.188 37.0476 118.748 37.0678C118.306 37.088 117.968 37.2875 117.653 37.4934C115.209 39.0908 113.341 41.3299 112.183 44.0462C111.924 44.6549 111.7 45.3255 111.904 46.1299C112.139 47.0543 113.095 48.1883 113.937 47.9042C114.917 47.5771 115.654 46.1728 116.275 45.4517C117.784 43.6964 119.116 41.7857 120.258 39.7349Z" fill="#FDF9CC"/>
<path d="M218.797 122.611C213.768 119.832 208.664 117.189 203.49 114.688M203.49 122.611C208.52 119.832 213.624 117.189 218.797 114.688L203.49 122.611Z" stroke="#F4C843" stroke-width="2.75" stroke-linecap="round" stroke-linejoin="round"/>
</svg>
