<svg width="15" height="22" viewBox="0 0 15 22" fill="none" xmlns="http://www.w3.org/2000/svg">
<path d="M3.50296 22H8.03139C9.29507 22 10.4644 21.2337 11.0828 19.9929L15 12.1368L14.7789 11.9478C14.7748 11.944 14.7706 11.9402 14.7666 11.9365C14.4263 11.6021 13.9682 11.4304 13.5021 11.4629C13.026 11.5007 12.5864 11.7437 12.2884 12.1334L11.1585 13.5698C11.0718 13.6799 10.9282 13.7214 10.7997 13.6733C10.671 13.6252 10.5853 13.4982 10.5851 13.3556L10.5786 3.47331C10.578 2.79975 10.0976 2.2519 9.50748 2.2519C8.93033 2.2519 8.45875 2.77431 8.43692 3.42638C8.43692 4.42446 8.43638 5.51093 8.43619 6.54501C8.43583 8.88379 8.43547 10.9024 8.43619 11.0982C8.43656 11.1875 8.40263 11.2733 8.34217 11.3364C8.28153 11.3993 8.19941 11.4346 8.11387 11.4342H8.11279C8.02742 11.435 7.94549 11.4001 7.88467 11.3375C7.82403 11.275 7.78974 11.1896 7.78938 11.1006C7.78866 10.9035 7.78902 8.88605 7.78938 6.54614C7.78938 5.53675 7.78974 4.47685 7.78992 3.49837C7.78938 3.49046 7.78902 3.48311 7.78902 3.47519C7.78902 3.45597 7.78938 3.4375 7.78992 3.41828C7.78992 2.59678 7.78992 1.83804 7.78992 1.21688C7.79028 0.543517 7.30968 0 6.71917 0H6.68633C6.09582 0 5.60584 0.539182 5.60584 1.21311V11.1021C5.60584 11.2885 5.46092 11.4399 5.28243 11.4399C5.10376 11.4399 4.95902 11.2885 4.95902 11.1021V2.49162C4.95902 1.81769 4.48853 1.26946 3.89802 1.26946C3.30408 1.26946 2.83377 1.81769 2.83377 2.49162V11.1021C2.83377 11.2885 2.68885 11.4399 2.51036 11.4399C2.33169 11.4399 2.18695 11.2885 2.18695 11.1021V6.02656C2.18695 5.35244 1.69589 4.82456 1.1052 4.82456H1.07434C0.485273 4.82456 0.00467371 5.35884 0.00322993 6.0307C-0.00290613 8.80426 0.000883788 13.6942 0.00485422 18.0714C0.00665893 20.2402 1.57605 22 3.50296 22Z" fill="#155b75"/>
</svg>
