<svg width="33" height="33" viewBox="0 0 33 33" fill="none" xmlns="http://www.w3.org/2000/svg">
<path d="M26.8125 33H6.1875C2.76994 33 0 30.2301 0 26.8125V6.1875C0 2.76994 2.76994 0 6.1875 0H26.8125C30.2301 0 33 2.76994 33 6.1875V26.8125C33 30.2301 30.2301 33 26.8125 33Z" fill="#FCECE7"/>
<path d="M21.6629 15.2928L14.4419 10.3494C14.1084 10.1209 13.7724 10 13.4931 10C12.9531 10 12.6191 10.4333 12.6191 11.1587V21.843C12.6191 22.5675 12.9527 23 13.4914 23C13.7711 23 14.1017 22.879 14.436 22.6499L21.6603 17.7065C22.1249 17.3881 22.3822 16.9596 22.3822 16.4994C22.3823 16.0396 22.128 15.6112 21.6629 15.2928Z" fill="#F68762"/>
</svg>
