<svg width="120" height="100" viewBox="0 0 120 100" fill="none" xmlns="http://www.w3.org/2000/svg">
<circle cx="70" cy="50" r="50" fill="#F0F8FF"/>
<path d="M22.501 32.4994H2.50019C1.11943 32.4994 0 31.38 0 29.9992C0 28.6185 1.11943 27.499 2.50019 27.499H22.501C23.8818 27.499 25.0012 28.6185 25.0012 29.9992C25.0012 31.38 23.8818 32.4994 22.501 32.4994Z" fill="#FFCA3A"/>
<path d="M7.50034 72.5014H2.50019C1.11943 72.5014 0 71.3819 0 70.0012C0 68.6204 1.11943 67.501 2.50019 67.501H7.50034C8.8811 67.501 10.0005 68.6204 10.0005 70.0012C10.0005 71.3819 8.8811 72.5014 7.50034 72.5014Z" fill="#FFCA3A"/>
<path d="M12.5005 52.5001H2.50019C1.11943 52.5001 0 51.381 0 50.0002C0 48.6194 1.11943 47.5 2.50019 47.5H12.5007C13.8815 47.5 15.0009 48.6194 15.0009 50.0002C15.0009 51.381 13.8812 52.5001 12.5005 52.5001Z" fill="#FFCA3A"/>
<path d="M119.055 26.3492L76.4034 48.6002C75.8033 48.8503 75.2532 49.1001 74.6532 49.3003L100.804 71.4012L102.704 73.0013C103.551 72.0022 104.227 70.8703 104.704 69.6513L119.455 32.7995C120.302 30.6992 120.155 28.3286 119.055 26.3492ZM37.7014 26.2993C36.5435 27.4485 35.6407 28.8283 35.0512 30.3495L20.3006 67.201C19.9696 68.0471 19.7838 68.9432 19.7505 69.8512L22.5507 68.4011L62.1026 47.7001C61.6668 47.4458 61.2492 47.1617 60.8526 46.85L37.7014 26.2993Z" fill="#FFBF0F"/>
<path d="M119.055 26.3493L76.4034 48.6002C75.8034 48.8503 75.2533 49.1001 74.6532 49.3003C70.4406 50.667 65.8378 50.0801 62.1026 47.7002C61.6669 47.4458 61.2492 47.1618 60.8526 46.85L37.7017 26.2991C40.0286 23.8453 43.2704 22.4688 46.6521 22.499H112.505C114.991 22.5035 117.313 23.7396 118.705 25.7992C118.805 25.9993 118.955 26.1493 119.055 26.3493Z" fill="#FFCA3A"/>
<path d="M102.705 73.0014C100.339 75.8623 96.8165 77.5136 93.1043 77.5016H27.2513C23.0924 77.4857 19.7341 74.1012 19.7501 69.9422C19.7503 69.912 19.7505 69.8815 19.751 69.8513L22.5512 68.4011L62.1031 47.7002C65.838 50.0801 70.4411 50.667 74.6537 49.3003L100.805 71.4013L102.705 73.0014Z" fill="#FAB700"/>
</svg>
