<svg width="23" height="18" viewBox="0 0 23 18" fill="none" xmlns="http://www.w3.org/2000/svg">
<path d="M12.375 8.30762H3.46154H2.85577C1.28107 8.30762 0 9.58869 0 11.1634V15.1442C0 16.7189 1.28107 17.9999 2.85577 17.9999H12.375C13.9497 17.9999 15.2308 16.7189 15.2308 15.1442V13.8461V11.1634C15.2308 9.58869 13.9497 8.30762 12.375 8.30762ZM7.61539 15.5768C6.27932 15.5768 5.19231 14.4898 5.19231 13.1538C5.19231 11.8177 6.27932 10.7307 7.61539 10.7307C8.95145 10.7307 10.0385 11.8177 10.0385 13.1538C10.0385 14.4898 8.95145 15.5768 7.61539 15.5768Z" fill="#D9FCFA"/>
<path d="M19.2978 0H9.77856C8.31463 0 7.10525 1.10739 6.94235 2.52839C6.92763 2.65669 7.02854 2.76923 7.1577 2.76923H15.8362C18.1782 2.76923 20.0766 4.66771 20.0766 7.00962V9.27987C20.0766 9.4339 20.2331 9.53853 20.3756 9.4802C21.4175 9.05404 22.1536 8.02995 22.1536 6.83654V2.85577C22.1536 1.27856 20.875 0 19.2978 0Z" fill="#D9FCFA"/>
<path d="M15.8364 4.15332H6.31713C4.8532 4.15332 3.64383 5.26071 3.48092 6.68171C3.46621 6.81001 3.56711 6.92255 3.69627 6.92255H12.3748C14.7167 6.92255 16.6152 8.82103 16.6152 11.1629V13.4332C16.6152 13.5872 16.7716 13.6918 16.9142 13.6335C17.956 13.2074 18.6921 12.1833 18.6921 10.9899V7.00909C18.6921 5.43188 17.4136 4.15332 15.8364 4.15332Z" fill="#D9FCFA"/>
</svg>
