<svg width="147" height="147" viewBox="0 0 147 147" fill="none" xmlns="http://www.w3.org/2000/svg">
<g opacity="0.7">
<path d="M73.4467 0C63.8578 0 54.4628 1.89527 45.5215 5.63454C38.4455 8.59451 31.9469 12.5802 26.144 17.509L20.932 10.56C20.1238 9.48194 18.855 8.84758 17.5072 8.84758C16.1593 8.84758 14.8906 9.48194 14.0823 10.56L3.80099 24.2662C1.56457 27.2485 0.382813 30.7993 0.382813 34.5341C0.382813 39.2299 2.28366 43.4887 5.35512 46.5858C2.05734 55.0109 0.382812 63.9019 0.382812 73.0639C0.382812 113.297 33.219 146.128 73.4467 146.128C113.68 146.128 146.511 113.292 146.511 73.0639C146.511 32.8306 113.674 0 73.4467 0ZM10.6507 29.4035L17.5072 20.2627L24.3636 29.4035C28.5733 35.018 24.5509 43.0963 17.5072 43.0963C10.4612 43.0963 6.44211 35.0157 10.6507 29.4035ZM73.4467 137.566C37.8802 137.566 8.94499 108.63 8.94499 73.0639C8.94499 65.4483 10.2561 58.0478 12.837 51.0063C14.322 51.4277 15.8873 51.6585 17.5072 51.6585C26.9501 51.6585 34.6315 43.977 34.6315 34.5341C34.6315 30.845 33.4765 27.3376 31.2936 24.3777C43.0198 14.2892 58.1764 8.56218 73.4467 8.56218C109.013 8.56218 137.948 37.4974 137.948 73.0639C137.948 108.63 109.013 137.566 73.4467 137.566Z" fill="#A09C9C"/>
<path d="M73.4487 86.9368C57.9427 86.9368 43.6451 94.1368 34.5659 105.932C33.0999 107.836 33.4934 110.539 35.4451 111.969C37.3955 113.398 40.1665 113.014 41.6313 111.11C49.2399 101.228 60.8368 95.5593 73.4487 95.5593C86.0605 95.5593 97.6574 101.228 105.266 111.11C106.731 113.014 109.501 113.398 111.452 111.969C113.404 110.539 113.797 107.836 112.331 105.932C103.255 94.1402 88.9592 86.9368 73.4487 86.9368Z" fill="#A09C9C"/>
<path d="M37.9957 68.439C49.8951 68.439 59.5758 58.7584 59.5758 46.859C59.5758 44.4751 57.6437 42.543 55.2597 42.543C52.8758 42.543 50.9437 44.4751 50.9437 46.859C50.9437 53.9984 45.1351 59.807 37.9957 59.807C35.6118 59.807 33.6797 61.7391 33.6797 64.123C33.6797 66.507 35.6118 68.439 37.9957 68.439Z" fill="#A09C9C"/>
<path d="M108.898 59.807C101.759 59.807 95.9504 53.9984 95.9504 46.859C95.9504 44.4751 94.0183 42.543 91.6344 42.543C89.2504 42.543 87.3184 44.4751 87.3184 46.859C87.3184 58.7584 96.999 68.439 108.898 68.439C111.282 68.439 113.214 66.507 113.214 64.123C113.214 61.7391 111.282 59.807 108.898 59.807Z" fill="#A09C9C"/>
</g>
</svg>
