<svg width="391" height="90" viewBox="0 0 391 90" fill="none" xmlns="http://www.w3.org/2000/svg">
<g clip-path="url(#clip0)">
<path d="M80.0558 31.9657L68.2786 23.9124L58.9427 37.5653C57.0294 36.4057 54.9616 35.4753 52.7772 34.8128V10.2812H36.9818V34.8128C34.7974 35.4753 32.7296 36.4057 30.8162 37.5653L21.4804 23.9124L9.70312 31.9657L20.8082 48.2061C18.8304 51.9742 17.7114 56.2637 17.7114 60.8148C17.7114 75.8192 29.8748 87.9827 44.8794 87.9827C59.8838 87.9827 72.0474 75.8192 72.0474 60.8148C72.0474 56.2637 70.9284 51.9742 68.9505 48.2061L80.0558 31.9657Z" fill="#B4F5FF"/>
<path d="M6.09774 34.432L25.0889 21.4453L20.7442 15.0918L1.75305 28.0785L6.09774 34.432Z" fill="#8ABCFF"/>
<path d="M57.6148 1.78125H32.1455V10.3016H57.6148V1.78125Z" fill="#8ABCFF"/>
<path d="M59.8124 50.9609C61.8851 54.0101 63.0975 57.6892 63.0975 61.6462C63.0975 72.1529 54.5497 80.7008 44.0429 80.7008C33.5361 80.7008 24.9883 72.1529 24.9883 61.6462C24.9883 57.6892 26.2007 54.0101 28.2734 50.9609H59.8124Z" fill="#FFA25D"/>
<path d="M44.0421 82.457C32.5687 82.457 23.2344 73.1227 23.2344 61.6493C23.2344 57.4678 24.4752 53.4321 26.8228 49.9785C27.1491 49.4985 27.692 49.2109 28.2727 49.2109H59.8114C60.392 49.2109 60.9348 49.4985 61.2612 49.9785C63.609 53.4317 64.8498 57.4676 64.8498 61.6493C64.8498 73.1227 55.5156 82.457 44.0421 82.457ZM29.2297 52.717C27.5986 55.4096 26.7406 58.479 26.7406 61.6491C26.7406 71.1892 34.502 78.9506 44.0421 78.9506C53.5822 78.9506 61.3436 71.1892 61.3436 61.6491C61.3436 58.4786 60.4856 55.4094 58.8547 52.717H29.2297Z" fill="black"/>
<path d="M34.1666 61.7961C35.8448 61.7961 37.2053 60.4356 37.2053 58.7574C37.2053 57.0792 35.8448 55.7188 34.1666 55.7188C32.4884 55.7188 31.1279 57.0792 31.1279 58.7574C31.1279 60.4356 32.4884 61.7961 34.1666 61.7961Z" fill="#F8E188"/>
<path d="M34.1668 63.5447C31.5245 63.5447 29.375 61.395 29.375 58.7527C29.375 56.1106 31.5247 53.9609 34.1668 53.9609C36.8089 53.9609 38.9586 56.1106 38.9586 58.7527C38.9586 61.3952 36.8089 63.5447 34.1668 63.5447ZM34.1668 57.4672C33.458 57.4672 32.8812 58.0439 32.8812 58.7527C32.8812 59.4617 33.458 60.0385 34.1668 60.0385C34.8758 60.0385 35.4524 59.4617 35.4524 58.7527C35.4524 58.0441 34.8758 57.4672 34.1668 57.4672Z" fill="black"/>
<path d="M39.7184 73.3158C41.7839 73.3158 43.4584 71.6413 43.4584 69.5758C43.4584 67.5104 41.7839 65.8359 39.7184 65.8359C37.6529 65.8359 35.9785 67.5104 35.9785 69.5758C35.9785 71.6413 37.6529 73.3158 39.7184 73.3158Z" fill="#F8E188"/>
<path d="M39.7186 75.0642C36.6898 75.0642 34.2256 72.6 34.2256 69.5712C34.2256 66.5423 36.6898 64.0781 39.7186 64.0781C42.7475 64.0781 45.2118 66.5423 45.2118 69.5712C45.2118 72.6002 42.7475 75.0642 39.7186 75.0642ZM39.7186 67.5844C38.6231 67.5844 37.7318 68.4756 37.7318 69.5712C37.7318 70.6667 38.6231 71.558 39.7186 71.558C40.8143 71.558 41.7054 70.6667 41.7054 69.5712C41.7054 68.4756 40.8141 67.5844 39.7186 67.5844Z" fill="black"/>
<path d="M63.0969 46.6554C62.9829 46.6554 62.867 46.6433 62.755 46.6205C62.6426 46.5975 62.5324 46.5644 62.4272 46.5206C62.3202 46.4767 62.2186 46.4222 62.1239 46.3593C62.0275 46.2962 61.9381 46.2225 61.8574 46.1419C61.5313 45.8158 61.3438 45.3637 61.3438 44.9024C61.3438 44.7887 61.3558 44.6728 61.3786 44.5588C61.4016 44.4484 61.4347 44.3379 61.4786 44.231C61.5224 44.1258 61.5769 44.0241 61.6399 43.9295C61.703 43.833 61.7766 43.7436 61.8572 43.663C61.9379 43.5823 62.0273 43.5087 62.1237 43.4438C62.2184 43.3807 62.3201 43.3264 62.427 43.2825C62.5322 43.2387 62.6425 43.2052 62.7548 43.1826C62.981 43.137 63.2141 43.137 63.4403 43.1826C63.5507 43.2054 63.6612 43.2387 63.7681 43.2825C63.8733 43.3264 63.975 43.3805 64.0697 43.4438C64.1661 43.5087 64.2555 43.5823 64.3361 43.663C64.4168 43.7436 64.4904 43.833 64.5553 43.9295C64.6184 44.0241 64.6727 44.1258 64.7166 44.231C64.7604 44.3379 64.7937 44.4484 64.8165 44.5588C64.8393 44.6728 64.8498 44.7887 64.8498 44.9024C64.8498 45.3637 64.6638 45.8158 64.336 46.1419C64.2553 46.2225 64.1659 46.2962 64.0695 46.3593C63.9748 46.4222 63.8731 46.4767 63.768 46.5206C63.661 46.5644 63.5506 46.5975 63.4401 46.6205C63.3265 46.6433 63.2108 46.6554 63.0969 46.6554Z" fill="black"/>
<path d="M56.2116 46.6625H26.5891C25.6208 46.6625 24.8359 45.8776 24.8359 44.9094C24.8359 43.9413 25.6208 43.1562 26.5891 43.1562H56.2116C57.1797 43.1562 57.9647 43.9413 57.9647 44.9094C57.9647 45.8776 57.1797 46.6625 56.2116 46.6625Z" fill="black"/>
<path d="M88.0097 28.0726L69.0186 15.0859L64.6739 21.4394L83.665 34.4261L88.0097 28.0726Z" fill="#8ABCFF"/>
<path d="M88.9962 26.6266L70.0064 13.6415C69.2072 13.095 68.1166 13.2998 67.5698 14.099L63.2255 20.4518C62.9631 20.8357 62.8639 21.308 62.9498 21.7649C63.0355 22.2217 63.2993 22.626 63.6833 22.8885L65.8424 24.3649L58.4057 35.2404C57.1569 34.5786 55.861 34.0095 54.5306 33.5385V12.0502H57.6142C58.5822 12.0502 59.3673 11.2651 59.3673 10.297V1.77655C59.3673 0.808483 58.5822 0.0234375 57.6142 0.0234375H32.1456C31.1774 0.0234375 30.3925 0.808483 30.3925 1.77655V10.297C30.3925 11.2651 31.1774 12.0502 32.1456 12.0502H35.229V33.5386C33.8987 34.0097 32.6028 34.5788 31.3541 35.2406L23.9173 24.3649L26.0765 22.8886C26.4602 22.6262 26.7241 22.2219 26.81 21.7651C26.8959 21.3082 26.7965 20.8357 26.5342 20.452L22.1902 14.0992C21.6437 13.3 20.5528 13.0954 19.7535 13.6416L0.763768 26.6266C-0.0354773 27.1731 -0.240417 28.2642 0.306205 29.0633L4.65025 35.4162C4.91269 35.8 5.31696 36.0638 5.77382 36.1497C5.88129 36.1699 5.98946 36.1799 6.09745 36.1799C6.44807 36.1799 6.79344 36.0745 7.08708 35.874L9.24622 34.3975L18.7793 48.339C16.9315 52.2069 15.9589 56.4955 15.9589 60.8099C15.9589 76.7571 28.9328 89.7311 44.8801 89.7311C60.8273 89.7311 73.8012 76.7571 73.8012 60.8099C73.8012 56.4957 72.8286 52.2069 70.9808 48.339L80.5141 34.3975L82.6732 35.874C82.9669 36.0747 83.3122 36.1799 83.6628 36.1799C83.7707 36.1799 83.8788 36.1699 83.9865 36.1497C84.4435 36.064 84.8476 35.8002 85.11 35.4162L89.4541 29.0633C90.0002 28.264 89.7952 27.1731 88.9962 26.6266ZM33.8987 3.52967H55.8609V8.54393H33.8987V3.52967ZM6.55501 31.9899L4.18988 28.5314L20.2854 17.5255L22.6504 20.984L6.55501 31.9899ZM67.5038 47.2115C67.1376 47.7473 67.0973 48.4413 67.3987 49.0158C69.2934 52.6252 70.2948 56.7036 70.2948 60.8098C70.2948 74.8236 58.8938 86.2247 44.8799 86.2247C30.866 86.2247 19.465 74.8236 19.465 60.8098C19.465 56.7034 20.4663 52.6252 22.3611 49.0158C22.6626 48.4413 22.6221 47.7473 22.2559 47.2115L12.1403 32.4184L21.0231 26.3444L29.3694 38.5501C29.8948 39.3183 30.9291 39.5418 31.7254 39.0597C33.5337 37.9633 35.4735 37.0973 37.491 36.4854C38.23 36.2614 38.7352 35.58 38.7352 34.8079V12.0502H51.0242V34.8075C51.0242 35.5798 51.5294 36.261 52.2686 36.4851C54.2862 37.0971 56.2259 37.9633 58.034 39.0594C58.8307 39.5425 59.8646 39.3185 60.39 38.5499L68.7365 26.3442L77.6193 32.4184L67.5038 47.2115ZM83.2049 31.9899L67.1094 20.9839L69.4745 17.5253L85.5699 28.5312L83.2049 31.9899Z" fill="black"/>
</g>
<path d="M135.119 28.4727H124.054L121.794 33.7354H116.497L127.427 9.95205H131.644L142.574 33.7354H137.379L135.119 28.4727ZM133.398 24.492L129.586 15.5858L125.774 24.492H133.398Z" fill="white"/>
<path d="M168.179 9.95205V33.7354H163.557V19.6341L158.092 29.8221H154.718L149.253 19.769V33.7354H144.631V9.95205H148.781L156.439 24.492L164.097 9.95205H168.179Z" fill="white"/>
<path d="M172.962 9.95205H189.358V14.034H178.09V19.6003H188.683V23.6823H178.09V29.6535H189.358V33.7354H172.962V9.95205Z" fill="white"/>
<path d="M213.606 33.7354H207.871L203.755 26.145C203.418 25.5602 203.013 25.1442 202.54 24.8968C202.068 24.6269 201.472 24.492 200.752 24.492H198.155V33.7354H192.96V9.95205H203.89C206.679 9.95205 208.781 10.5705 210.198 11.8075C211.638 13.022 212.357 14.7874 212.357 17.1039C212.357 18.9031 211.851 20.41 210.839 21.6245C209.85 22.8389 208.444 23.6373 206.622 24.0197C207.859 24.3345 208.905 25.2229 209.76 26.6847L213.606 33.7354ZM203.114 20.5112C204.621 20.5112 205.712 20.2526 206.386 19.7353C207.061 19.1955 207.398 18.3634 207.398 17.2389C207.398 16.0919 207.061 15.2597 206.386 14.7425C205.712 14.2252 204.621 13.9666 203.114 13.9666H198.087V20.5112H203.114Z" fill="white"/>
<path d="M216.614 9.95205H221.877V33.7354H216.614V9.95205Z" fill="white"/>
<path d="M237.762 34.039C235.356 34.039 233.253 33.533 231.454 32.5209C229.677 31.5089 228.305 30.0808 227.338 28.2366C226.394 26.3924 225.921 24.2558 225.921 21.8269C225.921 19.3979 226.394 17.2614 227.338 15.4172C228.305 13.573 229.677 12.1561 231.454 11.1665C233.253 10.1545 235.356 9.64844 237.762 9.64844C239.337 9.64844 240.844 9.89583 242.283 10.3906C243.722 10.8629 244.903 11.5264 245.825 12.381L244.138 16.1256C243.104 15.3385 242.069 14.765 241.035 14.4051C240.023 14.0453 238.966 13.8653 237.864 13.8653C235.75 13.8653 234.119 14.5401 232.972 15.8895C231.848 17.2389 231.285 19.218 231.285 21.8269C231.285 24.4357 231.848 26.4261 232.972 27.798C234.119 29.1474 235.75 29.8221 237.864 29.8221C238.966 29.8221 240.023 29.6422 241.035 29.2824C242.069 28.9225 243.104 28.349 244.138 27.5619L245.825 31.3065C244.903 32.1611 243.722 32.8358 242.283 33.3306C240.844 33.8029 239.337 34.039 237.762 34.039Z" fill="white"/>
<path d="M265.019 28.4727H253.954L251.694 33.7354H246.398L257.328 9.95205H261.545L272.475 33.7354H267.28L265.019 28.4727ZM263.299 24.492L259.487 15.5858L255.675 24.492H263.299Z" fill="white"/>
<path d="M295.111 9.95205V33.7354H291.197L279.356 18.5883V33.7354H274.465V9.95205H278.344L290.185 25.0317V9.95205H295.111Z" fill="white"/>
<path d="M119.23 55.7356H124.492V79.519H119.23V55.7356Z" fill="white"/>
<path d="M149.858 55.7356V79.519H145.945L134.103 64.3719V79.519H129.212V55.7356H133.091L144.932 70.8153V55.7356H149.858Z" fill="white"/>
<path d="M160.078 60.02H152.623V55.7356H172.796V60.02H165.341V79.519H160.078V60.02Z" fill="white"/>
<path d="M175.565 55.7356H191.96V59.8176H180.693V65.3839H191.286V69.4659H180.693V75.437H191.96V79.519H175.565V55.7356Z" fill="white"/>
<path d="M216.208 79.519H210.473L206.358 71.9286C206.02 71.3438 205.615 70.9277 205.143 70.6803C204.671 70.4105 204.075 70.2755 203.355 70.2755H200.757V79.519H195.562V55.7356H206.492C209.281 55.7356 211.384 56.3541 212.801 57.5911C214.24 58.8055 214.96 60.571 214.96 62.8875C214.96 64.6867 214.454 66.1936 213.442 67.408C212.452 68.6225 211.047 69.4209 209.225 69.8032C210.462 70.1181 211.508 71.0065 212.362 72.4683L216.208 79.519ZM205.717 66.2948C207.223 66.2948 208.314 66.0361 208.989 65.5189C209.664 64.9791 210.001 64.1469 210.001 63.0224C210.001 61.8754 209.664 61.0433 208.989 60.526C208.314 60.0088 207.223 59.7501 205.717 59.7501H200.69V66.2948H205.717Z" fill="white"/>
<path d="M239.862 55.7356V79.519H235.949L224.108 64.3719V79.519H219.216V55.7356H223.096L234.937 70.8153V55.7356H239.862Z" fill="white"/>
<path d="M260.473 74.2563H249.408L247.148 79.519H241.851L252.781 55.7356H256.998L267.929 79.519H262.733L260.473 74.2563ZM258.753 70.2755L254.941 61.3694L251.128 70.2755H258.753Z" fill="white"/>
<path d="M272.386 60.02H264.931V55.7356H285.104V60.02H277.649V79.519H272.386V60.02Z" fill="white"/>
<path d="M287.873 55.7356H293.136V79.519H287.873V55.7356Z" fill="white"/>
<path d="M308.785 79.8226C306.424 79.8226 304.366 79.3278 302.612 78.3382C300.88 77.3262 299.542 75.9093 298.597 74.0876C297.653 72.2434 297.18 70.0844 297.18 67.6104C297.18 65.1365 297.653 62.9887 298.597 61.167C299.542 59.3228 300.88 57.9059 302.612 56.9164C304.366 55.9268 306.424 55.432 308.785 55.432C311.147 55.432 313.193 55.9268 314.925 56.9164C316.679 57.9059 318.029 59.3228 318.973 61.167C319.918 62.9887 320.39 65.1365 320.39 67.6104C320.39 70.0844 319.918 72.2434 318.973 74.0876C318.029 75.9093 316.679 77.3262 314.925 78.3382C313.193 79.3278 311.147 79.8226 308.785 79.8226ZM308.785 75.7406C310.765 75.7406 312.316 75.0434 313.441 73.649C314.588 72.2547 315.161 70.2418 315.161 67.6104C315.161 64.9791 314.599 62.9775 313.475 61.6056C312.35 60.2112 310.787 59.514 308.785 59.514C306.784 59.514 305.221 60.2112 304.096 61.6056C302.994 62.9775 302.443 64.9791 302.443 67.6104C302.443 70.2418 303.005 72.2547 304.13 73.649C305.254 75.0434 306.806 75.7406 308.785 75.7406Z" fill="white"/>
<path d="M345.055 55.7356V79.519H341.141L329.3 64.3719V79.519H324.409V55.7356H328.288L340.129 70.8153V55.7356H345.055Z" fill="white"/>
<path d="M365.665 74.2563H354.6L352.34 79.519H347.043L357.974 55.7356H362.19L373.121 79.519H367.925L365.665 74.2563ZM363.945 70.2755L360.133 61.3694L356.321 70.2755H363.945Z" fill="white"/>
<path d="M375.11 55.7356H380.373V75.2346H391V79.519H375.11V55.7356Z" fill="white"/>
<defs>
<clipPath id="clip0">
<rect width="89.7599" height="89.7599" fill="white"/>
</clipPath>
</defs>
</svg>
