<svg width="16" height="18" viewBox="0 0 16 18" fill="none" xmlns="http://www.w3.org/2000/svg">
<path d="M15.3281 16.875H14.625V0.84375C14.625 0.377754 14.2472 0 13.7812 0H1.96875C1.50275 0 1.125 0.377754 1.125 0.84375V16.875H0.421875C0.188895 16.875 0 17.0639 0 17.2969V18H15.75V17.2969C15.75 17.0639 15.5611 16.875 15.3281 16.875ZM4.5 2.67188C4.5 2.43889 4.68889 2.25 4.92188 2.25H6.32812C6.56111 2.25 6.75 2.43889 6.75 2.67188V4.07812C6.75 4.31111 6.56111 4.5 6.32812 4.5H4.92188C4.68889 4.5 4.5 4.31111 4.5 4.07812V2.67188ZM4.5 6.04688C4.5 5.81389 4.68889 5.625 4.92188 5.625H6.32812C6.56111 5.625 6.75 5.81389 6.75 6.04688V7.45312C6.75 7.68611 6.56111 7.875 6.32812 7.875H4.92188C4.68889 7.875 4.5 7.68611 4.5 7.45312V6.04688ZM6.32812 11.25H4.92188C4.68889 11.25 4.5 11.0611 4.5 10.8281V9.42188C4.5 9.18889 4.68889 9 4.92188 9H6.32812C6.56111 9 6.75 9.18889 6.75 9.42188V10.8281C6.75 11.0611 6.56111 11.25 6.32812 11.25ZM9 16.875H6.75V13.9219C6.75 13.6889 6.93889 13.5 7.17188 13.5H8.57812C8.81111 13.5 9 13.6889 9 13.9219V16.875ZM11.25 10.8281C11.25 11.0611 11.0611 11.25 10.8281 11.25H9.42188C9.18889 11.25 9 11.0611 9 10.8281V9.42188C9 9.18889 9.18889 9 9.42188 9H10.8281C11.0611 9 11.25 9.18889 11.25 9.42188V10.8281ZM11.25 7.45312C11.25 7.68611 11.0611 7.875 10.8281 7.875H9.42188C9.18889 7.875 9 7.68611 9 7.45312V6.04688C9 5.81389 9.18889 5.625 9.42188 5.625H10.8281C11.0611 5.625 11.25 5.81389 11.25 6.04688V7.45312ZM11.25 4.07812C11.25 4.31111 11.0611 4.5 10.8281 4.5H9.42188C9.18889 4.5 9 4.31111 9 4.07812V2.67188C9 2.43889 9.18889 2.25 9.42188 2.25H10.8281C11.0611 2.25 11.25 2.43889 11.25 2.67188V4.07812Z" fill="#D6F3FF"/>
</svg>
