<svg width="4" height="15" viewBox="0 0 4 15" fill="none" xmlns="http://www.w3.org/2000/svg">
<path fill-rule="evenodd" clip-rule="evenodd" d="M1.83333 3.56757C2.84167 3.56757 3.66667 2.76486 3.66667 1.78378C3.66667 0.802703 2.84167 0 1.83333 0C0.825 0 0 0.802703 0 1.78378C0 2.76486 0.825 3.56757 1.83333 3.56757ZM1.83333 5.35134C0.825 5.35134 0 6.15404 0 7.13512C0 8.1162 0.825 8.9189 1.83333 8.9189C2.84167 8.9189 3.66667 8.1162 3.66667 7.13512C3.66667 6.15404 2.84167 5.35134 1.83333 5.35134ZM0 12.4865C0 11.5054 0.825 10.7027 1.83333 10.7027C2.84167 10.7027 3.66667 11.5054 3.66667 12.4865C3.66667 13.4676 2.84167 14.2703 1.83333 14.2703C0.825 14.2703 0 13.4676 0 12.4865Z" fill="#636363"/>
</svg>
