<svg width="20" height="23" viewBox="0 0 20 23" fill="none" xmlns="http://www.w3.org/2000/svg">
<path d="M17.5112 0.9H2.33875C1.5534 0.9 0.9 1.48899 0.9 2.23047V20.7695C0.9 21.511 1.55344 22.1 2.33875 22.1H17.5112C18.2966 22.1 18.95 21.511 18.95 20.7695V2.23047C18.95 1.48899 18.2966 0.9 17.5112 0.9ZM17.8575 20.7695C17.8575 20.9327 17.7102 21.0797 17.5112 21.0797H2.33875C2.13981 21.0797 1.9925 20.9327 1.9925 20.7695V2.23047C1.9925 2.06731 2.13981 1.92031 2.33875 1.92031H17.5112C17.7102 1.92031 17.8575 2.06731 17.8575 2.23047V20.7695Z" fill="#0052B4" stroke="#0052B4" stroke-width="0.2"/>
<path d="M11.8734 9.22266C12.1456 9.22266 12.3663 9.00197 12.3663 8.72973V8.04383H12.9522V8.72973C12.9522 9.00197 13.1729 9.22266 13.4451 9.22266C13.7174 9.22266 13.938 9.00197 13.938 8.72973V6.37215C13.938 5.66694 13.3645 5.09336 12.6593 5.09336C11.954 5.09336 11.3805 5.66694 11.3805 6.37215V8.72973C11.3805 9.00197 11.6012 9.22266 11.8734 9.22266ZM12.3663 6.37215C12.3663 6.21072 12.4978 6.07922 12.6593 6.07922C12.8207 6.07922 12.9522 6.21072 12.9522 6.37215V7.05797H12.3663V6.37215Z" fill="#0052B4" stroke="#0052B4" stroke-width="0.2"/>
<path d="M12.6594 10.7946C14.6646 10.7946 16.2958 9.16338 16.2958 7.15819C16.2958 5.15301 14.6646 3.52183 12.6594 3.52183C10.6542 3.52183 9.02305 5.15301 9.02305 7.15819C9.02301 9.16338 10.6542 10.7946 12.6594 10.7946ZM12.6594 4.50769C14.1208 4.50769 15.3099 5.69679 15.3099 7.15819C15.3099 8.6196 14.1208 9.8087 12.6594 9.8087C11.198 9.8087 10.0089 8.6196 10.0089 7.15819C10.0089 5.69679 11.198 4.50769 12.6594 4.50769Z" fill="#0052B4" stroke="#0052B4" stroke-width="0.2"/>
<path d="M15.8024 18.9244H4.01451C3.74227 18.9244 3.52158 19.1451 3.52158 19.4173C3.52158 19.6896 3.74227 19.9103 4.01451 19.9103H15.8024C16.0746 19.9103 16.2953 19.6896 16.2953 19.4173C16.2953 19.1451 16.0746 18.9244 15.8024 18.9244Z" fill="#0052B4" stroke="#0052B4" stroke-width="0.2"/>
<path d="M15.8024 15.7811H4.01451C3.74227 15.7811 3.52158 16.0018 3.52158 16.274C3.52158 16.5463 3.74227 16.767 4.01451 16.767H15.8024C16.0746 16.767 16.2953 16.5463 16.2953 16.274C16.2953 16.0018 16.0746 15.7811 15.8024 15.7811Z" fill="#0052B4" stroke="#0052B4" stroke-width="0.2"/>
<path d="M4.01451 13.6237H8.14012C8.41236 13.6237 8.63305 13.403 8.63305 13.1307C8.63305 12.8585 8.41236 12.6378 8.14012 12.6378H4.01451C3.74227 12.6378 3.52158 12.8585 3.52158 13.1307C3.52158 13.403 3.74227 13.6237 4.01451 13.6237Z" fill="#0052B4" stroke="#0052B4" stroke-width="0.2"/>
<path d="M15.8025 12.6378H11.6766C11.4044 12.6378 11.1837 12.8585 11.1837 13.1307C11.1837 13.403 11.4044 13.6237 11.6766 13.6237H15.8025C16.0747 13.6237 16.2954 13.403 16.2954 13.1307C16.2954 12.8585 16.0747 12.6378 15.8025 12.6378Z" fill="#0052B4" stroke="#0052B4" stroke-width="0.2"/>
<path d="M9.9084 12.6378C9.6361 12.6378 9.41562 12.8585 9.41562 13.1307C9.41562 13.403 9.63647 13.6237 9.90867 13.6237C10.1809 13.6237 10.4016 13.403 10.4016 13.1307C10.4016 12.8585 10.1809 12.6378 9.90867 12.6378H9.9084Z" fill="#0052B4" stroke="#0052B4" stroke-width="0.2"/>
</svg>
