<svg width="37" height="37" viewBox="0 0 37 37" fill="none" xmlns="http://www.w3.org/2000/svg">
<path d="M31.6302 0H5.37045C2.73731 0 0.595947 2.14136 0.595947 4.7745V26.2598C0.595947 28.8929 2.73731 31.0343 5.37045 31.0343V35.8064C5.37045 36.2695 5.63782 36.6897 6.05798 36.8878C6.21792 36.9618 6.39219 37 6.56407 37C6.83861 37 7.11076 36.9069 7.328 36.7231L14.1579 31.0343H31.6302C34.2634 31.0343 36.4047 28.8929 36.4047 26.2598V4.7745C36.4047 2.14136 34.2634 0 31.6302 0ZM8.95133 14.3235C10.9256 14.3235 12.5322 15.9301 12.5322 17.9044C12.5322 19.8786 10.9256 21.4853 8.95133 21.4853H6.56407C5.90519 21.4853 5.37045 20.9505 5.37045 20.2916C5.37045 19.6328 5.90519 19.098 6.56407 19.098H8.95133C9.61021 19.098 10.145 18.5633 10.145 17.9044C10.145 17.2455 9.61021 16.7108 8.95133 16.7108C6.97707 16.7108 5.37045 15.1041 5.37045 13.1299C5.37045 11.1556 6.97707 9.549 8.95133 9.549H11.3386C11.9975 9.549 12.5322 10.0837 12.5322 10.7426C12.5322 11.4015 11.9975 11.9363 11.3386 11.9363H8.95133C8.29245 11.9363 7.7577 12.471 7.7577 13.1299C7.7577 13.7888 8.29245 14.3235 8.95133 14.3235ZM22.0812 20.2916C22.0812 20.9505 21.5465 21.4853 20.8876 21.4853C20.2287 21.4853 19.694 20.9505 19.694 20.2916V15.7988L19.5674 16.0519C19.1616 16.8612 17.8367 16.8612 17.4308 16.0519L17.3067 15.7988V20.2916C17.3067 20.9505 16.772 21.4853 16.1131 21.4853C15.4542 21.4853 14.9195 20.9505 14.9195 20.2916V10.7426C14.9195 10.1888 15.3014 9.70656 15.8385 9.58004C16.3709 9.45113 16.9319 9.71372 17.1802 10.2079L18.5003 12.8482L19.8205 10.2103C20.0664 9.71134 20.613 9.45351 21.1621 9.58004C21.7016 9.70656 22.0812 10.1888 22.0812 10.7426V20.2916ZM28.0493 14.3235C30.0236 14.3235 31.6302 15.9301 31.6302 17.9044C31.6302 19.8786 30.0236 21.4853 28.0493 21.4853H25.6621C25.0032 21.4853 24.4685 20.9505 24.4685 20.2916C24.4685 19.6328 25.0032 19.098 25.6621 19.098H28.0493C28.7058 19.098 29.243 18.5633 29.243 17.9044C29.243 17.2455 28.7058 16.7108 28.0493 16.7108C26.0751 16.7108 24.4685 15.1041 24.4685 13.1299C24.4685 11.1556 26.0751 9.549 28.0493 9.549H30.4366C31.0955 9.549 31.6302 10.0837 31.6302 10.7426C31.6302 11.4015 31.0955 11.9363 30.4366 11.9363H28.0493C27.3928 11.9363 26.8557 12.471 26.8557 13.1299C26.8557 13.7888 27.3928 14.3235 28.0493 14.3235Z" fill="#90A3C3"/>
</svg>
