<svg width="30" height="30" viewBox="0 0 30 30" fill="none" xmlns="http://www.w3.org/2000/svg">
<path d="M0 14.9993C0 16.8341 0.330059 18.5917 0.932988 20.2166L15 21.521L29.067 20.2166C29.6699 18.5917 30 16.8341 30 14.9993C30 13.1645 29.6699 11.4069 29.067 9.7819L15 8.47754L0.932988 9.7819C0.330059 11.4069 0 13.1645 0 14.9993Z" fill="#FFDA44"/>
<path d="M29.0671 9.78264C26.9477 4.07068 21.4496 0 15.0001 0C8.55064 0 3.0525 4.07068 0.933105 9.78264H29.0671Z" fill="#D80027"/>
<path d="M0.933105 20.2178C3.0525 25.9297 8.55064 30.0004 15.0001 30.0004C21.4496 30.0004 26.9477 25.9297 29.0671 20.2178H0.933105Z" fill="#D80027"/>
</svg>
