<svg width="16" height="16" viewBox="0 0 16 16" fill="none" xmlns="http://www.w3.org/2000/svg">
<g opacity="0.5">
<path d="M12.473 7.946C14.3911 7.946 15.946 7.06266 15.946 5.973C15.946 4.88334 14.3911 4 12.473 4C10.5549 4 9 4.88334 9 5.973C9 7.06266 10.5549 7.946 12.473 7.946Z" fill="#0A1128"/>
<path fill-rule="evenodd" clip-rule="evenodd" d="M12.5248 9.0815C10.0408 9.0815 9.05176 8.0405 9.05176 7.4375V10.0205C9.05176 11.1105 10.6068 11.9925 12.5248 11.9925C14.4448 11.9925 15.9998 11.1105 15.9998 10.0205V7.4995C15.9998 8.1035 15.0098 9.0815 12.5248 9.0815Z" fill="#0A1128"/>
<path fill-rule="evenodd" clip-rule="evenodd" d="M12.5248 13.0725C10.3028 13.0725 9.05176 12.0715 9.05176 11.4685V14.0275C9.05176 15.1175 10.6068 16.0005 12.5248 16.0005C14.4448 16.0005 15.9998 15.1175 15.9998 14.0275V11.4375C15.9998 12.0405 14.7478 13.0725 12.5248 13.0725Z" fill="#0A1128"/>
<path d="M3.937 3.946C6.11135 3.946 7.874 3.06266 7.874 1.973C7.874 0.883342 6.11135 0 3.937 0C1.76266 0 0 0.883342 0 1.973C0 3.06266 1.76266 3.946 3.937 3.946Z" fill="#0A1128"/>
<path fill-rule="evenodd" clip-rule="evenodd" d="M4.062 5.0815C1.247 5.0815 0.125 4.0405 0.125 3.4375V6.0205C0.125 7.1105 1.888 7.9925 4.062 7.9925C6.238 7.9925 8 7.1105 8 6.0205V3.4995C8 4.1035 6.877 5.0815 4.062 5.0815Z" fill="#0A1128"/>
<path fill-rule="evenodd" clip-rule="evenodd" d="M4.062 9.0725C1.543 9.0725 0.125 8.0715 0.125 7.4685V10.0275C0.125 11.1175 1.888 12.0005 4.062 12.0005C6.238 12.0005 8 11.1175 8 10.0275V7.4375C8 8.0405 6.58 9.0725 4.062 9.0725Z" fill="#0A1128"/>
<path fill-rule="evenodd" clip-rule="evenodd" d="M4.062 13.0725C1.543 13.0725 0.125 12.0715 0.125 11.4685V14.0275C0.125 15.1175 1.888 16.0005 4.062 16.0005C6.238 16.0005 8 15.1175 8 14.0275V11.4375C8 12.0405 6.58 13.0725 4.062 13.0725Z" fill="#0A1128"/>
</g>
</svg>
