<svg width="11" height="11" viewBox="0 0 11 11" fill="none" xmlns="http://www.w3.org/2000/svg">
<path d="M8.90666 1.48682C7.9212 0.528043 6.61101 0 5.21739 0C3.82378 0 2.51358 0.528043 1.52813 1.48682C0.542711 2.44565 0 3.72043 0 5.07638C0 6.43233 0.542711 7.70712 1.52813 8.66594C2.51358 9.62472 3.82378 10.1528 5.21739 10.1528C6.61101 10.1528 7.9212 9.62472 8.90666 8.66594C9.89207 7.70712 10.4348 6.43233 10.4348 5.07638C10.4348 3.72043 9.89207 2.44565 8.90666 1.48682ZM5.21739 9.35958C2.79002 9.35958 0.815217 7.43815 0.815217 5.07638C0.815217 2.71461 2.79002 0.793185 5.21739 0.793185C7.64476 0.793185 9.61957 2.71461 9.61957 5.07638C9.61957 7.43815 7.64476 9.35958 5.21739 9.35958Z" fill="black"/>
<path d="M5.16837 7.37793C4.97026 7.37793 4.80957 7.53415 4.80957 7.72701V8.08385C4.80957 8.27661 4.97023 8.43285 5.16837 8.43285C5.3664 8.43285 5.52712 8.27661 5.52712 8.08385V7.72701C5.52712 7.53417 5.36638 7.37793 5.16837 7.37793Z" fill="black"/>
<path d="M5.16824 1.90186C5.15741 1.90186 5.14694 1.90259 5.13623 1.90265V5.13613H8.52358C8.50622 3.34989 7.00803 1.90186 5.16824 1.90186Z" fill="black"/>
</svg>
