<svg width="33" height="48" viewBox="0 0 33 48" fill="none" xmlns="http://www.w3.org/2000/svg">
<path d="M32.6038 45.283H0V0H25.2682L32.6038 7.41006V45.283Z" fill="#E3E4D8"/>
<path d="M26.2642 0V7.24528H32.6038L26.2642 0Z" fill="#D0CEBD"/>
<path d="M0 32.604H32.6038V48.0002H0V32.604Z" fill="#B53438"/>
<path d="M4.9461 45.3461C4.49115 45.3461 4.12158 44.9769 4.12158 44.5219V36.2772C4.12158 35.8218 4.49115 35.4526 4.9461 35.4526C5.4014 35.4526 5.77061 35.8218 5.77061 36.2772V44.5219C5.77061 44.9769 5.4014 45.3461 4.9461 45.3461Z" fill="white"/>
<path d="M28.0305 37.1017H23.0838C22.6288 37.1017 22.2593 36.7321 22.2593 36.2772C22.2593 35.8218 22.6288 35.4526 23.0838 35.4526H28.0305C28.4858 35.4526 28.855 35.8218 28.855 36.2772C28.855 36.7321 28.4858 37.1017 28.0305 37.1017Z" fill="white"/>
<path d="M28.0305 41.2242H23.0838C22.6288 41.2242 22.2593 40.855 22.2593 40.3997C22.2593 39.9448 22.6288 39.5752 23.0838 39.5752H28.0305C28.4858 39.5752 28.855 39.9448 28.855 40.3997C28.855 40.855 28.4858 41.2242 28.0305 41.2242Z" fill="white"/>
<path d="M23.0838 45.3461C22.6288 45.3461 22.2593 44.9769 22.2593 44.5219V36.2772C22.2593 35.8218 22.6288 35.4526 23.0838 35.4526C23.5391 35.4526 23.9083 35.8218 23.9083 36.2772V44.5219C23.9083 44.9769 23.5391 45.3461 23.0838 45.3461Z" fill="white"/>
<path d="M15.7467 8.73077C15.6658 8.75741 14.6512 10.1761 15.8261 11.3765C16.6084 9.63674 15.7826 8.71967 15.7467 8.73077ZM16.2472 15.6937C15.6574 17.7294 14.8795 19.9272 14.0435 21.9167C15.765 21.2497 17.638 20.6671 19.3958 20.255C18.2838 18.965 17.1722 17.3539 16.2472 15.6937ZM22.4023 21.1084C23.0737 21.6241 23.2373 21.8849 23.6774 21.8849C23.8699 21.8849 24.4198 21.8768 24.6738 21.5224C24.7971 21.35 24.845 21.2397 24.8629 21.182C24.7623 21.1276 24.6273 21.02 23.8948 21.02C23.478 21.02 22.9555 21.0381 22.4023 21.1084ZM11.1661 24.7641C9.40466 25.7514 8.68714 26.5634 8.63592 27.0214C8.6275 27.0976 8.60518 27.2967 8.99047 27.5908C9.11377 27.5515 9.83056 27.2253 11.1661 24.7641ZM8.97217 28.981C8.68531 28.981 8.41016 28.8881 8.17526 28.7128C7.3176 28.0691 7.20198 27.354 7.2565 26.8668C7.40615 25.5284 9.06475 24.1256 12.188 22.6969C13.4273 19.9849 14.6066 16.6433 15.3095 13.8518C14.4877 12.0646 13.6878 9.74624 14.27 8.38599C14.4741 7.90952 14.7299 7.54365 15.2044 7.38532C15.3929 7.32354 15.8674 7.24512 16.042 7.24512C16.4745 7.24512 16.8898 7.76672 17.0895 8.10595C17.4616 8.73558 17.4635 9.46879 17.4046 10.1761C17.3475 10.8631 17.2319 11.5463 17.0987 12.2218C17.0013 12.7183 16.8912 13.2125 16.7738 13.7049C17.8842 15.9944 19.4569 18.328 20.9651 19.9253C22.0459 19.7308 22.9753 19.632 23.7327 19.632C25.0217 19.632 25.8048 19.932 26.1231 20.5498C26.388 21.0614 26.2786 21.6603 25.8015 22.3273C25.3426 22.9684 24.7111 23.3069 23.9727 23.3069C22.9694 23.3069 21.8037 22.6751 20.5022 21.4269C18.1645 21.9152 15.435 22.7853 13.2283 23.7486C12.5393 25.208 11.8796 26.3837 11.2645 27.2463C10.4218 28.4301 9.69335 28.981 8.97217 28.981Z" fill="#B53438"/>
<path d="M7.69831 41.6604H5.32082C4.88354 41.6604 4.52832 41.3056 4.52832 40.8679V36.1133C4.52832 35.6757 4.88354 35.3208 5.32082 35.3208H7.69831C9.44636 35.3208 10.8679 36.7424 10.8679 38.4908C10.8679 40.2388 9.44636 41.6604 7.69831 41.6604ZM6.11331 40.0754H7.69831C8.57216 40.0754 9.28295 39.3646 9.28295 38.4908C9.28295 37.6166 8.57216 36.9058 7.69831 36.9058H6.11331V40.0754Z" fill="white"/>
<path d="M14.4906 45.2831H13.5849C13.0848 45.2831 12.6792 44.9113 12.6792 44.4532V36.1511C12.6792 35.6926 13.0848 35.3208 13.5849 35.3208H14.4906C17.4863 35.3208 19.9245 37.5548 19.9245 40.3019C19.9245 43.0491 17.4863 45.2831 14.4906 45.2831ZM14.4906 43.6229H14.4994H14.4906ZM14.4906 36.9813V43.6229C16.4884 43.6229 18.1131 42.1333 18.1131 40.3019C18.1131 38.4706 16.4884 36.9813 14.4906 36.9813Z" fill="white"/>
</svg>
