<svg width="265" height="60" viewBox="0 0 265 60" fill="none" xmlns="http://www.w3.org/2000/svg">
<g clip-path="url(#clip0)">
<path d="M54.2577 21.3656L46.2757 15.9824L39.9483 25.1087C38.6515 24.3335 37.25 23.7116 35.7696 23.2687V6.87061H25.0643V23.2687C23.5838 23.7116 22.1824 24.3335 20.8856 25.1087L14.5582 15.9824L6.57617 21.3656L14.1027 32.2214C12.7622 34.7403 12.0037 37.6076 12.0037 40.6498C12.0037 50.6795 20.2475 58.8101 30.4169 58.8101C40.5861 58.8101 48.83 50.6795 48.83 40.6498C48.83 37.6076 48.0716 34.7403 46.7311 32.2214L54.2577 21.3656Z" fill="#B4F5FF"/>
<path d="M4.1317 23.0152L17.0029 14.3342L14.0583 10.0872L1.18709 18.7682L4.1317 23.0152Z" fill="#8ABCFF"/>
<path d="M39.0479 1.18945H21.7861V6.88486H39.0479V1.18945Z" fill="#8ABCFF"/>
<path d="M40.5375 34.0674C41.9423 36.1056 42.7641 38.5649 42.7641 41.2099C42.7641 48.2332 36.9708 53.947 29.8498 53.947C22.7288 53.947 16.9355 48.2332 16.9355 41.2099C16.9355 38.5649 17.7573 36.1056 19.1621 34.0674H40.5375Z" fill="#FFA25D"/>
<path d="M29.8495 55.1189C22.0734 55.1189 15.7471 48.8793 15.7471 41.2099C15.7471 38.4148 16.5881 35.7171 18.1791 33.4086C18.4003 33.0877 18.7682 32.8955 19.1618 32.8955H40.5371C40.9306 32.8955 41.2985 33.0877 41.5197 33.4086C43.1109 35.7169 43.9519 38.4147 43.9519 41.2099C43.9519 48.8793 37.6256 55.1189 29.8495 55.1189ZM19.8104 35.2391C18.7049 37.039 18.1234 39.0907 18.1234 41.2098C18.1234 47.5869 23.3837 52.775 29.8495 52.775C36.3153 52.775 41.5756 47.5869 41.5756 41.2098C41.5756 39.0905 40.9941 37.0389 39.8887 35.2391H19.8104Z" fill="black"/>
<path d="M23.1561 41.3068C24.2935 41.3068 25.2156 40.3974 25.2156 39.2756C25.2156 38.1538 24.2935 37.2444 23.1561 37.2444C22.0187 37.2444 21.0967 38.1538 21.0967 39.2756C21.0967 40.3974 22.0187 41.3068 23.1561 41.3068Z" fill="#F8E188"/>
<path d="M23.1568 42.4785C21.366 42.4785 19.9092 41.0416 19.9092 39.2753C19.9092 37.5092 21.3661 36.0723 23.1568 36.0723C24.9475 36.0723 26.4044 37.5092 26.4044 39.2753C26.4044 41.0417 24.9475 42.4785 23.1568 42.4785ZM23.1568 38.416C22.6764 38.416 22.2855 38.8015 22.2855 39.2753C22.2855 39.7492 22.6764 40.1348 23.1568 40.1348C23.6373 40.1348 24.0281 39.7492 24.0281 39.2753C24.0281 38.8017 23.6373 38.416 23.1568 38.416Z" fill="black"/>
<path d="M26.9195 49.007C28.3194 49.007 29.4542 47.8877 29.4542 46.507C29.4542 45.1263 28.3194 44.0071 26.9195 44.0071C25.5196 44.0071 24.3848 45.1263 24.3848 46.507C24.3848 47.8877 25.5196 49.007 26.9195 49.007Z" fill="#F8E188"/>
<path d="M26.9192 50.1791C24.8664 50.1791 23.1963 48.5319 23.1963 46.5073C23.1963 44.4826 24.8664 42.8354 26.9192 42.8354C28.972 42.8354 30.6422 44.4826 30.6422 46.5073C30.6422 48.532 28.972 50.1791 26.9192 50.1791ZM26.9192 45.1792C26.1767 45.1792 25.5726 45.775 25.5726 46.5073C25.5726 47.2396 26.1767 47.8354 26.9192 47.8354C27.6618 47.8354 28.2657 47.2396 28.2657 46.5073C28.2657 45.775 27.6617 45.1792 26.9192 45.1792Z" fill="black"/>
<path d="M42.7634 31.1892C42.6861 31.1892 42.6076 31.1811 42.5317 31.1659C42.4555 31.1505 42.3808 31.1284 42.3095 31.0991C42.237 31.0698 42.1681 31.0333 42.1039 30.9913C42.0386 30.9491 41.978 30.8999 41.9233 30.8459C41.7023 30.628 41.5752 30.3257 41.5752 30.0174C41.5752 29.9414 41.5834 29.8639 41.5988 29.7877C41.6144 29.7139 41.6369 29.6401 41.6666 29.5686C41.6963 29.4983 41.7332 29.4303 41.7759 29.367C41.8187 29.3026 41.8686 29.2428 41.9232 29.1889C41.9779 29.135 42.0385 29.0858 42.1038 29.0424C42.168 29.0002 42.2369 28.9639 42.3094 28.9346C42.3807 28.9053 42.4554 28.8829 42.5316 28.8678C42.6848 28.8374 42.8429 28.8374 42.9961 28.8678C43.071 28.8831 43.1458 28.9053 43.2183 28.9346C43.2896 28.9639 43.3585 29.0001 43.4227 29.0424C43.488 29.0858 43.5486 29.135 43.6033 29.1889C43.6579 29.2428 43.7078 29.3026 43.7518 29.367C43.7946 29.4303 43.8314 29.4983 43.8611 29.5686C43.8908 29.6401 43.9134 29.7139 43.9288 29.7877C43.9443 29.8639 43.9514 29.9414 43.9514 30.0174C43.9514 30.3257 43.8254 30.628 43.6032 30.8459C43.5485 30.8999 43.4879 30.9491 43.4226 30.9913C43.3584 31.0333 43.2895 31.0698 43.2182 31.0991C43.1457 31.1284 43.0709 31.1505 42.996 31.1659C42.919 31.1811 42.8406 31.1892 42.7634 31.1892Z" fill="black"/>
<path d="M38.0979 31.1892H18.0212C17.365 31.1892 16.833 30.6646 16.833 30.0173C16.833 29.3702 17.365 28.8455 18.0212 28.8455H38.0979C38.754 28.8455 39.286 29.3702 39.286 30.0173C39.286 30.6646 38.754 31.1892 38.0979 31.1892Z" fill="black"/>
<path d="M59.6486 18.7666L46.7773 10.0857L43.8327 14.3327L56.704 23.0136L59.6486 18.7666Z" fill="#8ABCFF"/>
<path d="M60.3171 17.8007L47.4468 9.1208C46.9051 8.75552 46.166 8.8924 45.7954 9.42665L42.8511 13.6732C42.6732 13.9298 42.6059 14.2455 42.6642 14.5509C42.7223 14.8563 42.9011 15.1265 43.1613 15.3019L44.6247 16.2889L39.5844 23.5586C38.7381 23.1162 37.8598 22.7358 36.9581 22.4209V8.05709H39.048C39.7041 8.05709 40.2361 7.53232 40.2361 6.88522V1.18969C40.2361 0.542586 39.7041 0.0178223 39.048 0.0178223H21.7867C21.1304 0.0178223 20.5985 0.542586 20.5985 1.18969V6.88522C20.5985 7.53232 21.1304 8.05709 21.7867 8.05709H23.8764V22.4211C22.9748 22.7359 22.0965 23.1163 21.2502 23.5587L16.21 16.2889L17.6733 15.3021C17.9334 15.1266 18.1122 14.8564 18.1705 14.551C18.2287 14.2456 18.1613 13.9298 17.9836 13.6733L15.0394 9.42677C14.669 8.89251 13.9296 8.75576 13.3879 9.12091L0.517644 17.8007C-0.0240447 18.166 -0.162942 18.8954 0.20753 19.4295L3.1517 23.6761C3.32957 23.9327 3.60357 24.109 3.91321 24.1664C3.98604 24.1799 4.05935 24.1866 4.13254 24.1866C4.37018 24.1866 4.60425 24.1162 4.80327 23.9821L6.26662 22.9952L12.7277 32.3143C11.4753 34.8998 10.8161 37.7666 10.8161 40.6506C10.8161 51.3105 19.6092 59.9829 30.4174 59.9829C41.2256 59.9829 50.0187 51.3105 50.0187 40.6506C50.0187 37.7667 49.3595 34.8998 48.1072 32.3143L54.5684 22.9952L56.0317 23.9821C56.2307 24.1163 56.4648 24.1866 56.7024 24.1866C56.7755 24.1866 56.8488 24.1799 56.9218 24.1664C57.2315 24.1091 57.5054 23.9328 57.6833 23.6761L60.6274 19.4295C60.9976 18.8953 60.8587 18.166 60.3171 17.8007ZM22.9748 2.36156H37.8597V5.71335H22.9748V2.36156ZM4.44265 21.3858L2.83969 19.074L13.7484 11.7171L15.3513 14.0289L4.44265 21.3858ZM45.7507 31.5607C45.5025 31.9188 45.4751 32.3828 45.6794 32.7668C46.9636 35.1794 47.6423 37.9057 47.6423 40.6504C47.6423 50.018 39.9152 57.639 30.4173 57.639C20.9194 57.639 13.1924 50.018 13.1924 40.6504C13.1924 37.9056 13.871 35.1794 15.1552 32.7668C15.3596 32.3828 15.3321 31.9188 15.0839 31.5607L8.22806 21.6722L14.2484 17.6121L19.9051 25.771C20.2612 26.2845 20.9622 26.4339 21.5019 26.1116C22.7275 25.3787 24.0422 24.7998 25.4095 24.3909C25.9103 24.2411 26.2528 23.7856 26.2528 23.2695V8.05709H34.5816V23.2693C34.5816 23.7855 34.924 24.2409 35.425 24.3906C36.7925 24.7997 38.107 25.3787 39.3325 26.1114C39.8724 26.4344 40.5732 26.2846 40.9293 25.7708L46.5861 17.6119L52.6064 21.6722L45.7507 31.5607ZM56.3921 21.3858L45.4833 14.0288L47.0863 11.717L57.9949 19.0738L56.3921 21.3858Z" fill="black"/>
</g>
<path d="M91.577 19.0323H84.0776L82.5457 22.5502H78.9561L86.364 6.65217H89.222L96.63 22.5502H93.1089L91.577 19.0323ZM90.4109 16.3714L87.8273 10.4181L85.2437 16.3714H90.4109Z" fill="black"/>
<path d="M113.983 6.65217V22.5502H110.851V13.1241L107.147 19.9343H104.86L101.157 13.2143V22.5502H98.0241V6.65217H100.836L106.027 16.3714L111.217 6.65217H113.983Z" fill="black"/>
<path d="M117.225 6.65217H128.337V9.38076H120.701V13.1016H127.88V15.8302H120.701V19.8216H128.337V22.5502H117.225V6.65217Z" fill="black"/>
<path d="M144.771 22.5502H140.884L138.095 17.4763C137.866 17.0855 137.592 16.8073 137.272 16.642C136.952 16.4616 136.548 16.3714 136.06 16.3714H134.3V22.5502H130.779V6.65217H138.186C140.077 6.65217 141.502 7.06559 142.462 7.89244C143.438 8.70425 143.925 9.88439 143.925 11.4328C143.925 12.6355 143.582 13.6428 142.896 14.4546C142.226 15.2664 141.273 15.8001 140.038 16.0557C140.877 16.2661 141.586 16.86 142.165 17.8371L144.771 22.5502ZM137.661 13.7104C138.682 13.7104 139.421 13.5375 139.878 13.1918C140.336 12.831 140.564 12.2747 140.564 11.523C140.564 10.7563 140.336 10.2001 139.878 9.85432C139.421 9.50855 138.682 9.33566 137.661 9.33566H134.254V13.7104H137.661Z" fill="black"/>
<path d="M146.81 6.65217H150.377V22.5502H146.81V6.65217Z" fill="black"/>
<path d="M161.144 22.7531C159.513 22.7531 158.087 22.4149 156.868 21.7383C155.664 21.0618 154.734 20.1072 154.079 18.8745C153.438 17.6417 153.118 16.2135 153.118 14.5899C153.118 12.9663 153.438 11.5381 154.079 10.3053C154.734 9.07258 155.664 8.12546 156.868 7.46398C158.087 6.78747 159.513 6.44922 161.144 6.44922C162.211 6.44922 163.232 6.61459 164.207 6.94533C165.183 7.26103 165.983 7.70452 166.608 8.2758L165.465 10.7789C164.764 10.2527 164.063 9.86935 163.361 9.62882C162.675 9.38828 161.959 9.26801 161.212 9.26801C159.779 9.26801 158.674 9.71902 157.897 10.621C157.135 11.523 156.754 12.846 156.754 14.5899C156.754 16.3338 157.135 17.6643 157.897 18.5813C158.674 19.4833 159.779 19.9343 161.212 19.9343C161.959 19.9343 162.675 19.8141 163.361 19.5735C164.063 19.333 164.764 18.9496 165.465 18.4234L166.608 20.9265C165.983 21.4978 165.183 21.9488 164.207 22.2796C163.232 22.5953 162.211 22.7531 161.144 22.7531Z" fill="black"/>
<path d="M179.617 19.0323H172.118L170.586 22.5502H166.996L174.404 6.65217H177.262L184.67 22.5502H181.149L179.617 19.0323ZM178.451 16.3714L175.867 10.4181L173.284 16.3714H178.451Z" fill="black"/>
<path d="M200.011 6.65217V22.5502H197.359L189.334 12.4251V22.5502H186.018V6.65217H188.648L196.673 16.7322V6.65217H200.011Z" fill="black"/>
<path d="M80.808 37.2562H84.3748V53.1542H80.808V37.2562Z" fill="black"/>
<path d="M101.566 37.2562V53.1542H98.9141L90.8888 43.0291V53.1542H87.5735V37.2562H90.2028L98.2281 47.3362V37.2562H101.566Z" fill="black"/>
<path d="M108.493 40.1201H103.44V37.2562H117.113V40.1201H112.06V53.1542H108.493V40.1201Z" fill="black"/>
<path d="M118.989 37.2562H130.101V39.9848H122.465V43.7056H129.644V46.4342H122.465V50.4256H130.101V53.1542H118.989V37.2562Z" fill="black"/>
<path d="M146.535 53.1542H142.648L139.859 48.0804C139.63 47.6895 139.356 47.4114 139.036 47.246C138.716 47.0656 138.312 46.9754 137.824 46.9754H136.063V53.1542H132.542V37.2562H139.95C141.84 37.2562 143.266 37.6696 144.226 38.4965C145.201 39.3083 145.689 40.4884 145.689 42.0369C145.689 43.2396 145.346 44.2468 144.66 45.0586C143.99 45.8704 143.037 46.4041 141.802 46.6597C142.641 46.8702 143.35 47.464 143.929 48.4412L146.535 53.1542ZM139.425 44.3145C140.446 44.3145 141.185 44.1416 141.642 43.7958C142.1 43.435 142.328 42.8787 142.328 42.1271C142.328 41.3604 142.1 40.8041 141.642 40.4583C141.185 40.1126 140.446 39.9397 139.425 39.9397H136.018V44.3145H139.425Z" fill="black"/>
<path d="M162.567 37.2562V53.1542H159.915L151.889 43.0291V53.1542H148.574V37.2562H151.203L159.229 47.3362V37.2562H162.567Z" fill="black"/>
<path d="M176.536 49.6363H169.036L167.504 53.1542H163.915L171.323 37.2562H174.181L181.589 53.1542H178.068L176.536 49.6363ZM175.37 46.9754L172.786 41.0221L170.202 46.9754H175.37Z" fill="black"/>
<path d="M184.61 40.1201H179.557V37.2562H193.23V40.1201H188.177V53.1542H184.61V40.1201Z" fill="black"/>
<path d="M195.106 37.2562H198.673V53.1542H195.106V37.2562Z" fill="black"/>
<path d="M209.279 53.3571C207.679 53.3571 206.284 53.0264 205.095 52.3649C203.922 51.6884 203.015 50.7413 202.374 49.5236C201.734 48.2908 201.414 46.8476 201.414 45.1939C201.414 43.5402 201.734 42.1045 202.374 40.8868C203.015 39.6541 203.922 38.7069 205.095 38.0455C206.284 37.384 207.679 37.0532 209.279 37.0532C210.88 37.0532 212.267 37.384 213.441 38.0455C214.63 38.7069 215.544 39.6541 216.184 40.8868C216.825 42.1045 217.145 43.5402 217.145 45.1939C217.145 46.8476 216.825 48.2908 216.184 49.5236C215.544 50.7413 214.63 51.6884 213.441 52.3649C212.267 53.0264 210.88 53.3571 209.279 53.3571ZM209.279 50.6286C210.621 50.6286 211.672 50.1625 212.435 49.2304C213.212 48.2983 213.601 46.9528 213.601 45.1939C213.601 43.435 213.22 42.097 212.457 41.18C211.695 40.2479 210.636 39.7818 209.279 39.7818C207.923 39.7818 206.863 40.2479 206.101 41.18C205.354 42.097 204.981 43.435 204.981 45.1939C204.981 46.9528 205.362 48.2983 206.124 49.2304C206.886 50.1625 207.938 50.6286 209.279 50.6286Z" fill="black"/>
<path d="M233.861 37.2562V53.1542H231.209L223.183 43.0291V53.1542H219.868V37.2562H222.497L230.523 47.3362V37.2562H233.861Z" fill="black"/>
<path d="M247.83 49.6363H240.33L238.798 53.1542H235.209L242.617 37.2562H245.475L252.883 53.1542H249.361L247.83 49.6363ZM246.664 46.9754L244.08 41.0221L241.496 46.9754H246.664Z" fill="black"/>
<path d="M254.231 37.2562H257.798V50.2903H265V53.1542H254.231V37.2562Z" fill="black"/>
<defs>
<clipPath id="clip0">
<rect width="60.8347" height="60" fill="white"/>
</clipPath>
</defs>
</svg>
