<svg width="44" height="44" viewBox="0 0 44 44" fill="none" xmlns="http://www.w3.org/2000/svg">
<path d="M21.9816 3.66663C11.8616 3.66663 3.64832 11.88 3.64832 22C3.64832 32.12 11.8616 40.3333 21.9816 40.3333C32.1016 40.3333 40.315 32.12 40.315 22C40.315 11.88 32.1016 3.66663 21.9816 3.66663ZM28.6 15.29C30.5616 15.29 32.1383 16.8666 32.1383 18.8283C32.1383 20.79 30.5616 22.3666 28.6 22.3666C26.6383 22.3666 25.0616 20.79 25.0616 18.8283C25.0433 16.8666 26.6383 15.29 28.6 15.29ZM17.6 12.3933C19.9833 12.3933 21.9266 14.3366 21.9266 16.72C21.9266 19.1033 19.9833 21.0466 17.6 21.0466C15.2166 21.0466 13.2733 19.1033 13.2733 16.72C13.2733 14.3183 15.1983 12.3933 17.6 12.3933ZM17.6 29.1316V36.0066C13.2 34.6316 9.71665 31.24 8.17665 26.9133C10.1016 24.86 14.905 23.815 17.6 23.815C18.5716 23.815 19.8 23.9616 21.0833 24.2183C18.0766 25.8133 17.6 27.9216 17.6 29.1316ZM21.9816 36.6666C21.4866 36.6666 21.01 36.6483 20.5333 36.5933V29.1316C20.5333 26.5283 25.9233 25.2266 28.6 25.2266C30.5616 25.2266 33.9533 25.9416 35.64 27.335C33.495 32.78 28.1966 36.6666 21.9816 36.6666Z" fill="#FB882C"/>
</svg>
