<svg width="152" height="165" viewBox="0 0 152 165" fill="none" xmlns="http://www.w3.org/2000/svg">
<path d="M81.0952 17.194C86.3658 31.3036 103.615 29.1803 115.32 26.1666C118.126 25.4132 121.001 24.5913 123.534 23.1529C126.067 21.7145 128.189 19.3858 129.01 16.5776C129.9 13.4269 128.873 9.93372 127.093 7.194C125.451 4.65975 123.055 1.98852 120.522 0.34468C119.427 3.1529 115.525 3.35838 112.856 3.35838C109.091 3.35838 105.669 1.92002 102.178 0.892625C98.6183 -0.134772 94.7851 -0.340252 91.2257 0.618652C84.0385 2.33098 78.2887 9.65975 81.0952 17.194Z" fill="black"/>
<path d="M91.8414 111.646C91.636 111.646 91.5676 111.646 91.4307 111.714L91.8414 111.646Z" fill="black"/>
<path d="M91.8414 111.646C91.636 111.646 91.5676 111.646 91.4307 111.714L91.8414 111.646Z" fill="black"/>
<rect x="92.2559" y="41.8652" width="19" height="18" fill="#AC7751"/>
<path d="M92.2559 112.365V91.3652L109.756 89.3652V112.865C110.089 115.032 109.756 119.465 105.756 119.865C101.756 120.265 95.0892 117.699 92.2559 116.365V112.365Z" fill="#AC7751"/>
<path d="M76.6455 42.9475V29.7283C76.6455 18.4955 87.1183 9.31738 99.9184 9.31738C106.284 9.31738 112.102 11.5777 116.346 15.2763C120.59 18.9749 123.191 24.0434 123.191 29.6598V42.879" fill="#AC7751"/>
<path d="M76.6455 42.9475V29.7283C76.6455 18.4955 87.1183 9.31738 99.9184 9.31738C106.284 9.31738 112.102 11.5777 116.346 15.2763C120.59 18.9749 123.191 24.0434 123.191 29.6598V42.879" stroke="black" stroke-width="2" stroke-miterlimit="10"/>
<path d="M123.191 57.2625V72.5364C123.191 83.7693 112.718 92.9474 99.9184 92.9474C87.1183 92.9474 76.6455 83.7693 76.6455 72.5364V57.2625" fill="#AC7751"/>
<path d="M123.191 57.2625V72.5364C123.191 83.7693 112.718 92.9474 99.9184 92.9474C87.1183 92.9474 76.6455 83.7693 76.6455 72.5364V57.2625" stroke="black" stroke-width="2" stroke-miterlimit="10"/>
<path d="M86.0918 61.9887C92.6318 61.9887 97.9336 56.6836 97.9336 50.1394C97.9336 43.5952 92.6318 38.29 86.0918 38.29C79.5518 38.29 74.25 43.5952 74.25 50.1394C74.25 56.6836 79.5518 61.9887 86.0918 61.9887Z" fill="#FCFCFC" stroke="black" stroke-width="2" stroke-miterlimit="10"/>
<path d="M113.677 61.9887C120.217 61.9887 125.519 56.6836 125.519 50.1394C125.519 43.5952 120.217 38.29 113.677 38.29C107.137 38.29 101.835 43.5952 101.835 50.1394C101.835 56.6836 107.137 61.9887 113.677 61.9887Z" fill="#FCFCFC" stroke="black" stroke-width="2" stroke-miterlimit="10"/>
<path d="M97.8652 49.7969H101.972" stroke="black" stroke-width="4" stroke-miterlimit="10"/>
<path d="M109.433 91.0981H109.502V112.536" stroke="black" stroke-width="2" stroke-miterlimit="10"/>
<path d="M92.3892 112.262V91.646" stroke="black" stroke-width="2" stroke-miterlimit="10"/>
<path d="M86.0915 52.8789C87.6036 52.8789 88.8295 51.6522 88.8295 50.1391C88.8295 48.626 87.6036 47.3994 86.0915 47.3994C84.5794 47.3994 83.3535 48.626 83.3535 50.1391C83.3535 51.6522 84.5794 52.8789 86.0915 52.8789Z" fill="black"/>
<path d="M113.677 52.8789C115.189 52.8789 116.415 51.6522 116.415 50.1391C116.415 48.626 115.189 47.3994 113.677 47.3994C112.165 47.3994 110.939 48.626 110.939 50.1391C110.939 51.6522 112.165 52.8789 113.677 52.8789Z" fill="black"/>
<path d="M75.0715 54.5913H73.7025C72.1966 54.5913 70.8276 55.2077 69.8009 56.1666C68.8426 57.194 68.2266 58.5639 68.2266 60.0708C68.2266 63.0845 70.6908 65.5502 73.7025 65.5502H76.4405" fill="#AC7751"/>
<path d="M75.0715 54.5913H73.7025C72.1966 54.5913 70.8276 55.2077 69.8009 56.1666C68.8426 57.194 68.2266 58.5639 68.2266 60.0708C68.2266 63.0845 70.6908 65.5502 73.7025 65.5502H76.4405" stroke="black" stroke-width="2" stroke-miterlimit="10"/>
<path d="M124.697 54.5913H126.066C129.078 54.5913 131.542 57.0571 131.542 60.0708C131.542 61.5776 130.926 62.9475 129.899 63.9749C128.941 64.9338 127.572 65.5502 126.066 65.5502H123.328" fill="#AC7751"/>
<path d="M124.697 54.5913H126.066C129.078 54.5913 131.542 57.0571 131.542 60.0708C131.542 61.5776 130.926 62.9475 129.899 63.9749C128.941 64.9338 127.572 65.5502 126.066 65.5502H123.328" stroke="black" stroke-width="2" stroke-miterlimit="10"/>
<path d="M76.509 58.4268V61.7144H74.3186C73.4287 61.7144 72.6758 60.961 72.6758 60.0706C72.6758 59.5911 72.8811 59.1802 73.1549 58.9062C73.4287 58.6322 73.8394 58.4268 74.3186 58.4268H76.509Z" fill="black"/>
<path d="M123.328 61.7144V58.4268H125.519C126.408 58.4268 127.161 59.1802 127.161 60.0706C127.161 60.55 126.956 60.961 126.682 61.235C126.408 61.5089 125.998 61.7144 125.519 61.7144H123.328Z" fill="black"/>
<path d="M99.9186 61.4404C99.9186 61.4404 96.4961 66.9199 101.972 65.55" stroke="black" stroke-width="2" stroke-miterlimit="10" stroke-linecap="round"/>
<path d="M93.7583 77.2625C93.7583 77.2625 99.2343 84.0433 106.764 77.2625" stroke="black" stroke-width="2" stroke-miterlimit="10" stroke-linecap="round"/>
<path d="M80.7529 36.098C80.7529 36.098 84.5177 32.3308 91.0204 35.413" stroke="black" stroke-width="3" stroke-miterlimit="10" stroke-linecap="round"/>
<path d="M119.084 36.098C119.084 36.098 115.32 32.3308 108.817 35.413" stroke="black" stroke-width="3" stroke-miterlimit="10" stroke-linecap="round"/>
<path d="M76.5089 28.29C76.5089 28.29 67.0629 20.9612 71.1699 12.0571C75.2768 3.15299 88.2823 7.94751 88.2823 7.94751C88.2823 7.94751 93.4845 30.1393 76.5089 28.29Z" fill="black"/>
<path d="M29.5521 83.0173C28.7307 80.3461 27.567 79.0447 26.951 75.1406C25.6504 67.3324 26.1296 59.8666 22.9125 60.1406C21.6119 60.2776 21.2012 61.6474 21.2697 62.4009L22.2964 74.7296C21.8857 76.168 21.1328 75.62 21.1328 75.62C21.1328 75.62 18.4632 64.6611 18.121 62.6748C17.7787 60.757 16.8204 59.6611 15.5199 59.7981C13.2611 60.0036 14.1509 62.7433 14.3562 63.7707L16.752 77.0584C16.9573 78.3598 15.5883 77.9488 15.5883 77.9488L10.2493 64.6611C9.63322 63.2228 8.46957 63.5652 8.46957 63.5652C6.34763 64.0447 7.16903 65.9625 7.16903 65.9625L11.7552 80.0721C11.7552 80.1406 11.7552 80.2091 11.7552 80.2776C11.8236 81.031 10.8653 81.4419 10.4546 80.757C9.01717 78.5652 6.21073 75.0721 3.88344 73.7022C2.7198 73.0173 1.8984 73.1543 1.41925 73.4967C0.940107 73.8392 0.871657 74.4556 1.21391 74.9351L9.77012 87.3324C11.7552 100.483 19.7638 102.058 19.7638 102.058L24.5552 120.826L31.6056 150.415L32.4954 154.182C33.3168 157.812 36.6024 160.415 40.2987 160.415H44.0634C46.7329 160.415 48.5811 157.812 47.7597 155.346L30.7157 103.428L29.9628 98.9077C31.6056 97.0584 32.7008 93.1543 33.2484 90.3461C33.5906 88.8392 33.7275 87.2639 33.5906 85.757C33.3168 81.9899 35.8494 75.2091 35.8494 75.2091C35.6441 73.9077 33.1799 75.0036 33.1799 75.0036C30.4419 75.9625 29.7574 80.3461 29.5521 82.7433C29.4836 83.7707 29.0045 84.6611 28.32 85.3461C24.213 89.3872 23.8708 93.9077 23.8708 93.9077" fill="#AC7751"/>
<path d="M29.5521 83.0173C28.7307 80.3461 27.567 79.0447 26.951 75.1406C25.6504 67.3324 26.1296 59.8666 22.9125 60.1406C21.6119 60.2776 21.2012 61.6474 21.2697 62.4009L22.2964 74.7296C21.8857 76.168 21.1328 75.62 21.1328 75.62C21.1328 75.62 18.4632 64.6611 18.121 62.6748C17.7787 60.757 16.8204 59.6611 15.5199 59.7981C13.2611 60.0036 14.1509 62.7433 14.3562 63.7707L16.752 77.0584C16.9573 78.3598 15.5883 77.9488 15.5883 77.9488L10.2493 64.6611C9.63322 63.2228 8.46957 63.5652 8.46957 63.5652C6.34763 64.0447 7.16903 65.9625 7.16903 65.9625L11.7552 80.0721C11.7552 80.1406 11.7552 80.2091 11.7552 80.2776C11.8236 81.031 10.8653 81.4419 10.4546 80.757C9.01717 78.5652 6.21073 75.0721 3.88344 73.7022C2.7198 73.0173 1.8984 73.1543 1.41925 73.4967C0.940107 73.8392 0.871657 74.4556 1.21391 74.9351L9.77012 87.3324C11.7552 100.483 19.7638 102.058 19.7638 102.058L24.5552 120.826L31.6056 150.415L32.4954 154.182C33.3168 157.812 36.6024 160.415 40.2987 160.415H44.0634C46.7329 160.415 48.5811 157.812 47.7597 155.346L30.7157 103.428L29.9628 98.9077C31.6056 97.0584 32.7008 93.1543 33.2484 90.3461C33.5906 88.8392 33.7275 87.2639 33.5906 85.757C33.3168 81.9899 35.8494 75.2091 35.8494 75.2091C35.6441 73.9077 33.1799 75.0036 33.1799 75.0036C30.4419 75.9625 29.7574 80.3461 29.5521 82.7433C29.4836 83.7707 29.0045 84.6611 28.32 85.3461C24.213 89.3872 23.8708 93.9077 23.8708 93.9077" stroke="black" stroke-width="2" stroke-miterlimit="10"/>
<mask id="path-30-inside-1" fill="white">
<path d="M151.256 164.18V164.865H136.334L133.185 147.399V164.865H68.5688V154.934C68.5688 152.536 68.5688 150.139 68.6373 147.742C67.1998 148.906 65.6255 149.865 63.7774 150.893L49.4714 160.482C49.4029 160.55 49.3345 160.55 49.266 160.619C48.65 160.961 47.9655 161.167 47.2125 161.167L44.2376 161.28C44.2376 161.28 47.4179 160.071 48.1708 157.057L43.0371 139.934C50.3612 133.838 62.203 116.235 84.9283 112.605C85.8866 112.399 86.9134 112.194 88.0085 112.057C89.0353 111.92 90.062 111.783 91.2257 111.714L91.9786 111.646V111.783L91.5679 111.851C91.7048 111.851 91.7733 111.851 91.9102 111.783H91.9786C92.1155 111.783 92.2524 111.783 92.3893 111.714H92.4578L93.1423 111.646V114.249C93.1423 114.591 93.2792 115.002 93.6214 115.345C94.6482 116.509 96.9755 117.399 99.7819 117.605C100.261 117.673 100.74 117.673 101.219 117.673C101.288 117.673 101.356 117.673 101.356 117.673H101.425C104.163 117.605 106.695 116.851 107.996 115.756C108.407 115.413 108.817 114.934 108.817 114.249V111.851L109.502 111.988H109.639C109.844 111.988 109.981 112.057 110.186 112.057V111.851L111.076 111.988C136.197 115.071 151.256 134.591 151.256 164.18Z"/>
</mask>
<path d="M151.256 164.18V164.865H136.334L133.185 147.399V164.865H68.5688V154.934C68.5688 152.536 68.5688 150.139 68.6373 147.742C67.1998 148.906 65.6255 149.865 63.7774 150.893L49.4714 160.482C49.4029 160.55 49.3345 160.55 49.266 160.619C48.65 160.961 47.9655 161.167 47.2125 161.167L44.2376 161.28C44.2376 161.28 47.4179 160.071 48.1708 157.057L43.0371 139.934C50.3612 133.838 62.203 116.235 84.9283 112.605C85.8866 112.399 86.9134 112.194 88.0085 112.057C89.0353 111.92 90.062 111.783 91.2257 111.714L91.9786 111.646V111.783L91.5679 111.851C91.7048 111.851 91.7733 111.851 91.9102 111.783H91.9786C92.1155 111.783 92.2524 111.783 92.3893 111.714H92.4578L93.1423 111.646V114.249C93.1423 114.591 93.2792 115.002 93.6214 115.345C94.6482 116.509 96.9755 117.399 99.7819 117.605C100.261 117.673 100.74 117.673 101.219 117.673C101.288 117.673 101.356 117.673 101.356 117.673H101.425C104.163 117.605 106.695 116.851 107.996 115.756C108.407 115.413 108.817 114.934 108.817 114.249V111.851L109.502 111.988H109.639C109.844 111.988 109.981 112.057 110.186 112.057V111.851L111.076 111.988C136.197 115.071 151.256 134.591 151.256 164.18Z" fill="#155b75"/>
<path d="M151.256 164.865V166.865H153.256V164.865H151.256ZM136.334 164.865L134.366 165.22L134.662 166.865H136.334V164.865ZM133.185 147.399L135.154 147.045L131.185 147.399H133.185ZM133.185 164.865V166.865H135.185V164.865H133.185ZM68.5688 164.865H66.5688V166.865H68.5688V164.865ZM68.6373 147.742L70.6365 147.799L70.7607 143.448L67.3784 146.188L68.6373 147.742ZM63.7774 150.893L62.8056 149.145L62.7329 149.185L62.6638 149.231L63.7774 150.893ZM49.4714 160.482L48.3578 158.82L48.1952 158.929L48.0567 159.068L49.4714 160.482ZM49.266 160.619L50.2378 162.367L50.4827 162.231L50.6807 162.032L49.266 160.619ZM47.2125 161.167V159.167H47.1746L47.1366 159.168L47.2125 161.167ZM44.2376 161.28L43.5269 159.41L44.3135 163.278L44.2376 161.28ZM48.1708 157.057L50.1112 157.542L50.2443 157.009L50.0866 156.483L48.1708 157.057ZM43.0371 139.934L41.7577 138.396L40.7418 139.242L41.1214 140.508L43.0371 139.934ZM84.9283 112.605L85.2438 114.58L85.296 114.572L85.3476 114.56L84.9283 112.605ZM88.0085 112.057L88.2568 114.041L88.2649 114.04L88.273 114.039L88.0085 112.057ZM91.2257 111.714L91.3432 113.711L91.3751 113.709L91.4069 113.706L91.2257 111.714ZM91.9786 111.646H93.9786V109.456L91.7974 109.654L91.9786 111.646ZM91.5679 111.851L91.2389 109.879L91.5679 113.851V111.851ZM91.9102 111.783V109.783H91.4378L91.0153 109.994L91.9102 111.783ZM92.3893 111.714V109.714H91.9169L91.4944 109.926L92.3893 111.714ZM92.4578 111.714V113.714H92.5576L92.6569 113.705L92.4578 111.714ZM93.1423 111.646H95.1423V109.436L92.9431 109.656L93.1423 111.646ZM93.6214 115.345L95.1215 114.022L95.0802 113.975L95.0361 113.931L93.6214 115.345ZM99.7819 117.605L100.065 115.625L99.9967 115.615L99.9279 115.61L99.7819 117.605ZM101.425 117.673V119.673H101.45L101.475 119.673L101.425 117.673ZM107.996 115.756L106.715 114.22L106.707 114.226L107.996 115.756ZM108.817 111.851L109.21 109.89L106.817 109.412V111.851H108.817ZM109.502 111.988L109.109 113.95L109.304 113.988H109.502V111.988ZM110.186 112.057V114.057H112.186V112.057H110.186ZM110.186 111.851L110.491 109.875L108.186 109.52V111.851H110.186ZM111.076 111.988L110.772 113.965L110.802 113.97L110.833 113.974L111.076 111.988ZM149.256 164.18V164.865H153.256V164.18H149.256ZM151.256 162.865H136.334V166.865H151.256V162.865ZM138.302 164.51L135.154 147.045L131.217 147.754L134.366 165.22L138.302 164.51ZM131.185 147.399V164.865H135.185V147.399H131.185ZM133.185 162.865H68.5688V166.865H133.185V162.865ZM70.5688 164.865V154.934H66.5688V164.865H70.5688ZM70.5688 154.934C70.5688 152.532 70.569 150.163 70.6365 147.799L66.6381 147.685C66.5687 150.115 66.5688 152.541 66.5688 154.934H70.5688ZM67.3784 146.188C66.0764 147.242 64.6216 148.135 62.8056 149.145L64.7491 152.641C66.6294 151.595 68.3233 150.57 69.8962 149.296L67.3784 146.188ZM62.6638 149.231L48.3578 158.82L50.5849 162.143L64.8909 152.554L62.6638 149.231ZM48.0567 159.068C48.1627 158.962 48.2691 158.883 48.3596 158.827C48.4016 158.8 48.4359 158.782 48.4556 158.771C48.4725 158.762 48.4859 158.755 48.4739 158.761C48.4688 158.764 48.4382 158.779 48.4043 158.797C48.3674 158.817 48.316 158.845 48.2569 158.882C48.1322 158.96 47.9915 159.065 47.8514 159.205L50.6807 162.032C50.5748 162.138 50.4683 162.217 50.3778 162.274C50.3358 162.3 50.3015 162.319 50.2818 162.329C50.2649 162.338 50.2515 162.345 50.2635 162.339C50.2686 162.336 50.2992 162.321 50.3331 162.303C50.37 162.283 50.4214 162.255 50.4805 162.218C50.6052 162.14 50.7459 162.036 50.886 161.895L48.0567 159.068ZM48.2943 158.871C47.9387 159.068 47.5857 159.167 47.2125 159.167V163.167C48.3453 163.167 49.3613 162.854 50.2378 162.367L48.2943 158.871ZM47.1366 159.168L44.1616 159.281L44.3135 163.278L47.2884 163.165L47.1366 159.168ZM44.2376 161.28C44.9482 163.149 44.9489 163.149 44.9496 163.149C44.9498 163.148 44.9506 163.148 44.9511 163.148C44.9521 163.148 44.9531 163.147 44.9543 163.147C44.9565 163.146 44.9589 163.145 44.9615 163.144C44.9668 163.142 44.9728 163.14 44.9797 163.137C44.9933 163.131 45.0101 163.125 45.0297 163.117C45.0691 163.101 45.1202 163.079 45.1817 163.052C45.3045 162.998 45.4698 162.921 45.6656 162.82C46.0547 162.618 46.5791 162.313 47.1356 161.888C48.2307 161.052 49.5855 159.646 50.1112 157.542L46.2305 156.572C46.0033 157.482 45.3914 158.187 44.7081 158.709C44.3754 158.963 44.0576 159.148 43.8269 159.267C43.7128 159.326 43.6238 159.367 43.5697 159.391C43.5427 159.403 43.5248 159.411 43.5172 159.414C43.5134 159.415 43.5122 159.416 43.5137 159.415C43.5145 159.415 43.516 159.414 43.5182 159.413C43.5193 159.413 43.5206 159.412 43.522 159.412C43.5227 159.412 43.5235 159.411 43.5243 159.411C43.5247 159.411 43.5254 159.411 43.5256 159.411C43.5263 159.41 43.5269 159.41 44.2376 161.28ZM50.0866 156.483L44.9529 139.359L41.1214 140.508L46.2551 157.631L50.0866 156.483ZM44.3165 141.471C46.2522 139.86 48.4692 137.506 50.9101 134.997C53.3951 132.443 56.2138 129.619 59.4902 126.879C66.032 121.409 74.3492 116.32 85.2438 114.58L84.6128 110.63C72.7822 112.52 63.8158 118.048 56.9243 123.81C53.4841 126.687 50.5488 129.633 48.0434 132.208C45.4939 134.828 43.4841 136.96 41.7577 138.396L44.3165 141.471ZM85.3476 114.56C86.2904 114.358 87.2494 114.167 88.2568 114.041L87.7603 110.072C86.5773 110.22 85.4828 110.441 84.509 110.649L85.3476 114.56ZM88.273 114.039C89.3055 113.902 90.2633 113.775 91.3432 113.711L91.1082 109.718C89.8608 109.791 88.7651 109.938 87.7441 110.075L88.273 114.039ZM91.4069 113.706L92.1598 113.638L91.7974 109.654L91.0445 109.723L91.4069 113.706ZM89.9786 111.646V111.783H93.9786V111.646H89.9786ZM91.6496 109.81L91.2389 109.879L91.8969 113.824L92.3076 113.756L91.6496 109.81ZM91.5679 113.851C91.597 113.851 91.8226 113.857 92.0681 113.816C92.3632 113.766 92.6066 113.671 92.8051 113.572L91.0153 109.994C91.0769 109.964 91.2176 109.902 91.41 109.87C91.4925 109.856 91.5558 109.853 91.583 109.852C91.6011 109.851 91.612 109.851 91.5679 109.851V113.851ZM91.9102 113.783H91.9786V109.783H91.9102V113.783ZM91.9786 113.783C92.0651 113.783 92.6664 113.812 93.2842 113.503L91.4944 109.926C91.6741 109.836 91.8355 109.802 91.9358 109.79C92.0114 109.78 92.0674 109.783 91.9786 109.783V113.783ZM92.3893 113.714H92.4578V109.714H92.3893V113.714ZM92.6569 113.705L93.3414 113.636L92.9431 109.656L92.2586 109.724L92.6569 113.705ZM91.1423 111.646V114.249H95.1423V111.646H91.1423ZM91.1423 114.249C91.1423 115.109 91.4807 116.032 92.2068 116.758L95.0361 113.931C95.0777 113.972 95.1423 114.074 95.1423 114.249H91.1423ZM92.1213 116.667C92.9342 117.589 94.1081 118.253 95.3383 118.709C96.5993 119.177 98.0711 119.485 99.6358 119.6L99.9279 115.61C98.6862 115.519 97.5912 115.279 96.7303 114.959C95.8385 114.628 95.3353 114.264 95.1215 114.022L92.1213 116.667ZM99.4989 119.585C100.142 119.677 100.763 119.673 101.219 119.673V115.673C100.717 115.673 100.38 115.67 100.065 115.625L99.4989 119.585ZM101.219 119.673C101.219 119.673 101.22 119.673 101.22 119.673C101.22 119.673 101.22 119.673 101.22 119.673C101.22 119.673 101.22 119.673 101.221 119.673C101.221 119.673 101.221 119.673 101.221 119.673C101.221 119.673 101.221 119.673 101.221 119.673C101.221 119.673 101.222 119.673 101.222 119.673C101.222 119.673 101.222 119.673 101.222 119.673C101.222 119.673 101.222 119.673 101.223 119.673C101.223 119.673 101.223 119.673 101.223 119.673C101.223 119.673 101.223 119.673 101.223 119.673C101.223 119.673 101.224 119.673 101.224 119.673C101.224 119.673 101.224 119.673 101.224 119.673C101.224 119.673 101.224 119.673 101.225 119.673C101.225 119.673 101.225 119.673 101.225 119.673C101.225 119.673 101.225 119.673 101.225 119.673C101.225 119.673 101.226 119.673 101.226 119.673C101.226 119.673 101.226 119.673 101.226 119.673C101.226 119.673 101.226 119.673 101.227 119.673C101.227 119.673 101.227 119.673 101.227 119.673C101.227 119.673 101.227 119.673 101.227 119.673C101.227 119.673 101.228 119.673 101.228 119.673C101.228 119.673 101.228 119.673 101.228 119.673C101.228 119.673 101.228 119.673 101.229 119.673C101.229 119.673 101.229 119.673 101.229 119.673C101.229 119.673 101.229 119.673 101.229 119.673C101.229 119.673 101.23 119.673 101.23 119.673C101.23 119.673 101.23 119.673 101.23 119.673C101.23 119.673 101.23 119.673 101.231 119.673C101.231 119.673 101.231 119.673 101.231 119.673C101.231 119.673 101.231 119.673 101.231 119.673C101.231 119.673 101.232 119.673 101.232 119.673C101.232 119.673 101.232 119.673 101.232 119.673C101.232 119.673 101.232 119.673 101.233 119.673C101.233 119.673 101.233 119.673 101.233 119.673C101.233 119.673 101.233 119.673 101.233 119.673C101.233 119.673 101.234 119.673 101.234 119.673C101.234 119.673 101.234 119.673 101.234 119.673C101.234 119.673 101.234 119.673 101.235 119.673C101.235 119.673 101.235 119.673 101.235 119.673C101.235 119.673 101.235 119.673 101.235 119.673C101.235 119.673 101.236 119.673 101.236 119.673C101.236 119.673 101.236 119.673 101.236 119.673C101.236 119.673 101.236 119.673 101.237 119.673C101.237 119.673 101.237 119.673 101.237 119.673C101.237 119.673 101.237 119.673 101.237 119.673C101.237 119.673 101.238 119.673 101.238 119.673C101.238 119.673 101.238 119.673 101.238 119.673C101.238 119.673 101.238 119.673 101.239 119.673C101.239 119.673 101.239 119.673 101.239 119.673C101.239 119.673 101.239 119.673 101.239 119.673C101.239 119.673 101.24 119.673 101.24 119.673C101.24 119.673 101.24 119.673 101.24 119.673C101.24 119.673 101.24 119.673 101.241 119.673C101.241 119.673 101.241 119.673 101.241 119.673C101.241 119.673 101.241 119.673 101.241 119.673C101.241 119.673 101.242 119.673 101.242 119.673C101.242 119.673 101.242 119.673 101.242 119.673C101.242 119.673 101.242 119.673 101.243 119.673C101.243 119.673 101.243 119.673 101.243 119.673C101.243 119.673 101.243 119.673 101.243 119.673C101.243 119.673 101.244 119.673 101.244 119.673C101.244 119.673 101.244 119.673 101.244 119.673C101.244 119.673 101.244 119.673 101.244 119.673C101.245 119.673 101.245 119.673 101.245 119.673C101.245 119.673 101.245 119.673 101.245 119.673C101.245 119.673 101.246 119.673 101.246 119.673C101.246 119.673 101.246 119.673 101.246 119.673C101.246 119.673 101.246 119.673 101.246 119.673C101.247 119.673 101.247 119.673 101.247 119.673C101.247 119.673 101.247 119.673 101.247 119.673C101.247 119.673 101.248 119.673 101.248 119.673C101.248 119.673 101.248 119.673 101.248 119.673C101.248 119.673 101.248 119.673 101.248 119.673C101.249 119.673 101.249 119.673 101.249 119.673C101.249 119.673 101.249 119.673 101.249 119.673C101.249 119.673 101.249 119.673 101.25 119.673C101.25 119.673 101.25 119.673 101.25 119.673C101.25 119.673 101.25 119.673 101.25 119.673C101.251 119.673 101.251 119.673 101.251 119.673C101.251 119.673 101.251 119.673 101.251 119.673C101.251 119.673 101.251 119.673 101.252 119.673C101.252 119.673 101.252 119.673 101.252 119.673C101.252 119.673 101.252 119.673 101.252 119.673C101.252 119.673 101.253 119.673 101.253 119.673C101.253 119.673 101.253 119.673 101.253 119.673C101.253 119.673 101.253 119.673 101.254 119.673C101.254 119.673 101.254 119.673 101.254 119.673C101.254 119.673 101.254 119.673 101.254 119.673C101.254 119.673 101.255 119.673 101.255 119.673C101.255 119.673 101.255 119.673 101.255 119.673C101.255 119.673 101.255 119.673 101.255 119.673C101.256 119.673 101.256 119.673 101.256 119.673C101.256 119.673 101.256 119.673 101.256 119.673C101.256 119.673 101.256 119.673 101.257 119.673C101.257 119.673 101.257 119.673 101.257 119.673C101.257 119.673 101.257 119.673 101.257 119.673C101.258 119.673 101.258 119.673 101.258 119.673C101.258 119.673 101.258 119.673 101.258 119.673C101.258 119.673 101.258 119.673 101.259 119.673C101.259 119.673 101.259 119.673 101.259 119.673C101.259 119.673 101.259 119.673 101.259 119.673C101.259 119.673 101.26 119.673 101.26 119.673C101.26 119.673 101.26 119.673 101.26 119.673C101.26 119.673 101.26 119.673 101.26 119.673C101.261 119.673 101.261 119.673 101.261 119.673C101.261 119.673 101.261 119.673 101.261 119.673C101.261 119.673 101.262 119.673 101.262 119.673C101.262 119.673 101.262 119.673 101.262 119.673C101.262 119.673 101.262 119.673 101.262 119.673C101.263 119.673 101.263 119.673 101.263 119.673C101.263 119.673 101.263 119.673 101.263 119.673C101.263 119.673 101.263 119.673 101.264 119.673C101.264 119.673 101.264 119.673 101.264 119.673C101.264 119.673 101.264 119.673 101.264 119.673C101.264 119.673 101.265 119.673 101.265 119.673C101.265 119.673 101.265 119.673 101.265 119.673C101.265 119.673 101.265 119.673 101.265 119.673C101.266 119.673 101.266 119.673 101.266 119.673C101.266 119.673 101.266 119.673 101.266 119.673C101.266 119.673 101.266 119.673 101.267 119.673C101.267 119.673 101.267 119.673 101.267 119.673C101.267 119.673 101.267 119.673 101.267 119.673C101.267 119.673 101.268 119.673 101.268 119.673C101.268 119.673 101.268 119.673 101.268 119.673C101.268 119.673 101.268 119.673 101.268 119.673C101.269 119.673 101.269 119.673 101.269 119.673C101.269 119.673 101.269 119.673 101.269 119.673C101.269 119.673 101.269 119.673 101.27 119.673C101.27 119.673 101.27 119.673 101.27 119.673C101.27 119.673 101.27 119.673 101.27 119.673C101.27 119.673 101.271 119.673 101.271 119.673C101.271 119.673 101.271 119.673 101.271 119.673C101.271 119.673 101.271 119.673 101.271 119.673C101.272 119.673 101.272 119.673 101.272 119.673C101.272 119.673 101.272 119.673 101.272 119.673C101.272 119.673 101.272 119.673 101.273 119.673C101.273 119.673 101.273 119.673 101.273 119.673C101.273 119.673 101.273 119.673 101.273 119.673C101.273 119.673 101.274 119.673 101.274 119.673C101.274 119.673 101.274 119.673 101.274 119.673C101.274 119.673 101.274 119.673 101.274 119.673C101.275 119.673 101.275 119.673 101.275 119.673C101.275 119.673 101.275 119.673 101.275 119.673C101.275 119.673 101.275 119.673 101.276 119.673C101.276 119.673 101.276 119.673 101.276 119.673C101.276 119.673 101.276 119.673 101.276 119.673C101.276 119.673 101.277 119.673 101.277 119.673C101.277 119.673 101.277 119.673 101.277 119.673C101.277 119.673 101.277 119.673 101.277 119.673C101.278 119.673 101.278 119.673 101.278 119.673C101.278 119.673 101.278 119.673 101.278 119.673C101.278 119.673 101.278 119.673 101.279 119.673C101.279 119.673 101.279 119.673 101.279 119.673C101.279 119.673 101.279 119.673 101.279 119.673C101.279 119.673 101.279 119.673 101.28 119.673C101.28 119.673 101.28 119.673 101.28 119.673C101.28 119.673 101.28 119.673 101.28 119.673C101.28 119.673 101.281 119.673 101.281 119.673C101.281 119.673 101.281 119.673 101.281 119.673C101.281 119.673 101.281 119.673 101.281 119.673C101.282 119.673 101.282 119.673 101.282 119.673C101.282 119.673 101.282 119.673 101.282 119.673C101.282 119.673 101.282 119.673 101.283 119.673C101.283 119.673 101.283 119.673 101.283 119.673C101.283 119.673 101.283 119.673 101.283 119.673C101.283 119.673 101.283 119.673 101.284 119.673C101.284 119.673 101.284 119.673 101.284 119.673C101.284 119.673 101.284 119.673 101.284 119.673C101.284 119.673 101.285 119.673 101.285 119.673C101.285 119.673 101.285 119.673 101.285 119.673C101.285 119.673 101.285 119.673 101.285 119.673C101.285 119.673 101.286 119.673 101.286 119.673C101.286 119.673 101.286 119.673 101.286 119.673C101.286 119.673 101.286 119.673 101.286 119.673C101.287 119.673 101.287 119.673 101.287 119.673C101.287 119.673 101.287 119.673 101.287 119.673C101.287 119.673 101.287 119.673 101.288 119.673C101.288 119.673 101.288 119.673 101.288 119.673C101.288 119.673 101.288 119.673 101.288 119.673C101.288 119.673 101.288 119.673 101.289 119.673C101.289 119.673 101.289 119.673 101.289 119.673C101.289 119.673 101.289 119.673 101.289 119.673C101.289 119.673 101.289 119.673 101.29 119.673C101.29 119.673 101.29 119.673 101.29 119.673C101.29 119.673 101.29 119.673 101.29 119.673C101.29 119.673 101.291 119.673 101.291 119.673C101.291 119.673 101.291 119.673 101.291 119.673C101.291 119.673 101.291 119.673 101.291 119.673C101.291 119.673 101.292 119.673 101.292 119.673C101.292 119.673 101.292 119.673 101.292 119.673C101.292 119.673 101.292 119.673 101.292 119.673C101.293 119.673 101.293 119.673 101.293 119.673C101.293 119.673 101.293 119.673 101.293 119.673C101.293 119.673 101.293 119.673 101.293 119.673C101.294 119.673 101.294 119.673 101.294 119.673C101.294 119.673 101.294 119.673 101.294 119.673C101.294 119.673 101.294 119.673 101.294 119.673C101.295 119.673 101.295 119.673 101.295 119.673C101.295 119.673 101.295 119.673 101.295 119.673C101.295 119.673 101.295 119.673 101.295 119.673C101.296 119.673 101.296 119.673 101.296 119.673C101.296 119.673 101.296 119.673 101.296 119.673C101.296 119.673 101.296 119.673 101.296 119.673C101.297 119.673 101.297 119.673 101.297 119.673C101.297 119.673 101.297 119.673 101.297 119.673C101.297 119.673 101.297 119.673 101.298 119.673C101.298 119.673 101.298 119.673 101.298 119.673C101.298 119.673 101.298 119.673 101.298 119.673C101.298 119.673 101.298 119.673 101.299 119.673C101.299 119.673 101.299 119.673 101.299 119.673C101.299 119.673 101.299 119.673 101.299 119.673C101.299 119.673 101.299 119.673 101.3 119.673C101.3 119.673 101.3 119.673 101.3 119.673C101.3 119.673 101.3 119.673 101.3 119.673C101.3 119.673 101.3 119.673 101.301 119.673C101.301 119.673 101.301 119.673 101.301 119.673C101.301 119.673 101.301 119.673 101.301 119.673C101.301 119.673 101.301 119.673 101.301 119.673C101.302 119.673 101.302 119.673 101.302 119.673C101.302 119.673 101.302 119.673 101.302 119.673C101.302 119.673 101.302 119.673 101.302 119.673C101.303 119.673 101.303 119.673 101.303 119.673C101.303 119.673 101.303 119.673 101.303 119.673C101.303 119.673 101.303 119.673 101.303 119.673C101.304 119.673 101.304 119.673 101.304 119.673C101.304 119.673 101.304 119.673 101.304 119.673C101.304 119.673 101.304 119.673 101.304 119.673C101.305 119.673 101.305 119.673 101.305 119.673C101.305 119.673 101.305 119.673 101.305 119.673C101.305 119.673 101.305 119.673 101.305 119.673C101.305 119.673 101.306 119.673 101.306 119.673C101.306 119.673 101.306 119.673 101.306 119.673C101.306 119.673 101.306 119.673 101.306 119.673C101.306 119.673 101.307 119.673 101.307 119.673C101.307 119.673 101.307 119.673 101.307 119.673C101.307 119.673 101.307 119.673 101.307 119.673C101.307 119.673 101.307 119.673 101.308 119.673C101.308 119.673 101.308 119.673 101.308 119.673C101.308 119.673 101.308 119.673 101.308 119.673C101.308 119.673 101.308 119.673 101.309 119.673C101.309 119.673 101.309 119.673 101.309 119.673C101.309 119.673 101.309 119.673 101.309 119.673C101.309 119.673 101.309 119.673 101.309 119.673C101.31 119.673 101.31 119.673 101.31 119.673C101.31 119.673 101.31 119.673 101.31 119.673C101.31 119.673 101.31 119.673 101.31 119.673C101.311 119.673 101.311 119.673 101.311 119.673C101.311 119.673 101.311 119.673 101.311 119.673C101.311 119.673 101.311 119.673 101.311 119.673C101.311 119.673 101.312 119.673 101.312 119.673C101.312 119.673 101.312 119.673 101.312 119.673C101.312 119.673 101.312 119.673 101.312 119.673C101.312 119.673 101.312 119.673 101.313 119.673C101.313 119.673 101.313 119.673 101.313 119.673C101.313 119.673 101.313 119.673 101.313 119.673C101.313 119.673 101.313 119.673 101.313 119.673C101.314 119.673 101.314 119.673 101.314 119.673C101.314 119.673 101.314 119.673 101.314 119.673C101.314 119.673 101.314 119.673 101.314 119.673C101.314 119.673 101.315 119.673 101.315 119.673C101.315 119.673 101.315 119.673 101.315 119.673C101.315 119.673 101.315 119.673 101.315 119.673C101.315 119.673 101.315 119.673 101.316 119.673C101.316 119.673 101.316 119.673 101.316 119.673C101.316 119.673 101.316 119.673 101.316 119.673C101.316 119.673 101.316 119.673 101.316 119.673C101.317 119.673 101.317 119.673 101.317 119.673C101.317 119.673 101.317 119.673 101.317 119.673C101.317 119.673 101.317 119.673 101.317 119.673C101.317 119.673 101.317 119.673 101.318 119.673C101.318 119.673 101.318 119.673 101.318 119.673C101.318 119.673 101.318 119.673 101.318 119.673C101.318 119.673 101.318 119.673 101.318 119.673C101.319 119.673 101.319 119.673 101.319 119.673C101.319 119.673 101.319 119.673 101.319 119.673C101.319 119.673 101.319 119.673 101.319 119.673C101.319 119.673 101.319 119.673 101.32 119.673C101.32 119.673 101.32 119.673 101.32 119.673C101.32 119.673 101.32 119.673 101.32 119.673C101.32 119.673 101.32 119.673 101.32 119.673C101.321 119.673 101.321 119.673 101.321 119.673C101.321 119.673 101.321 119.673 101.321 119.673C101.321 119.673 101.321 119.673 101.321 119.673C101.321 119.673 101.321 119.673 101.322 119.673C101.322 119.673 101.322 119.673 101.322 119.673C101.322 119.673 101.322 119.673 101.322 119.673C101.322 119.673 101.322 119.673 101.322 119.673C101.322 119.673 101.323 119.673 101.323 119.673C101.323 119.673 101.323 119.673 101.323 119.673C101.323 119.673 101.323 119.673 101.323 119.673C101.323 119.673 101.323 119.673 101.323 119.673C101.324 119.673 101.324 119.673 101.324 119.673C101.324 119.673 101.324 119.673 101.324 119.673C101.324 119.673 101.324 119.673 101.324 119.673C101.324 119.673 101.324 119.673 101.325 119.673C101.325 119.673 101.325 119.673 101.325 119.673C101.325 119.673 101.325 119.673 101.325 119.673C101.325 119.673 101.325 119.673 101.325 119.673C101.325 119.673 101.326 119.673 101.326 119.673C101.326 119.673 101.326 119.673 101.326 119.673C101.326 119.673 101.326 119.673 101.326 119.673C101.326 119.673 101.326 119.673 101.326 119.673C101.326 119.673 101.327 119.673 101.327 119.673C101.327 119.673 101.327 119.673 101.327 119.673C101.327 119.673 101.327 119.673 101.327 119.673C101.327 119.673 101.327 119.673 101.327 119.673C101.328 119.673 101.328 119.673 101.328 119.673C101.328 119.673 101.328 119.673 101.328 119.673C101.328 119.673 101.328 119.673 101.328 119.673C101.328 119.673 101.328 119.673 101.328 119.673C101.329 119.673 101.329 119.673 101.329 119.673C101.329 119.673 101.329 119.673 101.329 119.673C101.329 119.673 101.329 119.673 101.329 119.673C101.329 119.673 101.329 119.673 101.329 119.673C101.33 119.673 101.33 119.673 101.33 119.673C101.33 119.673 101.33 119.673 101.33 119.673C101.33 119.673 101.33 119.673 101.33 119.673C101.33 119.673 101.33 119.673 101.33 119.673C101.331 119.673 101.331 119.673 101.331 119.673C101.331 119.673 101.331 119.673 101.331 119.673C101.331 119.673 101.331 119.673 101.331 119.673C101.331 119.673 101.331 119.673 101.331 119.673C101.332 119.673 101.332 119.673 101.332 119.673C101.332 119.673 101.332 119.673 101.332 119.673C101.332 119.673 101.332 119.673 101.332 119.673C101.332 119.673 101.332 119.673 101.332 119.673C101.332 119.673 101.333 119.673 101.333 119.673C101.333 119.673 101.333 119.673 101.333 119.673C101.333 119.673 101.333 119.673 101.333 119.673C101.333 119.673 101.333 119.673 101.333 119.673C101.333 119.673 101.334 119.673 101.334 119.673C101.334 119.673 101.334 119.673 101.334 119.673C101.334 119.673 101.334 119.673 101.334 119.673C101.334 119.673 101.334 119.673 101.334 119.673C101.334 119.673 101.334 119.673 101.335 119.673C101.335 119.673 101.335 119.673 101.335 119.673C101.335 119.673 101.335 119.673 101.335 119.673C101.335 119.673 101.335 119.673 101.335 119.673C101.335 119.673 101.335 119.673 101.335 119.673C101.336 119.673 101.336 119.673 101.336 119.673C101.336 119.673 101.336 119.673 101.336 119.673C101.336 119.673 101.336 119.673 101.336 119.673C101.336 119.673 101.336 119.673 101.336 119.673C101.336 119.673 101.336 119.673 101.337 119.673C101.337 119.673 101.337 119.673 101.337 119.673C101.337 119.673 101.337 119.673 101.337 119.673C101.337 119.673 101.337 119.673 101.337 119.673C101.337 119.673 101.337 119.673 101.337 119.673C101.337 119.673 101.338 119.673 101.338 119.673C101.338 119.673 101.338 119.673 101.338 119.673C101.338 119.673 101.338 119.673 101.338 119.673C101.338 119.673 101.338 119.673 101.338 119.673C101.338 119.673 101.338 119.673 101.338 119.673C101.339 119.673 101.339 119.673 101.339 119.673C101.339 119.673 101.339 119.673 101.339 119.673C101.339 119.673 101.339 119.673 101.339 119.673C101.339 119.673 101.339 119.673 101.339 119.673C101.339 119.673 101.339 119.673 101.34 119.673C101.34 119.673 101.34 119.673 101.34 119.673C101.34 119.673 101.34 119.673 101.34 119.673C101.34 119.673 101.34 119.673 101.34 119.673C101.34 119.673 101.34 119.673 101.34 119.673C101.34 119.673 101.34 119.673 101.341 119.673C101.341 119.673 101.341 119.673 101.341 119.673C101.341 119.673 101.341 119.673 101.341 119.673C101.341 119.673 101.341 119.673 101.341 119.673C101.341 119.673 101.341 119.673 101.341 119.673C101.341 119.673 101.341 119.673 101.342 119.673C101.342 119.673 101.342 119.673 101.342 119.673C101.342 119.673 101.342 119.673 101.342 119.673C101.342 119.673 101.342 119.673 101.342 119.673C101.342 119.673 101.342 119.673 101.342 119.673C101.342 119.673 101.342 119.673 101.342 119.673C101.343 119.673 101.343 119.673 101.343 119.673C101.343 119.673 101.343 119.673 101.343 119.673C101.343 119.673 101.343 119.673 101.343 119.673C101.343 119.673 101.343 119.673 101.343 119.673C101.343 119.673 101.343 119.673 101.343 119.673C101.343 119.673 101.344 119.673 101.344 119.673C101.344 119.673 101.344 119.673 101.344 119.673C101.344 119.673 101.344 119.673 101.344 119.673C101.344 119.673 101.344 119.673 101.344 119.673C101.344 119.673 101.344 119.673 101.344 119.673C101.344 119.673 101.344 119.673 101.344 119.673C101.345 119.673 101.345 119.673 101.345 119.673C101.345 119.673 101.345 119.673 101.345 119.673C101.345 119.673 101.345 119.673 101.345 119.673C101.345 119.673 101.345 119.673 101.345 119.673C101.345 119.673 101.345 119.673 101.345 119.673C101.345 119.673 101.345 119.673 101.346 119.673C101.346 119.673 101.346 119.673 101.346 119.673C101.346 119.673 101.346 119.673 101.346 119.673C101.346 119.673 101.346 119.673 101.346 119.673C101.346 119.673 101.346 119.673 101.346 119.673C101.346 119.673 101.346 119.673 101.346 119.673C101.346 119.673 101.346 119.673 101.346 119.673C101.347 119.673 101.347 119.673 101.347 119.673C101.347 119.673 101.347 119.673 101.347 119.673C101.347 119.673 101.347 119.673 101.347 119.673C101.347 119.673 101.347 119.673 101.347 119.673C101.347 119.673 101.347 119.673 101.347 119.673C101.347 119.673 101.347 119.673 101.347 119.673C101.347 119.673 101.348 119.673 101.348 119.673C101.348 119.673 101.348 119.673 101.348 119.673C101.348 119.673 101.348 119.673 101.348 119.673C101.348 119.673 101.348 119.673 101.348 119.673C101.348 119.673 101.348 119.673 101.348 119.673C101.348 119.673 101.348 119.673 101.348 119.673C101.348 119.673 101.348 119.673 101.348 119.673C101.349 119.673 101.349 119.673 101.349 119.673C101.349 119.673 101.349 119.673 101.349 119.673C101.349 119.673 101.349 119.673 101.349 119.673C101.349 119.673 101.349 119.673 101.349 119.673C101.349 119.673 101.349 119.673 101.349 119.673C101.349 119.673 101.349 119.673 101.349 119.673C101.349 119.673 101.349 119.673 101.349 119.673C101.35 119.673 101.35 119.673 101.35 119.673C101.35 119.673 101.35 119.673 101.35 119.673C101.35 119.673 101.35 119.673 101.35 119.673C101.35 119.673 101.35 119.673 101.35 119.673C101.35 119.673 101.35 119.673 101.35 119.673C101.35 119.673 101.35 119.673 101.35 119.673C101.35 119.673 101.35 119.673 101.35 119.673C101.35 119.673 101.35 119.673 101.351 119.673C101.351 119.673 101.351 119.673 101.351 119.673C101.351 119.673 101.351 119.673 101.351 119.673C101.351 119.673 101.351 119.673 101.351 119.673C101.351 119.673 101.351 119.673 101.351 119.673C101.351 119.673 101.351 119.673 101.351 119.673C101.351 119.673 101.351 119.673 101.351 119.673C101.351 119.673 101.351 119.673 101.351 119.673C101.351 119.673 101.351 119.673 101.351 119.673C101.352 119.673 101.352 119.673 101.352 119.673C101.352 119.673 101.352 119.673 101.352 119.673C101.352 119.673 101.352 119.673 101.352 119.673C101.352 119.673 101.352 119.673 101.352 119.673C101.352 119.673 101.352 119.673 101.352 119.673C101.352 119.673 101.352 119.673 101.352 119.673C101.352 119.673 101.352 119.673 101.352 119.673C101.352 119.673 101.352 119.673 101.352 119.673C101.352 119.673 101.352 119.673 101.352 119.673C101.353 119.673 101.353 119.673 101.353 119.673C101.353 119.673 101.353 119.673 101.353 119.673C101.353 119.673 101.353 119.673 101.353 119.673C101.353 119.673 101.353 119.673 101.353 119.673C101.353 119.673 101.353 119.673 101.353 119.673C101.353 119.673 101.353 119.673 101.353 119.673C101.353 119.673 101.353 119.673 101.353 119.673C101.353 119.673 101.353 119.673 101.353 119.673C101.353 119.673 101.353 119.673 101.353 119.673C101.353 119.673 101.353 119.673 101.353 119.673C101.353 119.673 101.353 119.673 101.354 119.673C101.354 119.673 101.354 119.673 101.354 119.673C101.354 119.673 101.354 119.673 101.354 119.673C101.354 119.673 101.354 119.673 101.354 119.673C101.354 119.673 101.354 119.673 101.354 119.673C101.354 119.673 101.354 119.673 101.354 119.673C101.354 119.673 101.354 119.673 101.354 119.673C101.354 119.673 101.354 119.673 101.354 119.673C101.354 119.673 101.354 119.673 101.354 119.673C101.354 119.673 101.354 119.673 101.354 119.673C101.354 119.673 101.354 119.673 101.354 119.673C101.354 119.673 101.354 119.673 101.354 119.673C101.354 119.673 101.354 119.673 101.354 119.673C101.355 119.673 101.355 119.673 101.355 119.673C101.355 119.673 101.355 119.673 101.355 119.673C101.355 119.673 101.355 119.673 101.355 119.673C101.355 119.673 101.355 119.673 101.355 119.673C101.355 119.673 101.355 119.673 101.355 119.673C101.355 119.673 101.355 119.673 101.355 119.673C101.355 119.673 101.355 119.673 101.355 119.673C101.355 119.673 101.355 119.673 101.355 119.673C101.355 119.673 101.355 119.673 101.355 119.673C101.355 119.673 101.355 119.673 101.355 119.673C101.355 119.673 101.355 119.673 101.355 119.673C101.355 119.673 101.355 119.673 101.355 119.673C101.355 119.673 101.355 119.673 101.355 119.673C101.355 119.673 101.355 119.673 101.355 119.673C101.355 119.673 101.355 119.673 101.355 119.673C101.355 119.673 101.355 119.673 101.355 119.673C101.355 119.673 101.355 119.673 101.355 119.673C101.356 119.673 101.356 119.673 101.356 119.673C101.356 119.673 101.356 119.673 101.356 119.673C101.356 119.673 101.356 119.673 101.356 119.673C101.356 119.673 101.356 119.673 101.356 119.673C101.356 119.673 101.356 119.673 101.356 119.673C101.356 119.673 101.356 119.673 101.356 119.673C101.356 119.673 101.356 119.673 101.356 119.673C101.356 119.673 101.356 119.673 101.356 119.673C101.356 119.673 101.356 119.673 101.356 119.673C101.356 119.673 101.356 119.673 101.356 119.673C101.356 119.673 101.356 119.673 101.356 119.673C101.356 119.673 101.356 119.673 101.356 119.673C101.356 119.673 101.356 119.673 101.356 119.673C101.356 119.673 101.356 119.673 101.356 119.673C101.356 119.673 101.356 119.673 101.356 119.673C101.356 119.673 101.356 119.673 101.356 119.673C101.356 119.673 101.356 119.673 101.356 119.673C101.356 119.673 101.356 119.673 101.356 119.673C101.356 119.673 101.356 119.673 101.356 119.673C101.356 119.673 101.356 119.673 101.356 119.673C101.356 119.673 101.356 119.673 101.356 119.673C101.356 119.673 101.356 119.673 101.356 119.673C101.356 119.673 101.356 119.673 101.356 119.673C101.356 119.673 101.356 119.673 101.356 119.673C101.356 119.673 101.356 119.673 101.356 119.673C101.356 119.673 101.356 119.673 101.356 119.673C101.356 119.673 101.356 119.673 101.356 119.673H101.356H101.356H101.356C101.356 119.673 101.356 119.673 101.356 117.673C101.356 115.673 101.356 115.673 101.356 115.673H101.356H101.356H101.356C101.356 115.673 101.356 115.673 101.356 115.673C101.356 115.673 101.356 115.673 101.356 115.673C101.356 115.673 101.356 115.673 101.356 115.673C101.356 115.673 101.356 115.673 101.356 115.673C101.356 115.673 101.356 115.673 101.356 115.673C101.356 115.673 101.356 115.673 101.356 115.673C101.356 115.673 101.356 115.673 101.356 115.673C101.356 115.673 101.356 115.673 101.356 115.673C101.356 115.673 101.356 115.673 101.356 115.673C101.356 115.673 101.356 115.673 101.356 115.673C101.356 115.673 101.356 115.673 101.356 115.673C101.356 115.673 101.356 115.673 101.356 115.673C101.356 115.673 101.356 115.673 101.356 115.673C101.356 115.673 101.356 115.673 101.356 115.673C101.356 115.673 101.356 115.673 101.356 115.673C101.356 115.673 101.356 115.673 101.356 115.673C101.356 115.673 101.356 115.673 101.356 115.673C101.356 115.673 101.356 115.673 101.356 115.673C101.356 115.673 101.356 115.673 101.356 115.673C101.356 115.673 101.356 115.673 101.356 115.673C101.356 115.673 101.356 115.673 101.356 115.673C101.356 115.673 101.356 115.673 101.356 115.673C101.356 115.673 101.356 115.673 101.356 115.673C101.356 115.673 101.356 115.673 101.356 115.673C101.356 115.673 101.356 115.673 101.356 115.673C101.356 115.673 101.356 115.673 101.356 115.673C101.356 115.673 101.356 115.673 101.355 115.673C101.355 115.673 101.355 115.673 101.355 115.673C101.355 115.673 101.355 115.673 101.355 115.673C101.355 115.673 101.355 115.673 101.355 115.673C101.355 115.673 101.355 115.673 101.355 115.673C101.355 115.673 101.355 115.673 101.355 115.673C101.355 115.673 101.355 115.673 101.355 115.673C101.355 115.673 101.355 115.673 101.355 115.673C101.355 115.673 101.355 115.673 101.355 115.673C101.355 115.673 101.355 115.673 101.355 115.673C101.355 115.673 101.355 115.673 101.355 115.673C101.355 115.673 101.355 115.673 101.355 115.673C101.355 115.673 101.355 115.673 101.355 115.673C101.355 115.673 101.355 115.673 101.355 115.673C101.355 115.673 101.355 115.673 101.355 115.673C101.355 115.673 101.355 115.673 101.355 115.673C101.355 115.673 101.355 115.673 101.355 115.673C101.355 115.673 101.355 115.673 101.354 115.673C101.354 115.673 101.354 115.673 101.354 115.673C101.354 115.673 101.354 115.673 101.354 115.673C101.354 115.673 101.354 115.673 101.354 115.673C101.354 115.673 101.354 115.673 101.354 115.673C101.354 115.673 101.354 115.673 101.354 115.673C101.354 115.673 101.354 115.673 101.354 115.673C101.354 115.673 101.354 115.673 101.354 115.673C101.354 115.673 101.354 115.673 101.354 115.673C101.354 115.673 101.354 115.673 101.354 115.673C101.354 115.673 101.354 115.673 101.354 115.673C101.354 115.673 101.354 115.673 101.354 115.673C101.354 115.673 101.354 115.673 101.354 115.673C101.353 115.673 101.353 115.673 101.353 115.673C101.353 115.673 101.353 115.673 101.353 115.673C101.353 115.673 101.353 115.673 101.353 115.673C101.353 115.673 101.353 115.673 101.353 115.673C101.353 115.673 101.353 115.673 101.353 115.673C101.353 115.673 101.353 115.673 101.353 115.673C101.353 115.673 101.353 115.673 101.353 115.673C101.353 115.673 101.353 115.673 101.353 115.673C101.353 115.673 101.353 115.673 101.353 115.673C101.353 115.673 101.353 115.673 101.353 115.673C101.353 115.673 101.353 115.673 101.352 115.673C101.352 115.673 101.352 115.673 101.352 115.673C101.352 115.673 101.352 115.673 101.352 115.673C101.352 115.673 101.352 115.673 101.352 115.673C101.352 115.673 101.352 115.673 101.352 115.673C101.352 115.673 101.352 115.673 101.352 115.673C101.352 115.673 101.352 115.673 101.352 115.673C101.352 115.673 101.352 115.673 101.352 115.673C101.352 115.673 101.352 115.673 101.352 115.673C101.352 115.673 101.352 115.673 101.351 115.673C101.351 115.673 101.351 115.673 101.351 115.673C101.351 115.673 101.351 115.673 101.351 115.673C101.351 115.673 101.351 115.673 101.351 115.673C101.351 115.673 101.351 115.673 101.351 115.673C101.351 115.673 101.351 115.673 101.351 115.673C101.351 115.673 101.351 115.673 101.351 115.673C101.351 115.673 101.351 115.673 101.351 115.673C101.351 115.673 101.351 115.673 101.351 115.673C101.35 115.673 101.35 115.673 101.35 115.673C101.35 115.673 101.35 115.673 101.35 115.673C101.35 115.673 101.35 115.673 101.35 115.673C101.35 115.673 101.35 115.673 101.35 115.673C101.35 115.673 101.35 115.673 101.35 115.673C101.35 115.673 101.35 115.673 101.35 115.673C101.35 115.673 101.35 115.673 101.35 115.673C101.35 115.673 101.35 115.673 101.349 115.673C101.349 115.673 101.349 115.673 101.349 115.673C101.349 115.673 101.349 115.673 101.349 115.673C101.349 115.673 101.349 115.673 101.349 115.673C101.349 115.673 101.349 115.673 101.349 115.673C101.349 115.673 101.349 115.673 101.349 115.673C101.349 115.673 101.349 115.673 101.349 115.673C101.349 115.673 101.349 115.673 101.348 115.673C101.348 115.673 101.348 115.673 101.348 115.673C101.348 115.673 101.348 115.673 101.348 115.673C101.348 115.673 101.348 115.673 101.348 115.673C101.348 115.673 101.348 115.673 101.348 115.673C101.348 115.673 101.348 115.673 101.348 115.673C101.348 115.673 101.348 115.673 101.348 115.673C101.348 115.673 101.347 115.673 101.347 115.673C101.347 115.673 101.347 115.673 101.347 115.673C101.347 115.673 101.347 115.673 101.347 115.673C101.347 115.673 101.347 115.673 101.347 115.673C101.347 115.673 101.347 115.673 101.347 115.673C101.347 115.673 101.347 115.673 101.347 115.673C101.347 115.673 101.347 115.673 101.346 115.673C101.346 115.673 101.346 115.673 101.346 115.673C101.346 115.673 101.346 115.673 101.346 115.673C101.346 115.673 101.346 115.673 101.346 115.673C101.346 115.673 101.346 115.673 101.346 115.673C101.346 115.673 101.346 115.673 101.346 115.673C101.346 115.673 101.346 115.673 101.346 115.673C101.345 115.673 101.345 115.673 101.345 115.673C101.345 115.673 101.345 115.673 101.345 115.673C101.345 115.673 101.345 115.673 101.345 115.673C101.345 115.673 101.345 115.673 101.345 115.673C101.345 115.673 101.345 115.673 101.345 115.673C101.345 115.673 101.345 115.673 101.344 115.673C101.344 115.673 101.344 115.673 101.344 115.673C101.344 115.673 101.344 115.673 101.344 115.673C101.344 115.673 101.344 115.673 101.344 115.673C101.344 115.673 101.344 115.673 101.344 115.673C101.344 115.673 101.344 115.673 101.344 115.673C101.344 115.673 101.343 115.673 101.343 115.673C101.343 115.673 101.343 115.673 101.343 115.673C101.343 115.673 101.343 115.673 101.343 115.673C101.343 115.673 101.343 115.673 101.343 115.673C101.343 115.673 101.343 115.673 101.343 115.673C101.343 115.673 101.343 115.673 101.342 115.673C101.342 115.673 101.342 115.673 101.342 115.673C101.342 115.673 101.342 115.673 101.342 115.673C101.342 115.673 101.342 115.673 101.342 115.673C101.342 115.673 101.342 115.673 101.342 115.673C101.342 115.673 101.342 115.673 101.342 115.673C101.341 115.673 101.341 115.673 101.341 115.673C101.341 115.673 101.341 115.673 101.341 115.673C101.341 115.673 101.341 115.673 101.341 115.673C101.341 115.673 101.341 115.673 101.341 115.673C101.341 115.673 101.341 115.673 101.341 115.673C101.34 115.673 101.34 115.673 101.34 115.673C101.34 115.673 101.34 115.673 101.34 115.673C101.34 115.673 101.34 115.673 101.34 115.673C101.34 115.673 101.34 115.673 101.34 115.673C101.34 115.673 101.34 115.673 101.34 115.673C101.339 115.673 101.339 115.673 101.339 115.673C101.339 115.673 101.339 115.673 101.339 115.673C101.339 115.673 101.339 115.673 101.339 115.673C101.339 115.673 101.339 115.673 101.339 115.673C101.339 115.673 101.339 115.673 101.338 115.673C101.338 115.673 101.338 115.673 101.338 115.673C101.338 115.673 101.338 115.673 101.338 115.673C101.338 115.673 101.338 115.673 101.338 115.673C101.338 115.673 101.338 115.673 101.338 115.673C101.338 115.673 101.337 115.673 101.337 115.673C101.337 115.673 101.337 115.673 101.337 115.673C101.337 115.673 101.337 115.673 101.337 115.673C101.337 115.673 101.337 115.673 101.337 115.673C101.337 115.673 101.337 115.673 101.337 115.673C101.336 115.673 101.336 115.673 101.336 115.673C101.336 115.673 101.336 115.673 101.336 115.673C101.336 115.673 101.336 115.673 101.336 115.673C101.336 115.673 101.336 115.673 101.336 115.673C101.336 115.673 101.336 115.673 101.335 115.673C101.335 115.673 101.335 115.673 101.335 115.673C101.335 115.673 101.335 115.673 101.335 115.673C101.335 115.673 101.335 115.673 101.335 115.673C101.335 115.673 101.335 115.673 101.335 115.673C101.334 115.673 101.334 115.673 101.334 115.673C101.334 115.673 101.334 115.673 101.334 115.673C101.334 115.673 101.334 115.673 101.334 115.673C101.334 115.673 101.334 115.673 101.334 115.673C101.334 115.673 101.333 115.673 101.333 115.673C101.333 115.673 101.333 115.673 101.333 115.673C101.333 115.673 101.333 115.673 101.333 115.673C101.333 115.673 101.333 115.673 101.333 115.673C101.333 115.673 101.332 115.673 101.332 115.673C101.332 115.673 101.332 115.673 101.332 115.673C101.332 115.673 101.332 115.673 101.332 115.673C101.332 115.673 101.332 115.673 101.332 115.673C101.332 115.673 101.332 115.673 101.331 115.673C101.331 115.673 101.331 115.673 101.331 115.673C101.331 115.673 101.331 115.673 101.331 115.673C101.331 115.673 101.331 115.673 101.331 115.673C101.331 115.673 101.331 115.673 101.33 115.673C101.33 115.673 101.33 115.673 101.33 115.673C101.33 115.673 101.33 115.673 101.33 115.673C101.33 115.673 101.33 115.673 101.33 115.673C101.33 115.673 101.33 115.673 101.329 115.673C101.329 115.673 101.329 115.673 101.329 115.673C101.329 115.673 101.329 115.673 101.329 115.673C101.329 115.673 101.329 115.673 101.329 115.673C101.329 115.673 101.329 115.673 101.328 115.673C101.328 115.673 101.328 115.673 101.328 115.673C101.328 115.673 101.328 115.673 101.328 115.673C101.328 115.673 101.328 115.673 101.328 115.673C101.328 115.673 101.328 115.673 101.327 115.673C101.327 115.673 101.327 115.673 101.327 115.673C101.327 115.673 101.327 115.673 101.327 115.673C101.327 115.673 101.327 115.673 101.327 115.673C101.327 115.673 101.326 115.673 101.326 115.673C101.326 115.673 101.326 115.673 101.326 115.673C101.326 115.673 101.326 115.673 101.326 115.673C101.326 115.673 101.326 115.673 101.326 115.673C101.326 115.673 101.325 115.673 101.325 115.673C101.325 115.673 101.325 115.673 101.325 115.673C101.325 115.673 101.325 115.673 101.325 115.673C101.325 115.673 101.325 115.673 101.325 115.673C101.324 115.673 101.324 115.673 101.324 115.673C101.324 115.673 101.324 115.673 101.324 115.673C101.324 115.673 101.324 115.673 101.324 115.673C101.324 115.673 101.324 115.673 101.323 115.673C101.323 115.673 101.323 115.673 101.323 115.673C101.323 115.673 101.323 115.673 101.323 115.673C101.323 115.673 101.323 115.673 101.323 115.673C101.323 115.673 101.322 115.673 101.322 115.673C101.322 115.673 101.322 115.673 101.322 115.673C101.322 115.673 101.322 115.673 101.322 115.673C101.322 115.673 101.322 115.673 101.322 115.673C101.321 115.673 101.321 115.673 101.321 115.673C101.321 115.673 101.321 115.673 101.321 115.673C101.321 115.673 101.321 115.673 101.321 115.673C101.321 115.673 101.321 115.673 101.32 115.673C101.32 115.673 101.32 115.673 101.32 115.673C101.32 115.673 101.32 115.673 101.32 115.673C101.32 115.673 101.32 115.673 101.32 115.673C101.319 115.673 101.319 115.673 101.319 115.673C101.319 115.673 101.319 115.673 101.319 115.673C101.319 115.673 101.319 115.673 101.319 115.673C101.319 115.673 101.319 115.673 101.318 115.673C101.318 115.673 101.318 115.673 101.318 115.673C101.318 115.673 101.318 115.673 101.318 115.673C101.318 115.673 101.318 115.673 101.318 115.673C101.317 115.673 101.317 115.673 101.317 115.673C101.317 115.673 101.317 115.673 101.317 115.673C101.317 115.673 101.317 115.673 101.317 115.673C101.317 115.673 101.317 115.673 101.316 115.673C101.316 115.673 101.316 115.673 101.316 115.673C101.316 115.673 101.316 115.673 101.316 115.673C101.316 115.673 101.316 115.673 101.316 115.673C101.315 115.673 101.315 115.673 101.315 115.673C101.315 115.673 101.315 115.673 101.315 115.673C101.315 115.673 101.315 115.673 101.315 115.673C101.315 115.673 101.314 115.673 101.314 115.673C101.314 115.673 101.314 115.673 101.314 115.673C101.314 115.673 101.314 115.673 101.314 115.673C101.314 115.673 101.314 115.673 101.313 115.673C101.313 115.673 101.313 115.673 101.313 115.673C101.313 115.673 101.313 115.673 101.313 115.673C101.313 115.673 101.313 115.673 101.313 115.673C101.312 115.673 101.312 115.673 101.312 115.673C101.312 115.673 101.312 115.673 101.312 115.673C101.312 115.673 101.312 115.673 101.312 115.673C101.312 115.673 101.311 115.673 101.311 115.673C101.311 115.673 101.311 115.673 101.311 115.673C101.311 115.673 101.311 115.673 101.311 115.673C101.311 115.673 101.311 115.673 101.31 115.673C101.31 115.673 101.31 115.673 101.31 115.673C101.31 115.673 101.31 115.673 101.31 115.673C101.31 115.673 101.31 115.673 101.309 115.673C101.309 115.673 101.309 115.673 101.309 115.673C101.309 115.673 101.309 115.673 101.309 115.673C101.309 115.673 101.309 115.673 101.309 115.673C101.308 115.673 101.308 115.673 101.308 115.673C101.308 115.673 101.308 115.673 101.308 115.673C101.308 115.673 101.308 115.673 101.308 115.673C101.307 115.673 101.307 115.673 101.307 115.673C101.307 115.673 101.307 115.673 101.307 115.673C101.307 115.673 101.307 115.673 101.307 115.673C101.307 115.673 101.306 115.673 101.306 115.673C101.306 115.673 101.306 115.673 101.306 115.673C101.306 115.673 101.306 115.673 101.306 115.673C101.306 115.673 101.305 115.673 101.305 115.673C101.305 115.673 101.305 115.673 101.305 115.673C101.305 115.673 101.305 115.673 101.305 115.673C101.305 115.673 101.305 115.673 101.304 115.673C101.304 115.673 101.304 115.673 101.304 115.673C101.304 115.673 101.304 115.673 101.304 115.673C101.304 115.673 101.304 115.673 101.303 115.673C101.303 115.673 101.303 115.673 101.303 115.673C101.303 115.673 101.303 115.673 101.303 115.673C101.303 115.673 101.303 115.673 101.302 115.673C101.302 115.673 101.302 115.673 101.302 115.673C101.302 115.673 101.302 115.673 101.302 115.673C101.302 115.673 101.302 115.673 101.301 115.673C101.301 115.673 101.301 115.673 101.301 115.673C101.301 115.673 101.301 115.673 101.301 115.673C101.301 115.673 101.301 115.673 101.301 115.673C101.3 115.673 101.3 115.673 101.3 115.673C101.3 115.673 101.3 115.673 101.3 115.673C101.3 115.673 101.3 115.673 101.3 115.673C101.299 115.673 101.299 115.673 101.299 115.673C101.299 115.673 101.299 115.673 101.299 115.673C101.299 115.673 101.299 115.673 101.299 115.673C101.298 115.673 101.298 115.673 101.298 115.673C101.298 115.673 101.298 115.673 101.298 115.673C101.298 115.673 101.298 115.673 101.298 115.673C101.297 115.673 101.297 115.673 101.297 115.673C101.297 115.673 101.297 115.673 101.297 115.673C101.297 115.673 101.297 115.673 101.296 115.673C101.296 115.673 101.296 115.673 101.296 115.673C101.296 115.673 101.296 115.673 101.296 115.673C101.296 115.673 101.296 115.673 101.295 115.673C101.295 115.673 101.295 115.673 101.295 115.673C101.295 115.673 101.295 115.673 101.295 115.673C101.295 115.673 101.295 115.673 101.294 115.673C101.294 115.673 101.294 115.673 101.294 115.673C101.294 115.673 101.294 115.673 101.294 115.673C101.294 115.673 101.294 115.673 101.293 115.673C101.293 115.673 101.293 115.673 101.293 115.673C101.293 115.673 101.293 115.673 101.293 115.673C101.293 115.673 101.293 115.673 101.292 115.673C101.292 115.673 101.292 115.673 101.292 115.673C101.292 115.673 101.292 115.673 101.292 115.673C101.292 115.673 101.291 115.673 101.291 115.673C101.291 115.673 101.291 115.673 101.291 115.673C101.291 115.673 101.291 115.673 101.291 115.673C101.291 115.673 101.29 115.673 101.29 115.673C101.29 115.673 101.29 115.673 101.29 115.673C101.29 115.673 101.29 115.673 101.29 115.673C101.289 115.673 101.289 115.673 101.289 115.673C101.289 115.673 101.289 115.673 101.289 115.673C101.289 115.673 101.289 115.673 101.289 115.673C101.288 115.673 101.288 115.673 101.288 115.673C101.288 115.673 101.288 115.673 101.288 115.673C101.288 115.673 101.288 115.673 101.288 115.673C101.287 115.673 101.287 115.673 101.287 115.673C101.287 115.673 101.287 115.673 101.287 115.673C101.287 115.673 101.287 115.673 101.286 115.673C101.286 115.673 101.286 115.673 101.286 115.673C101.286 115.673 101.286 115.673 101.286 115.673C101.286 115.673 101.285 115.673 101.285 115.673C101.285 115.673 101.285 115.673 101.285 115.673C101.285 115.673 101.285 115.673 101.285 115.673C101.285 115.673 101.284 115.673 101.284 115.673C101.284 115.673 101.284 115.673 101.284 115.673C101.284 115.673 101.284 115.673 101.284 115.673C101.283 115.673 101.283 115.673 101.283 115.673C101.283 115.673 101.283 115.673 101.283 115.673C101.283 115.673 101.283 115.673 101.283 115.673C101.282 115.673 101.282 115.673 101.282 115.673C101.282 115.673 101.282 115.673 101.282 115.673C101.282 115.673 101.282 115.673 101.281 115.673C101.281 115.673 101.281 115.673 101.281 115.673C101.281 115.673 101.281 115.673 101.281 115.673C101.281 115.673 101.28 115.673 101.28 115.673C101.28 115.673 101.28 115.673 101.28 115.673C101.28 115.673 101.28 115.673 101.28 115.673C101.279 115.673 101.279 115.673 101.279 115.673C101.279 115.673 101.279 115.673 101.279 115.673C101.279 115.673 101.279 115.673 101.279 115.673C101.278 115.673 101.278 115.673 101.278 115.673C101.278 115.673 101.278 115.673 101.278 115.673C101.278 115.673 101.278 115.673 101.277 115.673C101.277 115.673 101.277 115.673 101.277 115.673C101.277 115.673 101.277 115.673 101.277 115.673C101.277 115.673 101.276 115.673 101.276 115.673C101.276 115.673 101.276 115.673 101.276 115.673C101.276 115.673 101.276 115.673 101.276 115.673C101.275 115.673 101.275 115.673 101.275 115.673C101.275 115.673 101.275 115.673 101.275 115.673C101.275 115.673 101.275 115.673 101.274 115.673C101.274 115.673 101.274 115.673 101.274 115.673C101.274 115.673 101.274 115.673 101.274 115.673C101.274 115.673 101.273 115.673 101.273 115.673C101.273 115.673 101.273 115.673 101.273 115.673C101.273 115.673 101.273 115.673 101.273 115.673C101.272 115.673 101.272 115.673 101.272 115.673C101.272 115.673 101.272 115.673 101.272 115.673C101.272 115.673 101.272 115.673 101.271 115.673C101.271 115.673 101.271 115.673 101.271 115.673C101.271 115.673 101.271 115.673 101.271 115.673C101.271 115.673 101.27 115.673 101.27 115.673C101.27 115.673 101.27 115.673 101.27 115.673C101.27 115.673 101.27 115.673 101.27 115.673C101.269 115.673 101.269 115.673 101.269 115.673C101.269 115.673 101.269 115.673 101.269 115.673C101.269 115.673 101.269 115.673 101.268 115.673C101.268 115.673 101.268 115.673 101.268 115.673C101.268 115.673 101.268 115.673 101.268 115.673C101.268 115.673 101.267 115.673 101.267 115.673C101.267 115.673 101.267 115.673 101.267 115.673C101.267 115.673 101.267 115.673 101.267 115.673C101.266 115.673 101.266 115.673 101.266 115.673C101.266 115.673 101.266 115.673 101.266 115.673C101.266 115.673 101.266 115.673 101.265 115.673C101.265 115.673 101.265 115.673 101.265 115.673C101.265 115.673 101.265 115.673 101.265 115.673C101.265 115.673 101.264 115.673 101.264 115.673C101.264 115.673 101.264 115.673 101.264 115.673C101.264 115.673 101.264 115.673 101.264 115.673C101.263 115.673 101.263 115.673 101.263 115.673C101.263 115.673 101.263 115.673 101.263 115.673C101.263 115.673 101.263 115.673 101.262 115.673C101.262 115.673 101.262 115.673 101.262 115.673C101.262 115.673 101.262 115.673 101.262 115.673C101.262 115.673 101.261 115.673 101.261 115.673C101.261 115.673 101.261 115.673 101.261 115.673C101.261 115.673 101.261 115.673 101.26 115.673C101.26 115.673 101.26 115.673 101.26 115.673C101.26 115.673 101.26 115.673 101.26 115.673C101.26 115.673 101.259 115.673 101.259 115.673C101.259 115.673 101.259 115.673 101.259 115.673C101.259 115.673 101.259 115.673 101.259 115.673C101.258 115.673 101.258 115.673 101.258 115.673C101.258 115.673 101.258 115.673 101.258 115.673C101.258 115.673 101.258 115.673 101.257 115.673C101.257 115.673 101.257 115.673 101.257 115.673C101.257 115.673 101.257 115.673 101.257 115.673C101.256 115.673 101.256 115.673 101.256 115.673C101.256 115.673 101.256 115.673 101.256 115.673C101.256 115.673 101.256 115.673 101.255 115.673C101.255 115.673 101.255 115.673 101.255 115.673C101.255 115.673 101.255 115.673 101.255 115.673C101.255 115.673 101.254 115.673 101.254 115.673C101.254 115.673 101.254 115.673 101.254 115.673C101.254 115.673 101.254 115.673 101.254 115.673C101.253 115.673 101.253 115.673 101.253 115.673C101.253 115.673 101.253 115.673 101.253 115.673C101.253 115.673 101.252 115.673 101.252 115.673C101.252 115.673 101.252 115.673 101.252 115.673C101.252 115.673 101.252 115.673 101.252 115.673C101.251 115.673 101.251 115.673 101.251 115.673C101.251 115.673 101.251 115.673 101.251 115.673C101.251 115.673 101.251 115.673 101.25 115.673C101.25 115.673 101.25 115.673 101.25 115.673C101.25 115.673 101.25 115.673 101.25 115.673C101.249 115.673 101.249 115.673 101.249 115.673C101.249 115.673 101.249 115.673 101.249 115.673C101.249 115.673 101.249 115.673 101.248 115.673C101.248 115.673 101.248 115.673 101.248 115.673C101.248 115.673 101.248 115.673 101.248 115.673C101.248 115.673 101.247 115.673 101.247 115.673C101.247 115.673 101.247 115.673 101.247 115.673C101.247 115.673 101.247 115.673 101.246 115.673C101.246 115.673 101.246 115.673 101.246 115.673C101.246 115.673 101.246 115.673 101.246 115.673C101.246 115.673 101.245 115.673 101.245 115.673C101.245 115.673 101.245 115.673 101.245 115.673C101.245 115.673 101.245 115.673 101.244 115.673C101.244 115.673 101.244 115.673 101.244 115.673C101.244 115.673 101.244 115.673 101.244 115.673C101.244 115.673 101.243 115.673 101.243 115.673C101.243 115.673 101.243 115.673 101.243 115.673C101.243 115.673 101.243 115.673 101.243 115.673C101.242 115.673 101.242 115.673 101.242 115.673C101.242 115.673 101.242 115.673 101.242 115.673C101.242 115.673 101.241 115.673 101.241 115.673C101.241 115.673 101.241 115.673 101.241 115.673C101.241 115.673 101.241 115.673 101.241 115.673C101.24 115.673 101.24 115.673 101.24 115.673C101.24 115.673 101.24 115.673 101.24 115.673C101.24 115.673 101.239 115.673 101.239 115.673C101.239 115.673 101.239 115.673 101.239 115.673C101.239 115.673 101.239 115.673 101.239 115.673C101.238 115.673 101.238 115.673 101.238 115.673C101.238 115.673 101.238 115.673 101.238 115.673C101.238 115.673 101.237 115.673 101.237 115.673C101.237 115.673 101.237 115.673 101.237 115.673C101.237 115.673 101.237 115.673 101.237 115.673C101.236 115.673 101.236 115.673 101.236 115.673C101.236 115.673 101.236 115.673 101.236 115.673C101.236 115.673 101.235 115.673 101.235 115.673C101.235 115.673 101.235 115.673 101.235 115.673C101.235 115.673 101.235 115.673 101.235 115.673C101.234 115.673 101.234 115.673 101.234 115.673C101.234 115.673 101.234 115.673 101.234 115.673C101.234 115.673 101.233 115.673 101.233 115.673C101.233 115.673 101.233 115.673 101.233 115.673C101.233 115.673 101.233 115.673 101.233 115.673C101.232 115.673 101.232 115.673 101.232 115.673C101.232 115.673 101.232 115.673 101.232 115.673C101.232 115.673 101.231 115.673 101.231 115.673C101.231 115.673 101.231 115.673 101.231 115.673C101.231 115.673 101.231 115.673 101.231 115.673C101.23 115.673 101.23 115.673 101.23 115.673C101.23 115.673 101.23 115.673 101.23 115.673C101.23 115.673 101.229 115.673 101.229 115.673C101.229 115.673 101.229 115.673 101.229 115.673C101.229 115.673 101.229 115.673 101.229 115.673C101.228 115.673 101.228 115.673 101.228 115.673C101.228 115.673 101.228 115.673 101.228 115.673C101.228 115.673 101.227 115.673 101.227 115.673C101.227 115.673 101.227 115.673 101.227 115.673C101.227 115.673 101.227 115.673 101.227 115.673C101.226 115.673 101.226 115.673 101.226 115.673C101.226 115.673 101.226 115.673 101.226 115.673C101.226 115.673 101.225 115.673 101.225 115.673C101.225 115.673 101.225 115.673 101.225 115.673C101.225 115.673 101.225 115.673 101.225 115.673C101.224 115.673 101.224 115.673 101.224 115.673C101.224 115.673 101.224 115.673 101.224 115.673C101.224 115.673 101.223 115.673 101.223 115.673C101.223 115.673 101.223 115.673 101.223 115.673C101.223 115.673 101.223 115.673 101.223 115.673C101.222 115.673 101.222 115.673 101.222 115.673C101.222 115.673 101.222 115.673 101.222 115.673C101.222 115.673 101.221 115.673 101.221 115.673C101.221 115.673 101.221 115.673 101.221 115.673C101.221 115.673 101.221 115.673 101.221 115.673C101.22 115.673 101.22 115.673 101.22 115.673C101.22 115.673 101.22 115.673 101.22 115.673C101.22 115.673 101.219 115.673 101.219 115.673V119.673ZM101.356 119.673H101.425V115.673H101.356V119.673ZM101.475 119.673C104.425 119.599 107.488 118.799 109.285 117.285L106.707 114.226C105.902 114.904 103.9 115.611 101.375 115.674L101.475 119.673ZM109.277 117.292C109.845 116.818 110.817 115.828 110.817 114.249H106.817C106.817 114.216 106.823 114.177 106.834 114.139C106.846 114.103 106.858 114.081 106.861 114.076C106.863 114.073 106.856 114.085 106.831 114.112C106.806 114.139 106.769 114.175 106.715 114.22L109.277 117.292ZM110.817 114.249V111.851H106.817V114.249H110.817ZM108.425 113.813L109.109 113.95L109.894 110.027L109.21 109.89L108.425 113.813ZM109.502 113.988H109.639V109.988H109.502V113.988ZM109.639 113.988C109.519 113.988 109.425 113.965 109.52 113.984C109.596 113.999 109.861 114.057 110.186 114.057V110.057C110.306 110.057 110.4 110.081 110.305 110.062C110.228 110.046 109.964 109.988 109.639 109.988V113.988ZM112.186 112.057V111.851H108.186V112.057H112.186ZM109.882 113.828L110.772 113.965L111.38 110.012L110.491 109.875L109.882 113.828ZM110.833 113.974C122.904 115.455 132.449 120.857 139.002 129.365C145.576 137.899 149.256 149.715 149.256 164.18H153.256C153.256 149.057 149.407 136.317 142.171 126.924C134.914 117.503 124.369 111.604 111.32 110.003L110.833 113.974Z" fill="black" mask="url(#path-30-inside-1)"/>
</svg>
