<svg width="182" height="152" viewBox="0 0 182 152" fill="none" xmlns="http://www.w3.org/2000/svg">
<circle cx="106.167" cy="75.8333" r="75.3333" fill="#F0F8FF" stroke="black"/>
<path d="M34.1265 48.7909H3.79196C1.97394 48.7909 0.5 47.317 0.5 45.499C0.5 43.681 1.97394 42.207 3.79196 42.207H34.1265C35.9445 42.207 37.4185 43.681 37.4185 45.499C37.4185 47.317 35.9446 48.7909 34.1265 48.7909Z" fill="#FFCA3A" stroke="black"/>
<path d="M11.3755 109.459H3.79196C1.97394 109.459 0.5 107.985 0.5 106.167C0.5 104.349 1.97394 102.875 3.79196 102.875H11.3755C13.1935 102.875 14.6675 104.349 14.6675 106.167C14.6675 107.985 13.1935 109.459 11.3755 109.459Z" fill="#FFCA3A" stroke="black"/>
<path d="M18.9591 79.1265H3.79196C1.97388 79.1265 0.5 77.6529 0.5 75.8349C0.5 74.0169 1.97394 72.543 3.79196 72.543H18.9594C20.7774 72.543 22.2514 74.0169 22.2514 75.8349C22.2514 77.6528 20.7772 79.1265 18.9591 79.1265Z" fill="#FFCA3A" stroke="black"/>
<path d="M116.071 74.1712L116.091 74.1629L116.11 74.153L180.357 40.636C181.743 43.4151 181.878 46.6637 180.71 49.5583L180.709 49.5596L158.338 105.451L158.336 105.455C157.692 107.098 156.804 108.633 155.704 110.01L153.209 107.909L153.209 107.909L114.206 74.9467C114.634 74.7802 115.052 74.6023 115.472 74.4239C115.671 74.3394 115.87 74.2548 116.071 74.1712ZM93.1802 72.3081L33.9719 103.297L33.97 103.298L30.5191 105.085C30.6328 104.065 30.8795 103.063 31.2541 102.105C31.2543 102.104 31.2546 102.104 31.2548 102.103L53.6251 46.2153L53.6251 46.2153L53.6271 46.2102C54.4393 44.1144 55.6551 42.2006 57.2043 40.5765L91.9611 71.4292L91.9723 71.4391L91.984 71.4484C92.3703 71.752 92.7695 72.0389 93.1802 72.3081Z" fill="#FFBF0F" stroke="black"/>
<path d="M92.6138 70.6703L57.9047 39.8593C61.3086 36.4704 65.9337 34.5787 70.7512 34.6218V34.6218H70.7557H170.632C174.226 34.6284 177.585 36.4108 179.605 39.3821C179.682 39.5311 179.772 39.662 179.85 39.7717L115.666 73.2554C115.458 73.3422 115.256 73.428 115.058 73.5121C114.381 73.7997 113.749 74.0682 113.068 74.2955C106.821 76.3214 99.9961 75.4509 94.4576 71.9219L94.4493 71.9166L94.4409 71.9117C93.8042 71.5401 93.1937 71.1253 92.6138 70.6703Z" fill="#FFCA3A" stroke="black"/>
<path d="M155.063 110.776C151.577 114.767 146.525 117.06 141.21 117.043H141.208L41.333 117.043C41.3327 117.043 41.3324 117.043 41.3321 117.043C35.356 117.019 30.52 112.2 30.4548 106.244L34.4325 104.184L34.4344 104.183L94.1669 72.92C99.8337 76.4313 106.747 77.3112 113.113 75.3308L152.564 108.672L152.565 108.673L155.063 110.776Z" fill="#FAB700" stroke="black"/>
</svg>
