<svg width="16" height="16" viewBox="0 0 16 16" fill="none" xmlns="http://www.w3.org/2000/svg">
<g opacity="0.3" clip-path="url(#clip0)">
<path d="M10.6474 1.7192L10.1786 1.10378L10.6474 0.488424C10.7492 0.3549 10.7235 0.164119 10.59 0.0622907C10.5368 0.0217574 10.4718 -0.000147387 10.4049 4.9938e-06H8.00493C7.83571 -0.000947387 7.69719 0.134443 7.69434 0.303662V3.00953H8.30386V2.20953H10.4049C10.5736 2.20915 10.7101 2.07208 10.7097 1.9034C10.7095 1.83684 10.6876 1.77216 10.6474 1.7192Z" fill="#164c63"/>
<path d="M1.02415 9.59962C0.775884 9.59832 0.573561 9.79851 0.572266 10.0467C0.572266 10.0487 0.572266 10.0507 0.572266 10.0527V15.9997H4.41988V9.59962H1.02415ZM2.01988 14.3235C2.01988 14.4918 1.88342 14.6282 1.71512 14.6282C1.54682 14.6282 1.41036 14.4918 1.41036 14.3235V13.6686C1.41036 13.5002 1.54682 13.3638 1.71512 13.3638C1.88342 13.3638 2.01988 13.5002 2.01988 13.6686V14.3235ZM2.01988 11.7727C2.01988 11.941 1.88342 12.0774 1.71512 12.0774C1.54682 12.0774 1.41036 11.941 1.41036 11.7727V11.1177C1.41036 10.9494 1.54682 10.813 1.71512 10.813C1.88342 10.813 2.01988 10.9494 2.01988 11.1177V11.7727ZM3.58178 14.3235C3.58178 14.4918 3.44533 14.6282 3.27702 14.6282C3.10872 14.6282 2.97226 14.4918 2.97226 14.3235V13.6686C2.97226 13.5002 3.10872 13.3638 3.27702 13.3638C3.44533 13.3638 3.58178 13.5002 3.58178 13.6686V14.3235ZM3.58178 11.7727C3.58178 11.941 3.44533 12.0774 3.27702 12.0774C3.10872 12.0774 2.97226 11.941 2.97226 11.7727V11.1177C2.97226 10.9494 3.10872 10.813 3.27702 10.813C3.44533 10.813 3.58178 10.9494 3.58178 11.1177V11.7727Z" fill="#164c63"/>
<path d="M7.95076 5.35156L5.02832 7.83743V15.9992H6.36165V12.8254C6.35762 12.6677 6.48222 12.5366 6.63998 12.5325C6.64512 12.5324 6.65026 12.5324 6.65541 12.5325H9.27514C9.42962 12.5286 9.558 12.6507 9.56188 12.8051C9.56203 12.8119 9.562 12.8186 9.56165 12.8254V15.9992H10.8569V7.83461L7.95076 5.35156ZM9.27514 10.8182H6.63819C6.46988 10.8182 6.33343 10.6818 6.33343 10.5135C6.33343 10.3452 6.46988 10.2087 6.63819 10.2087H9.27514C9.44344 10.2087 9.5799 10.3452 9.5799 10.5135C9.5799 10.6818 9.44344 10.8182 9.27514 10.8182Z" fill="#164c63"/>
<path d="M14.9827 9.59961C14.9808 9.59961 14.9788 9.59961 14.9768 9.59961H11.4668V15.9996H15.4287V10.0527C15.4307 9.80441 15.231 9.60159 14.9827 9.59961ZM13.0287 14.3234C13.0287 14.4917 12.8922 14.6282 12.7239 14.6282C12.5556 14.6282 12.4192 14.4917 12.4192 14.3234V13.6685C12.4192 13.5002 12.5556 13.3638 12.7239 13.3638C12.8922 13.3638 13.0287 13.5002 13.0287 13.6685V14.3234ZM13.0287 11.7726C13.0287 11.941 12.8922 12.0774 12.7239 12.0774C12.5556 12.0774 12.4192 11.941 12.4192 11.7726V11.1177C12.4192 10.9494 12.5556 10.8129 12.7239 10.8129C12.8922 10.8129 13.0287 10.9494 13.0287 11.1177V11.7726ZM14.5525 14.3234C14.5525 14.4917 14.416 14.6282 14.2477 14.6282C14.0794 14.6282 13.943 14.4917 13.943 14.3234V13.6685C13.943 13.5002 14.0794 13.3638 14.2477 13.3638C14.416 13.3638 14.5525 13.5002 14.5525 13.6685V14.3234ZM14.5525 11.7726C14.5525 11.941 14.416 12.0774 14.2477 12.0774C14.0794 12.0774 13.943 11.941 13.943 11.7726V11.1177C13.943 10.9494 14.0794 10.8129 14.2477 10.8129C14.416 10.8129 14.5525 10.9494 14.5525 11.1177V11.7726Z" fill="#164c63"/>
<path d="M7.96575 3.42188L3.60449 7.15559L4.15565 7.79692L7.76788 4.71902C7.88198 4.6218 8.04983 4.62195 8.16373 4.71944L11.7609 7.79818L12.3248 7.15384L7.96575 3.42188Z" fill="#164c63"/>
<path d="M8.95263 13.1426H6.97168V15.9997H8.95263V13.1426Z" fill="#164c63"/>
</g>
<defs>
<clipPath id="clip0">
<rect width="16" height="16" fill="white"/>
</clipPath>
</defs>
</svg>
