<svg width="16" height="16" viewBox="0 0 16 16" fill="none" xmlns="http://www.w3.org/2000/svg">
<g opacity="0.4">
<path d="M10 0.666016H6V1.99935H10V0.666016ZM7.33333 9.33268H8.66667V5.33268H7.33333V9.33268ZM12.6867 4.92602L13.6333 3.97935C13.3467 3.63935 13.0333 3.31935 12.6933 3.03935L11.7467 3.98602C10.7133 3.15935 9.41333 2.66602 8 2.66602C4.68667 2.66602 2 5.35268 2 8.66602C2 11.9793 4.68 14.666 8 14.666C11.32 14.666 14 11.9793 14 8.66602C14 7.25268 13.5067 5.95268 12.6867 4.92602ZM8 13.3327C5.42 13.3327 3.33333 11.246 3.33333 8.66602C3.33333 6.08602 5.42 3.99935 8 3.99935C10.58 3.99935 12.6667 6.08602 12.6667 8.66602C12.6667 11.246 10.58 13.3327 8 13.3327Z" fill="#164c63"/>
</g>
</svg>
