<svg width="16" height="16" viewBox="0 0 16 16" fill="none" xmlns="http://www.w3.org/2000/svg">
<g opacity="0.4">
<path d="M3.25 11.5H3.75V12H3.25V11.5Z" fill="#013F7A"/>
<path d="M2.5 9.5H4.5V11H2.5V9.5Z" fill="#013F7A"/>
<path d="M12.25 6.5H12.75V7H12.25V6.5Z" fill="#013F7A"/>
<path d="M3 1.75C3 1.6837 3.02634 1.62011 3.07322 1.57322C3.12011 1.52634 3.1837 1.5 3.25 1.5H12.75C12.8163 1.5 12.8799 1.52634 12.9268 1.57322C12.9737 1.62011 13 1.6837 13 1.75V4H13.5V1H2.5V4H3V1.75Z" fill="#013F7A"/>
<path d="M12.5 2V4H11.25C11.1837 4 11.1201 4.02634 11.0732 4.07322C11.0263 4.12011 11 4.1837 11 4.25V6H5V4.25C5 4.1837 4.97366 4.12011 4.92678 4.07322C4.87989 4.02634 4.8163 4 4.75 4H3.5V2H12.5Z" fill="#013F7A"/>
<path d="M11.5 4.5H13.5V6H11.5V4.5Z" fill="#013F7A"/>
<path d="M3.25 6.5H3.75V7H3.25V6.5Z" fill="#013F7A"/>
<path d="M2.5 4.5H4.5V6H2.5V4.5Z" fill="#013F7A"/>
<path d="M12.25 11.5H12.75V12H12.25V11.5Z" fill="#013F7A"/>
<path d="M11.5 9.5H13.5V11H11.5V9.5Z" fill="#013F7A"/>
<path d="M1 8.25H1.5V10H2V8.25H5V10H5.5V8.25H6V7.5H1V8.25Z" fill="#013F7A"/>
<path d="M10 7.5V8.25H10.5V10H11V8.25H14V10H14.5V8.25H15V7.5H10Z" fill="#013F7A"/>
<path d="M4.25 6.5H11.75V7H4.25V6.5Z" fill="#013F7A"/>
<path d="M1 13.25H1.5V15H2V13.25H5V15H5.5V13.25H6V12.5H1V13.25Z" fill="#013F7A"/>
<path d="M10 13.25H10.5V15H11V13.25H14V15H14.5V13.25H15V12.5H10V13.25Z" fill="#013F7A"/>
</g>
</svg>
