<svg width="44" height="44" viewBox="0 0 44 44" fill="none" xmlns="http://www.w3.org/2000/svg">
<path d="M29.3333 20.1666C32.3766 20.1666 34.815 17.71 34.815 14.6666C34.815 11.6233 32.3766 9.16663 29.3333 9.16663C26.29 9.16663 23.8333 11.6233 23.8333 14.6666C23.8333 17.71 26.29 20.1666 29.3333 20.1666ZM14.6666 20.1666C17.71 20.1666 20.1483 17.71 20.1483 14.6666C20.1483 11.6233 17.71 9.16663 14.6666 9.16663C11.6233 9.16663 9.16665 11.6233 9.16665 14.6666C9.16665 17.71 11.6233 20.1666 14.6666 20.1666ZM14.6666 23.8333C10.395 23.8333 1.83331 25.9783 1.83331 30.25V34.8333H27.5V30.25C27.5 25.9783 18.9383 23.8333 14.6666 23.8333ZM29.3333 23.8333C28.8016 23.8333 28.1966 23.87 27.555 23.925C29.6816 25.465 31.1666 27.5366 31.1666 30.25V34.8333H42.1666V30.25C42.1666 25.9783 33.605 23.8333 29.3333 23.8333Z" fill="#04aed4"/>
</svg>
