<svg width="972" height="105" viewBox="0 0 972 105" fill="none" xmlns="http://www.w3.org/2000/svg">
<path opacity="0.3" d="M16.0664 45.0586C13.7656 45.0586 11.6667 44.7155 9.76953 44.0293C7.8724 43.3027 6.25781 42.3138 4.92578 41.0625C3.59375 39.7708 2.54427 38.2168 1.77734 36.4004C1.05078 34.584 0.6875 32.5658 0.6875 30.3457C0.6875 28.0449 1.09115 25.6432 1.89844 23.1406C2.74609 20.638 3.95703 18.1152 5.53125 15.5723C7.10547 13.0293 9.0026 10.5267 11.2227 8.06445C13.4831 5.56185 16.0462 3.16016 18.9121 0.859375L25.875 6.30859C24.543 7.68099 23.332 8.99284 22.2422 10.2441C21.1927 11.4954 20.224 12.7467 19.3359 13.998C18.4479 15.2493 17.6204 16.541 16.8535 17.873C16.127 19.2051 15.4609 20.6178 14.8555 22.1113L31.3242 30.3457C31.3242 32.5254 30.9004 34.5234 30.0527 36.3398C29.2454 38.1562 28.1556 39.7103 26.7832 41.002C25.4108 42.2936 23.7962 43.3027 21.9395 44.0293C20.0827 44.7155 18.125 45.0586 16.0664 45.0586ZM51.7285 54.9883H44.9473V44.998H51.7285V25.0176H84.6055V44.998H100.408L94.2324 54.9883H84.6055V82.1738C84.6055 86.291 85.5137 89.4596 87.3301 91.6797C89.1868 93.8997 91.8307 95.0098 95.2617 95.0098L91.5078 103.305C89.4089 104.193 87.1686 104.879 84.7871 105.363C82.446 105.888 79.7214 106.15 76.6133 106.15C72.2539 106.15 68.5 105.605 65.3516 104.516C62.2031 103.385 59.6198 101.791 57.6016 99.7324C55.5833 97.6738 54.0898 95.151 53.1211 92.1641C52.1927 89.1771 51.7285 85.8066 51.7285 82.0527V54.9883ZM106.221 74.666C106.221 71.1947 106.766 68.026 107.855 65.1602C108.945 62.2943 110.439 59.7311 112.336 57.4707C114.273 55.1699 116.554 53.1719 119.178 51.4766C121.801 49.7812 124.647 48.3685 127.715 47.2383C130.783 46.1081 133.992 45.2604 137.342 44.6953C140.692 44.1302 144.083 43.8477 147.514 43.8477C152.035 43.8477 156.132 44.3118 159.805 45.2402C163.518 46.1283 166.808 47.3594 169.674 48.9336C172.58 50.5078 175.083 52.3444 177.182 54.4434C179.321 56.5423 181.077 58.7826 182.449 61.1641C183.862 63.5052 184.891 65.9271 185.537 68.4297C186.223 70.9323 186.566 73.3743 186.566 75.7559L140.793 81.2656C141.681 85.7461 143.457 89.2174 146.121 91.6797C148.785 94.1419 152.519 95.373 157.322 95.373C159.946 95.373 162.388 95.0501 164.648 94.4043C166.949 93.7585 168.745 92.9714 170.037 92.043L174.881 100.52C173.387 101.286 171.753 102.013 169.977 102.699C168.241 103.385 166.303 103.991 164.164 104.516C162.065 105 159.724 105.383 157.141 105.666C154.598 105.989 151.792 106.15 148.725 106.15C141.378 106.15 135.041 105.303 129.713 103.607C124.385 101.872 119.965 99.571 116.453 96.7051C112.982 93.7988 110.398 90.4486 108.703 86.6543C107.048 82.86 106.221 78.8639 106.221 74.666ZM157.201 69.5801C157.201 64.3327 156.535 60.5182 155.203 58.1367C153.911 55.7552 151.974 54.5645 149.391 54.5645C148.059 54.5645 146.827 54.8874 145.697 55.5332C144.567 56.179 143.598 57.1882 142.791 58.5605C141.984 59.9329 141.338 61.709 140.854 63.8887C140.369 66.028 140.107 68.6315 140.066 71.6992L157.201 69.5801ZM200.311 89.5C201.965 90.388 203.56 91.1953 205.094 91.9219C206.628 92.6484 208.161 93.2741 209.695 93.7988C211.229 94.2832 212.763 94.6667 214.297 94.9492C215.871 95.2318 217.506 95.373 219.201 95.373C221.865 95.373 223.783 95.0501 224.953 94.4043C226.124 93.7585 226.709 92.9108 226.709 91.8613C226.709 91.2155 226.507 90.6706 226.104 90.2266C225.74 89.7826 225.215 89.3991 224.529 89.0762C223.843 88.7129 223.036 88.39 222.107 88.1074C221.179 87.7845 220.15 87.4616 219.02 87.1387L215.568 86.1094C212.178 85.1003 209.251 83.9297 206.789 82.5977C204.327 81.2253 202.309 79.6914 200.734 77.9961C199.16 76.3008 197.99 74.4844 197.223 72.5469C196.456 70.569 196.072 68.4701 196.072 66.25C196.072 63.3841 196.718 60.6191 198.01 57.9551C199.301 55.2507 201.299 52.849 204.004 50.75C206.708 48.651 210.16 46.9759 214.357 45.7246C218.596 44.4733 223.621 43.8477 229.434 43.8477C231.613 43.8477 233.874 43.9889 236.215 44.2715C238.596 44.5137 240.897 44.8366 243.117 45.2402C245.337 45.6439 247.416 46.1081 249.354 46.6328C251.291 47.1172 252.926 47.6217 254.258 48.1465L248.93 57.8945C248.042 57.4102 246.992 56.9863 245.781 56.623C244.611 56.2194 243.4 55.8763 242.148 55.5938C240.897 55.2708 239.686 55.0286 238.516 54.8672C237.385 54.7057 236.417 54.625 235.609 54.625C233.268 54.625 231.593 54.9479 230.584 55.5938C229.575 56.2396 229.07 57.0267 229.07 57.9551C229.07 58.3184 229.171 58.7018 229.373 59.1055C229.575 59.5091 229.979 59.9329 230.584 60.377C231.189 60.821 232.037 61.2852 233.127 61.7695C234.217 62.2539 235.65 62.7585 237.426 63.2832L240.816 64.3125C244.57 65.4427 247.678 66.7142 250.141 68.127C252.643 69.5397 254.641 71.0736 256.135 72.7285C257.669 74.3431 258.738 76.0586 259.344 77.875C259.99 79.6914 260.312 81.5482 260.312 83.4453C260.312 86.3516 259.606 89.1771 258.193 91.9219C256.781 94.6667 254.52 97.0885 251.412 99.1875C248.344 101.286 244.368 102.982 239.484 104.273C234.6 105.525 228.687 106.15 221.744 106.15C218.757 106.15 216.012 106.029 213.51 105.787C211.007 105.545 208.646 105.182 206.426 104.697C204.206 104.213 202.066 103.628 200.008 102.941C197.99 102.215 195.992 101.408 194.014 100.52L200.311 89.5ZM276.479 54.9883H269.697V44.998H276.479V25.0176H309.355V44.998H325.158L318.982 54.9883H309.355V82.1738C309.355 86.291 310.264 89.4596 312.08 91.6797C313.937 93.8997 316.581 95.0098 320.012 95.0098L316.258 103.305C314.159 104.193 311.919 104.879 309.537 105.363C307.196 105.888 304.471 106.15 301.363 106.15C297.004 106.15 293.25 105.605 290.102 104.516C286.953 103.385 284.37 101.791 282.352 99.7324C280.333 97.6738 278.84 95.151 277.871 92.1641C276.943 89.1771 276.479 85.8066 276.479 82.0527V54.9883ZM351.314 35.0078C348.327 35.0078 345.744 34.6849 343.564 34.0391C341.425 33.3932 339.669 32.5052 338.297 31.375C336.924 30.2044 335.915 28.8724 335.27 27.3789C334.624 25.8451 334.301 24.1901 334.301 22.4141C334.301 20.6784 334.624 19.0436 335.27 17.5098C335.915 15.9759 336.924 14.6439 338.297 13.5137C339.669 12.3431 341.425 11.4349 343.564 10.7891C345.744 10.1432 348.327 9.82031 351.314 9.82031C354.342 9.82031 356.925 10.1432 359.064 10.7891C361.204 11.4349 362.96 12.3431 364.332 13.5137C365.745 14.6439 366.774 15.9759 367.42 17.5098C368.066 19.0436 368.389 20.6784 368.389 22.4141C368.389 24.1901 368.066 25.8451 367.42 27.3789C366.774 28.8724 365.745 30.2044 364.332 31.375C362.96 32.5052 361.204 33.3932 359.064 34.0391C356.925 34.6849 354.342 35.0078 351.314 35.0078ZM334.906 44.998H367.783V105H334.906V44.998ZM384.797 44.998H413.799L416.705 53.7168C420.984 50.4473 425.323 47.985 429.723 46.3301C434.163 44.6751 438.825 43.8477 443.709 43.8477C447.382 43.8477 450.712 44.6549 453.699 46.2695C456.686 47.8841 459.027 50.4473 460.723 53.959C462.579 52.627 464.577 51.3555 466.717 50.1445C468.856 48.9336 471.096 47.8639 473.438 46.9355C475.819 45.9668 478.281 45.2201 480.824 44.6953C483.367 44.1302 486.011 43.8477 488.756 43.8477C491.541 43.8477 494.145 44.3118 496.566 45.2402C498.988 46.1686 501.087 47.6016 502.863 49.5391C504.639 51.4766 506.032 53.9792 507.041 57.0469C508.05 60.0742 508.555 63.707 508.555 67.9453V105H475.678V65.8867C475.678 63.7878 475.193 62.2539 474.225 61.2852C473.296 60.3164 471.944 59.832 470.168 59.832C469.24 59.832 468.19 60.054 467.02 60.498C465.849 60.9017 464.658 61.5072 463.447 62.3145V105H430.57V65.8867C430.57 63.7878 430.106 62.2539 429.178 61.2852C428.249 60.3164 426.897 59.832 425.121 59.832C423.951 59.832 422.659 60.0742 421.246 60.5586C419.833 61.043 418.643 61.8099 417.674 62.8594V105H384.797V44.998ZM520.967 75.0293C520.967 70.2663 521.936 65.9674 523.873 62.1328C525.851 58.2982 528.676 55.0286 532.35 52.3242C536.063 49.6198 540.584 47.541 545.912 46.0879C551.24 44.5944 557.295 43.8477 564.076 43.8477C570.857 43.8477 576.912 44.5944 582.24 46.0879C587.568 47.541 592.069 49.6198 595.742 52.3242C599.456 55.0286 602.281 58.2982 604.219 62.1328C606.197 65.9674 607.186 70.2663 607.186 75.0293C607.186 79.752 606.197 84.0306 604.219 87.8652C602.281 91.6999 599.456 94.9694 595.742 97.6738C592.069 100.378 587.568 102.477 582.24 103.971C576.912 105.424 570.857 106.15 564.076 106.15C557.295 106.15 551.24 105.424 545.912 103.971C540.584 102.477 536.063 100.378 532.35 97.6738C528.676 94.9694 525.851 91.6999 523.873 87.8652C521.936 84.0306 520.967 79.752 520.967 75.0293ZM564.076 95.0703C565.57 95.0703 566.902 94.7676 568.072 94.1621C569.243 93.5566 570.212 92.5072 570.979 91.0137C571.745 89.4798 572.331 87.4212 572.734 84.8379C573.138 82.2546 573.34 78.985 573.34 75.0293C573.34 71.0332 573.138 67.7435 572.734 65.1602C572.331 62.5768 571.745 60.5384 570.979 59.0449C570.212 57.5111 569.243 56.4414 568.072 55.8359C566.902 55.2305 565.57 54.9277 564.076 54.9277C562.542 54.9277 561.19 55.2305 560.02 55.8359C558.889 56.4414 557.941 57.5111 557.174 59.0449C556.407 60.5384 555.822 62.5768 555.418 65.1602C555.014 67.7435 554.812 71.0332 554.812 75.0293C554.812 78.985 555.014 82.2546 555.418 84.8379C555.822 87.4212 556.407 89.4798 557.174 91.0137C557.941 92.5072 558.889 93.5566 560.02 94.1621C561.19 94.7676 562.542 95.0703 564.076 95.0703ZM620.203 44.998H649.205L652.111 53.7168C656.39 50.4473 660.729 47.985 665.129 46.3301C669.569 44.6751 674.231 43.8477 679.115 43.8477C681.9 43.8477 684.484 44.3118 686.865 45.2402C689.287 46.1686 691.386 47.6016 693.162 49.5391C694.938 51.4766 696.331 53.9792 697.34 57.0469C698.349 60.0742 698.854 63.707 698.854 67.9453V105H665.977V65.8867C665.977 63.7878 665.512 62.2539 664.584 61.2852C663.656 60.3164 662.303 59.832 660.527 59.832C659.357 59.832 658.065 60.0742 656.652 60.5586C655.24 61.043 654.049 61.8099 653.08 62.8594V105H620.203V44.998ZM731.67 35.0078C728.683 35.0078 726.1 34.6849 723.92 34.0391C721.781 33.3932 720.025 32.5052 718.652 31.375C717.28 30.2044 716.271 28.8724 715.625 27.3789C714.979 25.8451 714.656 24.1901 714.656 22.4141C714.656 20.6784 714.979 19.0436 715.625 17.5098C716.271 15.9759 717.28 14.6439 718.652 13.5137C720.025 12.3431 721.781 11.4349 723.92 10.7891C726.1 10.1432 728.683 9.82031 731.67 9.82031C734.697 9.82031 737.281 10.1432 739.42 10.7891C741.559 11.4349 743.315 12.3431 744.688 13.5137C746.1 14.6439 747.13 15.9759 747.775 17.5098C748.421 19.0436 748.744 20.6784 748.744 22.4141C748.744 24.1901 748.421 25.8451 747.775 27.3789C747.13 28.8724 746.1 30.2044 744.688 31.375C743.315 32.5052 741.559 33.3932 739.42 34.0391C737.281 34.6849 734.697 35.0078 731.67 35.0078ZM715.262 44.998H748.139V105H715.262V44.998ZM761.217 86.1094C761.217 83.2031 761.863 80.4987 763.154 77.9961C764.446 75.4935 766.303 73.3138 768.725 71.457C771.146 69.6003 774.073 68.1471 777.504 67.0977C780.935 66.0078 784.77 65.4629 789.008 65.4629C793.246 65.4629 797.202 65.9674 800.875 66.9766C804.589 67.9453 807.697 69.1966 810.199 70.7305V70.2461C810.199 67.4206 809.876 65.0189 809.23 63.041C808.625 61.0632 807.676 59.4486 806.385 58.1973C805.093 56.946 803.438 56.0378 801.42 55.4727C799.442 54.9076 797.101 54.625 794.396 54.625C791.934 54.625 789.391 54.847 786.768 55.291C784.144 55.6947 781.722 56.3001 779.502 57.1074L775.082 48.9336C779.482 47.1172 784.023 45.8255 788.705 45.0586C793.428 44.2513 798.292 43.8477 803.297 43.8477C809.715 43.8477 815.386 44.4733 820.311 45.7246C825.275 46.9355 829.433 48.7721 832.783 51.2344C836.174 53.6562 838.737 56.724 840.473 60.4375C842.208 64.1107 843.076 68.4297 843.076 73.3945V105H812.379L810.32 99.1875C809.109 100.116 807.676 101.004 806.021 101.852C804.367 102.699 802.55 103.446 800.572 104.092C798.594 104.738 796.495 105.242 794.275 105.605C792.055 105.969 789.734 106.15 787.312 106.15C783.357 106.15 779.764 105.646 776.535 104.637C773.346 103.587 770.622 102.174 768.361 100.398C766.101 98.6224 764.345 96.5234 763.094 94.1016C761.842 91.6393 761.217 88.9753 761.217 86.1094ZM795.123 84.8379C795.123 87.0176 795.829 88.7936 797.242 90.166C798.655 91.498 800.552 92.1641 802.934 92.1641C804.225 92.1641 805.497 91.9622 806.748 91.5586C807.999 91.1146 809.15 90.4688 810.199 89.6211V79.3887C808.181 78.1777 805.961 77.5723 803.539 77.5723C800.794 77.5723 798.695 78.2585 797.242 79.6309C795.829 80.9629 795.123 82.6986 795.123 84.8379ZM859.484 5.03711H892.361V105H859.484V5.03711ZM911.736 89.5C913.391 90.388 914.986 91.1953 916.52 91.9219C918.053 92.6484 919.587 93.2741 921.121 93.7988C922.655 94.2832 924.189 94.6667 925.723 94.9492C927.297 95.2318 928.932 95.373 930.627 95.373C933.291 95.373 935.208 95.0501 936.379 94.4043C937.549 93.7585 938.135 92.9108 938.135 91.8613C938.135 91.2155 937.933 90.6706 937.529 90.2266C937.166 89.7826 936.641 89.3991 935.955 89.0762C935.269 88.7129 934.462 88.39 933.533 88.1074C932.605 87.7845 931.576 87.4616 930.445 87.1387L926.994 86.1094C923.604 85.1003 920.677 83.9297 918.215 82.5977C915.753 81.2253 913.734 79.6914 912.16 77.9961C910.586 76.3008 909.415 74.4844 908.648 72.5469C907.882 70.569 907.498 68.4701 907.498 66.25C907.498 63.3841 908.144 60.6191 909.436 57.9551C910.727 55.2507 912.725 52.849 915.43 50.75C918.134 48.651 921.585 46.9759 925.783 45.7246C930.021 44.4733 935.047 43.8477 940.859 43.8477C943.039 43.8477 945.299 43.9889 947.641 44.2715C950.022 44.5137 952.323 44.8366 954.543 45.2402C956.763 45.6439 958.842 46.1081 960.779 46.6328C962.717 47.1172 964.352 47.6217 965.684 48.1465L960.355 57.8945C959.467 57.4102 958.418 56.9863 957.207 56.623C956.036 56.2194 954.826 55.8763 953.574 55.5938C952.323 55.2708 951.112 55.0286 949.941 54.8672C948.811 54.7057 947.842 54.625 947.035 54.625C944.694 54.625 943.019 54.9479 942.01 55.5938C941.001 56.2396 940.496 57.0267 940.496 57.9551C940.496 58.3184 940.597 58.7018 940.799 59.1055C941.001 59.5091 941.404 59.9329 942.01 60.377C942.615 60.821 943.463 61.2852 944.553 61.7695C945.643 62.2539 947.076 62.7585 948.852 63.2832L952.242 64.3125C955.996 65.4427 959.104 66.7142 961.566 68.127C964.069 69.5397 966.067 71.0736 967.561 72.7285C969.094 74.3431 970.164 76.0586 970.77 77.875C971.415 79.6914 971.738 81.5482 971.738 83.4453C971.738 86.3516 971.032 89.1771 969.619 91.9219C968.206 94.6667 965.946 97.0885 962.838 99.1875C959.77 101.286 955.794 102.982 950.91 104.273C946.026 105.525 940.113 106.15 933.17 106.15C930.183 106.15 927.438 106.029 924.936 105.787C922.433 105.545 920.072 105.182 917.852 104.697C915.632 104.213 913.492 103.628 911.434 102.941C909.415 102.215 907.417 101.408 905.439 100.52L911.736 89.5Z" fill="white"/>
</svg>
