<svg width="23" height="22" viewBox="0 0 23 22" fill="none" xmlns="http://www.w3.org/2000/svg">
<path d="M18.9981 3.17374C16.9515 1.12715 14.2303 0 11.3359 0C8.44156 0 5.72042 1.12715 3.67374 3.17374C1.62715 5.22042 0.5 7.94156 0.5 10.8359C0.5 13.7303 1.62715 16.4515 3.67374 18.4981C5.72042 20.5447 8.44156 21.6719 11.3359 21.6719C14.2303 21.6719 16.9515 20.5447 18.9981 18.4981C21.0447 16.4515 22.1719 13.7303 22.1719 10.8359C22.1719 7.94156 21.0447 5.22042 18.9981 3.17374ZM11.3359 19.9788C6.29456 19.9788 2.19312 15.8773 2.19312 10.8359C2.19312 5.79456 6.29456 1.69312 11.3359 1.69312C16.3773 1.69312 20.4788 5.79456 20.4788 10.8359C20.4788 15.8773 16.3773 19.9788 11.3359 19.9788Z" fill="#EAF0FF"/>
<path d="M12.1825 9.98938V3.21692H10.4894V11.6825H16.9232V9.98938H12.1825Z" fill="#EAF0FF"/>
</svg>
