<svg width="30" height="30" viewBox="0 0 30 30" fill="none" xmlns="http://www.w3.org/2000/svg">
<path d="M15 30C23.2843 30 30 23.2843 30 15C30 6.71573 23.2843 0 15 0C6.71573 0 0 6.71573 0 15C0 23.2843 6.71573 30 15 30Z" fill="#F0F0F0"/>
<path d="M3.1004 5.86816C1.92214 7.40115 1.03368 9.16805 0.516357 11.0875H8.31976L3.1004 5.86816Z" fill="#0052B4"/>
<path d="M29.4832 11.0865C28.9659 9.16707 28.0774 7.40018 26.8992 5.86719L21.6799 11.0865H29.4832Z" fill="#0052B4"/>
<path d="M0.516357 18.9131C1.03374 20.8325 1.9222 22.5994 3.1004 24.1323L8.31958 18.9131H0.516357Z" fill="#0052B4"/>
<path d="M24.1321 3.1007C22.5991 1.92244 20.8323 1.03398 18.9128 0.516602V8.31994L24.1321 3.1007Z" fill="#0052B4"/>
<path d="M5.86719 26.8989C7.40018 28.0771 9.16707 28.9656 11.0865 29.483V21.6797L5.86719 26.8989Z" fill="#0052B4"/>
<path d="M11.0864 0.516602C9.16701 1.03398 7.40012 1.92244 5.86719 3.10064L11.0864 8.31988V0.516602Z" fill="#0052B4"/>
<path d="M18.9128 29.483C20.8323 28.9656 22.5992 28.0771 24.1321 26.8989L18.9128 21.6797V29.483Z" fill="#0052B4"/>
<path d="M21.6799 18.9131L26.8992 24.1324C28.0774 22.5995 28.9659 20.8325 29.4832 18.9131H21.6799Z" fill="#0052B4"/>
<path d="M29.873 13.0435H16.9566H16.9566V0.126973C16.3161 0.0435938 15.6631 0 15 0C14.3368 0 13.6839 0.0435938 13.0435 0.126973V13.0434V13.0434H0.126973C0.0435938 13.6839 0 14.3369 0 15C0 15.6632 0.0435938 16.3161 0.126973 16.9565H13.0434H13.0434V29.873C13.6839 29.9564 14.3368 30 15 30C15.6631 30 16.3161 29.9565 16.9565 29.873V16.9566V16.9566H29.873C29.9564 16.3161 30 15.6632 30 15C30 14.3369 29.9564 13.6839 29.873 13.0435Z" fill="#D80027"/>
<path d="M18.9128 18.9131L25.6064 25.6067C25.9142 25.2989 26.2079 24.9772 26.4881 24.6437L20.7575 18.9131H18.9128V18.9131Z" fill="#D80027"/>
<path d="M11.0864 18.9131H11.0863L4.39282 25.6065C4.70056 25.9144 5.02229 26.2081 5.35581 26.4883L11.0864 20.7576V18.9131Z" fill="#D80027"/>
<path d="M11.0872 11.0873V11.0871L4.39368 4.39355C4.08583 4.70129 3.79216 5.02303 3.51196 5.35654L9.24261 11.0872H11.0872V11.0873Z" fill="#D80027"/>
<path d="M18.9128 11.087L25.6064 4.39338C25.2987 4.08553 24.9769 3.79186 24.6434 3.51172L18.9128 9.24236V11.087Z" fill="#D80027"/>
</svg>
