<svg width="21" height="22" viewBox="0 0 21 22" fill="none" xmlns="http://www.w3.org/2000/svg">
<rect width="21" height="22" fill="#F3F3F3"/>
<path fill-rule="evenodd" clip-rule="evenodd" d="M10.581 12.996C12.3788 12.996 13.83 11.5448 13.83 9.747V3.249C13.83 1.45122 12.3788 0 10.581 0C8.7832 0 7.33198 1.45122 7.33198 3.249V9.747C7.33198 11.5448 8.7832 12.996 10.581 12.996ZM9.49791 3.24899C9.49791 2.65334 9.98526 2.16599 10.5809 2.16599C11.1766 2.16599 11.6639 2.65334 11.6639 3.24899V9.74699C11.6639 10.3426 11.1766 10.83 10.5809 10.83C9.98526 10.83 9.49791 10.3426 9.49791 9.74699V3.24899ZM10.581 15.162C13.5701 15.162 15.996 12.7361 15.996 9.74698H18.162C18.162 13.57 15.3354 16.7107 11.664 17.2413V20.577H9.498V17.2413C5.82663 16.7107 3 13.57 3 9.74698H5.166C5.166 12.7361 7.59192 15.162 10.581 15.162Z" fill="#009906"/>
</svg>
