<svg width="30" height="21" viewBox="0 0 30 21" fill="none" xmlns="http://www.w3.org/2000/svg">
<path d="M7.20079 6.01009L7.25744 6.50687L7.51953 6.47698L7.64282 6.24378L7.20079 6.01009ZM23.4794 8.31419L22.9897 8.41515L23.0653 8.78189L23.4385 8.81252L23.4794 8.31419ZM7.35331 6.14986L6.90985 5.91889L6.90985 5.91889L7.35331 6.14986ZM23.2982 8.42753L23.7888 8.33084L23.7888 8.33084L23.2982 8.42753ZM23.313 8.50267L22.8225 8.59935L22.8965 8.97503L23.2785 9.00147L23.313 8.50267ZM23.3894 8.50796L23.3549 9.00676H23.3549L23.3894 8.50796ZM7.27519 6.2031L7.22233 5.7059L7.22233 5.7059L7.27519 6.2031ZM7.32853 6.19743L7.38139 6.69463L7.64809 6.66628L7.77199 6.4284L7.32853 6.19743ZM10.3181 11.8189L9.96453 11.4653L9.11098 12.3189H10.3181V11.8189ZM13.2564 11.8189H13.7564V11.3189H13.2564V11.8189ZM14.9271 7.20984L15.2807 6.85628L14.9271 6.50273L14.5736 6.85628L14.9271 7.20984ZM19.5362 11.8189V12.3189H20.7433L19.8898 11.4653L19.5362 11.8189ZM16.5979 11.8189V11.3189H16.0979V11.8189H16.5979ZM16.5979 15.2757V15.7757H17.0979V15.2757H16.5979ZM13.2564 15.2757H12.7564V15.7757H13.2564V15.2757ZM7.64282 6.24378C9.02489 3.62948 11.7703 1.84851 14.9272 1.84851V0.848511C11.3845 0.848511 8.30687 2.84803 6.75876 5.77641L7.64282 6.24378ZM1.5 12.9712C1.5 9.63389 4.01466 6.87668 7.25744 6.50687L7.14414 5.51331C3.40082 5.9402 0.5 9.1208 0.5 12.9712H1.5ZM8.01359 19.4848C4.42051 19.4848 1.5 16.5642 1.5 12.9712H0.5C0.5 17.1165 3.86822 20.4848 8.01359 20.4848V19.4848ZM22.993 19.4848H8.01359V20.4848H22.993V19.4848ZM28.3544 14.1234C28.3544 17.0828 25.9524 19.4848 22.993 19.4848V20.4848C26.5047 20.4848 29.3544 17.6351 29.3544 14.1234H28.3544ZM23.4385 8.81252C26.1955 9.03878 28.3544 11.3193 28.3544 14.1234H29.3544C29.3544 10.7881 26.7855 8.08383 23.5203 7.81587L23.4385 8.81252ZM14.9272 1.84851C18.9017 1.84851 22.2152 4.65878 22.9897 8.41515L23.9691 8.21323C23.1008 4.00181 19.386 0.848511 14.9272 0.848511V1.84851ZM14.9272 1.04851C11.442 1.04851 8.41625 3.02661 6.90985 5.91889L7.79677 6.38082C9.13801 3.80564 11.8299 2.04851 14.9272 2.04851V1.04851ZM23.7888 8.33084C22.969 4.17177 19.3163 1.04851 14.9272 1.04851V2.04851C18.8291 2.04851 22.0784 4.82453 22.8077 8.52422L23.7888 8.33084ZM23.8036 8.40598L23.7888 8.33084L22.8077 8.52422L22.8225 8.59935L23.8036 8.40598ZM23.424 8.00915L23.3476 8.00386L23.2785 9.00147L23.3549 9.00676L23.424 8.00915ZM29.1544 14.1234C29.1544 10.8672 26.6255 8.23079 23.424 8.00915L23.3549 9.00676C26.0423 9.19281 28.1544 11.4028 28.1544 14.1234H29.1544ZM22.993 20.2848C26.3942 20.2848 29.1544 17.5246 29.1544 14.1234H28.1544C28.1544 16.9723 25.8419 19.2848 22.993 19.2848V20.2848ZM8.01359 20.2848H22.993V19.2848H8.01359V20.2848ZM0.7 12.9712C0.7 17.0061 3.97868 20.2848 8.01359 20.2848V19.2848C4.53096 19.2848 1.7 16.4538 1.7 12.9712H0.7ZM7.22233 5.7059C3.55231 6.09607 0.7 9.20442 0.7 12.9712H1.7C1.7 9.72003 4.16228 7.03686 7.32805 6.7003L7.22233 5.7059ZM7.27568 5.70023L7.22233 5.7059L7.32805 6.7003L7.38139 6.69463L7.27568 5.70023ZM6.90985 5.91889L6.88507 5.96646L7.77199 6.4284L7.79677 6.38082L6.90985 5.91889ZM10.3181 12.3189H13.2564V11.3189H10.3181V12.3189ZM14.5736 6.85628L9.96453 11.4653L10.6716 12.1725L15.2807 7.56339L14.5736 6.85628ZM19.8898 11.4653L15.2807 6.85628L14.5736 7.56339L19.1827 12.1725L19.8898 11.4653ZM16.5979 12.3189H19.5362V11.3189H16.5979V12.3189ZM17.0979 15.2757V11.8189H16.0979V15.2757H17.0979ZM13.2564 15.7757H16.5979V14.7757H13.2564V15.7757ZM12.7564 11.8189V15.2757H13.7564V11.8189H12.7564Z" fill="white"/>
</svg>
