<svg width="38" height="39" viewBox="0 0 38 39" fill="none" xmlns="http://www.w3.org/2000/svg">
<circle cx="18.961" cy="19.4498" r="17.7877" stroke="white" stroke-width="2"/>
<circle cx="18.7877" cy="19.7877" r="17.7877" stroke="white" stroke-width="2"/>
<path d="M17.2664 11.4757C17.2664 10.7616 17.8507 10.1773 18.5648 10.1773C19.2789 10.1773 19.8632 10.7616 19.8632 11.4757L19.8524 15.7063L21.8108 17.6431V11.5839C21.8108 9.78777 20.3609 8.33789 18.5648 8.33789C16.8985 8.33789 15.546 9.59301 15.3621 11.2052L17.2664 13.1095V11.4757Z" fill="white"/>
<path d="M26.1386 18.0759H24.2992C24.2992 18.7035 24.191 19.2986 24.0071 19.8504L25.3812 21.2245C25.8573 20.2724 26.1386 19.2012 26.1386 18.0759Z" fill="white"/>
<path d="M10.3523 9.26831L8.82666 10.7939L15.3187 17.2859V18.0758C15.3187 19.8719 16.7685 21.3218 18.5647 21.3218C18.8135 21.3218 19.0407 21.2893 19.268 21.2352L21.0641 23.0314C20.2959 23.3884 19.4411 23.594 18.5647 23.594C15.5783 23.594 12.8301 21.3218 12.8301 18.0758H10.9907C10.9907 21.7654 13.9337 24.8167 17.4827 25.3468V28.8958H19.6467V25.3468C20.6313 25.2062 21.5618 24.8599 22.4058 24.373L26.9502 28.9174L28.4758 27.3918L10.3523 9.26831Z" fill="white"/>
</svg>
