<svg width="38" height="39" viewBox="0 0 38 39" fill="none" xmlns="http://www.w3.org/2000/svg">
<circle cx="19.2123" cy="19.4497" r="17.7877" stroke="white" stroke-width="2"/>
<path fill-rule="evenodd" clip-rule="evenodd" d="M27.2877 25.1355C28.3301 25.1355 29.1735 24.2827 29.1735 23.2403L29.183 13.764C29.183 12.7122 28.3301 11.8688 27.2877 11.8688H12.1257C11.0738 11.8688 10.2305 12.7122 10.2305 13.764V23.2403C10.2305 24.2827 11.0738 25.1355 12.1257 25.1355H8.33521V27.0308H31.0782V25.1355H27.2877ZM12.1257 23.2402V13.764H27.2877V23.2497L12.1257 23.2402ZM14.9685 22.2926C15.4992 19.7625 16.968 17.2418 20.6543 16.7301V14.7116L24.4448 18.2463L20.6543 21.7904V19.7151C18.0199 19.7151 16.2857 20.5206 14.9685 22.2926Z" fill="white"/>
</svg>
