<svg width="38" height="38" viewBox="0 0 38 38" fill="none" xmlns="http://www.w3.org/2000/svg">
<path fill-rule="evenodd" clip-rule="evenodd" d="M26.1115 18.9774C26.1115 19.3129 26.0819 19.6287 26.0425 19.9445L28.1247 21.5728C28.3122 21.7208 28.3615 21.9872 28.2431 22.2043L26.2694 25.6188C26.1806 25.7767 26.0128 25.8655 25.8451 25.8655C25.7859 25.8655 25.7267 25.8556 25.6675 25.8359L23.2103 24.849C22.6971 25.2339 22.1445 25.5694 21.5425 25.8161L21.1675 28.4312C21.1379 28.6681 20.9307 28.8457 20.684 28.8457H16.7367C16.49 28.8457 16.2827 28.6681 16.2531 28.4312L15.8781 25.8161C15.2762 25.5694 14.7235 25.2438 14.2104 24.849L11.7532 25.8359C11.7038 25.8556 11.6446 25.8655 11.5854 25.8655C11.4078 25.8655 11.24 25.7767 11.1512 25.6188L9.17755 22.2043C9.05913 21.9872 9.10847 21.7208 9.29597 21.5728L11.3782 19.9445C11.3387 19.6287 11.3091 19.3031 11.3091 18.9774C11.3091 18.6518 11.3387 18.3261 11.3782 18.0103L9.29597 16.3821C9.10847 16.234 9.04926 15.9676 9.17755 15.7505L11.1512 12.3361C11.24 12.1782 11.4078 12.0894 11.5755 12.0894C11.6348 12.0894 11.694 12.0992 11.7532 12.119L14.2104 13.1058C14.7235 12.7209 15.2762 12.3854 15.8781 12.1387L16.2531 9.5236C16.2827 9.28676 16.49 9.10913 16.7367 9.10913H20.684C20.9307 9.10913 21.1379 9.28676 21.1675 9.5236L21.5425 12.1387C22.1445 12.3854 22.6971 12.7111 23.2103 13.1058L25.6675 12.119C25.7168 12.0992 25.776 12.0894 25.8352 12.0894C26.0128 12.0894 26.1806 12.1782 26.2694 12.3361L28.2431 15.7505C28.3615 15.9676 28.3122 16.234 28.1247 16.3821L26.0425 18.0103C26.0819 18.3261 26.1115 18.6419 26.1115 18.9774ZM24.1379 18.9774C24.1379 18.7702 24.128 18.5629 24.0885 18.257L23.9504 17.1419L24.8287 16.4511L25.8846 15.6123L25.1938 14.4183L23.9405 14.9216L22.8945 15.3459L21.9965 14.6551C21.6017 14.3591 21.207 14.1321 20.7827 13.9545L19.7366 13.5301L19.5787 12.415L19.3912 11.0828H18.0195L17.8222 12.415L17.6643 13.5301L16.6183 13.9545C16.2137 14.1222 15.8091 14.3591 15.3847 14.6748L14.4966 15.3459L13.4703 14.9314L12.217 14.4281L11.5262 15.6222L12.592 16.4511L13.4703 17.1419L13.3321 18.257C13.3025 18.5531 13.2828 18.7801 13.2828 18.9774C13.2828 19.1748 13.3025 19.4018 13.3321 19.7077L13.4703 20.8228L12.592 21.5136L11.5262 22.3425L12.217 23.5366L13.4703 23.0333L14.5163 22.6089L15.4143 23.2997C15.8091 23.5958 16.2038 23.8227 16.6281 24.0004L17.6742 24.4247L17.8321 25.5398L18.0195 26.872H19.4011L19.5985 25.5398L19.7564 24.4247L20.8024 24.0004C21.207 23.8326 21.6116 23.5958 22.0359 23.28L22.9241 22.6089L23.9504 23.0234L25.2037 23.5267L25.8944 22.3326L24.8287 21.5037L23.9504 20.8129L24.0885 19.6978C24.1181 19.4018 24.1379 19.1847 24.1379 18.9774ZM18.7103 15.0301C16.5294 15.0301 14.763 16.7965 14.763 18.9774C14.763 21.1583 16.5294 22.9247 18.7103 22.9247C20.8912 22.9247 22.6576 21.1583 22.6576 18.9774C22.6576 16.7965 20.8912 15.0301 18.7103 15.0301ZM16.7366 18.9774C16.7366 20.0629 17.6247 20.9511 18.7102 20.9511C19.7957 20.9511 20.6839 20.0629 20.6839 18.9774C20.6839 17.8919 19.7957 17.0038 18.7102 17.0038C17.6247 17.0038 16.7366 17.8919 16.7366 18.9774Z" fill="white"/>
<circle cx="18.7877" cy="18.7877" r="17.7877" stroke="white" stroke-width="2"/>
</svg>
