<svg width="33" height="33" viewBox="0 0 33 33" fill="none" xmlns="http://www.w3.org/2000/svg">
<path d="M26.8125 33H6.1875C2.76994 33 0 30.2301 0 26.8125V6.1875C0 2.76994 2.76994 0 6.1875 0H26.8125C30.2301 0 33 2.76994 33 6.1875V26.8125C33 30.2301 30.2301 33 26.8125 33Z" fill="#EAF0FF"/>
<path d="M13.2344 15H12.7188V17.0625H13.2344C13.3292 17.0625 13.4066 16.9852 13.4066 16.8903V15.1722C13.4066 15.0773 13.3292 15 13.2344 15Z" fill="#155b75"/>
<path d="M16.6719 15H16.3285C16.2336 15 16.1562 15.0773 16.1562 15.1722V16.8913C16.1562 16.9862 16.2336 17.0635 16.3285 17.0635H16.6719C16.7668 17.0635 16.8441 16.9862 16.8441 16.8913V15.1722C16.8431 15.0773 16.7657 15 16.6719 15Z" fill="#155b75"/>
<path d="M21.4844 8H11.5153C10.4727 8 9.625 8.84769 9.625 9.89028V22.6087C9.625 23.6513 10.4727 24.499 11.5153 24.499H21.4844C22.527 24.499 23.3747 23.6513 23.3747 22.6087V9.89028C23.3757 8.84769 22.527 8 21.4844 8ZM14.4378 20.5472C14.4378 21.2103 13.8985 21.7507 13.2344 21.7507H12.2031C11.9185 21.7507 11.6875 21.5197 11.6875 21.2351V18.1413C11.6875 17.8567 11.9185 17.6257 12.2031 17.6257H13.2344C13.8975 17.6257 14.4378 18.165 14.4378 18.8292V20.5472ZM17.875 20.5472C17.875 21.2103 17.3357 21.7507 16.6715 21.7507H16.3281C15.665 21.7507 15.1247 21.2113 15.1247 20.5472V18.8281C15.1247 18.165 15.664 17.6247 16.3281 17.6247H16.6715C17.3346 17.6247 17.875 18.164 17.875 18.8281V20.5472ZM19.7663 20.7184H20.7976C21.0822 20.7184 21.3132 20.9494 21.3132 21.234C21.3132 21.5187 21.0822 21.7497 20.7976 21.7497H19.7663C19.1032 21.7497 18.5628 21.2103 18.5628 20.5462V18.8281C18.5628 18.165 19.1022 17.6247 19.7663 17.6247H20.7976C21.0822 17.6247 21.3132 17.8557 21.3132 18.1403C21.3132 18.4249 21.0822 18.6559 20.7976 18.6559H19.7663C19.6714 18.6559 19.5941 18.7332 19.5941 18.8281V20.5472C19.5941 20.6411 19.6714 20.7184 19.7663 20.7184Z" fill="#155b75"/>
</svg>
