<?xml version="1.0" encoding="UTF-8" standalone="no"?>
<!DOCTYPE svg PUBLIC "-//W3C//DTD SVG 1.1//EN"
 "http://www.w3.org/Graphics/SVG/1.1/DTD/svg11.dtd">
<!-- Generated by graphviz version 2.47.3 (20210619.1520)
 -->
<!-- Title: dependencies Pages: 1 -->
<svg width="2159pt" height="174pt"
 viewBox="0.00 0.00 2159.00 173.80" xmlns="http://www.w3.org/2000/svg" xmlns:xlink="http://www.w3.org/1999/xlink">
<g id="graph0" class="graph" transform="scale(1 1) rotate(0) translate(4 169.8)">
<title>dependencies</title>
<polygon fill="white" stroke="transparent" points="-4,4 -4,-169.8 2155,-169.8 2155,4 -4,4"/>
<text text-anchor="middle" x="1075.5" y="-8.2" font-family="sans-serif" font-size="14.00">dependencies</text>
<g id="clust1" class="cluster">
<title>cluster_ParentPortalModule</title>
<polygon fill="none" stroke="black" stroke-dasharray="1,5" points="8,-32.8 8,-157.8 2143,-157.8 2143,-32.8 8,-32.8"/>
</g>
<g id="clust13" class="cluster">
<title>cluster_ParentPortalModule_imports</title>
<polygon fill="none" stroke="black" points="1829,-40.8 1829,-92.8 2135,-92.8 2135,-40.8 1829,-40.8"/>
</g>
<g id="clust2" class="cluster">
<title>cluster_ParentPortalModule_declarations</title>
<polygon fill="none" stroke="black" points="16,-40.8 16,-92.8 1821,-92.8 1821,-40.8 16,-40.8"/>
</g>
<!-- BillingComponent -->
<g id="node1" class="node">
<title>BillingComponent</title>
<polygon fill="#ffffb3" stroke="black" points="1813.23,-84.8 1692.77,-84.8 1692.77,-48.8 1813.23,-48.8 1813.23,-84.8"/>
<text text-anchor="middle" x="1753" y="-62.6" font-family="Times,serif" font-size="14.00">BillingComponent</text>
</g>
<!-- ParentPortalModule -->
<g id="node11" class="node">
<title>ParentPortalModule</title>
<polygon fill="#8dd3c7" stroke="black" points="1176.25,-149.8 1173.25,-153.8 1152.25,-153.8 1149.25,-149.8 1047.75,-149.8 1047.75,-113.8 1176.25,-113.8 1176.25,-149.8"/>
<text text-anchor="middle" x="1112" y="-127.6" font-family="Times,serif" font-size="14.00">ParentPortalModule</text>
</g>
<!-- BillingComponent&#45;&gt;ParentPortalModule -->
<g id="edge1" class="edge">
<title>BillingComponent&#45;&gt;ParentPortalModule</title>
<path fill="none" stroke="black" d="M1753,-84.91C1753,-104.14 1753,-131.8 1753,-131.8 1753,-131.8 1186.4,-131.8 1186.4,-131.8"/>
<polygon fill="black" stroke="black" points="1186.4,-128.3 1176.4,-131.8 1186.4,-135.3 1186.4,-128.3"/>
</g>
<!-- ChildAssignmentComponent -->
<g id="node2" class="node">
<title>ChildAssignmentComponent</title>
<polygon fill="#ffffb3" stroke="black" points="1674.83,-84.8 1495.17,-84.8 1495.17,-48.8 1674.83,-48.8 1674.83,-84.8"/>
<text text-anchor="middle" x="1585" y="-62.6" font-family="Times,serif" font-size="14.00">ChildAssignmentComponent</text>
</g>
<!-- ChildAssignmentComponent&#45;&gt;ParentPortalModule -->
<g id="edge2" class="edge">
<title>ChildAssignmentComponent&#45;&gt;ParentPortalModule</title>
<path fill="none" stroke="black" d="M1585,-84.82C1585,-102.17 1585,-125.8 1585,-125.8 1585,-125.8 1186.28,-125.8 1186.28,-125.8"/>
<polygon fill="black" stroke="black" points="1186.28,-122.3 1176.28,-125.8 1186.28,-129.3 1186.28,-122.3"/>
</g>
<!-- ChildAttendanceComponent -->
<g id="node3" class="node">
<title>ChildAttendanceComponent</title>
<polygon fill="#ffffb3" stroke="black" points="1477.2,-84.8 1300.8,-84.8 1300.8,-48.8 1477.2,-48.8 1477.2,-84.8"/>
<text text-anchor="middle" x="1389" y="-62.6" font-family="Times,serif" font-size="14.00">ChildAttendanceComponent</text>
</g>
<!-- ChildAttendanceComponent&#45;&gt;ParentPortalModule -->
<g id="edge3" class="edge">
<title>ChildAttendanceComponent&#45;&gt;ParentPortalModule</title>
<path fill="none" stroke="black" d="M1389,-85.04C1389,-100.37 1389,-119.8 1389,-119.8 1389,-119.8 1186.59,-119.8 1186.59,-119.8"/>
<polygon fill="black" stroke="black" points="1186.59,-116.3 1176.59,-119.8 1186.59,-123.3 1186.59,-116.3"/>
</g>
<!-- LandingScreenComponent -->
<g id="node4" class="node">
<title>LandingScreenComponent</title>
<polygon fill="#ffffb3" stroke="black" points="1283.08,-84.8 1116.92,-84.8 1116.92,-48.8 1283.08,-48.8 1283.08,-84.8"/>
<text text-anchor="middle" x="1200" y="-62.6" font-family="Times,serif" font-size="14.00">LandingScreenComponent</text>
</g>
<!-- LandingScreenComponent&#45;&gt;ParentPortalModule -->
<g id="edge4" class="edge">
<title>LandingScreenComponent&#45;&gt;ParentPortalModule</title>
<path fill="none" stroke="black" d="M1146.67,-84.91C1146.67,-84.91 1146.67,-103.79 1146.67,-103.79"/>
<polygon fill="black" stroke="black" points="1143.17,-103.79 1146.67,-113.79 1150.17,-103.79 1143.17,-103.79"/>
</g>
<!-- ParentPortalComponent -->
<g id="node5" class="node">
<title>ParentPortalComponent</title>
<polygon fill="#ffffb3" stroke="black" points="1099.04,-84.8 948.96,-84.8 948.96,-48.8 1099.04,-48.8 1099.04,-84.8"/>
<text text-anchor="middle" x="1024" y="-62.6" font-family="Times,serif" font-size="14.00">ParentPortalComponent</text>
</g>
<!-- ParentPortalComponent&#45;&gt;ParentPortalModule -->
<g id="edge5" class="edge">
<title>ParentPortalComponent&#45;&gt;ParentPortalModule</title>
<path fill="none" stroke="black" d="M1073.45,-84.91C1073.45,-84.91 1073.45,-103.79 1073.45,-103.79"/>
<polygon fill="black" stroke="black" points="1069.95,-103.79 1073.45,-113.79 1076.95,-103.79 1069.95,-103.79"/>
</g>
<!-- ReportCardComponent -->
<g id="node6" class="node">
<title>ReportCardComponent</title>
<polygon fill="#ffffb3" stroke="black" points="930.15,-84.8 783.85,-84.8 783.85,-48.8 930.15,-48.8 930.15,-84.8"/>
<text text-anchor="middle" x="857" y="-62.6" font-family="Times,serif" font-size="14.00">ReportCardComponent</text>
</g>
<!-- ReportCardComponent&#45;&gt;ParentPortalModule -->
<g id="edge6" class="edge">
<title>ReportCardComponent&#45;&gt;ParentPortalModule</title>
<path fill="none" stroke="black" d="M857,-85.04C857,-100.37 857,-119.8 857,-119.8 857,-119.8 1037.65,-119.8 1037.65,-119.8"/>
<polygon fill="black" stroke="black" points="1037.65,-123.3 1047.65,-119.8 1037.65,-116.3 1037.65,-123.3"/>
</g>
<!-- ViewAssignmentComponent -->
<g id="node7" class="node">
<title>ViewAssignmentComponent</title>
<polygon fill="#ffffb3" stroke="black" points="765.03,-84.8 586.97,-84.8 586.97,-48.8 765.03,-48.8 765.03,-84.8"/>
<text text-anchor="middle" x="676" y="-62.6" font-family="Times,serif" font-size="14.00">ViewAssignmentComponent</text>
</g>
<!-- ViewAssignmentComponent&#45;&gt;ParentPortalModule -->
<g id="edge7" class="edge">
<title>ViewAssignmentComponent&#45;&gt;ParentPortalModule</title>
<path fill="none" stroke="black" d="M676,-84.82C676,-102.17 676,-125.8 676,-125.8 676,-125.8 1037.67,-125.8 1037.67,-125.8"/>
<polygon fill="black" stroke="black" points="1037.67,-129.3 1047.67,-125.8 1037.67,-122.3 1037.67,-129.3"/>
</g>
<!-- ViewBillingComponent -->
<g id="node8" class="node">
<title>ViewBillingComponent</title>
<polygon fill="#ffffb3" stroke="black" points="568.05,-84.8 417.95,-84.8 417.95,-48.8 568.05,-48.8 568.05,-84.8"/>
<text text-anchor="middle" x="493" y="-62.6" font-family="Times,serif" font-size="14.00">ViewBillingComponent</text>
</g>
<!-- ViewBillingComponent&#45;&gt;ParentPortalModule -->
<g id="edge8" class="edge">
<title>ViewBillingComponent&#45;&gt;ParentPortalModule</title>
<path fill="none" stroke="black" d="M493,-84.91C493,-104.14 493,-131.8 493,-131.8 493,-131.8 1037.51,-131.8 1037.51,-131.8"/>
<polygon fill="black" stroke="black" points="1037.51,-135.3 1047.51,-131.8 1037.51,-128.3 1037.51,-135.3"/>
</g>
<!-- ViewReportCardComponent -->
<g id="node9" class="node">
<title>ViewReportCardComponent</title>
<polygon fill="#ffffb3" stroke="black" points="399.47,-84.8 222.53,-84.8 222.53,-48.8 399.47,-48.8 399.47,-84.8"/>
<text text-anchor="middle" x="311" y="-62.6" font-family="Times,serif" font-size="14.00">ViewReportCardComponent</text>
</g>
<!-- ViewReportCardComponent&#45;&gt;ParentPortalModule -->
<g id="edge9" class="edge">
<title>ViewReportCardComponent&#45;&gt;ParentPortalModule</title>
<path fill="none" stroke="black" d="M311,-85.08C311,-106.12 311,-137.8 311,-137.8 311,-137.8 1037.47,-137.8 1037.47,-137.8"/>
<polygon fill="black" stroke="black" points="1037.47,-141.3 1047.47,-137.8 1037.47,-134.3 1037.47,-141.3"/>
</g>
<!-- ViewReportSheetComponent -->
<g id="node10" class="node">
<title>ViewReportSheetComponent</title>
<polygon fill="#ffffb3" stroke="black" points="204.36,-84.8 23.64,-84.8 23.64,-48.8 204.36,-48.8 204.36,-84.8"/>
<text text-anchor="middle" x="114" y="-62.6" font-family="Times,serif" font-size="14.00">ViewReportSheetComponent</text>
</g>
<!-- ViewReportSheetComponent&#45;&gt;ParentPortalModule -->
<g id="edge10" class="edge">
<title>ViewReportSheetComponent&#45;&gt;ParentPortalModule</title>
<path fill="none" stroke="black" d="M114,-84.89C114,-107.93 114,-144.8 114,-144.8 114,-144.8 1037.67,-144.8 1037.67,-144.8"/>
<polygon fill="black" stroke="black" points="1037.67,-148.3 1047.67,-144.8 1037.67,-141.3 1037.67,-148.3"/>
</g>
<!-- ParentPortalRoutingModule -->
<g id="node12" class="node">
<title>ParentPortalRoutingModule</title>
<polygon fill="#8dd3c7" stroke="black" points="2126.87,-84.8 2123.87,-88.8 2102.87,-88.8 2099.87,-84.8 1953.13,-84.8 1953.13,-48.8 2126.87,-48.8 2126.87,-84.8"/>
<text text-anchor="middle" x="2040" y="-62.6" font-family="Times,serif" font-size="14.00">ParentPortalRoutingModule</text>
</g>
<!-- ParentPortalRoutingModule&#45;&gt;ParentPortalModule -->
<g id="edge11" class="edge">
<title>ParentPortalRoutingModule&#45;&gt;ParentPortalModule</title>
<path fill="none" stroke="black" d="M2040,-84.89C2040,-107.93 2040,-144.8 2040,-144.8 2040,-144.8 1186.52,-144.8 1186.52,-144.8"/>
<polygon fill="black" stroke="black" points="1186.52,-141.3 1176.52,-144.8 1186.52,-148.3 1186.52,-141.3"/>
</g>
<!-- SharedModule -->
<g id="node13" class="node">
<title>SharedModule</title>
<polygon fill="#8dd3c7" stroke="black" points="1935.42,-84.8 1932.42,-88.8 1911.42,-88.8 1908.42,-84.8 1836.58,-84.8 1836.58,-48.8 1935.42,-48.8 1935.42,-84.8"/>
<text text-anchor="middle" x="1886" y="-62.6" font-family="Times,serif" font-size="14.00">SharedModule</text>
</g>
<!-- SharedModule&#45;&gt;ParentPortalModule -->
<g id="edge12" class="edge">
<title>SharedModule&#45;&gt;ParentPortalModule</title>
<path fill="none" stroke="black" d="M1886,-85.08C1886,-106.12 1886,-137.8 1886,-137.8 1886,-137.8 1186.33,-137.8 1186.33,-137.8"/>
<polygon fill="black" stroke="black" points="1186.33,-134.3 1176.33,-137.8 1186.33,-141.3 1186.33,-134.3"/>
</g>
</g>
</svg>
