<?xml version="1.0" encoding="UTF-8" standalone="no"?>
<!DOCTYPE svg PUBLIC "-//W3C//DTD SVG 1.1//EN"
 "http://www.w3.org/Graphics/SVG/1.1/DTD/svg11.dtd">
<!-- Generated by graphviz version 2.47.3 (20210619.1520)
 -->
<!-- Title: dependencies Pages: 1 -->
<svg width="3509pt" height="174pt"
 viewBox="0.00 0.00 3509.00 173.80" xmlns="http://www.w3.org/2000/svg" xmlns:xlink="http://www.w3.org/1999/xlink">
<g id="graph0" class="graph" transform="scale(1 1) rotate(0) translate(4 169.8)">
<title>dependencies</title>
<polygon fill="white" stroke="transparent" points="-4,4 -4,-169.8 3505,-169.8 3505,4 -4,4"/>
<text text-anchor="middle" x="1750.5" y="-8.2" font-family="sans-serif" font-size="14.00">dependencies</text>
<g id="clust1" class="cluster">
<title>cluster_TeacherModule</title>
<polygon fill="none" stroke="black" stroke-dasharray="1,5" points="8,-32.8 8,-157.8 3493,-157.8 3493,-32.8 8,-32.8"/>
</g>
<g id="clust2" class="cluster">
<title>cluster_TeacherModule_declarations</title>
<polygon fill="none" stroke="black" points="306,-40.8 306,-92.8 3485,-92.8 3485,-40.8 306,-40.8"/>
</g>
<g id="clust21" class="cluster">
<title>cluster_TeacherModule_imports</title>
<polygon fill="none" stroke="black" points="16,-40.8 16,-92.8 298,-92.8 298,-40.8 16,-40.8"/>
</g>
<!-- AssignmentsComponent -->
<g id="node1" class="node">
<title>AssignmentsComponent</title>
<polygon fill="#ffffb3" stroke="black" points="3476.66,-84.8 3323.34,-84.8 3323.34,-48.8 3476.66,-48.8 3476.66,-84.8"/>
<text text-anchor="middle" x="3400" y="-62.6" font-family="Times,serif" font-size="14.00">AssignmentsComponent</text>
</g>
<!-- TeacherModule -->
<g id="node19" class="node">
<title>TeacherModule</title>
<polygon fill="#8dd3c7" stroke="black" points="1799.12,-149.8 1796.12,-153.8 1775.12,-153.8 1772.12,-149.8 1694.88,-149.8 1694.88,-113.8 1799.12,-113.8 1799.12,-149.8"/>
<text text-anchor="middle" x="1747" y="-127.6" font-family="Times,serif" font-size="14.00">TeacherModule</text>
</g>
<!-- AssignmentsComponent&#45;&gt;TeacherModule -->
<g id="edge1" class="edge">
<title>AssignmentsComponent&#45;&gt;TeacherModule</title>
<path fill="none" stroke="black" d="M3400,-84.95C3400,-108.56 3400,-146.8 3400,-146.8 3400,-146.8 1809.2,-146.8 1809.2,-146.8"/>
<polygon fill="black" stroke="black" points="1809.2,-143.3 1799.2,-146.8 1809.2,-150.3 1809.2,-143.3"/>
</g>
<!-- AttendanceComponent -->
<g id="node2" class="node">
<title>AttendanceComponent</title>
<polygon fill="#ffffb3" stroke="black" points="3305.58,-84.8 3160.42,-84.8 3160.42,-48.8 3305.58,-48.8 3305.58,-84.8"/>
<text text-anchor="middle" x="3233" y="-62.6" font-family="Times,serif" font-size="14.00">AttendanceComponent</text>
</g>
<!-- AttendanceComponent&#45;&gt;TeacherModule -->
<g id="edge2" class="edge">
<title>AttendanceComponent&#45;&gt;TeacherModule</title>
<path fill="none" stroke="black" d="M3233,-84.81C3233,-107.29 3233,-142.8 3233,-142.8 3233,-142.8 1809.45,-142.8 1809.45,-142.8"/>
<polygon fill="black" stroke="black" points="1809.45,-139.3 1799.45,-142.8 1809.45,-146.3 1809.45,-139.3"/>
</g>
<!-- BroadSheetComponent -->
<g id="node3" class="node">
<title>BroadSheetComponent</title>
<polygon fill="#ffffb3" stroke="black" points="3142.15,-84.8 2995.85,-84.8 2995.85,-48.8 3142.15,-48.8 3142.15,-84.8"/>
<text text-anchor="middle" x="3069" y="-62.6" font-family="Times,serif" font-size="14.00">BroadSheetComponent</text>
</g>
<!-- BroadSheetComponent&#45;&gt;TeacherModule -->
<g id="edge3" class="edge">
<title>BroadSheetComponent&#45;&gt;TeacherModule</title>
<path fill="none" stroke="black" d="M3069,-84.84C3069,-106.46 3069,-139.8 3069,-139.8 3069,-139.8 1809.23,-139.8 1809.23,-139.8"/>
<polygon fill="black" stroke="black" points="1809.23,-136.3 1799.23,-139.8 1809.23,-143.3 1809.23,-136.3"/>
</g>
<!-- ClassAttendanceComponent -->
<g id="node4" class="node">
<title>ClassAttendanceComponent</title>
<polygon fill="#ffffb3" stroke="black" points="2977.91,-84.8 2802.09,-84.8 2802.09,-48.8 2977.91,-48.8 2977.91,-84.8"/>
<text text-anchor="middle" x="2890" y="-62.6" font-family="Times,serif" font-size="14.00">ClassAttendanceComponent</text>
</g>
<!-- ClassAttendanceComponent&#45;&gt;TeacherModule -->
<g id="edge4" class="edge">
<title>ClassAttendanceComponent&#45;&gt;TeacherModule</title>
<path fill="none" stroke="black" d="M2890,-84.93C2890,-105.37 2890,-135.8 2890,-135.8 2890,-135.8 1809.46,-135.8 1809.46,-135.8"/>
<polygon fill="black" stroke="black" points="1809.46,-132.3 1799.46,-135.8 1809.46,-139.3 1809.46,-132.3"/>
</g>
<!-- CreateAssignmentComponent -->
<g id="node5" class="node">
<title>CreateAssignmentComponent</title>
<polygon fill="#ffffb3" stroke="black" points="2784.25,-84.8 2599.75,-84.8 2599.75,-48.8 2784.25,-48.8 2784.25,-84.8"/>
<text text-anchor="middle" x="2692" y="-62.6" font-family="Times,serif" font-size="14.00">CreateAssignmentComponent</text>
</g>
<!-- CreateAssignmentComponent&#45;&gt;TeacherModule -->
<g id="edge5" class="edge">
<title>CreateAssignmentComponent&#45;&gt;TeacherModule</title>
<path fill="none" stroke="black" d="M2692,-84.91C2692,-104.14 2692,-131.8 2692,-131.8 2692,-131.8 1809.15,-131.8 1809.15,-131.8"/>
<polygon fill="black" stroke="black" points="1809.15,-128.3 1799.15,-131.8 1809.15,-135.3 1809.15,-128.3"/>
</g>
<!-- GradebookComponent -->
<g id="node6" class="node">
<title>GradebookComponent</title>
<polygon fill="#ffffb3" stroke="black" points="2581.53,-84.8 2438.47,-84.8 2438.47,-48.8 2581.53,-48.8 2581.53,-84.8"/>
<text text-anchor="middle" x="2510" y="-62.6" font-family="Times,serif" font-size="14.00">GradebookComponent</text>
</g>
<!-- GradebookComponent&#45;&gt;TeacherModule -->
<g id="edge6" class="edge">
<title>GradebookComponent&#45;&gt;TeacherModule</title>
<path fill="none" stroke="black" d="M2510,-85.07C2510,-103.36 2510,-128.8 2510,-128.8 2510,-128.8 1809.14,-128.8 1809.14,-128.8"/>
<polygon fill="black" stroke="black" points="1809.14,-125.3 1799.14,-128.8 1809.14,-132.3 1809.14,-125.3"/>
</g>
<!-- GradingComponent -->
<g id="node7" class="node">
<title>GradingComponent</title>
<polygon fill="#ffffb3" stroke="black" points="2420.7,-84.8 2293.3,-84.8 2293.3,-48.8 2420.7,-48.8 2420.7,-84.8"/>
<text text-anchor="middle" x="2357" y="-62.6" font-family="Times,serif" font-size="14.00">GradingComponent</text>
</g>
<!-- GradingComponent&#45;&gt;TeacherModule -->
<g id="edge7" class="edge">
<title>GradingComponent&#45;&gt;TeacherModule</title>
<path fill="none" stroke="black" d="M2357,-84.83C2357,-101.86 2357,-124.8 2357,-124.8 2357,-124.8 1809.27,-124.8 1809.27,-124.8"/>
<polygon fill="black" stroke="black" points="1809.27,-121.3 1799.27,-124.8 1809.27,-128.3 1809.27,-121.3"/>
</g>
<!-- MailReportCardComponent -->
<g id="node8" class="node">
<title>MailReportCardComponent</title>
<polygon fill="#ffffb3" stroke="black" points="2275.59,-84.8 2102.41,-84.8 2102.41,-48.8 2275.59,-48.8 2275.59,-84.8"/>
<text text-anchor="middle" x="2189" y="-62.6" font-family="Times,serif" font-size="14.00">MailReportCardComponent</text>
</g>
<!-- MailReportCardComponent&#45;&gt;TeacherModule -->
<g id="edge8" class="edge">
<title>MailReportCardComponent&#45;&gt;TeacherModule</title>
<path fill="none" stroke="black" d="M2189,-84.81C2189,-100.85 2189,-121.8 2189,-121.8 2189,-121.8 1809.44,-121.8 1809.44,-121.8"/>
<polygon fill="black" stroke="black" points="1809.44,-118.3 1799.44,-121.8 1809.44,-125.3 1809.44,-118.3"/>
</g>
<!-- MarkAttendanceComponent -->
<g id="node9" class="node">
<title>MarkAttendanceComponent</title>
<polygon fill="#ffffb3" stroke="black" points="2084.9,-84.8 1909.1,-84.8 1909.1,-48.8 2084.9,-48.8 2084.9,-84.8"/>
<text text-anchor="middle" x="1997" y="-62.6" font-family="Times,serif" font-size="14.00">MarkAttendanceComponent</text>
</g>
<!-- MarkAttendanceComponent&#45;&gt;TeacherModule -->
<g id="edge9" class="edge">
<title>MarkAttendanceComponent&#45;&gt;TeacherModule</title>
<path fill="none" stroke="black" d="M1997,-84.92C1997,-99.58 1997,-117.8 1997,-117.8 1997,-117.8 1809.41,-117.8 1809.41,-117.8"/>
<polygon fill="black" stroke="black" points="1809.41,-114.3 1799.41,-117.8 1809.41,-121.3 1809.41,-114.3"/>
</g>
<!-- ScheduleComponent -->
<g id="node10" class="node">
<title>ScheduleComponent</title>
<polygon fill="#ffffb3" stroke="black" points="1891.15,-84.8 1758.85,-84.8 1758.85,-48.8 1891.15,-48.8 1891.15,-84.8"/>
<text text-anchor="middle" x="1825" y="-62.6" font-family="Times,serif" font-size="14.00">ScheduleComponent</text>
</g>
<!-- ScheduleComponent&#45;&gt;TeacherModule -->
<g id="edge10" class="edge">
<title>ScheduleComponent&#45;&gt;TeacherModule</title>
<path fill="none" stroke="black" d="M1778.99,-84.91C1778.99,-84.91 1778.99,-103.79 1778.99,-103.79"/>
<polygon fill="black" stroke="black" points="1775.49,-103.79 1778.99,-113.79 1782.49,-103.79 1775.49,-103.79"/>
</g>
<!-- ScoreSheetComponent -->
<g id="node11" class="node">
<title>ScoreSheetComponent</title>
<polygon fill="#ffffb3" stroke="black" points="1741.31,-84.8 1596.69,-84.8 1596.69,-48.8 1741.31,-48.8 1741.31,-84.8"/>
<text text-anchor="middle" x="1669" y="-62.6" font-family="Times,serif" font-size="14.00">ScoreSheetComponent</text>
</g>
<!-- ScoreSheetComponent&#45;&gt;TeacherModule -->
<g id="edge11" class="edge">
<title>ScoreSheetComponent&#45;&gt;TeacherModule</title>
<path fill="none" stroke="black" d="M1717.92,-84.91C1717.92,-84.91 1717.92,-103.79 1717.92,-103.79"/>
<polygon fill="black" stroke="black" points="1714.42,-103.79 1717.92,-113.79 1721.42,-103.79 1714.42,-103.79"/>
</g>
<!-- ScoreSheetDetailsPageComponent -->
<g id="node12" class="node">
<title>ScoreSheetDetailsPageComponent</title>
<polygon fill="#ffffb3" stroke="black" points="1578.67,-84.8 1367.33,-84.8 1367.33,-48.8 1578.67,-48.8 1578.67,-84.8"/>
<text text-anchor="middle" x="1473" y="-62.6" font-family="Times,serif" font-size="14.00">ScoreSheetDetailsPageComponent</text>
</g>
<!-- ScoreSheetDetailsPageComponent&#45;&gt;TeacherModule -->
<g id="edge12" class="edge">
<title>ScoreSheetDetailsPageComponent&#45;&gt;TeacherModule</title>
<path fill="none" stroke="black" d="M1473,-84.92C1473,-99.58 1473,-117.8 1473,-117.8 1473,-117.8 1684.82,-117.8 1684.82,-117.8"/>
<polygon fill="black" stroke="black" points="1684.82,-121.3 1694.82,-117.8 1684.82,-114.3 1684.82,-121.3"/>
</g>
<!-- StudentScoreSheetComponent -->
<g id="node13" class="node">
<title>StudentScoreSheetComponent</title>
<polygon fill="#ffffb3" stroke="black" points="1349.59,-84.8 1162.41,-84.8 1162.41,-48.8 1349.59,-48.8 1349.59,-84.8"/>
<text text-anchor="middle" x="1256" y="-62.6" font-family="Times,serif" font-size="14.00">StudentScoreSheetComponent</text>
</g>
<!-- StudentScoreSheetComponent&#45;&gt;TeacherModule -->
<g id="edge13" class="edge">
<title>StudentScoreSheetComponent&#45;&gt;TeacherModule</title>
<path fill="none" stroke="black" d="M1256,-84.81C1256,-100.85 1256,-121.8 1256,-121.8 1256,-121.8 1684.45,-121.8 1684.45,-121.8"/>
<polygon fill="black" stroke="black" points="1684.45,-125.3 1694.45,-121.8 1684.45,-118.3 1684.45,-125.3"/>
</g>
<!-- SubjecAttendanceComponent -->
<g id="node14" class="node">
<title>SubjecAttendanceComponent</title>
<polygon fill="#ffffb3" stroke="black" points="1144.68,-84.8 961.32,-84.8 961.32,-48.8 1144.68,-48.8 1144.68,-84.8"/>
<text text-anchor="middle" x="1053" y="-62.6" font-family="Times,serif" font-size="14.00">SubjecAttendanceComponent</text>
</g>
<!-- SubjecAttendanceComponent&#45;&gt;TeacherModule -->
<g id="edge14" class="edge">
<title>SubjecAttendanceComponent&#45;&gt;TeacherModule</title>
<path fill="none" stroke="black" d="M1053,-84.83C1053,-101.86 1053,-124.8 1053,-124.8 1053,-124.8 1684.84,-124.8 1684.84,-124.8"/>
<polygon fill="black" stroke="black" points="1684.84,-128.3 1694.84,-124.8 1684.84,-121.3 1684.84,-128.3"/>
</g>
<!-- TeacherComponent -->
<g id="node15" class="node">
<title>TeacherComponent</title>
<polygon fill="#ffffb3" stroke="black" points="943.4,-84.8 816.6,-84.8 816.6,-48.8 943.4,-48.8 943.4,-84.8"/>
<text text-anchor="middle" x="880" y="-62.6" font-family="Times,serif" font-size="14.00">TeacherComponent</text>
</g>
<!-- TeacherComponent&#45;&gt;TeacherModule -->
<g id="edge15" class="edge">
<title>TeacherComponent&#45;&gt;TeacherModule</title>
<path fill="none" stroke="black" d="M880,-85.07C880,-103.36 880,-128.8 880,-128.8 880,-128.8 1684.72,-128.8 1684.72,-128.8"/>
<polygon fill="black" stroke="black" points="1684.72,-132.3 1694.72,-128.8 1684.72,-125.3 1684.72,-132.3"/>
</g>
<!-- ViewFileComponent -->
<g id="node16" class="node">
<title>ViewFileComponent</title>
<polygon fill="#ffffb3" stroke="black" points="798.93,-84.8 665.07,-84.8 665.07,-48.8 798.93,-48.8 798.93,-84.8"/>
<text text-anchor="middle" x="732" y="-62.6" font-family="Times,serif" font-size="14.00">ViewFileComponent</text>
</g>
<!-- ViewFileComponent&#45;&gt;TeacherModule -->
<g id="edge16" class="edge">
<title>ViewFileComponent&#45;&gt;TeacherModule</title>
<path fill="none" stroke="black" d="M732,-84.91C732,-104.14 732,-131.8 732,-131.8 732,-131.8 1684.57,-131.8 1684.57,-131.8"/>
<polygon fill="black" stroke="black" points="1684.57,-135.3 1694.57,-131.8 1684.57,-128.3 1684.57,-135.3"/>
</g>
<!-- VirtualClassComponent -->
<g id="node17" class="node">
<title>VirtualClassComponent</title>
<polygon fill="#ffffb3" stroke="black" points="647.82,-84.8 496.18,-84.8 496.18,-48.8 647.82,-48.8 647.82,-84.8"/>
<text text-anchor="middle" x="572" y="-62.6" font-family="Times,serif" font-size="14.00">VirtualClassComponent</text>
</g>
<!-- VirtualClassComponent&#45;&gt;TeacherModule -->
<g id="edge17" class="edge">
<title>VirtualClassComponent&#45;&gt;TeacherModule</title>
<path fill="none" stroke="black" d="M572,-84.93C572,-105.37 572,-135.8 572,-135.8 572,-135.8 1684.61,-135.8 1684.61,-135.8"/>
<polygon fill="black" stroke="black" points="1684.61,-139.3 1694.61,-135.8 1684.61,-132.3 1684.61,-139.3"/>
</g>
<!-- VirtualSessionComponent -->
<g id="node18" class="node">
<title>VirtualSessionComponent</title>
<polygon fill="#ffffb3" stroke="black" points="477.76,-84.8 314.24,-84.8 314.24,-48.8 477.76,-48.8 477.76,-84.8"/>
<text text-anchor="middle" x="396" y="-62.6" font-family="Times,serif" font-size="14.00">VirtualSessionComponent</text>
</g>
<!-- VirtualSessionComponent&#45;&gt;TeacherModule -->
<g id="edge18" class="edge">
<title>VirtualSessionComponent&#45;&gt;TeacherModule</title>
<path fill="none" stroke="black" d="M396,-84.84C396,-106.46 396,-139.8 396,-139.8 396,-139.8 1684.87,-139.8 1684.87,-139.8"/>
<polygon fill="black" stroke="black" points="1684.87,-143.3 1694.87,-139.8 1684.87,-136.3 1684.87,-143.3"/>
</g>
<!-- SharedModule -->
<g id="node20" class="node">
<title>SharedModule</title>
<polygon fill="#8dd3c7" stroke="black" points="290.42,-84.8 287.42,-88.8 266.42,-88.8 263.42,-84.8 191.58,-84.8 191.58,-48.8 290.42,-48.8 290.42,-84.8"/>
<text text-anchor="middle" x="241" y="-62.6" font-family="Times,serif" font-size="14.00">SharedModule</text>
</g>
<!-- SharedModule&#45;&gt;TeacherModule -->
<g id="edge19" class="edge">
<title>SharedModule&#45;&gt;TeacherModule</title>
<path fill="none" stroke="black" d="M241,-84.81C241,-107.29 241,-142.8 241,-142.8 241,-142.8 1684.72,-142.8 1684.72,-142.8"/>
<polygon fill="black" stroke="black" points="1684.72,-146.3 1694.72,-142.8 1684.72,-139.3 1684.72,-146.3"/>
</g>
<!-- TeacherRoutingModule -->
<g id="node21" class="node">
<title>TeacherRoutingModule</title>
<polygon fill="#8dd3c7" stroke="black" points="173.74,-84.8 170.74,-88.8 149.74,-88.8 146.74,-84.8 24.26,-84.8 24.26,-48.8 173.74,-48.8 173.74,-84.8"/>
<text text-anchor="middle" x="99" y="-62.6" font-family="Times,serif" font-size="14.00">TeacherRoutingModule</text>
</g>
<!-- TeacherRoutingModule&#45;&gt;TeacherModule -->
<g id="edge20" class="edge">
<title>TeacherRoutingModule&#45;&gt;TeacherModule</title>
<path fill="none" stroke="black" d="M99,-84.95C99,-108.56 99,-146.8 99,-146.8 99,-146.8 1684.5,-146.8 1684.5,-146.8"/>
<polygon fill="black" stroke="black" points="1684.5,-150.3 1694.5,-146.8 1684.5,-143.3 1684.5,-150.3"/>
</g>
</g>
</svg>
