<?xml version="1.0" encoding="UTF-8" standalone="no"?>
<!DOCTYPE svg PUBLIC "-//W3C//DTD SVG 1.1//EN"
 "http://www.w3.org/Graphics/SVG/1.1/DTD/svg11.dtd">
<!-- Generated by graphviz version 2.47.3 (20210619.1520)
 -->
<!-- Title: dependencies Pages: 1 -->
<svg width="1251pt" height="174pt"
 viewBox="0.00 0.00 1251.00 173.80" xmlns="http://www.w3.org/2000/svg" xmlns:xlink="http://www.w3.org/1999/xlink">
<g id="graph0" class="graph" transform="scale(1 1) rotate(0) translate(4 169.8)">
<title>dependencies</title>
<polygon fill="white" stroke="transparent" points="-4,4 -4,-169.8 1247,-169.8 1247,4 -4,4"/>
<text text-anchor="middle" x="621.5" y="-8.2" font-family="sans-serif" font-size="14.00">dependencies</text>
<g id="clust1" class="cluster">
<title>cluster_SchoolBranchManagerModule</title>
<polygon fill="none" stroke="black" stroke-dasharray="1,5" points="8,-32.8 8,-157.8 1235,-157.8 1235,-32.8 8,-32.8"/>
</g>
<g id="clust2" class="cluster">
<title>cluster_SchoolBranchManagerModule_declarations</title>
<polygon fill="none" stroke="black" points="350,-40.8 350,-92.8 1227,-92.8 1227,-40.8 350,-40.8"/>
</g>
<g id="clust7" class="cluster">
<title>cluster_SchoolBranchManagerModule_imports</title>
<polygon fill="none" stroke="black" points="16,-40.8 16,-92.8 342,-92.8 342,-40.8 16,-40.8"/>
</g>
<!-- BranchDetailComponent -->
<g id="node1" class="node">
<title>BranchDetailComponent</title>
<polygon fill="#ffffb3" stroke="black" points="1218.97,-84.8 1063.03,-84.8 1063.03,-48.8 1218.97,-48.8 1218.97,-84.8"/>
<text text-anchor="middle" x="1141" y="-62.6" font-family="Times,serif" font-size="14.00">BranchDetailComponent</text>
</g>
<!-- SchoolBranchManagerModule -->
<g id="node5" class="node">
<title>SchoolBranchManagerModule</title>
<polygon fill="#8dd3c7" stroke="black" points="686.11,-149.8 683.11,-153.8 662.11,-153.8 659.11,-149.8 497.89,-149.8 497.89,-113.8 686.11,-113.8 686.11,-149.8"/>
<text text-anchor="middle" x="592" y="-127.6" font-family="Times,serif" font-size="14.00">SchoolBranchManagerModule</text>
</g>
<!-- BranchDetailComponent&#45;&gt;SchoolBranchManagerModule -->
<g id="edge1" class="edge">
<title>BranchDetailComponent&#45;&gt;SchoolBranchManagerModule</title>
<path fill="none" stroke="black" d="M1141,-85.08C1141,-106.12 1141,-137.8 1141,-137.8 1141,-137.8 696.38,-137.8 696.38,-137.8"/>
<polygon fill="black" stroke="black" points="696.38,-134.3 686.38,-137.8 696.38,-141.3 696.38,-134.3"/>
</g>
<!-- SchoolBranchManagerComponent -->
<g id="node2" class="node">
<title>SchoolBranchManagerComponent</title>
<polygon fill="#ffffb3" stroke="black" points="1045.4,-84.8 834.6,-84.8 834.6,-48.8 1045.4,-48.8 1045.4,-84.8"/>
<text text-anchor="middle" x="940" y="-62.6" font-family="Times,serif" font-size="14.00">SchoolBranchManagerComponent</text>
</g>
<!-- SchoolBranchManagerComponent&#45;&gt;SchoolBranchManagerModule -->
<g id="edge2" class="edge">
<title>SchoolBranchManagerComponent&#45;&gt;SchoolBranchManagerModule</title>
<path fill="none" stroke="black" d="M940,-84.82C940,-102.17 940,-125.8 940,-125.8 940,-125.8 696.17,-125.8 696.17,-125.8"/>
<polygon fill="black" stroke="black" points="696.17,-122.3 686.17,-125.8 696.17,-129.3 696.17,-122.3"/>
</g>
<!-- SchoolManagerBranchComponent -->
<g id="node3" class="node">
<title>SchoolManagerBranchComponent</title>
<polygon fill="#ffffb3" stroke="black" points="817.4,-84.8 606.6,-84.8 606.6,-48.8 817.4,-48.8 817.4,-84.8"/>
<text text-anchor="middle" x="712" y="-62.6" font-family="Times,serif" font-size="14.00">SchoolManagerBranchComponent</text>
</g>
<!-- SchoolManagerBranchComponent&#45;&gt;SchoolBranchManagerModule -->
<g id="edge3" class="edge">
<title>SchoolManagerBranchComponent&#45;&gt;SchoolBranchManagerModule</title>
<path fill="none" stroke="black" d="M646.55,-84.91C646.55,-84.91 646.55,-103.79 646.55,-103.79"/>
<polygon fill="black" stroke="black" points="643.05,-103.79 646.55,-113.79 650.05,-103.79 643.05,-103.79"/>
</g>
<!-- SchoolManagerDashboardComponent -->
<g id="node4" class="node">
<title>SchoolManagerDashboardComponent</title>
<polygon fill="#ffffb3" stroke="black" points="588.11,-84.8 357.89,-84.8 357.89,-48.8 588.11,-48.8 588.11,-84.8"/>
<text text-anchor="middle" x="473" y="-62.6" font-family="Times,serif" font-size="14.00">SchoolManagerDashboardComponent</text>
</g>
<!-- SchoolManagerDashboardComponent&#45;&gt;SchoolBranchManagerModule -->
<g id="edge4" class="edge">
<title>SchoolManagerDashboardComponent&#45;&gt;SchoolBranchManagerModule</title>
<path fill="none" stroke="black" d="M543,-84.91C543,-84.91 543,-103.79 543,-103.79"/>
<polygon fill="black" stroke="black" points="539.5,-103.79 543,-113.79 546.5,-103.79 539.5,-103.79"/>
</g>
<!-- SchoolManagerRoutingModule -->
<g id="node6" class="node">
<title>SchoolManagerRoutingModule</title>
<polygon fill="#8dd3c7" stroke="black" points="333.8,-84.8 330.8,-88.8 309.8,-88.8 306.8,-84.8 140.2,-84.8 140.2,-48.8 333.8,-48.8 333.8,-84.8"/>
<text text-anchor="middle" x="237" y="-62.6" font-family="Times,serif" font-size="14.00">SchoolManagerRoutingModule</text>
</g>
<!-- SchoolManagerRoutingModule&#45;&gt;SchoolBranchManagerModule -->
<g id="edge5" class="edge">
<title>SchoolManagerRoutingModule&#45;&gt;SchoolBranchManagerModule</title>
<path fill="none" stroke="black" d="M237,-84.82C237,-102.17 237,-125.8 237,-125.8 237,-125.8 487.8,-125.8 487.8,-125.8"/>
<polygon fill="black" stroke="black" points="487.8,-129.3 497.8,-125.8 487.8,-122.3 487.8,-129.3"/>
</g>
<!-- SharedModule -->
<g id="node7" class="node">
<title>SharedModule</title>
<polygon fill="#8dd3c7" stroke="black" points="122.42,-84.8 119.42,-88.8 98.42,-88.8 95.42,-84.8 23.58,-84.8 23.58,-48.8 122.42,-48.8 122.42,-84.8"/>
<text text-anchor="middle" x="73" y="-62.6" font-family="Times,serif" font-size="14.00">SharedModule</text>
</g>
<!-- SharedModule&#45;&gt;SchoolBranchManagerModule -->
<g id="edge6" class="edge">
<title>SharedModule&#45;&gt;SchoolBranchManagerModule</title>
<path fill="none" stroke="black" d="M73,-85.08C73,-106.12 73,-137.8 73,-137.8 73,-137.8 487.71,-137.8 487.71,-137.8"/>
<polygon fill="black" stroke="black" points="487.71,-141.3 497.71,-137.8 487.71,-134.3 487.71,-141.3"/>
</g>
</g>
</svg>
