<?xml version="1.0" encoding="UTF-8" standalone="no"?>
<!DOCTYPE svg PUBLIC "-//W3C//DTD SVG 1.1//EN"
 "http://www.w3.org/Graphics/SVG/1.1/DTD/svg11.dtd">
<!-- Generated by graphviz version 2.47.3 (20210619.1520)
 -->
<!-- Title: dependencies Pages: 1 -->
<svg width="1070pt" height="174pt"
 viewBox="0.00 0.00 1070.00 173.80" xmlns="http://www.w3.org/2000/svg" xmlns:xlink="http://www.w3.org/1999/xlink">
<g id="graph0" class="graph" transform="scale(1 1) rotate(0) translate(4 169.8)">
<title>dependencies</title>
<polygon fill="white" stroke="transparent" points="-4,4 -4,-169.8 1066,-169.8 1066,4 -4,4"/>
<text text-anchor="middle" x="531" y="-8.2" font-family="sans-serif" font-size="14.00">dependencies</text>
<g id="clust1" class="cluster">
<title>cluster_LandingpageModule</title>
<polygon fill="none" stroke="black" stroke-dasharray="1,5" points="8,-32.8 8,-157.8 1054,-157.8 1054,-32.8 8,-32.8"/>
</g>
<g id="clust2" class="cluster">
<title>cluster_LandingpageModule_declarations</title>
<polygon fill="none" stroke="black" points="334,-40.8 334,-92.8 1046,-92.8 1046,-40.8 334,-40.8"/>
</g>
<g id="clust8" class="cluster">
<title>cluster_LandingpageModule_imports</title>
<polygon fill="none" stroke="black" points="16,-40.8 16,-92.8 326,-92.8 326,-40.8 16,-40.8"/>
</g>
<!-- AboutComponent -->
<g id="node1" class="node">
<title>AboutComponent</title>
<polygon fill="#ffffb3" stroke="black" points="1038.33,-84.8 921.67,-84.8 921.67,-48.8 1038.33,-48.8 1038.33,-84.8"/>
<text text-anchor="middle" x="980" y="-62.6" font-family="Times,serif" font-size="14.00">AboutComponent</text>
</g>
<!-- LandingpageModule -->
<g id="node6" class="node">
<title>LandingpageModule</title>
<polygon fill="#8dd3c7" stroke="black" points="633.14,-149.8 630.14,-153.8 609.14,-153.8 606.14,-149.8 500.86,-149.8 500.86,-113.8 633.14,-113.8 633.14,-149.8"/>
<text text-anchor="middle" x="567" y="-127.6" font-family="Times,serif" font-size="14.00">LandingpageModule</text>
</g>
<!-- AboutComponent&#45;&gt;LandingpageModule -->
<g id="edge1" class="edge">
<title>AboutComponent&#45;&gt;LandingpageModule</title>
<path fill="none" stroke="black" d="M980,-85.09C980,-107.01 980,-140.8 980,-140.8 980,-140.8 643.36,-140.8 643.36,-140.8"/>
<polygon fill="black" stroke="black" points="643.36,-137.3 633.36,-140.8 643.36,-144.3 643.36,-137.3"/>
</g>
<!-- DemoComponent -->
<g id="node2" class="node">
<title>DemoComponent</title>
<polygon fill="#ffffb3" stroke="black" points="903.55,-84.8 788.45,-84.8 788.45,-48.8 903.55,-48.8 903.55,-84.8"/>
<text text-anchor="middle" x="846" y="-62.6" font-family="Times,serif" font-size="14.00">DemoComponent</text>
</g>
<!-- DemoComponent&#45;&gt;LandingpageModule -->
<g id="edge2" class="edge">
<title>DemoComponent&#45;&gt;LandingpageModule</title>
<path fill="none" stroke="black" d="M846,-84.91C846,-104.14 846,-131.8 846,-131.8 846,-131.8 643.47,-131.8 643.47,-131.8"/>
<polygon fill="black" stroke="black" points="643.47,-128.3 633.47,-131.8 643.47,-135.3 643.47,-128.3"/>
</g>
<!-- FaqsComponent -->
<g id="node3" class="node">
<title>FaqsComponent</title>
<polygon fill="#ffffb3" stroke="black" points="769.77,-84.8 662.23,-84.8 662.23,-48.8 769.77,-48.8 769.77,-84.8"/>
<text text-anchor="middle" x="716" y="-62.6" font-family="Times,serif" font-size="14.00">FaqsComponent</text>
</g>
<!-- FaqsComponent&#45;&gt;LandingpageModule -->
<g id="edge3" class="edge">
<title>FaqsComponent&#45;&gt;LandingpageModule</title>
<path fill="none" stroke="black" d="M716,-84.83C716,-101.2 716,-122.8 716,-122.8 716,-122.8 643.22,-122.8 643.22,-122.8"/>
<polygon fill="black" stroke="black" points="643.22,-119.3 633.22,-122.8 643.22,-126.3 643.22,-119.3"/>
</g>
<!-- LandingpageComponent -->
<g id="node4" class="node">
<title>LandingpageComponent</title>
<polygon fill="#ffffb3" stroke="black" points="644.42,-84.8 489.58,-84.8 489.58,-48.8 644.42,-48.8 644.42,-84.8"/>
<text text-anchor="middle" x="567" y="-62.6" font-family="Times,serif" font-size="14.00">LandingpageComponent</text>
</g>
<!-- LandingpageComponent&#45;&gt;LandingpageModule -->
<g id="edge4" class="edge">
<title>LandingpageComponent&#45;&gt;LandingpageModule</title>
<path fill="none" stroke="black" d="M567,-84.91C567,-84.91 567,-103.79 567,-103.79"/>
<polygon fill="black" stroke="black" points="563.5,-103.79 567,-113.79 570.5,-103.79 563.5,-103.79"/>
</g>
<!-- ProductsComponent -->
<g id="node5" class="node">
<title>ProductsComponent</title>
<polygon fill="#ffffb3" stroke="black" points="472.33,-84.8 341.67,-84.8 341.67,-48.8 472.33,-48.8 472.33,-84.8"/>
<text text-anchor="middle" x="407" y="-62.6" font-family="Times,serif" font-size="14.00">ProductsComponent</text>
</g>
<!-- ProductsComponent&#45;&gt;LandingpageModule -->
<g id="edge5" class="edge">
<title>ProductsComponent&#45;&gt;LandingpageModule</title>
<path fill="none" stroke="black" d="M407,-84.83C407,-101.2 407,-122.8 407,-122.8 407,-122.8 490.54,-122.8 490.54,-122.8"/>
<polygon fill="black" stroke="black" points="490.54,-126.3 500.54,-122.8 490.54,-119.3 490.54,-126.3"/>
</g>
<!-- LandingpageRoutingModule -->
<g id="node7" class="node">
<title>LandingpageRoutingModule</title>
<polygon fill="#8dd3c7" stroke="black" points="317.75,-84.8 314.75,-88.8 293.75,-88.8 290.75,-84.8 140.25,-84.8 140.25,-48.8 317.75,-48.8 317.75,-84.8"/>
<text text-anchor="middle" x="229" y="-62.6" font-family="Times,serif" font-size="14.00">LandingpageRoutingModule</text>
</g>
<!-- LandingpageRoutingModule&#45;&gt;LandingpageModule -->
<g id="edge6" class="edge">
<title>LandingpageRoutingModule&#45;&gt;LandingpageModule</title>
<path fill="none" stroke="black" d="M229,-84.91C229,-104.14 229,-131.8 229,-131.8 229,-131.8 490.63,-131.8 490.63,-131.8"/>
<polygon fill="black" stroke="black" points="490.63,-135.3 500.63,-131.8 490.63,-128.3 490.63,-135.3"/>
</g>
<!-- SharedModule -->
<g id="node8" class="node">
<title>SharedModule</title>
<polygon fill="#8dd3c7" stroke="black" points="122.42,-84.8 119.42,-88.8 98.42,-88.8 95.42,-84.8 23.58,-84.8 23.58,-48.8 122.42,-48.8 122.42,-84.8"/>
<text text-anchor="middle" x="73" y="-62.6" font-family="Times,serif" font-size="14.00">SharedModule</text>
</g>
<!-- SharedModule&#45;&gt;LandingpageModule -->
<g id="edge7" class="edge">
<title>SharedModule&#45;&gt;LandingpageModule</title>
<path fill="none" stroke="black" d="M73,-85.09C73,-107.01 73,-140.8 73,-140.8 73,-140.8 490.63,-140.8 490.63,-140.8"/>
<polygon fill="black" stroke="black" points="490.63,-144.3 500.63,-140.8 490.63,-137.3 490.63,-144.3"/>
</g>
</g>
</svg>
