<?xml version="1.0" encoding="UTF-8" standalone="no"?>
<!DOCTYPE svg PUBLIC "-//W3C//DTD SVG 1.1//EN"
 "http://www.w3.org/Graphics/SVG/1.1/DTD/svg11.dtd">
<!-- Generated by graphviz version 2.47.3 (20210619.1520)
 -->
<!-- Title: dependencies Pages: 1 -->
<svg width="1260pt" height="174pt"
 viewBox="0.00 0.00 1260.00 173.80" xmlns="http://www.w3.org/2000/svg" xmlns:xlink="http://www.w3.org/1999/xlink">
<g id="graph0" class="graph" transform="scale(1 1) rotate(0) translate(4 169.8)">
<title>dependencies</title>
<polygon fill="white" stroke="transparent" points="-4,4 -4,-169.8 1256,-169.8 1256,4 -4,4"/>
<text text-anchor="middle" x="626" y="-8.2" font-family="sans-serif" font-size="14.00">dependencies</text>
<g id="clust1" class="cluster">
<title>cluster_AddStudentsModule</title>
<polygon fill="none" stroke="black" stroke-dasharray="1,5" points="8,-32.8 8,-157.8 1244,-157.8 1244,-32.8 8,-32.8"/>
</g>
<g id="clust2" class="cluster">
<title>cluster_AddStudentsModule_declarations</title>
<polygon fill="none" stroke="black" points="216,-40.8 216,-92.8 1236,-92.8 1236,-40.8 216,-40.8"/>
</g>
<g id="clust9" class="cluster">
<title>cluster_AddStudentsModule_imports</title>
<polygon fill="none" stroke="black" points="16,-40.8 16,-92.8 208,-92.8 208,-40.8 16,-40.8"/>
</g>
<!-- AddStudentsComponent -->
<g id="node1" class="node">
<title>AddStudentsComponent</title>
<polygon fill="#ffffb3" stroke="black" points="1227.66,-84.8 1074.34,-84.8 1074.34,-48.8 1227.66,-48.8 1227.66,-84.8"/>
<text text-anchor="middle" x="1151" y="-62.6" font-family="Times,serif" font-size="14.00">AddStudentsComponent</text>
</g>
<!-- AddStudentsModule -->
<g id="node7" class="node">
<title>AddStudentsModule</title>
<polygon fill="#8dd3c7" stroke="black" points="708.88,-149.8 705.88,-153.8 684.88,-153.8 681.88,-149.8 577.12,-149.8 577.12,-113.8 708.88,-113.8 708.88,-149.8"/>
<text text-anchor="middle" x="643" y="-127.6" font-family="Times,serif" font-size="14.00">AddStudentsModule</text>
</g>
<!-- AddStudentsComponent&#45;&gt;AddStudentsModule -->
<g id="edge1" class="edge">
<title>AddStudentsComponent&#45;&gt;AddStudentsModule</title>
<path fill="none" stroke="black" d="M1151,-85.09C1151,-107.01 1151,-140.8 1151,-140.8 1151,-140.8 718.89,-140.8 718.89,-140.8"/>
<polygon fill="black" stroke="black" points="718.89,-137.3 708.89,-140.8 718.89,-144.3 718.89,-137.3"/>
</g>
<!-- BasicDetailsComponent -->
<g id="node2" class="node">
<title>BasicDetailsComponent</title>
<polygon fill="#ffffb3" stroke="black" points="1056.09,-84.8 903.91,-84.8 903.91,-48.8 1056.09,-48.8 1056.09,-84.8"/>
<text text-anchor="middle" x="980" y="-62.6" font-family="Times,serif" font-size="14.00">BasicDetailsComponent</text>
</g>
<!-- BasicDetailsComponent&#45;&gt;AddStudentsModule -->
<g id="edge2" class="edge">
<title>BasicDetailsComponent&#45;&gt;AddStudentsModule</title>
<path fill="none" stroke="black" d="M980,-84.91C980,-104.14 980,-131.8 980,-131.8 980,-131.8 719.18,-131.8 719.18,-131.8"/>
<polygon fill="black" stroke="black" points="719.18,-128.3 709.18,-131.8 719.18,-135.3 719.18,-128.3"/>
</g>
<!-- ContactDetailsComponent -->
<g id="node3" class="node">
<title>ContactDetailsComponent</title>
<polygon fill="#ffffb3" stroke="black" points="886.03,-84.8 721.97,-84.8 721.97,-48.8 886.03,-48.8 886.03,-84.8"/>
<text text-anchor="middle" x="804" y="-62.6" font-family="Times,serif" font-size="14.00">ContactDetailsComponent</text>
</g>
<!-- ContactDetailsComponent&#45;&gt;AddStudentsModule -->
<g id="edge3" class="edge">
<title>ContactDetailsComponent&#45;&gt;AddStudentsModule</title>
<path fill="none" stroke="black" d="M804,-84.83C804,-101.2 804,-122.8 804,-122.8 804,-122.8 718.95,-122.8 718.95,-122.8"/>
<polygon fill="black" stroke="black" points="718.95,-119.3 708.95,-122.8 718.95,-126.3 718.95,-119.3"/>
</g>
<!-- ImagesComponent -->
<g id="node4" class="node">
<title>ImagesComponent</title>
<polygon fill="#ffffb3" stroke="black" points="703.76,-84.8 582.24,-84.8 582.24,-48.8 703.76,-48.8 703.76,-84.8"/>
<text text-anchor="middle" x="643" y="-62.6" font-family="Times,serif" font-size="14.00">ImagesComponent</text>
</g>
<!-- ImagesComponent&#45;&gt;AddStudentsModule -->
<g id="edge4" class="edge">
<title>ImagesComponent&#45;&gt;AddStudentsModule</title>
<path fill="none" stroke="black" d="M643,-84.91C643,-84.91 643,-103.79 643,-103.79"/>
<polygon fill="black" stroke="black" points="639.5,-103.79 643,-113.79 646.5,-103.79 639.5,-103.79"/>
</g>
<!-- MedicalDetailsComponent -->
<g id="node5" class="node">
<title>MedicalDetailsComponent</title>
<polygon fill="#ffffb3" stroke="black" points="564.35,-84.8 397.65,-84.8 397.65,-48.8 564.35,-48.8 564.35,-84.8"/>
<text text-anchor="middle" x="481" y="-62.6" font-family="Times,serif" font-size="14.00">MedicalDetailsComponent</text>
</g>
<!-- MedicalDetailsComponent&#45;&gt;AddStudentsModule -->
<g id="edge5" class="edge">
<title>MedicalDetailsComponent&#45;&gt;AddStudentsModule</title>
<path fill="none" stroke="black" d="M481,-84.83C481,-101.2 481,-122.8 481,-122.8 481,-122.8 567.11,-122.8 567.11,-122.8"/>
<polygon fill="black" stroke="black" points="567.11,-126.3 577.11,-122.8 567.11,-119.3 567.11,-126.3"/>
</g>
<!-- SocialDetailsComponent -->
<g id="node6" class="node">
<title>SocialDetailsComponent</title>
<polygon fill="#ffffb3" stroke="black" points="379.98,-84.8 224.02,-84.8 224.02,-48.8 379.98,-48.8 379.98,-84.8"/>
<text text-anchor="middle" x="302" y="-62.6" font-family="Times,serif" font-size="14.00">SocialDetailsComponent</text>
</g>
<!-- SocialDetailsComponent&#45;&gt;AddStudentsModule -->
<g id="edge6" class="edge">
<title>SocialDetailsComponent&#45;&gt;AddStudentsModule</title>
<path fill="none" stroke="black" d="M302,-84.91C302,-104.14 302,-131.8 302,-131.8 302,-131.8 566.85,-131.8 566.85,-131.8"/>
<polygon fill="black" stroke="black" points="566.85,-135.3 576.85,-131.8 566.85,-128.3 566.85,-135.3"/>
</g>
<!-- AddStudentsRoutingModule -->
<g id="node8" class="node">
<title>AddStudentsRoutingModule</title>
<polygon fill="#8dd3c7" stroke="black" points="200.5,-84.8 197.5,-88.8 176.5,-88.8 173.5,-84.8 23.5,-84.8 23.5,-48.8 200.5,-48.8 200.5,-84.8"/>
<text text-anchor="middle" x="112" y="-62.6" font-family="Times,serif" font-size="14.00">AddStudentsRoutingModule</text>
</g>
<!-- AddStudentsRoutingModule&#45;&gt;AddStudentsModule -->
<g id="edge7" class="edge">
<title>AddStudentsRoutingModule&#45;&gt;AddStudentsModule</title>
<path fill="none" stroke="black" d="M112,-85.09C112,-107.01 112,-140.8 112,-140.8 112,-140.8 567.09,-140.8 567.09,-140.8"/>
<polygon fill="black" stroke="black" points="567.09,-144.3 577.09,-140.8 567.09,-137.3 567.09,-144.3"/>
</g>
</g>
</svg>
