<?xml version="1.0" encoding="UTF-8" standalone="no"?>
<!DOCTYPE svg PUBLIC "-//W3C//DTD SVG 1.1//EN"
 "http://www.w3.org/Graphics/SVG/1.1/DTD/svg11.dtd">
<!-- Generated by graphviz version 2.47.3 (20210619.1520)
 -->
<!-- Title: dependencies Pages: 1 -->
<svg width="957pt" height="174pt"
 viewBox="0.00 0.00 957.00 173.80" xmlns="http://www.w3.org/2000/svg" xmlns:xlink="http://www.w3.org/1999/xlink">
<g id="graph0" class="graph" transform="scale(1 1) rotate(0) translate(4 169.8)">
<title>dependencies</title>
<polygon fill="white" stroke="transparent" points="-4,4 -4,-169.8 953,-169.8 953,4 -4,4"/>
<text text-anchor="middle" x="474.5" y="-8.2" font-family="sans-serif" font-size="14.00">dependencies</text>
<g id="clust1" class="cluster">
<title>cluster_PromotionModule</title>
<polygon fill="none" stroke="black" stroke-dasharray="1,5" points="8,-32.8 8,-157.8 941,-157.8 941,-32.8 8,-32.8"/>
</g>
<g id="clust2" class="cluster">
<title>cluster_PromotionModule_declarations</title>
<polygon fill="none" stroke="black" points="204,-40.8 204,-92.8 933,-92.8 933,-40.8 204,-40.8"/>
</g>
<g id="clust7" class="cluster">
<title>cluster_PromotionModule_imports</title>
<polygon fill="none" stroke="black" points="16,-40.8 16,-92.8 196,-92.8 196,-40.8 16,-40.8"/>
</g>
<!-- ClassPoolComponent -->
<g id="node1" class="node">
<title>ClassPoolComponent</title>
<polygon fill="#ffffb3" stroke="black" points="924.84,-84.8 787.16,-84.8 787.16,-48.8 924.84,-48.8 924.84,-84.8"/>
<text text-anchor="middle" x="856" y="-62.6" font-family="Times,serif" font-size="14.00">ClassPoolComponent</text>
</g>
<!-- PromotionModule -->
<g id="node5" class="node">
<title>PromotionModule</title>
<polygon fill="#8dd3c7" stroke="black" points="559.17,-149.8 556.17,-153.8 535.17,-153.8 532.17,-149.8 440.83,-149.8 440.83,-113.8 559.17,-113.8 559.17,-149.8"/>
<text text-anchor="middle" x="500" y="-127.6" font-family="Times,serif" font-size="14.00">PromotionModule</text>
</g>
<!-- ClassPoolComponent&#45;&gt;PromotionModule -->
<g id="edge1" class="edge">
<title>ClassPoolComponent&#45;&gt;PromotionModule</title>
<path fill="none" stroke="black" d="M856,-85.08C856,-106.12 856,-137.8 856,-137.8 856,-137.8 569.19,-137.8 569.19,-137.8"/>
<polygon fill="black" stroke="black" points="569.19,-134.3 559.19,-137.8 569.19,-141.3 569.19,-134.3"/>
</g>
<!-- ClassRepeatComponent -->
<g id="node2" class="node">
<title>ClassRepeatComponent</title>
<polygon fill="#ffffb3" stroke="black" points="769.04,-84.8 618.96,-84.8 618.96,-48.8 769.04,-48.8 769.04,-84.8"/>
<text text-anchor="middle" x="694" y="-62.6" font-family="Times,serif" font-size="14.00">ClassRepeatComponent</text>
</g>
<!-- ClassRepeatComponent&#45;&gt;PromotionModule -->
<g id="edge2" class="edge">
<title>ClassRepeatComponent&#45;&gt;PromotionModule</title>
<path fill="none" stroke="black" d="M694,-84.82C694,-102.17 694,-125.8 694,-125.8 694,-125.8 569.26,-125.8 569.26,-125.8"/>
<polygon fill="black" stroke="black" points="569.26,-122.3 559.26,-125.8 569.26,-129.3 569.26,-122.3"/>
</g>
<!-- PromotionDashboardComponent -->
<g id="node3" class="node">
<title>PromotionDashboardComponent</title>
<polygon fill="#ffffb3" stroke="black" points="600.59,-84.8 399.41,-84.8 399.41,-48.8 600.59,-48.8 600.59,-84.8"/>
<text text-anchor="middle" x="500" y="-62.6" font-family="Times,serif" font-size="14.00">PromotionDashboardComponent</text>
</g>
<!-- PromotionDashboardComponent&#45;&gt;PromotionModule -->
<g id="edge3" class="edge">
<title>PromotionDashboardComponent&#45;&gt;PromotionModule</title>
<path fill="none" stroke="black" d="M500,-84.91C500,-84.91 500,-103.79 500,-103.79"/>
<polygon fill="black" stroke="black" points="496.5,-103.79 500,-113.79 503.5,-103.79 496.5,-103.79"/>
</g>
<!-- WithdrawalListComponent -->
<g id="node4" class="node">
<title>WithdrawalListComponent</title>
<polygon fill="#ffffb3" stroke="black" points="381.69,-84.8 212.31,-84.8 212.31,-48.8 381.69,-48.8 381.69,-84.8"/>
<text text-anchor="middle" x="297" y="-62.6" font-family="Times,serif" font-size="14.00">WithdrawalListComponent</text>
</g>
<!-- WithdrawalListComponent&#45;&gt;PromotionModule -->
<g id="edge4" class="edge">
<title>WithdrawalListComponent&#45;&gt;PromotionModule</title>
<path fill="none" stroke="black" d="M297,-84.82C297,-102.17 297,-125.8 297,-125.8 297,-125.8 430.74,-125.8 430.74,-125.8"/>
<polygon fill="black" stroke="black" points="430.74,-129.3 440.74,-125.8 430.74,-122.3 430.74,-129.3"/>
</g>
<!-- PromotionRoutingModule -->
<g id="node6" class="node">
<title>PromotionRoutingModule</title>
<polygon fill="#8dd3c7" stroke="black" points="187.78,-84.8 184.78,-88.8 163.78,-88.8 160.78,-84.8 24.22,-84.8 24.22,-48.8 187.78,-48.8 187.78,-84.8"/>
<text text-anchor="middle" x="106" y="-62.6" font-family="Times,serif" font-size="14.00">PromotionRoutingModule</text>
</g>
<!-- PromotionRoutingModule&#45;&gt;PromotionModule -->
<g id="edge5" class="edge">
<title>PromotionRoutingModule&#45;&gt;PromotionModule</title>
<path fill="none" stroke="black" d="M106,-85.08C106,-106.12 106,-137.8 106,-137.8 106,-137.8 430.59,-137.8 430.59,-137.8"/>
<polygon fill="black" stroke="black" points="430.59,-141.3 440.59,-137.8 430.59,-134.3 430.59,-141.3"/>
</g>
</g>
</svg>
