<?xml version="1.0" encoding="UTF-8" standalone="no"?>
<!DOCTYPE svg PUBLIC "-//W3C//DTD SVG 1.1//EN"
 "http://www.w3.org/Graphics/SVG/1.1/DTD/svg11.dtd">
<!-- Generated by graphviz version 2.47.3 (20210619.1520)
 -->
<!-- Title: dependencies Pages: 1 -->
<svg width="1107pt" height="247pt"
 viewBox="0.00 0.00 1107.00 246.80" xmlns="http://www.w3.org/2000/svg" xmlns:xlink="http://www.w3.org/1999/xlink">
<g id="graph0" class="graph" transform="scale(1 1) rotate(0) translate(4 242.8)">
<title>dependencies</title>
<polygon fill="white" stroke="transparent" points="-4,4 -4,-242.8 1103,-242.8 1103,4 -4,4"/>
<text text-anchor="middle" x="549.5" y="-8.2" font-family="sans-serif" font-size="14.00">dependencies</text>
<g id="clust1" class="cluster">
<title>cluster_CreateClientModule</title>
<polygon fill="none" stroke="black" stroke-dasharray="1,5" points="8,-32.8 8,-230.8 1091,-230.8 1091,-32.8 8,-32.8"/>
</g>
<g id="clust2" class="cluster">
<title>cluster_CreateClientModule_declarations</title>
<polygon fill="none" stroke="black" points="216,-40.8 216,-92.8 1083,-92.8 1083,-40.8 216,-40.8"/>
</g>
<g id="clust8" class="cluster">
<title>cluster_CreateClientModule_imports</title>
<polygon fill="none" stroke="black" points="16,-40.8 16,-92.8 208,-92.8 208,-40.8 16,-40.8"/>
</g>
<g id="clust9" class="cluster">
<title>cluster_CreateClientModule_exports</title>
<polygon fill="none" stroke="black" points="206,-170.8 206,-222.8 916,-222.8 916,-170.8 206,-170.8"/>
</g>
<!-- ContactDetailComponent -->
<g id="node1" class="node">
<title>ContactDetailComponent</title>
<polygon fill="#ffffb3" stroke="black" points="1074.59,-84.8 915.41,-84.8 915.41,-48.8 1074.59,-48.8 1074.59,-84.8"/>
<text text-anchor="middle" x="995" y="-62.6" font-family="Times,serif" font-size="14.00">ContactDetailComponent</text>
</g>
<!-- CreateClientModule -->
<g id="node6" class="node">
<title>CreateClientModule</title>
<polygon fill="#8dd3c7" stroke="black" points="628.3,-149.8 625.3,-153.8 604.3,-153.8 601.3,-149.8 497.7,-149.8 497.7,-113.8 628.3,-113.8 628.3,-149.8"/>
<text text-anchor="middle" x="563" y="-127.6" font-family="Times,serif" font-size="14.00">CreateClientModule</text>
</g>
<!-- ContactDetailComponent&#45;&gt;CreateClientModule -->
<g id="edge1" class="edge">
<title>ContactDetailComponent&#45;&gt;CreateClientModule</title>
<path fill="none" stroke="black" d="M995,-84.91C995,-104.14 995,-131.8 995,-131.8 995,-131.8 638.61,-131.8 638.61,-131.8"/>
<polygon fill="black" stroke="black" points="638.61,-128.3 628.61,-131.8 638.61,-135.3 638.61,-128.3"/>
</g>
<!-- ContactPersonComponent -->
<g id="node2" class="node">
<title>ContactPersonComponent</title>
<polygon fill="#ffffb3" stroke="black" points="897.48,-84.8 734.52,-84.8 734.52,-48.8 897.48,-48.8 897.48,-84.8"/>
<text text-anchor="middle" x="816" y="-62.6" font-family="Times,serif" font-size="14.00">ContactPersonComponent</text>
</g>
<!-- ContactPersonComponent&#45;&gt;CreateClientModule -->
<g id="edge2" class="edge">
<title>ContactPersonComponent&#45;&gt;CreateClientModule</title>
<path fill="none" stroke="black" d="M740.11,-84.83C740.11,-101.2 740.11,-122.8 740.11,-122.8 740.11,-122.8 638.19,-122.8 638.19,-122.8"/>
<polygon fill="black" stroke="black" points="638.19,-119.3 628.19,-122.8 638.19,-126.3 638.19,-119.3"/>
</g>
<!-- CreateClientComponent -->
<g id="node3" class="node">
<title>CreateClientComponent</title>
<polygon fill="#ffffb3" stroke="black" points="716.09,-84.8 563.91,-84.8 563.91,-48.8 716.09,-48.8 716.09,-84.8"/>
<text text-anchor="middle" x="640" y="-62.6" font-family="Times,serif" font-size="14.00">CreateClientComponent</text>
</g>
<!-- CreateClientComponent&#45;&gt;CreateClientModule -->
<g id="edge3" class="edge">
<title>CreateClientComponent&#45;&gt;CreateClientModule</title>
<path fill="none" stroke="black" d="M596.05,-84.91C596.05,-84.91 596.05,-103.79 596.05,-103.79"/>
<polygon fill="black" stroke="black" points="592.55,-103.79 596.05,-113.79 599.55,-103.79 592.55,-103.79"/>
</g>
<!-- MediaComponent -->
<g id="node4" class="node">
<title>MediaComponent</title>
<polygon fill="#ffffb3" stroke="black" points="545.6,-84.8 428.4,-84.8 428.4,-48.8 545.6,-48.8 545.6,-84.8"/>
<text text-anchor="middle" x="487" y="-62.6" font-family="Times,serif" font-size="14.00">MediaComponent</text>
</g>
<!-- MediaComponent&#45;&gt;CreateClientModule -->
<g id="edge4" class="edge">
<title>MediaComponent&#45;&gt;CreateClientModule</title>
<path fill="none" stroke="black" d="M521.7,-84.91C521.7,-84.91 521.7,-103.79 521.7,-103.79"/>
<polygon fill="black" stroke="black" points="518.2,-103.79 521.7,-113.79 525.2,-103.79 518.2,-103.79"/>
</g>
<!-- ProfileInformationComponent -->
<g id="node5" class="node">
<title>ProfileInformationComponent</title>
<polygon fill="#ffffb3" stroke="black" points="410.3,-84.8 223.7,-84.8 223.7,-48.8 410.3,-48.8 410.3,-84.8"/>
<text text-anchor="middle" x="317" y="-62.6" font-family="Times,serif" font-size="14.00">ProfileInformationComponent</text>
</g>
<!-- ProfileInformationComponent&#45;&gt;CreateClientModule -->
<g id="edge5" class="edge">
<title>ProfileInformationComponent&#45;&gt;CreateClientModule</title>
<path fill="none" stroke="black" d="M343.88,-84.83C343.88,-101.2 343.88,-122.8 343.88,-122.8 343.88,-122.8 487.55,-122.8 487.55,-122.8"/>
<polygon fill="black" stroke="black" points="487.55,-126.3 497.55,-122.8 487.55,-119.3 487.55,-126.3"/>
</g>
<!-- ContactDetailComponent  -->
<g id="node8" class="node">
<title>ContactDetailComponent </title>
<polygon fill="#fb8072" stroke="black" points="908.09,-214.8 745.91,-214.8 745.91,-178.8 908.09,-178.8 908.09,-214.8"/>
<text text-anchor="middle" x="827" y="-192.6" font-family="Times,serif" font-size="14.00">ContactDetailComponent </text>
</g>
<!-- CreateClientModule&#45;&gt;ContactDetailComponent  -->
<g id="edge7" class="edge">
<title>CreateClientModule&#45;&gt;ContactDetailComponent </title>
<path fill="none" stroke="black" stroke-dasharray="5,2" d="M628.26,-140.8C704.86,-140.8 821.6,-140.8 821.6,-140.8 821.6,-140.8 821.6,-168.77 821.6,-168.77"/>
<polygon fill="black" stroke="black" points="818.1,-168.77 821.6,-178.77 825.1,-168.77 818.1,-168.77"/>
</g>
<!-- ContactPersonComponent  -->
<g id="node9" class="node">
<title>ContactPersonComponent </title>
<polygon fill="#fb8072" stroke="black" points="727.48,-214.8 560.52,-214.8 560.52,-178.8 727.48,-178.8 727.48,-214.8"/>
<text text-anchor="middle" x="644" y="-192.6" font-family="Times,serif" font-size="14.00">ContactPersonComponent </text>
</g>
<!-- CreateClientModule&#45;&gt;ContactPersonComponent  -->
<g id="edge8" class="edge">
<title>CreateClientModule&#45;&gt;ContactPersonComponent </title>
<path fill="none" stroke="black" stroke-dasharray="5,2" d="M594.46,-149.91C594.46,-149.91 594.46,-168.79 594.46,-168.79"/>
<polygon fill="black" stroke="black" points="590.96,-168.79 594.46,-178.79 597.96,-168.79 590.96,-168.79"/>
</g>
<!-- MediaComponent  -->
<g id="node10" class="node">
<title>MediaComponent </title>
<polygon fill="#fb8072" stroke="black" points="542.1,-214.8 421.9,-214.8 421.9,-178.8 542.1,-178.8 542.1,-214.8"/>
<text text-anchor="middle" x="482" y="-192.6" font-family="Times,serif" font-size="14.00">MediaComponent </text>
</g>
<!-- CreateClientModule&#45;&gt;MediaComponent  -->
<g id="edge9" class="edge">
<title>CreateClientModule&#45;&gt;MediaComponent </title>
<path fill="none" stroke="black" stroke-dasharray="5,2" d="M520.07,-149.91C520.07,-149.91 520.07,-168.79 520.07,-168.79"/>
<polygon fill="black" stroke="black" points="516.57,-168.79 520.07,-178.79 523.57,-168.79 516.57,-168.79"/>
</g>
<!-- ProfileInformationComponent  -->
<g id="node11" class="node">
<title>ProfileInformationComponent </title>
<polygon fill="#fb8072" stroke="black" points="403.8,-214.8 214.2,-214.8 214.2,-178.8 403.8,-178.8 403.8,-214.8"/>
<text text-anchor="middle" x="309" y="-192.6" font-family="Times,serif" font-size="14.00">ProfileInformationComponent </text>
</g>
<!-- CreateClientModule&#45;&gt;ProfileInformationComponent  -->
<g id="edge10" class="edge">
<title>CreateClientModule&#45;&gt;ProfileInformationComponent </title>
<path fill="none" stroke="black" stroke-dasharray="5,2" d="M497.56,-140.8C415.05,-140.8 283.87,-140.8 283.87,-140.8 283.87,-140.8 283.87,-168.77 283.87,-168.77"/>
<polygon fill="black" stroke="black" points="280.37,-168.77 283.87,-178.77 287.37,-168.77 280.37,-168.77"/>
</g>
<!-- CreateClientRoutingModule -->
<g id="node7" class="node">
<title>CreateClientRoutingModule</title>
<polygon fill="#8dd3c7" stroke="black" points="199.92,-84.8 196.92,-88.8 175.92,-88.8 172.92,-84.8 24.08,-84.8 24.08,-48.8 199.92,-48.8 199.92,-84.8"/>
<text text-anchor="middle" x="112" y="-62.6" font-family="Times,serif" font-size="14.00">CreateClientRoutingModule</text>
</g>
<!-- CreateClientRoutingModule&#45;&gt;CreateClientModule -->
<g id="edge6" class="edge">
<title>CreateClientRoutingModule&#45;&gt;CreateClientModule</title>
<path fill="none" stroke="black" d="M112,-84.91C112,-104.14 112,-131.8 112,-131.8 112,-131.8 487.42,-131.8 487.42,-131.8"/>
<polygon fill="black" stroke="black" points="487.42,-135.3 497.42,-131.8 487.42,-128.3 487.42,-135.3"/>
</g>
</g>
</svg>
