<?xml version="1.0" encoding="UTF-8" standalone="no"?>
<!DOCTYPE svg PUBLIC "-//W3C//DTD SVG 1.1//EN"
 "http://www.w3.org/Graphics/SVG/1.1/DTD/svg11.dtd">
<!-- Generated by graphviz version 2.47.3 (20210619.1520)
 -->
<!-- Title: dependencies Pages: 1 -->
<svg width="3890pt" height="174pt"
 viewBox="0.00 0.00 3890.00 173.80" xmlns="http://www.w3.org/2000/svg" xmlns:xlink="http://www.w3.org/1999/xlink">
<g id="graph0" class="graph" transform="scale(1 1) rotate(0) translate(4 169.8)">
<title>dependencies</title>
<polygon fill="white" stroke="transparent" points="-4,4 -4,-169.8 3886,-169.8 3886,4 -4,4"/>
<text text-anchor="middle" x="1941" y="-8.2" font-family="sans-serif" font-size="14.00">dependencies</text>
<g id="clust1" class="cluster">
<title>cluster_SchoolModule</title>
<polygon fill="none" stroke="black" stroke-dasharray="1,5" points="8,-32.8 8,-157.8 3874,-157.8 3874,-32.8 8,-32.8"/>
</g>
<g id="clust23" class="cluster">
<title>cluster_SchoolModule_imports</title>
<polygon fill="none" stroke="black" points="3590,-40.8 3590,-92.8 3866,-92.8 3866,-40.8 3590,-40.8"/>
</g>
<g id="clust2" class="cluster">
<title>cluster_SchoolModule_declarations</title>
<polygon fill="none" stroke="black" points="16,-40.8 16,-92.8 3582,-92.8 3582,-40.8 16,-40.8"/>
</g>
<!-- AdminAlumniCreateEventComponent -->
<g id="node1" class="node">
<title>AdminAlumniCreateEventComponent</title>
<polygon fill="#ffffb3" stroke="black" points="3574.19,-84.8 3341.81,-84.8 3341.81,-48.8 3574.19,-48.8 3574.19,-84.8"/>
<text text-anchor="middle" x="3458" y="-62.6" font-family="Times,serif" font-size="14.00">AdminAlumniCreateEventComponent</text>
</g>
<!-- SchoolModule -->
<g id="node21" class="node">
<title>SchoolModule</title>
<polygon fill="#8dd3c7" stroke="black" points="1911.44,-149.8 1908.44,-153.8 1887.44,-153.8 1884.44,-149.8 1812.56,-149.8 1812.56,-113.8 1911.44,-113.8 1911.44,-149.8"/>
<text text-anchor="middle" x="1862" y="-127.6" font-family="Times,serif" font-size="14.00">SchoolModule</text>
</g>
<!-- AdminAlumniCreateEventComponent&#45;&gt;SchoolModule -->
<g id="edge1" class="edge">
<title>AdminAlumniCreateEventComponent&#45;&gt;SchoolModule</title>
<path fill="none" stroke="black" d="M3458,-85.09C3458,-107.01 3458,-140.8 3458,-140.8 3458,-140.8 1921.52,-140.8 1921.52,-140.8"/>
<polygon fill="black" stroke="black" points="1921.52,-137.3 1911.52,-140.8 1921.52,-144.3 1921.52,-137.3"/>
</g>
<!-- AdminAlumniEventsComponent -->
<g id="node2" class="node">
<title>AdminAlumniEventsComponent</title>
<polygon fill="#ffffb3" stroke="black" points="3323.6,-84.8 3122.4,-84.8 3122.4,-48.8 3323.6,-48.8 3323.6,-84.8"/>
<text text-anchor="middle" x="3223" y="-62.6" font-family="Times,serif" font-size="14.00">AdminAlumniEventsComponent</text>
</g>
<!-- AdminAlumniEventsComponent&#45;&gt;SchoolModule -->
<g id="edge2" class="edge">
<title>AdminAlumniEventsComponent&#45;&gt;SchoolModule</title>
<path fill="none" stroke="black" d="M3223,-84.83C3223,-105.57 3223,-136.8 3223,-136.8 3223,-136.8 1921.24,-136.8 1921.24,-136.8"/>
<polygon fill="black" stroke="black" points="1921.24,-133.3 1911.24,-136.8 1921.24,-140.3 1921.24,-133.3"/>
</g>
<!-- AdminAlumniListComponent -->
<g id="node3" class="node">
<title>AdminAlumniListComponent</title>
<polygon fill="#ffffb3" stroke="black" points="3104.28,-84.8 2919.72,-84.8 2919.72,-48.8 3104.28,-48.8 3104.28,-84.8"/>
<text text-anchor="middle" x="3012" y="-62.6" font-family="Times,serif" font-size="14.00">AdminAlumniListComponent</text>
</g>
<!-- AdminAlumniListComponent&#45;&gt;SchoolModule -->
<g id="edge3" class="edge">
<title>AdminAlumniListComponent&#45;&gt;SchoolModule</title>
<path fill="none" stroke="black" d="M3012,-85.11C3012,-104.95 3012,-133.8 3012,-133.8 3012,-133.8 1921.41,-133.8 1921.41,-133.8"/>
<polygon fill="black" stroke="black" points="1921.41,-130.3 1911.41,-133.8 1921.41,-137.3 1921.41,-130.3"/>
</g>
<!-- AttachTeacherComponent -->
<g id="node4" class="node">
<title>AttachTeacherComponent</title>
<polygon fill="#ffffb3" stroke="black" points="2901.72,-84.8 2738.28,-84.8 2738.28,-48.8 2901.72,-48.8 2901.72,-84.8"/>
<text text-anchor="middle" x="2820" y="-62.6" font-family="Times,serif" font-size="14.00">AttachTeacherComponent</text>
</g>
<!-- AttachTeacherComponent&#45;&gt;SchoolModule -->
<g id="edge4" class="edge">
<title>AttachTeacherComponent&#45;&gt;SchoolModule</title>
<path fill="none" stroke="black" d="M2820,-84.97C2820,-103.89 2820,-130.8 2820,-130.8 2820,-130.8 1921.49,-130.8 1921.49,-130.8"/>
<polygon fill="black" stroke="black" points="1921.49,-127.3 1911.49,-130.8 1921.49,-134.3 1921.49,-127.3"/>
</g>
<!-- CalendarComponent -->
<g id="node5" class="node">
<title>CalendarComponent</title>
<polygon fill="#ffffb3" stroke="black" points="2719.86,-84.8 2588.14,-84.8 2588.14,-48.8 2719.86,-48.8 2719.86,-84.8"/>
<text text-anchor="middle" x="2654" y="-62.6" font-family="Times,serif" font-size="14.00">CalendarComponent</text>
</g>
<!-- CalendarComponent&#45;&gt;SchoolModule -->
<g id="edge5" class="edge">
<title>CalendarComponent&#45;&gt;SchoolModule</title>
<path fill="none" stroke="black" d="M2654,-85.1C2654,-103.07 2654,-127.8 2654,-127.8 2654,-127.8 1921.24,-127.8 1921.24,-127.8"/>
<polygon fill="black" stroke="black" points="1921.24,-124.3 1911.24,-127.8 1921.24,-131.3 1921.24,-124.3"/>
</g>
<!-- ComingSoonComponent -->
<g id="node6" class="node">
<title>ComingSoonComponent</title>
<polygon fill="#ffffb3" stroke="black" points="2569.73,-84.8 2414.27,-84.8 2414.27,-48.8 2569.73,-48.8 2569.73,-84.8"/>
<text text-anchor="middle" x="2492" y="-62.6" font-family="Times,serif" font-size="14.00">ComingSoonComponent</text>
</g>
<!-- ComingSoonComponent&#45;&gt;SchoolModule -->
<g id="edge6" class="edge">
<title>ComingSoonComponent&#45;&gt;SchoolModule</title>
<path fill="none" stroke="black" d="M2492,-84.84C2492,-101.53 2492,-123.8 2492,-123.8 2492,-123.8 1921.44,-123.8 1921.44,-123.8"/>
<polygon fill="black" stroke="black" points="1921.44,-120.3 1911.44,-123.8 1921.44,-127.3 1921.44,-120.3"/>
</g>
<!-- EmployeeDetailsComponent -->
<g id="node7" class="node">
<title>EmployeeDetailsComponent</title>
<polygon fill="#ffffb3" stroke="black" points="2396.75,-84.8 2219.25,-84.8 2219.25,-48.8 2396.75,-48.8 2396.75,-84.8"/>
<text text-anchor="middle" x="2308" y="-62.6" font-family="Times,serif" font-size="14.00">EmployeeDetailsComponent</text>
</g>
<!-- EmployeeDetailsComponent&#45;&gt;SchoolModule -->
<g id="edge7" class="edge">
<title>EmployeeDetailsComponent&#45;&gt;SchoolModule</title>
<path fill="none" stroke="black" d="M2308,-85.08C2308,-100.75 2308,-120.8 2308,-120.8 2308,-120.8 1921.43,-120.8 1921.43,-120.8"/>
<polygon fill="black" stroke="black" points="1921.43,-117.3 1911.43,-120.8 1921.43,-124.3 1921.43,-117.3"/>
</g>
<!-- EmployeeListComponent -->
<g id="node8" class="node">
<title>EmployeeListComponent</title>
<polygon fill="#ffffb3" stroke="black" points="2200.87,-84.8 2041.13,-84.8 2041.13,-48.8 2200.87,-48.8 2200.87,-84.8"/>
<text text-anchor="middle" x="2121" y="-62.6" font-family="Times,serif" font-size="14.00">EmployeeListComponent</text>
</g>
<!-- EmployeeListComponent&#45;&gt;SchoolModule -->
<g id="edge8" class="edge">
<title>EmployeeListComponent&#45;&gt;SchoolModule</title>
<path fill="none" stroke="black" d="M2121,-84.92C2121,-99.58 2121,-117.8 2121,-117.8 2121,-117.8 1921.33,-117.8 1921.33,-117.8"/>
<polygon fill="black" stroke="black" points="1921.33,-114.3 1911.33,-117.8 1921.33,-121.3 1921.33,-114.3"/>
</g>
<!-- ParentDetailsComponent -->
<g id="node9" class="node">
<title>ParentDetailsComponent</title>
<polygon fill="#ffffb3" stroke="black" points="2023.25,-84.8 1866.75,-84.8 1866.75,-48.8 2023.25,-48.8 2023.25,-84.8"/>
<text text-anchor="middle" x="1945" y="-62.6" font-family="Times,serif" font-size="14.00">ParentDetailsComponent</text>
</g>
<!-- ParentDetailsComponent&#45;&gt;SchoolModule -->
<g id="edge9" class="edge">
<title>ParentDetailsComponent&#45;&gt;SchoolModule</title>
<path fill="none" stroke="black" d="M1888.92,-84.91C1888.92,-84.91 1888.92,-103.79 1888.92,-103.79"/>
<polygon fill="black" stroke="black" points="1885.42,-103.79 1888.92,-113.79 1892.42,-103.79 1885.42,-103.79"/>
</g>
<!-- ParentListComponent -->
<g id="node10" class="node">
<title>ParentListComponent</title>
<polygon fill="#ffffb3" stroke="black" points="1848.37,-84.8 1709.63,-84.8 1709.63,-48.8 1848.37,-48.8 1848.37,-84.8"/>
<text text-anchor="middle" x="1779" y="-62.6" font-family="Times,serif" font-size="14.00">ParentListComponent</text>
</g>
<!-- ParentListComponent&#45;&gt;SchoolModule -->
<g id="edge10" class="edge">
<title>ParentListComponent&#45;&gt;SchoolModule</title>
<path fill="none" stroke="black" d="M1830.61,-84.91C1830.61,-84.91 1830.61,-103.79 1830.61,-103.79"/>
<polygon fill="black" stroke="black" points="1827.11,-103.79 1830.61,-113.79 1834.11,-103.79 1827.11,-103.79"/>
</g>
<!-- PeriodComponent -->
<g id="node11" class="node">
<title>PeriodComponent</title>
<polygon fill="#ffffb3" stroke="black" points="1691.88,-84.8 1574.12,-84.8 1574.12,-48.8 1691.88,-48.8 1691.88,-84.8"/>
<text text-anchor="middle" x="1633" y="-62.6" font-family="Times,serif" font-size="14.00">PeriodComponent</text>
</g>
<!-- PeriodComponent&#45;&gt;SchoolModule -->
<g id="edge11" class="edge">
<title>PeriodComponent&#45;&gt;SchoolModule</title>
<path fill="none" stroke="black" d="M1633,-84.92C1633,-99.58 1633,-117.8 1633,-117.8 1633,-117.8 1802.59,-117.8 1802.59,-117.8"/>
<polygon fill="black" stroke="black" points="1802.59,-121.3 1812.59,-117.8 1802.59,-114.3 1802.59,-121.3"/>
</g>
<!-- SchoolAdminComponent -->
<g id="node12" class="node">
<title>SchoolAdminComponent</title>
<polygon fill="#ffffb3" stroke="black" points="1556.61,-84.8 1397.39,-84.8 1397.39,-48.8 1556.61,-48.8 1556.61,-84.8"/>
<text text-anchor="middle" x="1477" y="-62.6" font-family="Times,serif" font-size="14.00">SchoolAdminComponent</text>
</g>
<!-- SchoolAdminComponent&#45;&gt;SchoolModule -->
<g id="edge12" class="edge">
<title>SchoolAdminComponent&#45;&gt;SchoolModule</title>
<path fill="none" stroke="black" d="M1477,-85.08C1477,-100.75 1477,-120.8 1477,-120.8 1477,-120.8 1802.46,-120.8 1802.46,-120.8"/>
<polygon fill="black" stroke="black" points="1802.46,-124.3 1812.46,-120.8 1802.46,-117.3 1802.46,-124.3"/>
</g>
<!-- SchoolComponent -->
<g id="node13" class="node">
<title>SchoolComponent</title>
<polygon fill="#ffffb3" stroke="black" points="1379.22,-84.8 1258.78,-84.8 1258.78,-48.8 1379.22,-48.8 1379.22,-84.8"/>
<text text-anchor="middle" x="1319" y="-62.6" font-family="Times,serif" font-size="14.00">SchoolComponent</text>
</g>
<!-- SchoolComponent&#45;&gt;SchoolModule -->
<g id="edge13" class="edge">
<title>SchoolComponent&#45;&gt;SchoolModule</title>
<path fill="none" stroke="black" d="M1319,-84.84C1319,-101.53 1319,-123.8 1319,-123.8 1319,-123.8 1802.37,-123.8 1802.37,-123.8"/>
<polygon fill="black" stroke="black" points="1802.37,-127.3 1812.37,-123.8 1802.37,-120.3 1802.37,-127.3"/>
</g>
<!-- SchoolGradeBookComponent -->
<g id="node14" class="node">
<title>SchoolGradeBookComponent</title>
<polygon fill="#ffffb3" stroke="black" points="1241.25,-84.8 1056.75,-84.8 1056.75,-48.8 1241.25,-48.8 1241.25,-84.8"/>
<text text-anchor="middle" x="1149" y="-62.6" font-family="Times,serif" font-size="14.00">SchoolGradeBookComponent</text>
</g>
<!-- SchoolGradeBookComponent&#45;&gt;SchoolModule -->
<g id="edge14" class="edge">
<title>SchoolGradeBookComponent&#45;&gt;SchoolModule</title>
<path fill="none" stroke="black" d="M1149,-85.1C1149,-103.07 1149,-127.8 1149,-127.8 1149,-127.8 1802.71,-127.8 1802.71,-127.8"/>
<polygon fill="black" stroke="black" points="1802.71,-131.3 1812.71,-127.8 1802.71,-124.3 1802.71,-131.3"/>
</g>
<!-- StudentDetailComponent -->
<g id="node15" class="node">
<title>StudentDetailComponent</title>
<polygon fill="#ffffb3" stroke="black" points="1038.32,-84.8 879.68,-84.8 879.68,-48.8 1038.32,-48.8 1038.32,-84.8"/>
<text text-anchor="middle" x="959" y="-62.6" font-family="Times,serif" font-size="14.00">StudentDetailComponent</text>
</g>
<!-- StudentDetailComponent&#45;&gt;SchoolModule -->
<g id="edge15" class="edge">
<title>StudentDetailComponent&#45;&gt;SchoolModule</title>
<path fill="none" stroke="black" d="M959,-84.97C959,-103.89 959,-130.8 959,-130.8 959,-130.8 1802.49,-130.8 1802.49,-130.8"/>
<polygon fill="black" stroke="black" points="1802.49,-134.3 1812.49,-130.8 1802.49,-127.3 1802.49,-134.3"/>
</g>
<!-- StudentListComponent -->
<g id="node16" class="node">
<title>StudentListComponent</title>
<polygon fill="#ffffb3" stroke="black" points="861.89,-84.8 716.11,-84.8 716.11,-48.8 861.89,-48.8 861.89,-84.8"/>
<text text-anchor="middle" x="789" y="-62.6" font-family="Times,serif" font-size="14.00">StudentListComponent</text>
</g>
<!-- StudentListComponent&#45;&gt;SchoolModule -->
<g id="edge16" class="edge">
<title>StudentListComponent&#45;&gt;SchoolModule</title>
<path fill="none" stroke="black" d="M789,-85.11C789,-104.95 789,-133.8 789,-133.8 789,-133.8 1802.75,-133.8 1802.75,-133.8"/>
<polygon fill="black" stroke="black" points="1802.75,-137.3 1812.75,-133.8 1802.75,-130.3 1802.75,-137.3"/>
</g>
<!-- StudentResultSheetComponent -->
<g id="node17" class="node">
<title>StudentResultSheetComponent</title>
<polygon fill="#ffffb3" stroke="black" points="698.49,-84.8 507.51,-84.8 507.51,-48.8 698.49,-48.8 698.49,-84.8"/>
<text text-anchor="middle" x="603" y="-62.6" font-family="Times,serif" font-size="14.00">StudentResultSheetComponent</text>
</g>
<!-- StudentResultSheetComponent&#45;&gt;SchoolModule -->
<g id="edge17" class="edge">
<title>StudentResultSheetComponent&#45;&gt;SchoolModule</title>
<path fill="none" stroke="black" d="M603,-84.83C603,-105.57 603,-136.8 603,-136.8 603,-136.8 1802.65,-136.8 1802.65,-136.8"/>
<polygon fill="black" stroke="black" points="1802.65,-140.3 1812.65,-136.8 1802.65,-133.3 1802.65,-140.3"/>
</g>
<!-- StudentSheetComponent -->
<g id="node18" class="node">
<title>StudentSheetComponent</title>
<polygon fill="#ffffb3" stroke="black" points="489.71,-84.8 334.29,-84.8 334.29,-48.8 489.71,-48.8 489.71,-84.8"/>
<text text-anchor="middle" x="412" y="-62.6" font-family="Times,serif" font-size="14.00">StudentSheetComponent</text>
</g>
<!-- StudentSheetComponent&#45;&gt;SchoolModule -->
<g id="edge18" class="edge">
<title>StudentSheetComponent&#45;&gt;SchoolModule</title>
<path fill="none" stroke="black" d="M412,-85.09C412,-107.01 412,-140.8 412,-140.8 412,-140.8 1802.51,-140.8 1802.51,-140.8"/>
<polygon fill="black" stroke="black" points="1802.51,-144.3 1812.51,-140.8 1802.51,-137.3 1802.51,-144.3"/>
</g>
<!-- TeachersComponent -->
<g id="node19" class="node">
<title>TeachersComponent</title>
<polygon fill="#ffffb3" stroke="black" points="315.85,-84.8 184.15,-84.8 184.15,-48.8 315.85,-48.8 315.85,-84.8"/>
<text text-anchor="middle" x="250" y="-62.6" font-family="Times,serif" font-size="14.00">TeachersComponent</text>
</g>
<!-- TeachersComponent&#45;&gt;SchoolModule -->
<g id="edge19" class="edge">
<title>TeachersComponent&#45;&gt;SchoolModule</title>
<path fill="none" stroke="black" d="M250,-85.05C250,-107.82 250,-143.8 250,-143.8 250,-143.8 1802.43,-143.8 1802.43,-143.8"/>
<polygon fill="black" stroke="black" points="1802.43,-147.3 1812.43,-143.8 1802.43,-140.3 1802.43,-147.3"/>
</g>
<!-- TimeTableComponent -->
<g id="node20" class="node">
<title>TimeTableComponent</title>
<polygon fill="#ffffb3" stroke="black" points="166.25,-84.8 23.75,-84.8 23.75,-48.8 166.25,-48.8 166.25,-84.8"/>
<text text-anchor="middle" x="95" y="-62.6" font-family="Times,serif" font-size="14.00">TimeTableComponent</text>
</g>
<!-- TimeTableComponent&#45;&gt;SchoolModule -->
<g id="edge20" class="edge">
<title>TimeTableComponent&#45;&gt;SchoolModule</title>
<path fill="none" stroke="black" d="M95,-84.95C95,-108.56 95,-146.8 95,-146.8 95,-146.8 1802.43,-146.8 1802.43,-146.8"/>
<polygon fill="black" stroke="black" points="1802.43,-150.3 1812.43,-146.8 1802.43,-143.3 1802.43,-150.3"/>
</g>
<!-- SchoolRoutingModule -->
<g id="node22" class="node">
<title>SchoolRoutingModule</title>
<polygon fill="#8dd3c7" stroke="black" points="3857.56,-84.8 3854.56,-88.8 3833.56,-88.8 3830.56,-84.8 3714.44,-84.8 3714.44,-48.8 3857.56,-48.8 3857.56,-84.8"/>
<text text-anchor="middle" x="3786" y="-62.6" font-family="Times,serif" font-size="14.00">SchoolRoutingModule</text>
</g>
<!-- SchoolRoutingModule&#45;&gt;SchoolModule -->
<g id="edge21" class="edge">
<title>SchoolRoutingModule&#45;&gt;SchoolModule</title>
<path fill="none" stroke="black" d="M3786,-84.95C3786,-108.56 3786,-146.8 3786,-146.8 3786,-146.8 1921.49,-146.8 1921.49,-146.8"/>
<polygon fill="black" stroke="black" points="1921.49,-143.3 1911.49,-146.8 1921.49,-150.3 1921.49,-143.3"/>
</g>
<!-- SharedModule -->
<g id="node23" class="node">
<title>SharedModule</title>
<polygon fill="#8dd3c7" stroke="black" points="3696.42,-84.8 3693.42,-88.8 3672.42,-88.8 3669.42,-84.8 3597.58,-84.8 3597.58,-48.8 3696.42,-48.8 3696.42,-84.8"/>
<text text-anchor="middle" x="3647" y="-62.6" font-family="Times,serif" font-size="14.00">SharedModule</text>
</g>
<!-- SharedModule&#45;&gt;SchoolModule -->
<g id="edge22" class="edge">
<title>SharedModule&#45;&gt;SchoolModule</title>
<path fill="none" stroke="black" d="M3647,-85.05C3647,-107.82 3647,-143.8 3647,-143.8 3647,-143.8 1921.6,-143.8 1921.6,-143.8"/>
<polygon fill="black" stroke="black" points="1921.6,-140.3 1911.6,-143.8 1921.6,-147.3 1921.6,-140.3"/>
</g>
</g>
</svg>
