<?xml version="1.0" encoding="UTF-8" standalone="no"?>
<!DOCTYPE svg PUBLIC "-//W3C//DTD SVG 1.1//EN"
 "http://www.w3.org/Graphics/SVG/1.1/DTD/svg11.dtd">
<!-- Generated by graphviz version 2.47.3 (20210619.1520)
 -->
<!-- Title: dependencies Pages: 1 -->
<svg width="1349pt" height="174pt"
 viewBox="0.00 0.00 1349.00 173.80" xmlns="http://www.w3.org/2000/svg" xmlns:xlink="http://www.w3.org/1999/xlink">
<g id="graph0" class="graph" transform="scale(1 1) rotate(0) translate(4 169.8)">
<title>dependencies</title>
<polygon fill="white" stroke="transparent" points="-4,4 -4,-169.8 1345,-169.8 1345,4 -4,4"/>
<text text-anchor="middle" x="670.5" y="-8.2" font-family="sans-serif" font-size="14.00">dependencies</text>
<g id="clust1" class="cluster">
<title>cluster_SchoolSubscriptionModule</title>
<polygon fill="none" stroke="black" stroke-dasharray="1,5" points="8,-32.8 8,-157.8 1333,-157.8 1333,-32.8 8,-32.8"/>
</g>
<g id="clust2" class="cluster">
<title>cluster_SchoolSubscriptionModule_declarations</title>
<polygon fill="none" stroke="black" points="254,-40.8 254,-92.8 1325,-92.8 1325,-40.8 254,-40.8"/>
</g>
<g id="clust8" class="cluster">
<title>cluster_SchoolSubscriptionModule_imports</title>
<polygon fill="none" stroke="black" points="16,-40.8 16,-92.8 246,-92.8 246,-40.8 16,-40.8"/>
</g>
<!-- SubscriptionInvoiceArreasComponent -->
<g id="node1" class="node">
<title>SubscriptionInvoiceArreasComponent</title>
<polygon fill="#ffffb3" stroke="black" points="1316.89,-84.8 1085.11,-84.8 1085.11,-48.8 1316.89,-48.8 1316.89,-84.8"/>
<text text-anchor="middle" x="1201" y="-62.6" font-family="Times,serif" font-size="14.00">SubscriptionInvoiceArreasComponent</text>
</g>
<!-- SchoolSubscriptionModule -->
<g id="node6" class="node">
<title>SchoolSubscriptionModule</title>
<polygon fill="#8dd3c7" stroke="black" points="750.71,-149.8 747.71,-153.8 726.71,-153.8 723.71,-149.8 581.29,-149.8 581.29,-113.8 750.71,-113.8 750.71,-149.8"/>
<text text-anchor="middle" x="666" y="-127.6" font-family="Times,serif" font-size="14.00">SchoolSubscriptionModule</text>
</g>
<!-- SubscriptionInvoiceArreasComponent&#45;&gt;SchoolSubscriptionModule -->
<g id="edge1" class="edge">
<title>SubscriptionInvoiceArreasComponent&#45;&gt;SchoolSubscriptionModule</title>
<path fill="none" stroke="black" d="M1201,-85.08C1201,-106.12 1201,-137.8 1201,-137.8 1201,-137.8 760.77,-137.8 760.77,-137.8"/>
<polygon fill="black" stroke="black" points="760.77,-134.3 750.77,-137.8 760.77,-141.3 760.77,-134.3"/>
</g>
<!-- SubscriptionInvoiceComponent -->
<g id="node2" class="node">
<title>SubscriptionInvoiceComponent</title>
<polygon fill="#ffffb3" stroke="black" points="1067.09,-84.8 872.91,-84.8 872.91,-48.8 1067.09,-48.8 1067.09,-84.8"/>
<text text-anchor="middle" x="970" y="-62.6" font-family="Times,serif" font-size="14.00">SubscriptionInvoiceComponent</text>
</g>
<!-- SubscriptionInvoiceComponent&#45;&gt;SchoolSubscriptionModule -->
<g id="edge2" class="edge">
<title>SubscriptionInvoiceComponent&#45;&gt;SchoolSubscriptionModule</title>
<path fill="none" stroke="black" d="M970,-84.82C970,-102.17 970,-125.8 970,-125.8 970,-125.8 760.68,-125.8 760.68,-125.8"/>
<polygon fill="black" stroke="black" points="760.68,-122.3 750.68,-125.8 760.68,-129.3 760.68,-122.3"/>
</g>
<!-- SubscriptionListsComponent -->
<g id="node3" class="node">
<title>SubscriptionListsComponent</title>
<polygon fill="#ffffb3" stroke="black" points="854.83,-84.8 675.17,-84.8 675.17,-48.8 854.83,-48.8 854.83,-84.8"/>
<text text-anchor="middle" x="765" y="-62.6" font-family="Times,serif" font-size="14.00">SubscriptionListsComponent</text>
</g>
<!-- SubscriptionListsComponent&#45;&gt;SchoolSubscriptionModule -->
<g id="edge3" class="edge">
<title>SubscriptionListsComponent&#45;&gt;SchoolSubscriptionModule</title>
<path fill="none" stroke="black" d="M712.97,-84.91C712.97,-84.91 712.97,-103.79 712.97,-103.79"/>
<polygon fill="black" stroke="black" points="709.47,-103.79 712.97,-113.79 716.47,-103.79 709.47,-103.79"/>
</g>
<!-- SubscriptionPageComponent -->
<g id="node4" class="node">
<title>SubscriptionPageComponent</title>
<polygon fill="#ffffb3" stroke="black" points="657.82,-84.8 478.18,-84.8 478.18,-48.8 657.82,-48.8 657.82,-84.8"/>
<text text-anchor="middle" x="568" y="-62.6" font-family="Times,serif" font-size="14.00">SubscriptionPageComponent</text>
</g>
<!-- SubscriptionPageComponent&#45;&gt;SchoolSubscriptionModule -->
<g id="edge4" class="edge">
<title>SubscriptionPageComponent&#45;&gt;SchoolSubscriptionModule</title>
<path fill="none" stroke="black" d="M619.53,-84.91C619.53,-84.91 619.53,-103.79 619.53,-103.79"/>
<polygon fill="black" stroke="black" points="616.03,-103.79 619.53,-113.79 623.03,-103.79 616.03,-103.79"/>
</g>
<!-- UnpaidSubscriptionsComponent -->
<g id="node5" class="node">
<title>UnpaidSubscriptionsComponent</title>
<polygon fill="#ffffb3" stroke="black" points="460.26,-84.8 261.74,-84.8 261.74,-48.8 460.26,-48.8 460.26,-84.8"/>
<text text-anchor="middle" x="361" y="-62.6" font-family="Times,serif" font-size="14.00">UnpaidSubscriptionsComponent</text>
</g>
<!-- UnpaidSubscriptionsComponent&#45;&gt;SchoolSubscriptionModule -->
<g id="edge5" class="edge">
<title>UnpaidSubscriptionsComponent&#45;&gt;SchoolSubscriptionModule</title>
<path fill="none" stroke="black" d="M361,-84.82C361,-102.17 361,-125.8 361,-125.8 361,-125.8 571.04,-125.8 571.04,-125.8"/>
<polygon fill="black" stroke="black" points="571.04,-129.3 581.04,-125.8 571.04,-122.3 571.04,-129.3"/>
</g>
<!-- SchoolSubscriptionRoutingModule -->
<g id="node7" class="node">
<title>SchoolSubscriptionRoutingModule</title>
<polygon fill="#8dd3c7" stroke="black" points="238.33,-84.8 235.33,-88.8 214.33,-88.8 211.33,-84.8 23.67,-84.8 23.67,-48.8 238.33,-48.8 238.33,-84.8"/>
<text text-anchor="middle" x="131" y="-62.6" font-family="Times,serif" font-size="14.00">SchoolSubscriptionRoutingModule</text>
</g>
<!-- SchoolSubscriptionRoutingModule&#45;&gt;SchoolSubscriptionModule -->
<g id="edge6" class="edge">
<title>SchoolSubscriptionRoutingModule&#45;&gt;SchoolSubscriptionModule</title>
<path fill="none" stroke="black" d="M131,-85.08C131,-106.12 131,-137.8 131,-137.8 131,-137.8 571.23,-137.8 571.23,-137.8"/>
<polygon fill="black" stroke="black" points="571.23,-141.3 581.23,-137.8 571.23,-134.3 571.23,-141.3"/>
</g>
</g>
</svg>
