<?xml version="1.0" encoding="UTF-8" standalone="no"?>
<!DOCTYPE svg PUBLIC "-//W3C//DTD SVG 1.1//EN"
 "http://www.w3.org/Graphics/SVG/1.1/DTD/svg11.dtd">
<!-- Generated by graphviz version 2.47.3 (20210619.1520)
 -->
<!-- Title: dependencies Pages: 1 -->
<svg width="1038pt" height="174pt"
 viewBox="0.00 0.00 1038.00 173.80" xmlns="http://www.w3.org/2000/svg" xmlns:xlink="http://www.w3.org/1999/xlink">
<g id="graph0" class="graph" transform="scale(1 1) rotate(0) translate(4 169.8)">
<title>dependencies</title>
<polygon fill="white" stroke="transparent" points="-4,4 -4,-169.8 1034,-169.8 1034,4 -4,4"/>
<text text-anchor="middle" x="515" y="-8.2" font-family="sans-serif" font-size="14.00">dependencies</text>
<g id="clust1" class="cluster">
<title>cluster_CreateBranchModule</title>
<polygon fill="none" stroke="black" stroke-dasharray="1,5" points="8,-32.8 8,-157.8 1022,-157.8 1022,-32.8 8,-32.8"/>
</g>
<g id="clust2" class="cluster">
<title>cluster_CreateBranchModule_declarations</title>
<polygon fill="none" stroke="black" points="222,-40.8 222,-92.8 1014,-92.8 1014,-40.8 222,-40.8"/>
</g>
<g id="clust7" class="cluster">
<title>cluster_CreateBranchModule_imports</title>
<polygon fill="none" stroke="black" points="16,-40.8 16,-92.8 214,-92.8 214,-40.8 16,-40.8"/>
</g>
<!-- BranchContactPersonComponent -->
<g id="node1" class="node">
<title>BranchContactPersonComponent</title>
<polygon fill="#ffffb3" stroke="black" points="1005.91,-84.8 802.09,-84.8 802.09,-48.8 1005.91,-48.8 1005.91,-84.8"/>
<text text-anchor="middle" x="904" y="-62.6" font-family="Times,serif" font-size="14.00">BranchContactPersonComponent</text>
</g>
<!-- CreateBranchModule -->
<g id="node5" class="node">
<title>CreateBranchModule</title>
<polygon fill="#8dd3c7" stroke="black" points="560.01,-149.8 557.01,-153.8 536.01,-153.8 533.01,-149.8 423.99,-149.8 423.99,-113.8 560.01,-113.8 560.01,-149.8"/>
<text text-anchor="middle" x="492" y="-127.6" font-family="Times,serif" font-size="14.00">CreateBranchModule</text>
</g>
<!-- BranchContactPersonComponent&#45;&gt;CreateBranchModule -->
<g id="edge1" class="edge">
<title>BranchContactPersonComponent&#45;&gt;CreateBranchModule</title>
<path fill="none" stroke="black" d="M904,-85.08C904,-106.12 904,-137.8 904,-137.8 904,-137.8 570.03,-137.8 570.03,-137.8"/>
<polygon fill="black" stroke="black" points="570.03,-134.3 560.03,-137.8 570.03,-141.3 570.03,-134.3"/>
</g>
<!-- BranchInformationComponent -->
<g id="node2" class="node">
<title>BranchInformationComponent</title>
<polygon fill="#ffffb3" stroke="black" points="784.13,-84.8 595.87,-84.8 595.87,-48.8 784.13,-48.8 784.13,-84.8"/>
<text text-anchor="middle" x="690" y="-62.6" font-family="Times,serif" font-size="14.00">BranchInformationComponent</text>
</g>
<!-- BranchInformationComponent&#45;&gt;CreateBranchModule -->
<g id="edge2" class="edge">
<title>BranchInformationComponent&#45;&gt;CreateBranchModule</title>
<path fill="none" stroke="black" d="M690,-84.82C690,-102.17 690,-125.8 690,-125.8 690,-125.8 570.14,-125.8 570.14,-125.8"/>
<polygon fill="black" stroke="black" points="570.14,-122.3 560.14,-125.8 570.14,-129.3 570.14,-122.3"/>
</g>
<!-- BranchLocationComponent -->
<g id="node3" class="node">
<title>BranchLocationComponent</title>
<polygon fill="#ffffb3" stroke="black" points="577.52,-84.8 406.48,-84.8 406.48,-48.8 577.52,-48.8 577.52,-84.8"/>
<text text-anchor="middle" x="492" y="-62.6" font-family="Times,serif" font-size="14.00">BranchLocationComponent</text>
</g>
<!-- BranchLocationComponent&#45;&gt;CreateBranchModule -->
<g id="edge3" class="edge">
<title>BranchLocationComponent&#45;&gt;CreateBranchModule</title>
<path fill="none" stroke="black" d="M492,-84.91C492,-84.91 492,-103.79 492,-103.79"/>
<polygon fill="black" stroke="black" points="488.5,-103.79 492,-113.79 495.5,-103.79 488.5,-103.79"/>
</g>
<!-- CreateBranchComponent -->
<g id="node4" class="node">
<title>CreateBranchComponent</title>
<polygon fill="#ffffb3" stroke="black" points="388.29,-84.8 229.71,-84.8 229.71,-48.8 388.29,-48.8 388.29,-84.8"/>
<text text-anchor="middle" x="309" y="-62.6" font-family="Times,serif" font-size="14.00">CreateBranchComponent</text>
</g>
<!-- CreateBranchComponent&#45;&gt;CreateBranchModule -->
<g id="edge4" class="edge">
<title>CreateBranchComponent&#45;&gt;CreateBranchModule</title>
<path fill="none" stroke="black" d="M309,-84.82C309,-102.17 309,-125.8 309,-125.8 309,-125.8 413.86,-125.8 413.86,-125.8"/>
<polygon fill="black" stroke="black" points="413.86,-129.3 423.86,-125.8 413.86,-122.3 413.86,-129.3"/>
</g>
<!-- CreateBranchRoutingModule -->
<g id="node6" class="node">
<title>CreateBranchRoutingModule</title>
<polygon fill="#8dd3c7" stroke="black" points="205.63,-84.8 202.63,-88.8 181.63,-88.8 178.63,-84.8 24.37,-84.8 24.37,-48.8 205.63,-48.8 205.63,-84.8"/>
<text text-anchor="middle" x="115" y="-62.6" font-family="Times,serif" font-size="14.00">CreateBranchRoutingModule</text>
</g>
<!-- CreateBranchRoutingModule&#45;&gt;CreateBranchModule -->
<g id="edge5" class="edge">
<title>CreateBranchRoutingModule&#45;&gt;CreateBranchModule</title>
<path fill="none" stroke="black" d="M115,-85.08C115,-106.12 115,-137.8 115,-137.8 115,-137.8 413.73,-137.8 413.73,-137.8"/>
<polygon fill="black" stroke="black" points="413.73,-141.3 423.73,-137.8 413.73,-134.3 413.73,-141.3"/>
</g>
</g>
</svg>
